<svg xmlns="http://www.w3.org/2000/svg" viewBox="0 0 636.446 29.743">
  <defs>
    <style>.cls-1 {
      fill: #5b6e80;
    }

    .cls-2 {
      fill: #fff;
    }</style>
  </defs>
  <path class="cls-1"
        d="M4.009,28.631a2.391,2.391,0,0,1-2.472-2.415,2.191,2.191,0,0,1,1.9-2.237c3.226-.449,4.454-1.7,4.994-3.161l-3.184.061A2.2,2.2,0,0,1,2.9,18.662a2.375,2.375,0,0,1,.575-1.584,1.466,1.466,0,0,1-.169.01A2.347,2.347,0,0,1,1,14.7a2.29,2.29,0,0,1,1.454-2.136,19.411,19.411,0,0,0,3.287-1.788,2.419,2.419,0,0,1-.326-.3,10.657,10.657,0,0,0-2.208-1.75,1.974,1.974,0,0,1-1.075-1.72A2.364,2.364,0,0,1,4.546,4.763a2.577,2.577,0,0,1,.751.131,2.336,2.336,0,0,1-.026-.348A2.155,2.155,0,0,1,7.46,2.329h3.989c1.631,0,3.624,0,4.4,1.757a2.234,2.234,0,0,1,.734.558c.139.16.275.319.414.476A11.845,11.845,0,0,0,18.21,3.593a2.069,2.069,0,0,1,1.782-1.009A2.54,2.54,0,0,1,22.464,5a2.045,2.045,0,0,1-.212.85,2.046,2.046,0,0,1,1.3-.464,2.587,2.587,0,0,1,2.471,2.442c0,.848-.64,1.74-2.218,3.026A19.017,19.017,0,0,0,26.2,12.021a2.308,2.308,0,0,1,1.531,2.115,2.533,2.533,0,0,1-2.585,2.471,2.99,2.99,0,0,1-.694-.091,2.321,2.321,0,0,1,.544,3.834,2.4,2.4,0,0,1,1.971,2.5c0,4.748-3.6,5.356-6.743,5.356-1.423,0-5.753,0-5.753-4.281,0-.307,0-1.569.016-3.141l-1.209-.011c-.91,4.231-3.725,6.78-8.582,7.781A4.35,4.35,0,0,1,4.009,28.631Zm15.1-7.8c-.014,1.347-.014,2.4-.014,2.7a.288.288,0,0,0,.014.051,4.3,4.3,0,0,0,1.334.109c1.688,0,1.688-.375,1.688-1.122a2.238,2.238,0,0,1,.718-1.693Zm4.3-4.528a2.706,2.706,0,0,1,.486.042A15.578,15.578,0,0,1,20.384,14.3a2.165,2.165,0,0,1-1.209.672c0,.126-.014,1.019-.017,1.354Zm-8.886.028c0-.463,0-.9.007-1.31h-.95v1.31Zm-5.6-.006V14.945a2.246,2.246,0,0,1-.636-.266,24.47,24.47,0,0,1-2.714,1.628Zm7.115-5.794c-.568-.568-1.115-1.145-1.626-1.716q-.708.891-1.464,1.716Zm-7.708-3.8c.3.242.479.407.485.414a2.742,2.742,0,0,1,.446.652c.38-.4.7-.772.953-1.09Q9.36,6.725,8.328,6.731Z"/>
  <path class="cls-2"
        d="M11.449,3.329c1.811,0,3.253.028,3.621,1.585a1.026,1.026,0,0,1,.764.4c.367.424.735.848,1.131,1.273a15.137,15.137,0,0,0,2.094-2.461,1.069,1.069,0,0,1,.933-.538A1.53,1.53,0,0,1,21.464,5c0,.962-2.179,2.8-2.773,3.281.453.424.877.792,1.358,1.189a16.122,16.122,0,0,0,2.6-2.6,1.093,1.093,0,0,1,.906-.481,1.578,1.578,0,0,1,1.471,1.442c0,.623-.933,1.613-2.97,3.112a20.893,20.893,0,0,0,3.762,2.009,1.315,1.315,0,0,1,.906,1.188,1.544,1.544,0,0,1-1.585,1.471c-1.16,0-3.395-1.471-5.177-2.885v.056a1.225,1.225,0,0,1-1.329,1.245h-.453c0,.849-.029,2.037-.029,3.31l5.262-.028a1.276,1.276,0,0,1,1.358,1.3,1.231,1.231,0,0,1-1.33,1.273h-.028l-5.29-.057c-.028,1.811-.028,3.339-.028,3.706.056,1.047.962,1.16,2.348,1.16,1.811,0,2.688-.453,2.688-2.122a1.206,1.206,0,0,1,1.3-1.272,1.441,1.441,0,0,1,1.528,1.556c0,3.338-1.9,4.356-5.743,4.356-1.528,0-4.753-.028-4.753-3.281,0-.368,0-2.122.028-4.131l-3.055-.028c-.509,3.451-2.32,6.648-7.95,7.808a3.066,3.066,0,0,1-.48.057,1.381,1.381,0,0,1-1.472-1.415,1.193,1.193,0,0,1,1.019-1.244c4.272-.6,5.715-2.6,6.167-5.178l-4.5.085H5.2a1.18,1.18,0,0,1-1.3-1.217,1.3,1.3,0,0,1,1.329-1.357l4.7.028v-3.31H9.582a1.248,1.248,0,0,1-1.188-.651c-2.207,1.642-4.47,2.716-5.092,2.716A1.353,1.353,0,0,1,2,14.7a1.3,1.3,0,0,1,.849-1.217C8.733,11,11.9,6.271,11.9,5.961c0-.2-.17-.283-.452-.283-1.047.028-2.377.056-3.989.056A1.142,1.142,0,0,1,6.271,4.546,1.15,1.15,0,0,1,7.46,3.329h3.989m-.9,8.2H18.55a41.942,41.942,0,0,1-4.188-4.3,30.393,30.393,0,0,1-3.818,4.3m5.007,2.49H12.58v2.66c0,.225.028.423.028.65h2.914c0-1.273,0-2.461.029-3.31m-11-8.26c1.132,0,3.479,2.008,3.564,2.092a1.324,1.324,0,0,1,.369.877A1.538,1.538,0,0,1,7.008,10.2a1.094,1.094,0,0,1-.85-.4A11.666,11.666,0,0,0,3.7,7.855a.981.981,0,0,1-.565-.848A1.375,1.375,0,0,1,4.546,5.763m6.9-4.434H7.488a3.123,3.123,0,0,0-3.13,2.439A3.369,3.369,0,0,0,1.132,7.007,2.984,2.984,0,0,0,2.706,9.593a10.333,10.333,0,0,1,1.413,1.022,17.739,17.739,0,0,1-2.05,1.028A3.307,3.307,0,0,0,0,14.7a3.393,3.393,0,0,0,2,3.111,3.476,3.476,0,0,0-.1.849,3.188,3.188,0,0,0,3.3,3.217h.065l1.23-.024A6.564,6.564,0,0,1,3.28,22.991,3.172,3.172,0,0,0,.537,26.216a3.368,3.368,0,0,0,3.472,3.415,4.813,4.813,0,0,0,.806-.083l.037-.007.041-.008c4.242-.874,7.113-2.936,8.573-6.148v.54c0,2.409,1.171,5.281,6.753,5.281,1.915,0,7.743,0,7.743-6.356a3.406,3.406,0,0,0-1.451-2.925,3.353,3.353,0,0,0,.262-1.319,3.41,3.41,0,0,0-.239-1.271,3.48,3.48,0,0,0,2.192-3.2A3.288,3.288,0,0,0,26.579,11.1c-.348-.141-.69-.293-1.031-.456a3.964,3.964,0,0,0,1.48-2.815,3.547,3.547,0,0,0-3.471-3.442c-.052,0-.1,0-.154,0a3.566,3.566,0,0,0-3.411-2.8,3.072,3.072,0,0,0-2.616,1.457,6.89,6.89,0,0,1-.419.582,3.7,3.7,0,0,0-.345-.252c-1.112-2.042-3.6-2.042-5.163-2.042ZM20.1,22.685c0-.244,0-.527.005-.841l1.1.011a3.521,3.521,0,0,0-.071.711c0,.031,0,.058,0,.083a4.742,4.742,0,0,1-.686.039c-.132,0-.247,0-.347,0Z"/>
  <path class="cls-1"
        d="M33.428,28.461a2.419,2.419,0,0,1-2.443-2.443,2.242,2.242,0,0,1,2.086-2.268c4.105-.43,5.984-2.5,6.09-6.726a2.45,2.45,0,0,1,.358-1.239l-2.057.03a3.149,3.149,0,0,0-.648.063c0,.05-.007.113-.01.191v1.094a2.281,2.281,0,0,1-2.387,2.217c-2.329,0-2.329-2.168-2.329-3.094,0-1.159,0-4.063,3.012-4.615a2.159,2.159,0,0,1,.1-3.441l-.893,0A2.1,2.1,0,0,1,32.146,6.1a2.1,2.1,0,0,1,2.159-2.131h7.629V3.414a2.472,2.472,0,0,1,4.942,0v.557h7.571a2.071,2.071,0,0,1,2.1,2.131,2.071,2.071,0,0,1-2.1,2.131l-.913,0a2.129,2.129,0,0,1,.9,1.748,2.106,2.106,0,0,1-.881,1.756,3.645,3.645,0,0,1,3.059,3.475c.028.312.029.736.029,1.162,0,.854,0,3.122-2.443,3.122a2.243,2.243,0,0,1-2.386-2.188c0-.6,0-1.172-.035-1.467-.172-.017-.413-.021-.511-.023-.873-.01-1.834-.022-2.842-.031a2.154,2.154,0,0,1,.324,1.153c0,.509-.012,1.427-.025,2.42-.015,1.157-.031,2.415-.031,3.238a2.6,2.6,0,0,0,.067.835,8.557,8.557,0,0,0,1.563.089c2.338,0,2.338-.571,2.338-1.433a2.151,2.151,0,0,1,2.3-2.189,2.321,2.321,0,0,1,2.5,2.386c0,5.725-5.161,5.725-7.365,5.725-2.129,0-6.092,0-6.092-4.31,0-1.08.028-5.873.058-6.793a2.326,2.326,0,0,1,.385-1.145h-.989a2.189,2.189,0,0,1,.4,1.262c0,4.9-2.638,10.475-10.042,11.4l-.062.008h-.062A1.106,1.106,0,0,1,33.428,28.461Z"/>
  <path class="cls-2"
        d="M44.4,2a1.377,1.377,0,0,1,1.472,1.414V4.971h8.571a1.074,1.074,0,0,1,1.1,1.131,1.074,1.074,0,0,1-1.1,1.131l-8.571-.028V8.9l6.45-.028a1.118,1.118,0,0,1,0,2.235h-15.9a1.118,1.118,0,1,1,0-2.235l6.507.028v-1.7l-8.629.028a1.131,1.131,0,1,1,0-2.262h8.629V3.414A1.376,1.376,0,0,1,44.4,2m.368,10.5c2.546,0,5.092.028,7.526.085,1.527.028,3.253.792,3.309,2.659.029.34.029.736.029,1.132,0,.934,0,2.122-1.443,2.122a1.263,1.263,0,0,1-1.386-1.188v-.057c0-2.263,0-2.4-1.528-2.433-2.235-.028-5.036-.056-7.723-.056-2.235,0-4.385.028-6.111.056-1.527.029-1.612.481-1.64,1.216v1.16a1.28,1.28,0,0,1-1.387,1.189c-1.329,0-1.329-1.047-1.329-2.094,0-1.584.113-3.678,3.026-3.706,2.8-.057,5.743-.085,8.657-.085m1.669,3.254a1.2,1.2,0,0,1,1.3,1.188c0,1.1-.056,4.13-.056,5.658,0,1.64.225,1.924,2.63,1.924,2.631,0,3.338-.792,3.338-2.433a1.173,1.173,0,0,1,1.3-1.189,1.361,1.361,0,0,1,1.5,1.386c0,3.989-2.772,4.725-6.365,4.725-3.056,0-5.092-.424-5.092-3.31,0-1.1.028-5.856.057-6.761a1.292,1.292,0,0,1,1.385-1.188m-5.006,0a1.335,1.335,0,0,1,1.414,1.272c0,1.246-.142,9.28-9.166,10.412-.085,0-.17.028-.255.028a1.41,1.41,0,0,1-1.443-1.443,1.241,1.241,0,0,1,1.189-1.273c4.865-.51,6.874-3.225,6.987-7.695a1.236,1.236,0,0,1,1.274-1.3M44.4,0A3.364,3.364,0,0,0,40.96,2.971H34.305a3.131,3.131,0,0,0-.891,6.141,3.156,3.156,0,0,0-.119.866,3.282,3.282,0,0,0,.206,1.16c-1.6.821-2.412,2.543-2.412,5.148,0,3.384,1.81,4.094,3.329,4.094a3.258,3.258,0,0,0,3.387-3.189V16.81l.367-.006c0,.061-.008.122-.01.183-.094,3.724-1.6,5.392-5.2,5.769a3.253,3.253,0,0,0-2.98,3.262,3.407,3.407,0,0,0,3.443,3.443,2.642,2.642,0,0,0,.374-.028h.006l.124-.016c4.523-.567,7.41-2.728,9.071-5.458.166,5.049,5.18,5.049,7.088,5.049,2.069,0,8.365,0,8.365-6.725a3.234,3.234,0,0,0-1.644-2.933,4.69,4.69,0,0,0,.824-2.979c0-.413,0-.84-.032-1.248a4.49,4.49,0,0,0-2.445-3.846,3.255,3.255,0,0,0,.153-2.163A3.088,3.088,0,0,0,57.551,6.1a3.084,3.084,0,0,0-3.1-3.131h-6.6A3.365,3.365,0,0,0,44.4,0Zm5.283,22.509c0-.819.017-2.027.031-3.139.013-1,.025-1.921.025-2.433,0-.047,0-.094,0-.14l1.066.013c0,.144,0,.294,0,.438v.057A3.12,3.12,0,0,0,52.4,20.023a3.146,3.146,0,0,0-.744,2.063,2.21,2.21,0,0,1-.016.3,4.516,4.516,0,0,1-1.322.136c-.259,0-.466,0-.63-.01Z"/>
  <path class="cls-1"
        d="M80.021,27.923c-2.377,0-6.269,0-6.823-3.734,0,.149-.009.293-.014.432a3.279,3.279,0,0,1-3.337,3.216c-.836.029-1.753.058-2.67.058-.78,0-1.53-.029-2.194-.058a3.145,3.145,0,0,1-3.049-3.211c0-.387-.007-.752-.015-1.113s-.014-.731-.014-1.088c0-.372.008-.737.015-1.089.007-.317.014-.625.014-.919a3.147,3.147,0,0,1,1.558-2.745,2.056,2.056,0,0,1-1.275-1.923,2.241,2.241,0,0,1,1-1.861,2.066,2.066,0,0,1-1-1.788,2.26,2.26,0,0,1,.665-1.59,2.114,2.114,0,0,1-1.995-2.116,2.216,2.216,0,0,1,2.029-2.232,2.08,2.08,0,0,1-.756-1.616A2.209,2.209,0,0,1,64.4,2.329H70.77a2.126,2.126,0,0,1,2.188,2.16,2.194,2.194,0,0,1-.753,1.659h.065a2.145,2.145,0,0,1,2.244,2.189,2.137,2.137,0,0,1-2.1,2.185,2.139,2.139,0,0,1,.606,1.521,2.172,2.172,0,0,1-.981,1.827,2.113,2.113,0,0,1,.981,1.822A2.138,2.138,0,0,1,71.6,17.729a3.038,3.038,0,0,1,1.486,1.821c.01-1.891.064-3.877.112-5.085a3.748,3.748,0,0,1,4.07-3.62h.009c.548,0,1.125.007,1.706.013s1.169.015,1.72.015c.265,0,.674,0,.893-.027a13.283,13.283,0,0,0,.059-1.632c0-.613-.027-1.274-.082-2.02h0a14.894,14.894,0,0,0-1.832-.063c-1.2,0-2.446.024-3.786.05l-.324.007A2.211,2.211,0,0,1,73.277,5a2.287,2.287,0,0,1,2.3-2.272C76.751,2.7,78,2.7,79.285,2.7c.944,0,1.916,0,2.86.029A3.831,3.831,0,0,1,86.2,6.782c.029.705.029,1.739.029,2.687,0,2.336,0,5.865-4.112,5.865h-2.8a13.288,13.288,0,0,0-1.489.049l0,.026c-.033.731-.111,2.666-.111,4.612,0,1.044,0,2.032.055,2.847a.633.633,0,0,0,.033.218c.092.08.527.234,2.306.234,2.577,0,2.82-.333,2.82-1.885a2.239,2.239,0,0,1,2.329-2.3,2.4,2.4,0,0,1,2.528,2.527C87.782,27.923,82.54,27.923,80.021,27.923Zm-13.745-4.33c.215.021.578.039,1.184.039a12.714,12.714,0,0,0,1.308-.04c.012-.322.011-.7.011-1.054,0-.4,0-.8-.014-1.142-.345-.036-.949-.036-1.277-.036h-.071c-.38,0-.775,0-1.141.018-.023.265-.023.7-.023,1.132,0,.257.008.512.015.758C66.271,23.379,66.274,23.487,66.276,23.593Z"/>
  <path class="cls-2"
        d="M70.77,3.329a1.12,1.12,0,0,1,1.188,1.16,1.134,1.134,0,0,1-1.188,1.16H64.4a1.111,1.111,0,0,1-1.244-1.1A1.212,1.212,0,0,1,64.4,3.329H70.77m8.515.368c.934,0,1.9,0,2.829.029A2.852,2.852,0,0,1,85.2,6.81c.029.707.029,1.725.029,2.659,0,2.517-.029,4.865-3.112,4.865h-2.8c-1.952,0-2.432.028-2.489,1.019-.056,1.245-.113,3-.113,4.668,0,1.046,0,2.065.057,2.914.056,1.131.82,1.385,3.337,1.385,2.631,0,3.82-.395,3.82-2.885a1.235,1.235,0,0,1,1.329-1.3,1.428,1.428,0,0,1,1.528,1.527c0,5.036-3.791,5.262-6.761,5.262-3.367,0-5.772-.4-5.884-3.451-.029-.821-.057-2.009-.057-3.31,0-1.98.057-4.216.113-5.658.056-1.245.821-2.631,3.083-2.659,1.076,0,2.321.028,3.423.028,1.9,0,1.952-.057,1.952-2.659,0-.651-.028-1.33-.085-2.094-.085-.962-.565-.99-2.829-.99-1.3,0-2.659.028-4.13.057h-.028A1.191,1.191,0,0,1,74.277,5a1.278,1.278,0,0,1,1.33-1.273C76.768,3.7,78.012,3.7,79.285,3.7M72.27,7.148a1.19,1.19,0,1,1,0,2.377H63.188a1.15,1.15,0,0,1-1.3-1.131,1.234,1.234,0,0,1,1.3-1.246H72.27m-1.444,3.735a1.12,1.12,0,0,1,1.189,1.16,1.136,1.136,0,0,1-1.189,1.16H64.461a1.111,1.111,0,0,1-1.244-1.1,1.212,1.212,0,0,1,1.244-1.217h6.365m0,3.649a1.121,1.121,0,0,1,1.189,1.16,1.136,1.136,0,0,1-1.189,1.16H64.461a1.111,1.111,0,0,1-1.244-1.1,1.212,1.212,0,0,1,1.244-1.217h6.365M67.488,18.21c.849,0,1.669.028,2.405.057a2.252,2.252,0,0,1,2.292,2.008c.028.651.028,1.414.028,2.178s0,1.5-.028,2.122a2.3,2.3,0,0,1-2.377,2.263c-.821.028-1.726.057-2.631.057-.764,0-1.5-.029-2.15-.057A2.154,2.154,0,0,1,62.934,24.6c0-.736-.029-1.471-.029-2.179s.029-1.386.029-2.008A2.088,2.088,0,0,1,65,18.267c.792-.029,1.641-.057,2.489-.057m-.028,6.422c1.414,0,2.235,0,2.291-.707.028-.4.028-.905.028-1.387,0-.509,0-1.018-.028-1.414-.056-.707-.48-.764-2.263-.764-.481,0-.99,0-1.442.029-.793.056-.793.565-.793,2.121,0,.51.028,1.018.028,1.443.029.537.312.679,2.179.679m3.31-23.3H64.4A3.2,3.2,0,0,0,61.16,4.546a3.13,3.13,0,0,0,.205,1.127,3.2,3.2,0,0,0-1.478,2.721,3.04,3.04,0,0,0,1.5,2.655,3.271,3.271,0,0,0-.171,1.051,3.058,3.058,0,0,0,.57,1.8,3.212,3.212,0,0,0-.57,1.845,3.039,3.039,0,0,0,.694,1.963,4.257,4.257,0,0,0-.977,2.652v.053c0,.288-.007.588-.013.9-.008.359-.016.731-.016,1.11,0,.363.007.734.015,1.107.007.355.014.713.014,1.072a4.16,4.16,0,0,0,3.962,4.23c.743.032,1.5.061,2.281.061.945,0,1.889-.03,2.7-.058A4.471,4.471,0,0,0,73.418,27c1.783,1.926,4.97,1.926,6.6,1.926,2.4,0,8.761,0,8.761-7.262a3.416,3.416,0,0,0-3.528-3.527,3.242,3.242,0,0,0-3.329,3.3,2.585,2.585,0,0,1-.075.729,5.583,5.583,0,0,1-1.745.156c-.658,0-1.088-.02-1.369-.046-.025-.673-.025-1.446-.025-2.253,0-1.375.04-2.746.074-3.685.189,0,.377,0,.528,0h2.8c5.112,0,5.112-4.637,5.112-6.865,0-.98,0-1.992-.03-2.74a4.837,4.837,0,0,0-5.022-5c-.963-.03-1.942-.03-2.889-.03-1.307,0-2.542,0-3.726.029a3.466,3.466,0,0,0-2.212.856A3.154,3.154,0,0,0,70.77,1.329Zm4.809,6.858h.067l.325-.006c1.327-.026,2.581-.05,3.766-.05.264,0,.59,0,.888,0,.018.38.026.737.026,1.079,0,.188,0,.427,0,.659-.532,0-1.1-.007-1.657-.014-.588-.007-1.173-.014-1.715-.014a5.834,5.834,0,0,0-2.479.538,3.177,3.177,0,0,0,.717-2.046c0-.051,0-.1,0-.151ZM67.253,22.36h.526v.27h-.526V22.36Z"/>
  <path class="cls-1"
        d="M104.319,28.319c-2.654,0-6.29,0-6.29-4.084,0-.272,0-.554.007-.841-1.012,1.82-2.849,3.794-4.523,3.794a2.273,2.273,0,0,1-1.148-4.33,6.515,6.515,0,0,0,2-2.366,2.19,2.19,0,0,1,2.116-1.613,2.437,2.437,0,0,1,1.712.738,2.241,2.241,0,0,1,2.306-1.643,2.627,2.627,0,0,1,.919.16,2.532,2.532,0,0,1,2.221-1.377,3.324,3.324,0,0,1,1.365.5,2.1,2.1,0,0,1,.435-.531,9.091,9.091,0,0,0,1.011-1.05h-.491c-2.315,0-5.9.028-7.736.056a2.061,2.061,0,0,1-2.2-2.075,2.335,2.335,0,0,1,.022-.325,6.28,6.28,0,0,1-2.7,1.127,2.375,2.375,0,0,1-.848-4.55,29.262,29.262,0,0,0,8.548-6.777,4.074,4.074,0,0,1,3.078-1.536,4.607,4.607,0,0,1,3.143,1.4,33.455,33.455,0,0,0,8.984,6.16,2.191,2.191,0,0,1,1.377,2.041,2.549,2.549,0,0,1-2.528,2.5c-1.086,0-3.169-1.2-5.415-2.872a2.055,2.055,0,0,1-.529.607c1.787.15,2.927,1.21,2.927,2.764,0,2.06-2.3,4.749-3.105,5.529a2.469,2.469,0,0,1-1.148.6,1.653,1.653,0,0,1,.038.354,2.238,2.238,0,0,1-.142.777,2.331,2.331,0,0,1,1.627-.726c0-.045,0-.09,0-.136a2.363,2.363,0,0,1,2.357-2.244c1.512,0,5.951,3.31,5.951,5.611a2.371,2.371,0,0,1-4.448,1.24,9.231,9.231,0,0,0-1.2-1.574C111.643,28.319,106.543,28.319,104.319,28.319Zm-1.574-7.254c-.044.721-.085,1.449-.085,2.039a2.086,2.086,0,0,0,.069.743,12.045,12.045,0,0,0,1.732.068c2.706,0,2.706-.433,2.706-.98a2.312,2.312,0,0,1,.121-.75,2.512,2.512,0,0,1-1.893.9,2.063,2.063,0,0,1-1.786-1.014A5.209,5.209,0,0,0,102.745,21.065Zm-4-9.644.64-.017a1.992,1.992,0,0,1-.273-.27Zm7.089-3.8c-.466-.43-.918-.862-1.348-1.292-.046-.046-.086-.085-.121-.118l-.049.057c-.381.434-.806.888-1.264,1.353Z"/>
  <path class="cls-2"
        d="M104.122,2.594a3.629,3.629,0,0,1,2.461,1.132,34.506,34.506,0,0,0,9.251,6.336,1.2,1.2,0,0,1,.792,1.132,1.533,1.533,0,0,1-1.528,1.5c-1.244,0-5.8-2.97-9.9-7.072-.339-.34-.593-.538-.848-.538-.226,0-.481.17-.792.538a38.136,38.136,0,0,1-3.027,3.027.876.876,0,0,1,.283-.028h6.959a1.133,1.133,0,1,1,0,2.263h-6.959a1.108,1.108,0,0,1-1.188-1.1.9.9,0,0,1,.056-.395c-2.32,1.952-5.319,4.073-6.336,4.073a1.376,1.376,0,0,1-.453-2.631A30.167,30.167,0,0,0,101.8,3.782a3.073,3.073,0,0,1,2.32-1.188m.4,9.76c1.64,0,3.2.028,4.271.056,1.443.028,2.292.708,2.292,1.782,0,1.557-1.924,3.961-2.8,4.81a1.415,1.415,0,0,1-.962.368c-.763,0-1.555-.6-1.555-1.217a.928.928,0,0,1,.339-.678c1.782-1.613,1.782-2.377,1.782-2.434,0-.226-.141-.367-.509-.367h-1.414c-2.32,0-5.913.028-7.752.056h-.028a1.063,1.063,0,0,1-1.16-1.075,1.2,1.2,0,0,1,1.188-1.217c1.556-.056,4.018-.084,6.309-.084m-.877,5.4c.566,0,3.225,1.755,3.225,2.914a1.508,1.508,0,0,1-1.471,1.415,1.066,1.066,0,0,1-.934-.538,8.04,8.04,0,0,0-1.867-1.924.874.874,0,0,1-.367-.679,1.417,1.417,0,0,1,1.414-1.188m-3.14,1.217a1.169,1.169,0,0,1,1.3,1.075v.056c-.057.991-.142,2.123-.142,3,0,1.7.4,1.811,2.8,1.811,2.631,0,3.706-.4,3.706-1.98a1.217,1.217,0,0,1,1.33-1.217,1.345,1.345,0,0,1,1.527,1.358c0,4.158-4.129,4.243-6.7,4.243-3.2,0-5.29-.226-5.29-3.084V24.15c0-1.215.057-2.772.114-4.1a1.218,1.218,0,0,1,1.358-1.075m11.2.368c1.019,0,4.951,2.914,4.951,4.611a1.445,1.445,0,0,1-1.386,1.471,1.419,1.419,0,0,1-1.216-.764,9.922,9.922,0,0,0-3.226-3.282.947.947,0,0,1-.48-.792,1.36,1.36,0,0,1,1.357-1.244m-15.22.537a1.311,1.311,0,0,1,1.33,1.245c0,1.442-2.546,5.064-4.3,5.064a1.28,1.28,0,0,1-.651-2.461,7.274,7.274,0,0,0,2.461-2.943,1.183,1.183,0,0,1,1.16-.9M104.122.594a5.057,5.057,0,0,0-3.839,1.887A28.174,28.174,0,0,1,92.073,9a3.374,3.374,0,0,0,1.271,6.456,4.786,4.786,0,0,0,1.927-.558,3.088,3.088,0,0,0,2.91,1.831h.059c.746-.011,1.838-.023,3.03-.033a3.419,3.419,0,0,0-.3.307,3.7,3.7,0,0,0-.474-.03,3.431,3.431,0,0,0-2.664,1.185,3.384,3.384,0,0,0-1.354-.28,3.2,3.2,0,0,0-3.065,2.3,5.874,5.874,0,0,1-1.586,1.835,3.268,3.268,0,0,0,1.681,6.176,5.573,5.573,0,0,0,3.786-2.07c1.041,3.2,4.837,3.2,7.02,3.2,1.767,0,6.5,0,8.136-3.45a3.36,3.36,0,0,0,2.813,1.555,3.433,3.433,0,0,0,3.386-3.471c0-2.846-4.458-6.22-6.6-6.58a6.613,6.613,0,0,0,1.031-3.181v-.07a5.154,5.154,0,0,0,2.018.571,3.517,3.517,0,0,0,3.528-3.5,3.2,3.2,0,0,0-1.97-2.955,32.4,32.4,0,0,1-8.69-5.958A5.591,5.591,0,0,0,104.122.594Z"/>
  <path class="cls-1"
        d="M134.155,28.073a2.254,2.254,0,0,1-1.623-.681,2.731,2.731,0,0,1-.726-2.047c.011-1.207.068-2.541.125-3.876.058-1.366.118-2.766.125-4.024a36.984,36.984,0,0,1-6.084,4.589,3.836,3.836,0,0,1-2,.623,2.52,2.52,0,0,1-2.505-1.9,2.432,2.432,0,0,1,1.392-2.735A31.266,31.266,0,0,0,134.34,7.374a17.189,17.189,0,0,0,.923-2.043A2.377,2.377,0,0,1,137.6,3.8a2.777,2.777,0,0,1,2.355,1.21,2.4,2.4,0,0,1,.068,2.373c-.076.155-.138.295-.2.432a10.3,10.3,0,0,1-1.286,2.2c-.754,1-1.364,1.785-1.923,2.481v0c.3.812.277,1.263.193,3.161-.113,2.187-.085,6.428,0,9.491a2.66,2.66,0,0,1-2.384,2.916A2.372,2.372,0,0,1,134.155,28.073Z"/>
  <path class="cls-2"
        d="M137.6,4.8c1.042,0,2.146.827,1.518,2.155a11.057,11.057,0,0,1-1.386,2.462c-.792,1.047-1.556,2.036-2.32,2.97a1.082,1.082,0,0,1,.254.425c.227.622.227.877.142,2.8-.114,2.206-.085,6.507,0,9.562a1.653,1.653,0,0,1-1.5,1.895,1.275,1.275,0,0,1-.151.009c-.689,0-1.376-.545-1.349-1.706.028-3.027.34-6.761.226-9.448a7.046,7.046,0,0,0-.056-.793,35.666,35.666,0,0,1-7.525,6.055,2.867,2.867,0,0,1-1.48.477,1.426,1.426,0,0,1-.67-2.741A32.08,32.08,0,0,0,135.183,7.912,17.861,17.861,0,0,0,136.2,5.678a1.4,1.4,0,0,1,1.4-.883m0-2a3.4,3.4,0,0,0-3.28,2.212,17.132,17.132,0,0,1-.829,1.843A30.177,30.177,0,0,1,122.42,17.121a3.416,3.416,0,0,0-1.928,3.861,3.517,3.517,0,0,0,3.479,2.676,4.816,4.816,0,0,0,2.525-.772A39.053,39.053,0,0,0,131,19.7c-.021.572-.046,1.152-.07,1.727-.056,1.317-.115,2.679-.126,3.923a3.755,3.755,0,0,0,1.011,2.741,3.274,3.274,0,0,0,2.718.961,3.648,3.648,0,0,0,3.269-3.925c-.083-2.981-.111-7.285,0-9.416a10.645,10.645,0,0,0-.081-3.012c.474-.6.993-1.273,1.6-2.079a11.423,11.423,0,0,0,1.408-2.4c.059-.129.118-.261.186-.4a3.413,3.413,0,0,0-.12-3.348A3.783,3.783,0,0,0,137.6,2.8Z"/>
  <path class="cls-1"
        d="M166.432,24.55a2.887,2.887,0,0,1-1.414-.377,30.37,30.37,0,0,1-4.385-3.422l-.936-.814c-1.89-1.652-4.034-3.524-5.336-4.488-.507-.38-.755-.459-.874-.459a1.792,1.792,0,0,0-.826.469c-1.789,1.437-3.167,2.53-4.558,3.467a2.849,2.849,0,0,1-1.572.5,2.606,2.606,0,0,1-2.517-1.952,2.672,2.672,0,0,1,1.485-3.047c.644-.376,2.647-1.543,4.311-2.764a5.432,5.432,0,0,1,7.254-.035c.686.5,1.637,1.256,2.738,2.136.767.612,1.6,1.278,2.444,1.934a64.176,64.176,0,0,0,5.78,4.059,2.308,2.308,0,0,1,1.11,1.533,2.753,2.753,0,0,1-.472,2.151A2.794,2.794,0,0,1,166.432,24.55Zm-4.013-9.862a1.935,1.935,0,0,1-1.5-.734,10.447,10.447,0,0,0-2.029-1.474,1.925,1.925,0,0,1-1.274-2.166,2.247,2.247,0,0,1,2.2-1.738,2.37,2.37,0,0,1,.5.055,1.842,1.842,0,0,1-.043-.861,2.246,2.246,0,0,1,2.216-1.778,2.42,2.42,0,0,1,.75.12,10.238,10.238,0,0,1,3.4,1.913,2.3,2.3,0,0,1,.524,2.535A2.254,2.254,0,0,1,165.148,12a1.85,1.85,0,0,1-.563-.088,2.346,2.346,0,0,1-2.166,2.78Z"/>
  <path class="cls-2"
        d="M162.494,6.992a1.428,1.428,0,0,1,.44.071,9.319,9.319,0,0,1,3,1.669A1.321,1.321,0,0,1,165.148,11a.96.96,0,0,1-.715-.34,9.986,9.986,0,0,0-2.461-1.669c-1.336-.5-.629-1.995.522-1.995m-2.676,2.584a1.385,1.385,0,0,1,.485.09,9.655,9.655,0,0,1,2.941,1.782,1.325,1.325,0,0,1-.825,2.24.935.935,0,0,1-.731-.373,10.694,10.694,0,0,0-2.4-1.753c-1.315-.546-.583-1.986.534-1.986m-6.357,1.678a5.235,5.235,0,0,1,3.022,1.184c1.132.821,3.113,2.462,5.149,4.046a64.86,64.86,0,0,0,5.885,4.13,1.528,1.528,0,0,1,.338,2.236,1.778,1.778,0,0,1-1.424.7,1.874,1.874,0,0,1-.923-.247,35.838,35.838,0,0,1-4.81-3.819c-2.009-1.754-4.328-3.791-5.742-4.837a2.55,2.55,0,0,0-1.469-.656,2.427,2.427,0,0,0-1.445.684c-1.726,1.386-3.112,2.489-4.5,3.423a1.83,1.83,0,0,1-1.013.326,1.612,1.612,0,0,1-.543-3.127c.679-.4,2.716-1.584,4.413-2.829a5.25,5.25,0,0,1,3.06-1.213m9.033-6.262h0a3.258,3.258,0,0,0-3.2,2.6l0,.029a3.248,3.248,0,0,0-2.652,2.5l-.008.041a6.34,6.34,0,0,0-3.167-.906h0a7.108,7.108,0,0,0-4.234,1.594c-1.63,1.2-3.6,2.343-4.246,2.72a3.677,3.677,0,0,0-1.935,4.155,3.608,3.608,0,0,0,3.485,2.7,3.838,3.838,0,0,0,2.117-.659c1.437-.967,2.831-2.073,4.646-3.531.088-.069.159-.121.215-.161.064.041.145.1.247.174,1.279.947,3.406,2.8,5.283,4.443l.344.3.593.515a31.181,31.181,0,0,0,4.528,3.527,3.918,3.918,0,0,0,1.927.517,3.718,3.718,0,0,0,3.683-4.467,3.3,3.3,0,0,0-1.592-2.2,59.15,59.15,0,0,1-4.952-3.434,3.408,3.408,0,0,0,2-2.487,3.328,3.328,0,0,0,1.776-5.646,11.067,11.067,0,0,0-3.8-2.158,3.39,3.39,0,0,0-1.052-.168Z"/>
  <path class="cls-1"
        d="M178.328,26.434a2.685,2.685,0,0,1-2.807-2.532,2.263,2.263,0,0,1,2.041-2.443,8.694,8.694,0,0,0,1.893-.632A26.544,26.544,0,0,0,191.522,8.839a2.519,2.519,0,0,1,4.408-.2,2.793,2.793,0,0,1-.1,2.806,33.107,33.107,0,0,1-14.1,13.953,7.046,7.046,0,0,1-3.105,1.018C178.528,26.429,178.427,26.434,178.328,26.434Zm2.717-11.229a2.689,2.689,0,0,1-1.585-.543,10.691,10.691,0,0,0-3.638-1.754,2.164,2.164,0,0,1-1.723-2.417A2.54,2.54,0,0,1,176.666,8.2a3.123,3.123,0,0,1,.768.1,18.54,18.54,0,0,1,4.959,2.02,2.532,2.532,0,0,1,1.194,1.806,2.806,2.806,0,0,1-.4,1.86A2.527,2.527,0,0,1,181.045,15.205Z"/>
  <path class="cls-2"
        d="M193.775,8.436c1.026,0,2.008,1.029,1.181,2.532a31.931,31.931,0,0,1-13.692,13.551,6.085,6.085,0,0,1-2.715.905c-.076.006-.15.009-.221.009-2.148,0-2.409-2.788-.657-2.98a9.761,9.761,0,0,0,2.179-.707A27.681,27.681,0,0,0,192.41,9.3a1.52,1.52,0,0,1,1.365-.863M176.666,9.2a2.125,2.125,0,0,1,.524.068,17.387,17.387,0,0,1,4.668,1.895,1.624,1.624,0,0,1,.481,2.291,1.547,1.547,0,0,1-1.295.749,1.69,1.69,0,0,1-1-.352,11.68,11.68,0,0,0-4.018-1.924c-1.55-.337-1.094-2.727.636-2.727m17.109-2.767h0a3.506,3.506,0,0,0-3.137,1.935,25.535,25.535,0,0,1-11.614,11.553,8.6,8.6,0,0,1-1.557.54,3.241,3.241,0,0,0-2.945,3.493,3.705,3.705,0,0,0,3.806,3.476c.126,0,.256,0,.389-.016a7.967,7.967,0,0,0,3.483-1.131,34.071,34.071,0,0,0,14.508-14.353,3.763,3.763,0,0,0,.082-3.8,3.506,3.506,0,0,0-3.015-1.7ZM176.666,7.2h0a3.567,3.567,0,0,0-3.562,3.181,3.175,3.175,0,0,0,2.5,3.5,9.667,9.667,0,0,1,3.28,1.6,3.67,3.67,0,0,0,2.158.725,3.521,3.521,0,0,0,2.991-1.69,3.767,3.767,0,0,0,.542-2.532,3.523,3.523,0,0,0-1.659-2.514A19.475,19.475,0,0,0,177.7,7.337a4.227,4.227,0,0,0-1.035-.134Z"/>
  <path class="cls-1"
        d="M204.894,28.356a2.329,2.329,0,0,1-1.7-.713,2.7,2.7,0,0,1-.693-2.066c.169-4.586.226-13.448.112-17.553a11.753,11.753,0,0,0-.224-2.16,2.3,2.3,0,0,1,.379-2.025,2.6,2.6,0,0,1,2.054-.946,2.459,2.459,0,0,1,2.527,2.145l.05.348a11.335,11.335,0,0,1,.072,2.315c-.024.941-.028,2.224-.029,3.708,1.606.219,5.212,1.035,6.89,2.838a2.6,2.6,0,0,1,.483,2.839,2.567,2.567,0,0,1-2.31,1.6,2.437,2.437,0,0,1-1.685-.705,9.3,9.3,0,0,0-3.367-1.61c.029,3.159.079,6.5.131,8.809a2.867,2.867,0,0,1-2.421,3.167A2.4,2.4,0,0,1,204.894,28.356Z"/>
  <path class="cls-2"
        d="M204.821,3.893a1.458,1.458,0,0,1,1.534,1.275,9.921,9.921,0,0,1,.114,2.519c-.029,1.13-.029,2.772-.029,4.667a1.122,1.122,0,0,1,.23-.022,1.444,1.444,0,0,1,.251.022c1.415.141,5.149.933,6.677,2.575a1.646,1.646,0,0,1-1.1,2.752,1.447,1.447,0,0,1-1-.433,11.161,11.161,0,0,0-5.064-2.122c.029,3.649.085,7.554.142,10.071a1.9,1.9,0,0,1-1.527,2.151c-.054.005-.108.008-.162.008-.738,0-1.448-.548-1.4-1.734.17-4.611.227-13.522.113-17.625a12.626,12.626,0,0,0-.255-2.376,1.368,1.368,0,0,1,1.465-1.728m0-2a3.606,3.606,0,0,0-2.845,1.332,3.285,3.285,0,0,0-.558,2.887,11,11,0,0,1,.194,1.948c.113,4.08.056,12.91-.113,17.488a3.739,3.739,0,0,0,.971,2.786,3.317,3.317,0,0,0,2.423,1.022,3.365,3.365,0,0,0,.375-.02,3.879,3.879,0,0,0,3.314-4.181c-.045-1.962-.087-4.676-.117-7.387a5.848,5.848,0,0,1,1.662.93,3.421,3.421,0,0,0,2.375.983,3.643,3.643,0,0,0,2.566-6.108c-1.7-1.827-4.845-2.662-6.627-3,0-1.124.009-2.1.027-2.833a12.468,12.468,0,0,0-.082-2.5c-.014-.089-.03-.194-.048-.332a3.436,3.436,0,0,0-3.517-3.01Z"/>
  <path class="cls-1"
        d="M224.149,27.188a2.476,2.476,0,0,1-2.337-1.909,21.638,21.638,0,0,1-.9-6.475,32.42,32.42,0,0,1,.205-3.8c.2-1.874.5-3.587.77-5.1.182-1.03.34-1.92.418-2.618a2.278,2.278,0,0,1,2.3-2.218,2.437,2.437,0,0,1,2.47,2.387v.088l-.027.178v.081l-.013.041c-.107.653-.292,1.485-.507,2.448-.195.875-.412,1.848-.6,2.841-.216,1.093-.372,2.036-.473,2.842a1.8,1.8,0,0,1,1.188-.438,2.245,2.245,0,0,1,2.188,2.188,2.135,2.135,0,0,1-.247.985,17.956,17.956,0,0,0-2.13,5.128,3.151,3.151,0,0,0,.035.383,5,5,0,0,1,.05.633A2.39,2.39,0,0,1,224.149,27.188Zm9.194-.057c-2.868,0-5.385-2.12-5.385-4.536,0-2.447,2.447-4.028,6.234-4.028a13.138,13.138,0,0,1,1.654.113c-.011-.334-.035-.7-.075-1.111-.083-.9-.2-2.5-.292-4.363a7.593,7.593,0,0,0-3.463,1.55,2.335,2.335,0,0,1-1.586.663,2.361,2.361,0,0,1-2.3-2.357c0-1.856,2.178-3.183,7.246-4.39.011-.931.038-1.78.083-2.491a2.325,2.325,0,0,1,4.629.006v.195l-.006.053c-.041.387-.087.842-.125,1.33.1-.016.2-.033.3-.048a2.6,2.6,0,0,1,.523-.04,2.283,2.283,0,0,1,2.444,2.216,2.474,2.474,0,0,1-2.4,2.349c-.328.043-.648.085-.957.128.039,1.847.121,3.492.234,4.7.1.933.207,1.907.228,2.89a11.812,11.812,0,0,1,2.927,1.894,2.577,2.577,0,0,1,.868,1.9,2.5,2.5,0,0,1-2.444,2.584,2.343,2.343,0,0,1-1.752-.829,8.93,8.93,0,0,0-1.073-.963A7.558,7.558,0,0,1,233.343,27.131Z"/>
  <path class="cls-2"
        d="M237.757,5.083a1.216,1.216,0,0,1,1.329,1.1v.141c-.085.792-.17,1.7-.2,2.631q.721-.127,1.528-.255a1.813,1.813,0,0,1,.367-.027,1.293,1.293,0,0,1,1.444,1.216c0,.594-.482,1.216-1.529,1.358-.65.085-1.272.169-1.839.254.029,2.094.114,4.159.255,5.658a29.1,29.1,0,0,1,.227,3.141v.31a11.269,11.269,0,0,1,3.253,1.981,1.585,1.585,0,0,1,.538,1.16,1.513,1.513,0,0,1-1.444,1.584,1.366,1.366,0,0,1-1.018-.509,9.64,9.64,0,0,0-2.036-1.642,6.542,6.542,0,0,1-5.291,2.943c-2.32,0-4.385-1.7-4.385-3.536,0-2.15,2.631-3.028,5.234-3.028a14.09,14.09,0,0,1,2.631.284,6.979,6.979,0,0,0,.029-.792c0-.481-.029-.991-.085-1.584-.114-1.217-.255-3.311-.34-5.517-2.943.622-4.3,1.329-5.092,2.065a1.348,1.348,0,0,1-.905.4,1.366,1.366,0,0,1-1.3-1.357c0-.624.4-2.066,7.242-3.593,0-1.189.028-2.321.085-3.226a1.209,1.209,0,0,1,1.3-1.16m-4.725,18.672a4.14,4.14,0,0,0,3.14-1.641,9.243,9.243,0,0,0-2.433-.368c-2.207,0-2.319.707-2.319.962,0,.34.367,1.047,1.612,1.047M224.6,6.073a1.441,1.441,0,0,1,1.47,1.387c0,.057-.027.142-.027.227-.2,1.215-.708,3.2-1.1,5.261a27.656,27.656,0,0,0-.623,4.865c0,1.047.17,1.274.227,1.274.085,0,.226-.17.4-.509.792-1.726,1.245-2.037,1.7-2.037a1.234,1.234,0,0,1,1.188,1.188,1.171,1.171,0,0,1-.141.538,17.32,17.32,0,0,0-2.236,5.573c0,.339.085.679.085,1.018a1.377,1.377,0,0,1-1.386,1.33,1.5,1.5,0,0,1-1.386-1.216,20.705,20.705,0,0,1-.849-6.168,31.471,31.471,0,0,1,.2-3.678c.339-3.168.991-5.969,1.189-7.723a1.3,1.3,0,0,1,1.3-1.33m13.155-2.99a3.21,3.21,0,0,0-3.3,3.022c-.033.532-.058,1.132-.073,1.781-5.132,1.313-7.259,2.854-7.259,5.176a3.332,3.332,0,0,0,.423,1.618,3.082,3.082,0,0,0-.872-.139q.1-.567.225-1.206c.188-.984.406-1.96.6-2.822.217-.978.406-1.822.517-2.505l.026-.159V7.81a2.3,2.3,0,0,0,.027-.35,3.434,3.434,0,0,0-3.47-3.387,3.285,3.285,0,0,0-3.293,3.151c-.071.622-.226,1.5-.405,2.511-.256,1.452-.575,3.259-.78,5.178a33.122,33.122,0,0,0-.21,3.891,22.659,22.659,0,0,0,.941,6.767,3.482,3.482,0,0,0,3.294,2.617,3.362,3.362,0,0,0,3.386-3.33v-.044a6.667,6.667,0,0,0,5.808,3.317,8.555,8.555,0,0,0,5.578-2.222c.1.1.2.2.3.3a3.307,3.307,0,0,0,2.466,1.129,3.528,3.528,0,0,0,3.444-3.584,3.606,3.606,0,0,0-1.182-2.63,12.519,12.519,0,0,0-2.636-1.8c-.042-.811-.128-1.6-.211-2.377-.092-.967-.162-2.25-.206-3.706l.06-.008a3.48,3.48,0,0,0,3.27-3.341,3.276,3.276,0,0,0-3.168-3.207l.016-.145.011-.106V6.187a3.188,3.188,0,0,0-3.329-3.1ZM230.43,16.419a3.312,3.312,0,0,0,2.248-.913,5.293,5.293,0,0,1,1.87-.983c.074,1.279.156,2.357.22,3.058-.2-.009-.388-.014-.576-.014a10.167,10.167,0,0,0-4.455.9,3.029,3.029,0,0,0,.09-.734,3.1,3.1,0,0,0-.37-1.465,3.126,3.126,0,0,0,.973.155Zm2.35,7.42Z"/>
  <path class="cls-1"
        d="M251.074,27.353a2.42,2.42,0,0,1-2.506-1.958,2.773,2.773,0,0,1,2.024-3.032c5.481-1.983,9.5-7.382,11.14-10.989-1.353.119-3.059.358-4.6.573-.928.131-1.781.25-2.433.325-.53.061-.909.12-1.23.168a10.61,10.61,0,0,1-1.857.161c-.186,0-.392,0-.627-.012a2.633,2.633,0,0,1-2.594-2.655,2.446,2.446,0,0,1,2.662-2.375c.071,0,.145,0,.221.006.206.009.417.014.624.014.716,0,1.394-.053,2.111-.108l.617-.046c1.03-.074,2.375-.238,3.8-.413,1.787-.218,3.812-.466,5.6-.578.124-.008.243-.011.359-.011a3.62,3.62,0,0,1,3.2,1.518,3.118,3.118,0,0,1,.035,3.072c-2.926,5.963-6.742,12.611-15.03,16.014A3.985,3.985,0,0,1,251.074,27.353Z"/>
  <path class="cls-2"
        d="M264.389,7.423c2.17,0,3.147,1.5,2.335,3.148-2.971,6.055-6.592,12.279-14.513,15.532a3,3,0,0,1-1.137.249c-1.831,0-2.219-2.284-.136-3.05,5.941-2.15,10.467-8.261,12.051-12.334.186-.451-.1-.653-.441-.653l-.068,0c-2.178.114-5.941.736-7.893.962a22.316,22.316,0,0,1-2.972.322c-.176,0-.371,0-.593-.011a1.521,1.521,0,1,1,.033-3.031c.054,0,.109,0,.166,0,.233.011.459.016.68.016.961,0,1.834-.088,2.8-.157,2.377-.17,6.224-.792,9.393-.99.1-.006.2-.009.3-.009m0-2c-.135,0-.274,0-.415.012-1.827.114-3.868.364-5.669.585-1.41.172-2.742.335-3.747.407l-.623.047c-.7.054-1.356.1-2.034.1q-.288,0-.589-.013c-.074,0-.166-.007-.257-.007a3.445,3.445,0,0,0-3.662,3.354,3.626,3.626,0,0,0,3.548,3.675c.261.009.478.013.674.013a11.637,11.637,0,0,0,2.008-.172c.311-.048.678-.1,1.191-.163.662-.076,1.523-.2,2.46-.328.879-.123,1.813-.254,2.7-.365-1.893,3.246-5.35,7.269-9.716,8.848a3.8,3.8,0,0,0-2.673,4.148,3.432,3.432,0,0,0,3.49,2.783,4.975,4.975,0,0,0,1.9-.4c8.609-3.535,12.538-10.37,15.545-16.5a4.094,4.094,0,0,0-.084-4.039,4.587,4.587,0,0,0-4.046-1.99Z"/>
  <path class="cls-1"
        d="M277.414,27.791a2.209,2.209,0,0,1-2.129-2.424c.011-.81.045-1.675.079-2.545.025-.609.049-1.227.065-1.826a27.349,27.349,0,0,1-3.462,2.482,3.214,3.214,0,0,1-1.676.515,2.294,2.294,0,0,1-2.269-1.761,2.2,2.2,0,0,1,1.265-2.49c3.089-1.531,7.317-5.43,8.432-8.571a2.145,2.145,0,0,1,2.1-1.436,2.485,2.485,0,0,1,2.1,1.1A2.2,2.2,0,0,1,282,13a10.963,10.963,0,0,1-1.081,1.908l-.186.25c-.332.443-.655.875-.984,1.3a6.626,6.626,0,0,1,.081,2.136c-.081,1.484-.058,4.385,0,6.606a2.39,2.39,0,0,1-2.139,2.574A2.132,2.132,0,0,1,277.414,27.791Z"/>
  <path class="cls-2"
        d="M279.821,10.736a1.273,1.273,0,0,1,1.273,1.844,9.863,9.863,0,0,1-.99,1.754c-.509.68-.99,1.33-1.5,1.952a.863.863,0,0,1,.114.227,4.651,4.651,0,0,1,.113,2.037c-.085,1.555-.057,4.526,0,6.676a1.407,1.407,0,0,1-1.273,1.556,1.184,1.184,0,0,1-.144.009c-.617,0-1.129-.5-1.129-1.424.028-2.122.226-4.724.142-6.62v-.028a25.807,25.807,0,0,1-4.98,3.9,2.232,2.232,0,0,1-1.156.37,1.225,1.225,0,0,1-.569-2.35c3.2-1.584,7.694-5.629,8.939-9.138a1.162,1.162,0,0,1,1.16-.769m0-2a3.163,3.163,0,0,0-3.05,2.114c-1,2.818-5.017,6.553-7.937,8a3.18,3.18,0,0,0-1.787,3.6,3.289,3.289,0,0,0,3.244,2.538,4.189,4.189,0,0,0,2.2-.665c.649-.395,1.266-.8,1.86-1.227-.03.756-.058,1.525-.068,2.24a3.145,3.145,0,0,0,3.518,3.426,3.424,3.424,0,0,0,3.027-3.595c-.058-2.2-.081-5.068,0-6.513a11.224,11.224,0,0,0-.009-1.95c.238-.31.473-.625.715-.949l.171-.227.015-.021.015-.021a11.4,11.4,0,0,0,1.123-1.965l.039-.081a3.215,3.215,0,0,0-.133-3.15,3.492,3.492,0,0,0-2.943-1.559Z"/>
  <path class="cls-1"
        d="M290.19,27.711a2.459,2.459,0,0,1-2.526-2.029,2.612,2.612,0,0,1,2-2.849c6.151-2.07,10.3-7.42,12.806-11.87-.781.106-1.7.28-2.444.42l-.537.1a29.257,29.257,0,0,1-6.46,6.788,2.967,2.967,0,0,1-1.638.533,2.464,2.464,0,0,1-2.37-1.8,2.557,2.557,0,0,1,1.29-2.88,19.29,19.29,0,0,0,5.812-6.247,8.1,8.1,0,0,0,.981-2.049,2.535,2.535,0,0,1,2.5-1.925,2.6,2.6,0,0,1,1.971.882,2.345,2.345,0,0,1,.534,1.762,23.144,23.144,0,0,1,2.6-.372c.1-.006.2-.009.293-.009a3.851,3.851,0,0,1,3.408,1.716,2.811,2.811,0,0,1-.112,2.908c-4.837,8.291-9.141,13.677-16.824,16.665A3.569,3.569,0,0,1,290.19,27.711Z"/>
  <path class="cls-2"
        d="M299.6,4.907a1.423,1.423,0,0,1,1.5,1.676,4.647,4.647,0,0,1-.425,1.244c1.358-.225,2.829-.565,4.1-.65.076,0,.152-.007.227-.007,1.883,0,3.466,1.351,2.433,3.119-4.555,7.808-8.686,13.268-16.324,16.238a2.554,2.554,0,0,1-.917.184c-1.752,0-2.29-2.244-.214-2.928,5.968-2.009,10.608-7.1,13.862-13.24.282-.565.028-.679-.4-.679a42.21,42.21,0,0,0-4.526.707,29.128,29.128,0,0,1-6.45,6.875,1.936,1.936,0,0,1-1.076.358,1.467,1.467,0,0,1-.565-2.819,20.836,20.836,0,0,0,6.139-6.563,9.045,9.045,0,0,0,1.1-2.32,1.544,1.544,0,0,1,1.533-1.2m0-2a3.556,3.556,0,0,0-3.464,2.676,7.168,7.168,0,0,1-.845,1.743,18.382,18.382,0,0,1-5.5,5.951,3.527,3.527,0,0,0-1.728,4A3.465,3.465,0,0,0,291.39,19.8a3.957,3.957,0,0,0,2.185-.693,29.416,29.416,0,0,0,6.486-6.717l.15-.028.284-.054c-2.448,3.815-6.105,7.876-11.156,9.576a3.575,3.575,0,0,0-2.663,3.952,3.485,3.485,0,0,0,3.515,2.871,4.564,4.564,0,0,0,1.634-.316c7.964-3.1,12.385-8.615,17.334-17.1a3.821,3.821,0,0,0,.116-3.909A4.846,4.846,0,0,0,305,5.17c-.113,0-.227,0-.341.01-.549.037-1.106.11-1.662.2a3.3,3.3,0,0,0-.661-1.236A3.561,3.561,0,0,0,299.6,2.907Z"/>
  <path class="cls-1"
        d="M317.5,27.009a2.651,2.651,0,0,1-2.754-2.424,2.317,2.317,0,0,1,1.98-2.525,8.886,8.886,0,0,0,1.9-.622c4.855-2.376,9.408-6.956,12.482-12.563a2.522,2.522,0,0,1,2.231-1.368,2.479,2.479,0,0,1,2.153,1.224,2.779,2.779,0,0,1-.153,2.825A36.719,36.719,0,0,1,321.047,25.9a7.455,7.455,0,0,1-3.114,1.083A3.687,3.687,0,0,1,317.5,27.009Zm1.367-8.443a2.681,2.681,0,0,1-1.449-.446,8.906,8.906,0,0,0-3.139-1.3,2.123,2.123,0,0,1-1.823-2.335,2.49,2.49,0,0,1,2.523-2.266,3.186,3.186,0,0,1,.59.057A15.554,15.554,0,0,1,320,13.828a2.42,2.42,0,0,1,1.223,1.473,2.6,2.6,0,0,1-.243,1.986A2.417,2.417,0,0,1,318.866,18.566Zm3.637-4.8a2.528,2.528,0,0,1-1.846-.831,9.409,9.409,0,0,0-2.779-1.952,2.124,2.124,0,0,1-1.312-2.422A2.482,2.482,0,0,1,319,6.57a2.9,2.9,0,0,1,1.171.258,16.3,16.3,0,0,1,3.969,2.518A2.468,2.468,0,0,1,325,11.074a2.6,2.6,0,0,1-.673,1.864A2.466,2.466,0,0,1,322.5,13.767Z"/>
  <path class="cls-2"
        d="M319,7.57a1.9,1.9,0,0,1,.767.173,15.156,15.156,0,0,1,3.706,2.348,1.489,1.489,0,0,1,.113,2.179,1.468,1.468,0,0,1-1.081.5,1.557,1.557,0,0,1-1.126-.525,10.518,10.518,0,0,0-3.111-2.179c-1.36-.558-.7-2.492.732-2.492m14.341.937c1.031,0,2.007,1.051,1.137,2.546a35.728,35.728,0,0,1-13.919,13.974,6.47,6.47,0,0,1-2.745.962,2.625,2.625,0,0,1-.313.019c-2.092,0-2.348-2.691-.62-2.96a9.765,9.765,0,0,0,2.179-.708c5.2-2.546,9.873-7.411,12.928-12.985a1.52,1.52,0,0,1,1.353-.848m-18.361,4.712a2.138,2.138,0,0,1,.4.04,14.416,14.416,0,0,1,4.131,1.443A1.477,1.477,0,0,1,320.1,16.8a1.414,1.414,0,0,1-1.238.771,1.7,1.7,0,0,1-.912-.291,9.918,9.918,0,0,0-3.508-1.442c-1.581-.264-1.2-2.615.532-2.615M319,5.57h0a3.484,3.484,0,0,0-3.413,2.8,3.084,3.084,0,0,0,1.23,3.163c-.413-.106-.774-.183-1.059-.237a4.15,4.15,0,0,0-.778-.076h0a3.483,3.483,0,0,0-3.52,3.184,3.132,3.132,0,0,0,2.659,3.4,7.951,7.951,0,0,1,2.749,1.148,3.734,3.734,0,0,0,2,.612,3.425,3.425,0,0,0,3-1.817,3.574,3.574,0,0,0,.316-2.73c-.028-.095-.06-.189-.095-.28a3.422,3.422,0,0,0,2.988-1.133A3.6,3.6,0,0,0,326,11.018,3.5,3.5,0,0,0,324.8,8.6a17.289,17.289,0,0,0-4.207-2.674A3.919,3.919,0,0,0,319,5.57Zm14.34.937h0a3.511,3.511,0,0,0-3.113,1.9c-2.971,5.419-7.364,9.847-12.047,12.137a7.922,7.922,0,0,1-1.6.527,3.3,3.3,0,0,0-2.834,3.592,3.631,3.631,0,0,0,3.751,3.346,4.589,4.589,0,0,0,.55-.033,8.419,8.419,0,0,0,3.484-1.2A37.673,37.673,0,0,0,336.2,12.061a3.751,3.751,0,0,0,.157-3.828,3.481,3.481,0,0,0-3.021-1.726Z"/>
  <path class="cls-1"
        d="M341.521,25.4c-.177,0-.357-.007-.538-.023a2.2,2.2,0,0,1-2.1-2.253,2.131,2.131,0,0,1,2.324-1.981c.065,0,.132,0,.2.006.121.006.236.009.348.009.256,0,.5-.014.782-.03l.144-.008c.088-.008.246-.025.455-.051-.172.008-.35.012-.541.012a2.212,2.212,0,0,1-2.268-2.16,1.973,1.973,0,0,1,.917-1.666,2.127,2.127,0,0,1-1.673-2.045,2.19,2.19,0,0,1,2.27-2.182c.222-.009.449-.01.676-.01a6.333,6.333,0,0,0,1.087-.059c.381-.061,1.411-.178,2.441-.293.992-.111,1.985-.222,2.332-.277.248-.033.468-.081.689-.128a6.87,6.87,0,0,1,1.45-.2h0a3.032,3.032,0,0,1,2.74,1.306,2.663,2.663,0,0,1,.2,2.49,22.38,22.38,0,0,0-.953,3.292c-.1.428-.2.863-.29,1.28-.024.107-.047.213-.071.317a1.9,1.9,0,0,1,.784,1.536,2.347,2.347,0,0,1-2.442,2.213c-.269.016-.475.036-.682.056-.232.022-.464.045-.734.059-.831.053-4.933.529-5.906.646A12.566,12.566,0,0,1,341.521,25.4Zm5.824-4.947c-.583.074-1.318.206-1.932.317l-.314.054c.1-.012,1.9-.24,2.562-.321,0-.027.011-.056.017-.084Z"/>
  <path class="cls-2"
        d="M350.568,13.061c1.991,0,2.349,1.591,1.985,2.377a24.871,24.871,0,0,0-1.019,3.479c-.2.82-.368,1.669-.538,2.377a1.074,1.074,0,0,1,.934.989c0,.623-.537,1.132-1.528,1.217-.508.028-.877.085-1.385.113-.906.057-5.263.566-5.97.651a11.867,11.867,0,0,1-1.525.131c-.151,0-.3,0-.456-.018a1.129,1.129,0,1,1,.141-2.239c.046,0,.094,0,.143,0,.14.008.274.011.4.011.317,0,.621-.02.981-.04.651-.056,4.272-.538,5.771-.708.113-.65.283-1.414.425-2.149a1.034,1.034,0,0,1-.312.056c-.509.057-.877.085-1.386.142-.877.112-2.037.339-2.715.452a10.98,10.98,0,0,1-1.924.17c-1.557-.028-1.839-2.179.056-2.207.226,0,.467.007.707.007a5.822,5.822,0,0,0,.707-.035c.736-.113,2.094-.282,3-.4.509-.056,1.1-.2,1.613-.255a1.193,1.193,0,0,1,.132-.007,1.371,1.371,0,0,1,.546.121c.142-.679.255-1.217.312-1.5.072-.383,0-.524-.312-.524a1.682,1.682,0,0,0-.2.014c-.962.142-4.158.623-4.922.764a12.314,12.314,0,0,1-2.432.254,1.153,1.153,0,1,1,.084-2.291,13.97,13.97,0,0,0,1.895-.085c.708-.113,4.046-.453,4.753-.566a15.192,15.192,0,0,1,1.981-.31h.052m0-2h-.082a7.754,7.754,0,0,0-1.627.217c-.195.041-.389.085-.583.11l-.029,0-.028,0c-.307.049-1.358.167-2.285.271-1.286.144-2.094.236-2.468.3a5.639,5.639,0,0,1-.949.05c-.242,0-.483,0-.721.012a3.158,3.158,0,0,0-3.225,3.2,3.119,3.119,0,0,0,1.1,2.309,3,3,0,0,0-.34,1.378,3.069,3.069,0,0,0,.393,1.515,3.033,3.033,0,0,0-1.836,2.644,3.183,3.183,0,0,0,3,3.294c.221.018.428.026.634.026a13.648,13.648,0,0,0,1.784-.148c1.125-.135,5.063-.589,5.835-.638.271-.015.516-.038.761-.062.194-.018.387-.038.611-.05l.03,0,.03,0a3.352,3.352,0,0,0,3.357-3.21,2.864,2.864,0,0,0-.688-1.863c.075-.341.153-.689.236-1.033a21.351,21.351,0,0,1,.9-3.143,3.666,3.666,0,0,0-.284-3.414,3.962,3.962,0,0,0-3.531-1.769Z"/>
  <path class="cls-1"
        d="M364.75,26.434a2.687,2.687,0,0,1-2.807-2.532,2.263,2.263,0,0,1,2.042-2.443,8.712,8.712,0,0,0,1.893-.632A26.544,26.544,0,0,0,377.945,8.839a2.519,2.519,0,0,1,4.408-.2,2.793,2.793,0,0,1-.1,2.806,33.11,33.11,0,0,1-14.1,13.953,7.06,7.06,0,0,1-3.107,1.018C364.95,26.429,364.849,26.434,364.75,26.434Zm2.718-11.229a2.692,2.692,0,0,1-1.585-.543,10.691,10.691,0,0,0-3.638-1.754,2.166,2.166,0,0,1-1.724-2.417A2.541,2.541,0,0,1,363.089,8.2a3.109,3.109,0,0,1,.767.1,18.514,18.514,0,0,1,4.959,2.02,2.53,2.53,0,0,1,1.195,1.806,2.8,2.8,0,0,1-.4,1.86A2.524,2.524,0,0,1,367.468,15.205Z"/>
  <path class="cls-2"
        d="M380.2,8.436c1.027,0,2.009,1.029,1.182,2.532a31.934,31.934,0,0,1-13.691,13.551,6.093,6.093,0,0,1-2.717.905c-.076.006-.15.009-.221.009-2.147,0-2.408-2.788-.656-2.98a9.737,9.737,0,0,0,2.178-.707A27.678,27.678,0,0,0,378.833,9.3a1.52,1.52,0,0,1,1.364-.863M363.089,9.2a2.125,2.125,0,0,1,.524.068,17.387,17.387,0,0,1,4.668,1.895,1.624,1.624,0,0,1,.481,2.291,1.549,1.549,0,0,1-1.3.749,1.69,1.69,0,0,1-1-.352,11.68,11.68,0,0,0-4.018-1.924c-1.551-.337-1.094-2.727.636-2.727M380.2,6.436h0a3.506,3.506,0,0,0-3.136,1.935,25.54,25.54,0,0,1-11.614,11.553,8.6,8.6,0,0,1-1.557.54,3.241,3.241,0,0,0-2.945,3.493,3.7,3.7,0,0,0,3.805,3.476c.126,0,.256,0,.389-.016a7.981,7.981,0,0,0,3.484-1.131A34.068,34.068,0,0,0,383.13,11.933a3.761,3.761,0,0,0,.083-3.8,3.506,3.506,0,0,0-3.015-1.7ZM363.089,7.2h0a3.566,3.566,0,0,0-3.562,3.181,3.174,3.174,0,0,0,2.5,3.5,9.663,9.663,0,0,1,3.279,1.6,3.673,3.673,0,0,0,2.159.725,3.521,3.521,0,0,0,2.991-1.69A3.767,3.767,0,0,0,371,11.984a3.523,3.523,0,0,0-1.659-2.514,19.475,19.475,0,0,0-5.217-2.133,4.227,4.227,0,0,0-1.035-.134Z"/>
  <path class="cls-1"
        d="M397.021,26.735a2.48,2.48,0,0,1-2.612-2.386,2.547,2.547,0,0,1,2.374-2.4c4.528-.746,7.556-3.454,7.556-6.74a4.694,4.694,0,0,0-3.828-4.624v.126c0,3.508-3.283,8.9-6.325,11.889a4.08,4.08,0,0,1-2.823,1.248c-2.657,0-4.818-2.847-4.818-6.347,0-6.033,5.795-11.326,12.4-11.326,5.956,0,10.28,3.871,10.28,9.2a9.668,9.668,0,0,1-.694,3.564C405.723,26.032,397.105,26.735,397.021,26.735Zm-1.422-15.6c-2.462,1.262-4.508,3.931-4.508,6.226,0,.847.274,1.18.47,1.31C392.585,17.659,395.281,14.24,395.6,11.135Z"/>
  <path class="cls-2"
        d="M398.945,7.177c5.715,0,9.28,3.791,9.28,8.2a8.68,8.68,0,0,1-.623,3.2c-2.49,6.28-10.184,7.157-10.581,7.157a1.487,1.487,0,0,1-1.612-1.386c0-.622.481-1.216,1.556-1.414,5.148-.849,8.374-4.018,8.374-7.724,0-3.14-2.461-5.827-6.564-5.827h-.056a1.277,1.277,0,0,1,.792,1.187v.142c0,2.971-2.913,8.119-6.026,11.175a3.071,3.071,0,0,1-2.122.962c-2.008,0-3.818-2.264-3.818-5.347,0-5.121,5.035-10.326,11.4-10.326m-1.782,2.348c-3.536.707-7.072,4.47-7.072,7.836,0,2.122,1.414,2.376,1.5,2.376a.748.748,0,0,0,.537-.225c.85-.765,4.386-4.951,4.5-8.771a1.463,1.463,0,0,1,.537-1.216m1.782-4.348c-7.138,0-13.4,5.76-13.4,12.326,0,4.12,2.556,7.347,5.818,7.347a4.66,4.66,0,0,0,2.046-.483,3.468,3.468,0,0,0,3.612,3.368c1.5,0,9.682-1.463,12.44-8.42a10.668,10.668,0,0,0,.764-3.934c0-5.817-4.849-10.2-11.28-10.2ZM397.02,20.893c2.117-2.734,3.93-6.128,4.382-8.918a3.614,3.614,0,0,1,1.937,3.236c0,2.69-2.523,4.941-6.319,5.682Zm-4.727-4.685a6.871,6.871,0,0,1,1.386-2.294,17.2,17.2,0,0,1-1.386,2.294Z"/>
  <path class="cls-1"
        d="M430.006,26.989c-6.318-.578-11.015-4.946-11.015-10.165a8.214,8.214,0,0,1,.623-3.128c-2.2,1.086-2.715,1.214-3.385,1.214a2.6,2.6,0,0,1-2.726-2.528,2.625,2.625,0,0,1,2-2.425c.189-.063.519-.167.9-.285.7-.218,1.566-.489,2.112-.69.41-.148.908-.318,1.484-.514,1.281-.437,3.036-1.035,4.972-1.8a22.688,22.688,0,0,1,7.863-1.823c2.158,0,2.924,1.285,2.924,2.385a2.544,2.544,0,0,1-.835,2c1.45.457,3.947,1.689,3.947,3.491a2.293,2.293,0,0,1-2.188,2.33,1.9,1.9,0,0,1-1.047-.33,1.873,1.873,0,0,1,.038.376,2.335,2.335,0,0,1-2.216,2.33,1.979,1.979,0,0,1-1.483-.7,10.243,10.243,0,0,0-2.052-1.5,1.923,1.923,0,0,1-1.313-1.8,2.18,2.18,0,0,1,2.244-2.1,3.867,3.867,0,0,1,.971.251,1.8,1.8,0,0,1-.047-.41,2.025,2.025,0,0,1,.39-1.183c-.146,0-.3-.013-.447-.032a3.824,3.824,0,0,0-.453-.02h-.1c-3.807,0-7.685,3.293-7.685,6.525,0,2.961,2.928,5.28,6.666,5.28a2.8,2.8,0,0,1,3.094,2.669,2.686,2.686,0,0,1-2.952,2.584Z"/>
  <path class="cls-2"
        d="M432.835,5.848c1.415,0,1.924.65,1.924,1.385,0,1.444-1.189,1.754-2.263,1.754a5.286,5.286,0,0,1-.651-.028,5.5,5.5,0,0,0-.679-.028c-4.385,0-8.685,3.734-8.685,7.525,0,3.395,3.225,6.28,7.666,6.28,1.415,0,2.094.821,2.094,1.669,0,.792-.65,1.584-1.952,1.584h-.283c-6.139-.565-10.015-4.808-10.015-9.165a7.969,7.969,0,0,1,2.037-5.178.588.588,0,0,0,.142-.253.061.061,0,0,0-.057-.057,1,1,0,0,0-.283.112c-4.441,2.292-4.978,2.462-5.6,2.462a1.611,1.611,0,0,1-1.726-1.528,1.622,1.622,0,0,1,1.3-1.471c.593-.2,2.207-.679,3.055-.99,1.329-.481,3.678-1.217,6.478-2.319a21.588,21.588,0,0,1,7.5-1.754m1.188,4.186c.453,0,3.848,1.217,3.848,2.688a1.307,1.307,0,0,1-1.188,1.33,1.033,1.033,0,0,1-.707-.34,9.964,9.964,0,0,0-2.462-1.669.984.984,0,0,1-.736-.877,1.22,1.22,0,0,1,1.245-1.132m-3.169,2.291c.369,0,3.82,1.3,3.82,2.773a1.351,1.351,0,0,1-1.216,1.33.979.979,0,0,1-.736-.368,10.727,10.727,0,0,0-2.4-1.754.95.95,0,0,1-.707-.877,1.2,1.2,0,0,1,1.244-1.1m1.981-8.477a23.616,23.616,0,0,0-8.227,1.891c-1.916.755-3.587,1.324-4.93,1.782-.583.2-1.088.371-1.5.519-.521.191-1.382.461-2.074.677-.386.121-.723.226-.935.3a3.588,3.588,0,0,0-2.668,3.368,3.593,3.593,0,0,0,3.726,3.528,4.513,4.513,0,0,0,1.862-.41,8.9,8.9,0,0,0-.1,1.324c0,5.739,5.087,10.536,11.831,11.157l.092.008h.375a3.692,3.692,0,0,0,3.952-3.584,3.762,3.762,0,0,0-4.094-3.669c-3.177,0-5.666-1.88-5.666-4.28,0-1.849,1.629-3.771,3.7-4.789a3,3,0,0,0-.575,1.762,2.933,2.933,0,0,0,1.928,2.719,10.3,10.3,0,0,1,1.685,1.235,2.97,2.97,0,0,0,2.235,1.045,3.336,3.336,0,0,0,3.071-2.381c.051,0,.1,0,.154,0a3.305,3.305,0,0,0,3.188-3.33c0-1.89-1.79-3.213-3.418-3.96a3.926,3.926,0,0,0,.306-1.529c0-1.685-1.213-3.385-3.924-3.385Z"/>
  <path class="cls-1"
        d="M452.354,27.046c-6.522,0-10-3.095-10-5.328a2.534,2.534,0,0,1,2.471-2.528,2.679,2.679,0,0,1,2.045,1.071,5.659,5.659,0,0,0,4.6,1.787,18.128,18.128,0,0,0,4.555-.676,3.776,3.776,0,0,1,.9-.116,2.4,2.4,0,0,1,2.527,2.442,2.889,2.889,0,0,1-2.329,2.749A19.255,19.255,0,0,1,452.354,27.046Zm2.065-14.71a19.151,19.151,0,0,1-8.112-1.916,2.587,2.587,0,0,1-1.488-2.338,2.238,2.238,0,0,1,2.274-2.3,3.32,3.32,0,0,1,1.159.229,17.5,17.5,0,0,0,6.534,1.414,2.7,2.7,0,0,1,1.2.339,4.518,4.518,0,0,0-.594-.456,1.976,1.976,0,0,1-1.065-1.686,2.108,2.108,0,0,1,2.16-1.99,2.763,2.763,0,0,1,1.011.283c0-.025,0-.05,0-.075a2.134,2.134,0,0,1,2.16-2.047c1.154,0,4.48,1.962,4.48,3.857a2.262,2.262,0,0,1-2.16,2.245,1.841,1.841,0,0,1-1.094-.349h0a2.261,2.261,0,0,1-2.159,2.244,1.872,1.872,0,0,1-1.609-.889,2.812,2.812,0,0,0-.292-.343,2.446,2.446,0,0,1,.382,1.307A2.547,2.547,0,0,1,454.419,12.336Z"/>
  <path class="cls-2"
        d="M459.653,2.792c.707,0,3.48,1.669,3.48,2.857a1.264,1.264,0,0,1-1.16,1.245.857.857,0,0,1-.736-.4,9.61,9.61,0,0,0-2.15-1.839.96.96,0,0,1-.594-.82,1.148,1.148,0,0,1,1.16-1.047m-3.169,1.839c.622,0,3.4,1.7,3.4,2.914a1.262,1.262,0,0,1-1.159,1.244.865.865,0,0,1-.764-.424,9.612,9.612,0,0,0-2.065-1.924.976.976,0,0,1-.567-.82,1.1,1.1,0,0,1,1.16-.99m-9.391,2.15a2.386,2.386,0,0,1,.82.169,18.462,18.462,0,0,0,6.817,1.472A1.45,1.45,0,0,1,456.2,9.864c0,.736-.565,1.472-1.782,1.472a17.986,17.986,0,0,1-7.666-1.811,1.591,1.591,0,0,1-.934-1.443,1.239,1.239,0,0,1,1.274-1.3M444.829,20.19a1.7,1.7,0,0,1,1.274.707,6.658,6.658,0,0,0,5.375,2.151,19.575,19.575,0,0,0,4.808-.708,2.726,2.726,0,0,1,.652-.084,1.419,1.419,0,0,1,1.527,1.442,1.9,1.9,0,0,1-1.584,1.782,18.152,18.152,0,0,1-4.527.566c-5.856,0-9-2.716-9-4.328a1.529,1.529,0,0,1,1.471-1.528M459.653.792a3.212,3.212,0,0,0-2.9,1.859,2.02,2.02,0,0,0-.269-.02,3.082,3.082,0,0,0-3.16,2.99,2.751,2.751,0,0,0,.089.691,15.171,15.171,0,0,1-4.721-1.2l-.05-.021-.051-.018a4.332,4.332,0,0,0-1.5-.288,3.253,3.253,0,0,0-3.274,3.3,3.584,3.584,0,0,0,2.07,3.247,19.856,19.856,0,0,0,8.53,2.007,3.6,3.6,0,0,0,3.668-2.613,3.068,3.068,0,0,0,.633.066,3.2,3.2,0,0,0,2.873-1.92,2.982,2.982,0,0,0,.38.025,3.246,3.246,0,0,0,3.16-3.245c0-2.651-3.979-4.857-5.48-4.857Zm-14.824,17.4a3.547,3.547,0,0,0-3.471,3.528c0,3.043,4.2,6.328,11,6.328a20.27,20.27,0,0,0,5.03-.63,3.914,3.914,0,0,0,3.081-3.718,3.409,3.409,0,0,0-3.527-3.442,4.763,4.763,0,0,0-1.137.144,17.241,17.241,0,0,1-4.323.648,4.664,4.664,0,0,1-3.835-1.426,3.657,3.657,0,0,0-2.814-1.432Z"/>
  <path class="cls-1"
        d="M476.568,28.319c-1.023,0-4.139,0-4.139-2.64a2.377,2.377,0,0,1,2.385-2.415,3.224,3.224,0,0,1,.622.076,5.4,5.4,0,0,0,1.217.15c.871,0,3.187,0,3.187-5.223,0-1.121-.2-4.853-2.785-5.859a1.964,1.964,0,0,1-1.317-1.865,2.581,2.581,0,0,1,2.556-2.471,4.6,4.6,0,0,1,2.33.856c.674-.475,1.429-1.045,2.044-1.542h-1.177c-3.033,0-6.81.057-9.187.14h0a2.26,2.26,0,1,1-.093-4.515c1.681-.055,4.219-.086,6.962-.086,2.581,0,5.134.028,6.807.056,2.483.041,3.614,1.6,3.614,3.037a3.575,3.575,0,0,1-1.068,2.47,32.85,32.85,0,0,1-4.962,3.959,14.541,14.541,0,0,1,1.192,5.991C484.754,27.356,479.029,28.319,476.568,28.319Z"/>
  <path class="cls-2"
        d="M479.171,3.924c2.574,0,5.121.028,6.79.056,1.754.029,2.631.962,2.631,2.037A2.606,2.606,0,0,1,487.8,7.8a33.929,33.929,0,0,1-5.545,4.3,12.786,12.786,0,0,1,1.5,6.337c0,7.694-4.526,8.882-7.186,8.882-1.16,0-3.139-.056-3.139-1.64a1.375,1.375,0,0,1,1.385-1.415,2.2,2.2,0,0,1,.425.056,6.179,6.179,0,0,0,1.414.17c2.575,0,4.187-1.81,4.187-6.223,0-2.773-.877-5.8-3.423-6.79a.971.971,0,0,1-.679-.934,1.575,1.575,0,0,1,1.556-1.471,4.486,4.486,0,0,1,2.32,1.075c1.188-.792,4.158-3,4.158-3.479,0-.142-.141-.255-.423-.255-.765-.028-1.755-.028-2.858-.028-3,0-6.79.056-9.222.141h-.057a1.233,1.233,0,0,1-1.3-1.245,1.261,1.261,0,0,1,1.33-1.272c1.754-.057,4.357-.085,6.931-.085m0-2c-2.753,0-5.3.031-7,.086a3.258,3.258,0,1,0,.036,6.516h.126c.89-.031,1.976-.058,3.147-.081a3.379,3.379,0,0,0-.747,2.1,2.953,2.953,0,0,0,1.919,2.784c2.028.789,2.183,3.98,2.183,4.94,0,4.223-1.532,4.223-2.187,4.223a4.256,4.256,0,0,1-.955-.116l-.033-.008-.034-.007a4.034,4.034,0,0,0-.817-.1,3.364,3.364,0,0,0-3.385,3.415c0,1.359.667,3.64,5.139,3.64,2.155,0,9.186-.784,9.186-10.882a16.114,16.114,0,0,0-.956-5.62,31.249,31.249,0,0,0,4.457-3.646,4.555,4.555,0,0,0,1.337-3.154c0-1.908-1.439-3.985-4.6-4.036-2.1-.036-4.65-.057-6.822-.057Z"/>
  <path class="cls-1"
        d="M506.639,28.518c-3.579,0-3.858-2.086-3.858-2.726a2.35,2.35,0,0,1,2.3-2.443,2.847,2.847,0,0,1,.783.123,2.866,2.866,0,0,0,.773.16c.407,0,1.105,0,1.514-1.527l-2.327.019a1.976,1.976,0,0,1-1.9-1.227c-1.847,2.985-4.01,5.075-5.405,5.075a2.494,2.494,0,0,1-2.471-2.387,2.385,2.385,0,0,1,1.1-1.949c3.036-2.106,4.748-6.313,5.146-8h-.014c-.868,0-2.128.028-3.024.055h0a2.112,2.112,0,0,1-2.134-2.215,2.113,2.113,0,0,1,2.047-2.216c.5-.028,1.282-.029,2.094-.029s1.621,0,2.2.03c2.022.03,2.942.853,3.351,1.7a2.451,2.451,0,0,1,.358-.056,2.242,2.242,0,0,0-.576-.53,2,2,0,0,1-.987-1.645,2.387,2.387,0,0,1,1.269-1.995c-1.263.022-2.475.057-3.38.109l-.142,0a2.127,2.127,0,0,1-2.131-2.217,2.158,2.158,0,0,1,2.188-2.217c1.314-.028,3.274-.057,5.205-.057,1.9,0,3.754.029,4.863.057,2.388.042,3.238,1.449,3.238,2.642a3.46,3.46,0,0,1-1.007,2.323,1.934,1.934,0,0,1,1.229,1.659c.033.369.075.739.127,1.119C517.69,9.7,518.3,9.2,518.9,8.666a2.139,2.139,0,0,1,1.458-.565,2.492,2.492,0,0,1,2.443,2.414c0,1.149-.793,2.21-4.7,4.094a12.589,12.589,0,0,0,4.7,6.407,2.4,2.4,0,0,1,1.1,1.975,2.546,2.546,0,0,1-2.527,2.5,2.735,2.735,0,0,1-1.647-.568,14.218,14.218,0,0,1-3.378-3.693,2.051,2.051,0,0,1-1.737.895l-1.685-.019-.006.064C512.6,25.333,510.342,28.518,506.639,28.518Zm-1.207-10.426c.03-.006.06-.01.091-.015-.022-.014-.044-.028-.065-.043ZM512.81,10.9c-.053-.4-.089-.737-.113-.995-.226.169-.435.321-.617.449q.1.261.194.546ZM509.246,6.71c.11.056.217.115.318.178.08-.057.163-.117.248-.181Z"/>
  <path class="cls-2"
        d="M508.619,3.357c1.9,0,3.735.029,4.838.057,1.612.028,2.263.792,2.263,1.642a2.512,2.512,0,0,1-.792,1.7,32.684,32.684,0,0,1-3.9,3.111c-.056.029-.141.085-.2.114a10.874,10.874,0,0,1,.708,1.923h1.358a.99.99,0,0,1,1.075.991,1.006,1.006,0,0,1-1.075.99h-.962c.056.48.113,1.018.141,1.556h1.669a.976.976,0,1,1,0,1.952h-1.584c0,.537,0,1.1-.028,1.669h2.489a1.033,1.033,0,1,1,0,2.065l-2.6-.028c-.029.31-.057.65-.085.99-.283,2.772-2.206,5.432-5.29,5.432-2.716,0-2.858-1.33-2.858-1.726a1.367,1.367,0,0,1,1.3-1.443,1.881,1.881,0,0,1,.509.085,3.592,3.592,0,0,0,1.047.2c1.895,0,2.489-1.669,2.715-3.536l-3.536.028a1.033,1.033,0,1,1,0-2.065h3.706c.029-.538.029-1.1.029-1.669h-2.914a.977.977,0,1,1,0-1.952h2.829c-.057-.538-.114-1.076-.2-1.556h-1.924a1,1,0,0,1-1.047-.99.981.981,0,0,1,1.047-.991h1.443a4.269,4.269,0,0,0-1.669-2.376.984.984,0,0,1-.51-.793,1.508,1.508,0,0,1,1.5-1.329,2.5,2.5,0,0,1,1.415.707c.453-.255,2.546-1.754,2.546-2.206,0-.113-.085-.2-.283-.2h-1.244c-1.9,0-5.121.028-7.1.142h-.085a1.136,1.136,0,0,1-1.131-1.217,1.163,1.163,0,0,1,1.188-1.217c1.329-.028,3.281-.057,5.205-.057m6.252,4.867a1,1,0,0,1,1.075.9,26.9,26.9,0,0,0,.4,2.744,25.543,25.543,0,0,0,3.225-2.461,1.133,1.133,0,0,1,.792-.311,1.5,1.5,0,0,1,1.443,1.414c0,.481-.142,1.358-4.922,3.565a13.865,13.865,0,0,0,5.347,7.751,1.428,1.428,0,0,1,.678,1.16,1.533,1.533,0,0,1-1.527,1.5,1.746,1.746,0,0,1-1.047-.368c-5.771-4.328-6.677-13.691-6.677-14.795a1.147,1.147,0,0,1,1.217-1.1m-13.607,2.008c.792,0,1.584,0,2.15.029,1.9.028,2.716.82,2.716,2.149a4.236,4.236,0,0,1-.113.99c-1.444,6.167-5.885,11.572-7.5,11.572a1.485,1.485,0,0,1-1.471-1.387,1.38,1.38,0,0,1,.679-1.132c3.791-2.631,5.658-8.2,5.658-9.391,0-.4-.368-.425-.567-.425h-.537c-.877,0-2.15.028-3.055.056H499.2a1.109,1.109,0,0,1-1.075-1.216,1.121,1.121,0,0,1,1.047-1.216c.538-.029,1.3-.029,2.094-.029m7.355-8.875c-2.318,0-4.442.04-5.248.057h0a3.159,3.159,0,0,0-3.145,3.217,3.141,3.141,0,0,0,3.131,3.217h.143l.057,0c.359-.02.767-.038,1.209-.054a3.05,3.05,0,0,0-.133.582,7.246,7.246,0,0,0-1.153-.11c-.613-.03-1.428-.03-2.216-.03-.808,0-1.573,0-2.158.029a3.105,3.105,0,0,0-2.983,3.216,3.079,3.079,0,0,0,3.075,3.216h.091c.455-.014,1.05-.029,1.643-.04a13.741,13.741,0,0,1-4.345,6.158,3.367,3.367,0,0,0-1.538,2.775,3.475,3.475,0,0,0,3.471,3.387,5.232,5.232,0,0,0,3.308-1.776,3.756,3.756,0,0,0-.047.6c0,1.719,1.272,3.726,4.858,3.726,3.966,0,6.5-3.1,7.156-6.4l.8.009a3.169,3.169,0,0,0,1.568-.4,14.855,14.855,0,0,0,2.969,3,3.725,3.725,0,0,0,2.247.768,3.517,3.517,0,0,0,3.527-3.5,3.424,3.424,0,0,0-1.524-2.793,11.391,11.391,0,0,1-4.018-5.1c3.281-1.673,4.439-2.916,4.439-4.586A3.518,3.518,0,0,0,520.359,7.1a3.107,3.107,0,0,0-2.12.816q-.216.192-.433.377a2.91,2.91,0,0,0-.681-1.144,4.181,4.181,0,0,0,.6-2.094c0-1.776-1.308-3.59-4.228-3.642-1.063-.027-2.914-.057-4.873-.057Z"/>
  <path class="cls-1"
        d="M537.813,28.319a2.419,2.419,0,0,1-2.246-1.535,36.9,36.9,0,0,0-5.249-8.293l-.313-.407a6.153,6.153,0,0,1-1.537-3.58,5.276,5.276,0,0,1,1.311-3.241l.078-.1a65.324,65.324,0,0,0,5.131-7.219A2.351,2.351,0,0,1,537.05,2.7a2.8,2.8,0,0,1,2.782,2.669,2.516,2.516,0,0,1-.4,1.336,61.506,61.506,0,0,1-4.475,5.616c-.538.629-1.028,1.2-1.41,1.663a.844.844,0,0,0-.224.41c0,.073.045.3.46.819.776,1,1.5,1.88,2.164,2.693a25.132,25.132,0,0,1,4.405,6.638,3.3,3.3,0,0,1,.213,1.081A2.766,2.766,0,0,1,537.813,28.319Z"/>
  <path class="cls-2"
        d="M537.05,3.7a1.813,1.813,0,0,1,1.782,1.669,1.545,1.545,0,0,1-.255.821c-1.131,1.81-4.3,5.346-5.8,7.157a1.621,1.621,0,0,0-.453,1.047A2.445,2.445,0,0,0,533,15.834c2.886,3.733,5.121,5.855,6.422,9.081a2.234,2.234,0,0,1,.141.707,1.769,1.769,0,0,1-1.754,1.7,1.417,1.417,0,0,1-1.329-.933,39.829,39.829,0,0,0-5.686-8.911,5.075,5.075,0,0,1-1.33-2.971,4.316,4.316,0,0,1,1.1-2.631,67.458,67.458,0,0,0,5.29-7.44A1.342,1.342,0,0,1,537.05,3.7m0-2a3.338,3.338,0,0,0-2.936,1.763,65.914,65.914,0,0,1-5.045,7.088l-.074.094a6.222,6.222,0,0,0-1.527,3.862,7.05,7.05,0,0,0,1.744,4.19l.315.408a36.092,36.092,0,0,1,5.114,8.059,3.4,3.4,0,0,0,3.172,2.158,3.776,3.776,0,0,0,3.754-3.7,4.157,4.157,0,0,0-.245-1.342l-.019-.057-.022-.056a26.29,26.29,0,0,0-4.559-6.9c-.679-.826-1.381-1.681-2.136-2.657-.049-.062-.09-.116-.125-.163.363-.434.792-.936,1.257-1.479a62.129,62.129,0,0,0,4.555-5.723,3.544,3.544,0,0,0,.559-1.88A3.825,3.825,0,0,0,537.05,1.7Z"/>
  <path class="cls-1"
        d="M565.763,27.159c-4.9,0-8.7-2.636-8.7-4.9a2.477,2.477,0,0,1,2.386-2.5,2.37,2.37,0,0,1,1.9,1.021c.773,1.037,1.209,1.243,4.955,1.5a2.387,2.387,0,0,1,2.375,2.413C568.687,25.269,568.476,27.159,565.763,27.159Zm-16.55-.282a2.329,2.329,0,0,1-2.471-2.217,2.539,2.539,0,0,1,.37-1.307l.311-.557a86.643,86.643,0,0,0,5.07-10.337,8.6,8.6,0,0,1-1.1.074c-2.153,0-3.49-.969-3.49-2.527a2.333,2.333,0,0,1,2.244-2.443,2.759,2.759,0,0,1,1.327.347.548.548,0,0,0,.258.049,10.061,10.061,0,0,0,2.423-.542,10.892,10.892,0,0,0,.085-1.513,2.4,2.4,0,0,1,2.556-2.33,2.189,2.189,0,0,1,2.323,1.9,1.252,1.252,0,0,1,.023.175,2.343,2.343,0,0,1,1.681,2.206c0,1.437-1.2,2.178-2.824,2.924A110.583,110.583,0,0,1,552.7,23c-.418.85-.824,1.674-1.22,2.509A2.421,2.421,0,0,1,549.213,26.877ZM568,16.636a2.451,2.451,0,0,1-.988-.2,15.1,15.1,0,0,0-4.614-1.22,2.439,2.439,0,0,0-.674.071,2.382,2.382,0,0,1-.6.1,2.1,2.1,0,0,1-2.074-2.161c0-.933.475-2.5,3.659-2.5a17.216,17.216,0,0,1,6.118,1.347,2.314,2.314,0,0,1,1.529,2.171A2.375,2.375,0,0,1,568,16.636Zm-.538-6.167a1.9,1.9,0,0,1-1.5-.754A9.471,9.471,0,0,0,564.09,8.36a1.89,1.89,0,0,1-1.279-1.777A2.149,2.149,0,0,1,565,4.536a1.6,1.6,0,0,1,.337.058,1.757,1.757,0,0,1-.064-.472,2.124,2.124,0,0,1,2.188-2.047c.9,0,4.649,1.415,4.649,3.546a2.248,2.248,0,0,1-2.13,2.245,1.831,1.831,0,0,1-.426-.049,1.894,1.894,0,0,1,.039.378A2.294,2.294,0,0,1,567.46,10.469Z"/>
  <path class="cls-2"
        d="M567.46,3.075c.623,0,3.649,1.244,3.649,2.546a1.239,1.239,0,0,1-1.13,1.245.894.894,0,0,1-.68-.311,10.126,10.126,0,0,0-2.32-1.584.947.947,0,0,1-.707-.849,1.137,1.137,0,0,1,1.188-1.047m-10.665,1.5a1.2,1.2,0,0,1,1.33,1.019,2.606,2.606,0,0,1,.028.48,3.649,3.649,0,0,1-.028.538,1.443,1.443,0,0,1,.367-.056,1.34,1.34,0,0,1,1.33,1.3c0,.737-.51,1.246-2.6,2.179l-.085.2a134.264,134.264,0,0,1-6.564,14.852,1.443,1.443,0,0,1-1.358.793,1.347,1.347,0,0,1-1.471-1.217,1.544,1.544,0,0,1,.227-.792,87.519,87.519,0,0,0,6.138-12.787l-.311.085a8.752,8.752,0,0,1-2.4.367c-.284,0-2.49,0-2.49-1.527a1.339,1.339,0,0,1,1.244-1.443,1.748,1.748,0,0,1,.85.226,1.565,1.565,0,0,0,.735.17,12.6,12.6,0,0,0,3.31-.792,10.645,10.645,0,0,0,.2-2.263,1.419,1.419,0,0,1,1.556-1.33m8.2.962c.4,0,3.593,1.274,3.593,2.659a1.29,1.29,0,0,1-1.132,1.274.887.887,0,0,1-.707-.368,9.753,9.753,0,0,0-2.291-1.669.893.893,0,0,1-.651-.849A1.156,1.156,0,0,1,565,5.536m-2.291,6.2a16.063,16.063,0,0,1,5.742,1.274,1.309,1.309,0,0,1,.9,1.244A1.381,1.381,0,0,1,568,15.636a1.484,1.484,0,0,1-.6-.114,15.941,15.941,0,0,0-5.007-1.3,3.444,3.444,0,0,0-.961.113,1.5,1.5,0,0,1-.312.057,1.111,1.111,0,0,1-1.074-1.161c0-.452.14-1.5,2.659-1.5m-3.254,9.025a1.374,1.374,0,0,1,1.1.622c1.075,1.443,1.98,1.642,5.686,1.895a1.4,1.4,0,0,1,1.443,1.415c0,1.471-1.471,1.471-1.924,1.471-4.64,0-7.7-2.461-7.7-3.9a1.491,1.491,0,0,1,1.386-1.5M567.46,1.075a3.154,3.154,0,0,0-3.142,2.534,3.134,3.134,0,0,0-2.507,2.974,2.879,2.879,0,0,0,1.889,2.7,6.744,6.744,0,0,1,.889.592,13.28,13.28,0,0,0-1.881-.142,8.1,8.1,0,0,0-1.6.147,3.113,3.113,0,0,0,.715-2.023,3.34,3.34,0,0,0-1.787-2.911,3.21,3.21,0,0,0-3.24-2.37,3.412,3.412,0,0,0-3.556,3.33c0,.284,0,.528-.017.752a8.206,8.206,0,0,1-1.416.3,3.726,3.726,0,0,0-1.66-.394,3.313,3.313,0,0,0-3.244,3.443c0,1.556,1.075,3.361,4.066,3.516a87.1,87.1,0,0,1-4.418,8.785l-.314.562a3.54,3.54,0,0,0-.494,1.791,3.316,3.316,0,0,0,3.471,3.217,3.442,3.442,0,0,0,3.166-1.937c.394-.829.8-1.649,1.214-2.5,1.313-2.665,2.773-5.63,4.464-9.981a3.115,3.115,0,0,0,3.066,2.927,3.163,3.163,0,0,0,.8-.117l.045-.011.044-.013a1.683,1.683,0,0,1,.387-.029,14.7,14.7,0,0,1,4.264,1.159,3.5,3.5,0,0,0,1.338.256,3.376,3.376,0,0,0,3.357-3.387,3.3,3.3,0,0,0-2.178-3.108l-.232-.092a3.408,3.408,0,0,0,1.585-2.236,3.267,3.267,0,0,0,2.579-3.192c0-3.031-4.57-4.546-5.649-4.546Zm-8.006,17.681a3.491,3.491,0,0,0-3.386,3.5c0,2.786,4.146,5.9,9.7,5.9,2.9,0,3.924-1.869,3.924-3.471a3.393,3.393,0,0,0-3.329-3.411c-3.564-.245-3.685-.408-4.2-1.094a3.352,3.352,0,0,0-2.707-1.427Z"/>
  <path class="cls-1"
        d="M586.7,27.386c-5.985,0-10.166-2.377-10.166-5.782,0-1.793,1.815-5.5,7.422-5.5a24.657,24.657,0,0,1,4.105.432c-.344-.736-.935-1.88-1.95-3.589a15.28,15.28,0,0,1-2.635.349c-3.623,0-7.027-3.1-7.027-4.961A2.254,2.254,0,0,1,578.8,6.148a2.734,2.734,0,0,1,2.082.966A4,4,0,0,0,583.7,8.722a6.971,6.971,0,0,1-.834-2.394,2.211,2.211,0,0,1,2.3-2.217,2.726,2.726,0,0,1,2.605,2.1,9.283,9.283,0,0,0,.566,1.436c.131-.048.26-.1.389-.148a3.354,3.354,0,0,1,1.193-.242,2.334,2.334,0,0,1,.647,4.575c2.242,4.017,3.408,6.32,3.408,8.194a2.292,2.292,0,0,1-2.245,2.583,3.259,3.259,0,0,1-2.128-.84c-.721-.6-3.806-1.281-5.878-1.281-1.687,0-2.357.711-2.4.913.1.3,1.562,1.076,3.952,1.076.432,0,.864-.028,1.295-.055l.318,0a2.423,2.423,0,0,1,2.64,2.358A2.7,2.7,0,0,1,586.7,27.386Z"/>
  <path class="cls-2"
        d="M585.169,5.111A1.727,1.727,0,0,1,586.81,6.47a13.909,13.909,0,0,0,1.018,2.4c.424-.142.849-.282,1.273-.452a2.367,2.367,0,0,1,.821-.17,1.285,1.285,0,0,1,1.329,1.3c0,1.074-.764,1.3-2.15,1.7,2.461,4.385,3.876,6.987,3.876,8.77,0,1.131-.566,1.583-1.245,1.583a2.289,2.289,0,0,1-1.471-.593c-1.047-.877-4.527-1.528-6.535-1.528-2.263,0-3.395,1.1-3.395,1.895,0,1.245,2.433,2.094,4.951,2.094.452,0,.906-.029,1.358-.057h.255c1.1,0,1.64.651,1.64,1.358a1.692,1.692,0,0,1-1.839,1.613c-5.771,0-9.166-2.236-9.166-4.782,0-1.385,1.5-4.5,6.422-4.5a35.946,35.946,0,0,1,5.234.623c.113,0,.2.028.254.028s.085-.028.085-.056c0-.056-.056-1.132-2.914-5.856a19.231,19.231,0,0,1-3.139.453c-3.283,0-6.027-2.8-6.027-3.961A1.276,1.276,0,0,1,578.8,7.148a1.728,1.728,0,0,1,1.329.623,4.866,4.866,0,0,0,3.649,1.952,3.009,3.009,0,0,0,.538-.029l.934-.169c-1.274-2.292-1.387-3.055-1.387-3.2a1.211,1.211,0,0,1,1.3-1.217m0-2a3.189,3.189,0,0,0-3.3,3.217,2.564,2.564,0,0,0,.034.407q-.133-.134-.267-.285a3.72,3.72,0,0,0-2.83-1.3,3.281,3.281,0,0,0-3.359,3.189c0,2.548,3.969,5.961,8.027,5.961a11.957,11.957,0,0,0,2.123-.246c.261.448.487.849.683,1.208a19.41,19.41,0,0,0-2.326-.154c-5.809,0-8.422,3.8-8.422,6.5,0,3.267,3.5,6.782,11.166,6.782a3.689,3.689,0,0,0,3.839-3.613,3.258,3.258,0,0,0-.348-1.481,4.045,4.045,0,0,0,1.545.312,3.271,3.271,0,0,0,3.245-3.583c0-1.956-1.04-4.166-3.045-7.8a3.048,3.048,0,0,0,1.319-2.668,3.28,3.28,0,0,0-3.329-3.3,3.943,3.943,0,0,0-1.034.141,3.977,3.977,0,0,1-.143-.429,3.725,3.725,0,0,0-3.576-2.853Z"/>
  <path class="cls-1"
        d="M608.364,24.812a6.281,6.281,0,0,1-4.026-1.72c-3.147-2.711-3.994-6.845-4.449-9.066-.118-.557-.559-2.795-.559-3.228a2.39,2.39,0,0,1,2.415-2.358,2.469,2.469,0,0,1,2.393,2.122c.092.5.153.985.213,1.473.053.445.106.891.187,1.322.784,4.458,2.207,5.633,2.8,5.934.019-.044.04-.1.063-.158.113-.3.212-.627.32-.978.136-.444.284-.924.472-1.427a2.121,2.121,0,0,1,1.984-1.442,2.523,2.523,0,0,1,2.5,2.415,1.626,1.626,0,0,1-.033.309c-.084.5-.227,1.059-.376,1.645a17.786,17.786,0,0,0-.445,2.017A3.348,3.348,0,0,1,608.364,24.812Zm12.279-5.122a2.4,2.4,0,0,1-2.408-2.172,8.962,8.962,0,0,0-3.334-5.059,2.114,2.114,0,0,1-.86-1.689,2.221,2.221,0,0,1,2.272-2.161,2.85,2.85,0,0,1,1.84.723c3.348,2.869,5.045,5.476,5.045,7.746A2.558,2.558,0,0,1,620.643,19.69Z"/>
  <path class="cls-2"
        d="M601.745,9.44a1.48,1.48,0,0,1,1.414,1.33c.17.905.227,1.867.4,2.772,1.159,6.592,3.818,6.847,3.988,6.847.283,0,.538-.227.792-.906s.453-1.5.792-2.405a1.106,1.106,0,0,1,1.047-.792,1.536,1.536,0,0,1,1.5,1.415c0,.084-.029.141-.029.226-.169.933-.736,2.772-.82,3.649a2.342,2.342,0,0,1-2.462,2.236A5.3,5.3,0,0,1,605,22.34c-2.857-2.461-3.678-6.309-4.13-8.515-.226-1.075-.538-2.8-.538-3.027a1.388,1.388,0,0,1,1.415-1.358m14.568.169a1.843,1.843,0,0,1,1.189.482c1.188,1.018,4.7,4.13,4.7,6.987a1.545,1.545,0,0,1-1.555,1.612,1.4,1.4,0,0,1-1.415-1.3,9.973,9.973,0,0,0-3.707-5.715,1.132,1.132,0,0,1-.48-.905,1.23,1.23,0,0,1,1.272-1.161M601.745,7.44A3.391,3.391,0,0,0,598.33,10.8c0,.642.575,3.412.581,3.44.443,2.16,1.369,6.678,4.782,9.617a7.248,7.248,0,0,0,4.671,1.957,4.36,4.36,0,0,0,4.452-4.037,18.515,18.515,0,0,1,.419-1.873c.153-.6.3-1.165.379-1.617l.032-.178v-.039a2.361,2.361,0,0,0,.029-.367,3.549,3.549,0,0,0-3.5-3.415,3.081,3.081,0,0,0-2.9,2.048c-.149.4-.268.758-.372,1.087a12.553,12.553,0,0,1-1.374-4.225c-.077-.412-.128-.834-.182-1.281-.06-.491-.121-1-.218-1.514a3.492,3.492,0,0,0-3.38-2.961Zm14.568.169a3.222,3.222,0,0,0-3.272,3.161,3.122,3.122,0,0,0,1.278,2.5,8.121,8.121,0,0,1,2.926,4.382,3.419,3.419,0,0,0,3.4,3.035,3.546,3.546,0,0,0,3.555-3.612c0-2.576-1.815-5.438-5.395-8.506a3.847,3.847,0,0,0-2.49-.963Z"/>
  <path class="cls-1"
        d="M631.222,28.743a4.225,4.225,0,1,1,4.224-4.224A4.23,4.23,0,0,1,631.222,28.743Zm0-5.347a1.125,1.125,0,0,0-1.151,1.123,1.15,1.15,0,1,0,2.3,0A1.125,1.125,0,0,0,631.222,23.4Z"/>
  <path class="cls-2"
        d="M631.222,21.294A3.225,3.225,0,1,1,628,24.519a3.222,3.222,0,0,1,3.226-3.225m0,5.375a2.148,2.148,0,0,0,2.149-2.15,2.15,2.15,0,0,0-4.3,0,2.149,2.149,0,0,0,2.151,2.15m0-7.375a5.225,5.225,0,1,0,5.224,5.225,5.231,5.231,0,0,0-5.224-5.225Zm0,5.375a.149.149,0,0,1-.151-.15c0-.119.135-.123.151-.123s.149,0,.149.123a.148.148,0,0,1-.149.15Z"/>
</svg>
