<svg xmlns="http://www.w3.org/2000/svg" viewBox="0 0 764 94.387">
  <defs>
    <style>.cls-1 {
      fill: #fff;
    }

    .cls-2 {
      opacity: 0.75;
    }

    .cls-3 {
      fill: #5b6e80;
    }</style>
  </defs>
  <rect class="cls-1" x="33.804" y="77.565" width="707.698" height="16.822" rx="7.747"/>
  <path class="cls-1"
        d="M656.223,61.013c0,8.363,2.565,19.007,12.924,19.957.665.095,1.046.475,1.046.76s-.285.57-.856.57c-12.449,0-17.866-8.838-17.866-21.1a41.784,41.784,0,0,1,.38-5.891c4.752-38.679,26.324-42.195,26.324-42.195.285,0,.475.095.475.285,0,.286-.284.571-.95.951C656.7,25.187,656.223,60.918,656.223,61.013Zm17.77,21c-.379,0-.474-.095-.474-.285,0-.285.284-.665.95-1.045,21.477-12.544,21.572-46.851,21.572-47.041,0-8.363-2.47-18.626-13.019-19.577-.665-.094-1.046-.475-1.046-.759s.285-.571.855-.571c12.45,0,17.867,8.838,17.867,21.1a41.8,41.8,0,0,1-.38,5.892C695.66,77.359,673.993,82.015,673.993,82.015Z"
        transform="translate(0 -12.737)"/>
  <path class="cls-1"
        d="M737.761,81.35c-8.362,0-23.852-.475-23.852-1.71,0-1.806,23.472-2.091,24.517-2.091,2.566,0,24.709.665,24.709,1.9C763.135,80.875,746.884,81.35,737.761,81.35Zm24.993-59.015c0,12.45-13.494,35.922-37.822,53.693a2.305,2.305,0,0,1-1.235.571c-.1,0-.191-.1-.191-.286s.191-.475.666-.95c23.568-22.238,33.261-42.384,33.261-51.982,0-3.136-1.046-6.463-6.938-6.463-5.226,0-13.209,2.852-22.427,10.169a1.536,1.536,0,0,1-.951.38c-.285,0-.474-.095-.474-.38,0-1.425,12.259-14.065,25.943-14.065C756.863,13.022,762.754,14.448,762.754,22.335Z"
        transform="translate(0 -12.737)"/>
  <g class="cls-2">
    <path class="cls-1"
          d="M77.83,69.894h.756c1.093,0,2.437-.042,3.361-.084h.126a2.146,2.146,0,0,1,2.268,2.226,2.051,2.051,0,0,1-1.806,2.142c-.714.084-.756.294-.756,1.009.084,5.418.756,15.374,1.134,21.255.042.462.294.588.84.63h.252a2.107,2.107,0,0,1,2.269,2.142,2.218,2.218,0,0,1-2.353,2.227h-.168c-1.092-.042-2.142-.084-3.192-.084-1.219,0-2.4.042-3.4.084a2.282,2.282,0,0,1-2.521-2.185,2.174,2.174,0,0,1,2.311-2.184h.461c.42,0,.714-.126.714-.672v-.126c-.378-6.932-.546-19.575-.546-19.575-.042-1.135-.21-1.6-.419-1.6-.252,0-.589.587-.8,1.47-.924,3.486-5.251,17.18-6.973,21.718a3.585,3.585,0,0,1-3.234,2.352,3.219,3.219,0,0,1-2.942-2.31C61.867,95.1,58.171,81.7,56.617,76.741c-.21-.757-.462-1.177-.672-1.177-.378,0-.5,1.219-.546,1.6-.253,3.486-.715,18.063-.715,19.113,0,.588.294.714,1.135.8H55.9a2.2,2.2,0,1,1,.084,4.369h-.168c-1.093-.042-2.143-.084-3.194-.084-1.217,0-2.393.042-3.4.084A2.282,2.282,0,0,1,46.7,99.256a2.175,2.175,0,0,1,2.311-2.184h.336c.546,0,.8-.21.841-.84.294-6.722.84-15.417,1.134-20.92v-.42c0-.462-.084-.63-.672-.63-2.521,0-2.647-1.554-2.647-2.226a2.135,2.135,0,0,1,2.227-2.226h.252c.63.042,1.427.084,2.31.084.63,0,1.3-.042,1.89-.042h.21a4.644,4.644,0,0,1,4.621,3.4c.8,2.52,2.143,7.1,3.4,11.258,2.563,8.4,3.025,9.493,3.446,9.493.168,0,.336-.168.462-.5,1.595-3.865,4.915-15.626,6.594-20.457a4.46,4.46,0,0,1,4.327-3.15Z"
          transform="translate(0 -12.737)"/>
    <path class="cls-1"
          d="M111.806,97.324c-.882,2.6-2.394,4.117-5.839,4.117h-.42c-1.722-.042-3.57-.084-5.419-.084-2.394,0-4.747.042-6.678.168h-.168a2.509,2.509,0,0,1-1.177-4.789,8.7,8.7,0,0,0,1.6-1.3c12.476-13.19,12.728-15.123,12.728-17.349a4.4,4.4,0,0,0-4.494-4.537,5.831,5.831,0,0,0-5,3.235,2.385,2.385,0,0,1-4.453-.925c0-1.764,3.4-6.469,9.41-6.469,4.789,0,9.409,3.109,9.409,8.234,0,2.352-.924,5.041-3.192,8.107-3.025,4.075-6.89,7.436-10.334,11.132a.363.363,0,0,0-.126.252c0,.084.084.168.336.168,1.47-.084,4.789,0,6.763-.168,2.4-.21,2.647-1.344,3.277-3.277a2.427,2.427,0,0,1,2.352-1.89,2.3,2.3,0,0,1,2.353,2.268,2.488,2.488,0,0,1-.168.882Z"
          transform="translate(0 -12.737)"/>
    <path class="cls-1"
          d="M121.967,101.609a2.715,2.715,0,0,1-2.94-2.941,2.85,2.85,0,0,1,2.94-2.856,2.9,2.9,0,0,1,2.983,2.814A3.02,3.02,0,0,1,121.967,101.609Z"
          transform="translate(0 -12.737)"/>
    <path class="cls-1"
          d="M166.279,97.24a.655.655,0,0,0,.63-.672c0-.084-1.092-3.7-1.6-5.209a.713.713,0,0,0-.672-.588h-9.62c-.546.084-.714.168-.882.714-.42,1.429-1.429,4.915-1.429,4.915a.961.961,0,0,0,.967.84,2.167,2.167,0,0,1,2.521,2.142,2.112,2.112,0,0,1-2.311,2.1h-.168c-1.051-.042-2.143-.084-3.234-.084-1.345,0-2.563.042-3.572.084h-.168a2.142,2.142,0,0,1-2.31-2.143,2.1,2.1,0,0,1,2.268-2.1h.21c.672,0,1.093-.714,1.261-1.26,2.437-7.6,6.343-18.567,8.024-23.524a3.646,3.646,0,0,1,3.444-2.772,3.974,3.974,0,0,1,3.654,2.9c2.227,6.385,6.344,17.979,8.4,23.4.126.378.672,1.26,1.344,1.26a2.2,2.2,0,0,1,2.479,2.142,2.15,2.15,0,0,1-2.353,2.1H173c-1.05-.042-2.142-.084-3.234-.084-1.345,0-2.563.042-3.571.084a2.169,2.169,0,0,1-2.437-2.1,2.13,2.13,0,0,1,2.269-2.142h.252Zm-2.983-10.5c.252-.042.378-.084.378-.21,0-.294-2.9-9.157-3.234-10.207-.252-.757-.462-1.092-.672-1.092s-.462.419-.756,1.26c-.967,2.6-3.192,10-3.192,10,0,.126.084.168.42.252Z"
          transform="translate(0 -12.737)"/>
    <path class="cls-1"
          d="M200.718,101.441c-.84-.042-2.184-.042-3.444-.042-.882,0-1.723,0-2.227.042a1.909,1.909,0,0,1-2.268-1.933,1.984,1.984,0,0,1,2.1-2.016h.294c.42,0,.63-.168.63-.63,0-1.3.043-2.773.043-4.116,0-1.975-.043-3.7-.085-4.412-.168-2.856-1.974-4.032-3.906-4.032-2.437,0-5.125,1.848-5.251,4.494-.042.756-.042,1.891-.042,3.277s0,3.067.042,4.957c0,.462.294.462.714.462a1.944,1.944,0,0,1,2.31,1.932,2.047,2.047,0,0,1-2.226,2.017h-.084c-.84-.042-2.184-.042-3.445-.042-.881,0-1.722,0-2.226.042a1.909,1.909,0,0,1-2.269-1.933,1.985,1.985,0,0,1,2.1-2.016h.378c.378,0,.5-.126.5-.588.084-4.284.126-5,.126-6.595,0-.883,0-1.975-.042-4.033a1,1,0,0,0-1.009-1.05h-.252a1.909,1.909,0,0,1-1.891-2.1,2.037,2.037,0,0,1,2.059-2.185c.5,0,.588-.042,1.009-.042h.252c1.721,0,3.108.42,3.78,1.513.042.084.084.126.168.126s.21-.126.42-.294a9.584,9.584,0,0,1,5.671-1.765c3.571,0,7.225,1.891,7.393,7.226.042,1.679.126,6.048.126,9.2a.517.517,0,0,0,.546.588,2.114,2.114,0,0,1,2.353,2.016,2.027,2.027,0,0,1-2.269,1.933Z"
          transform="translate(0 -12.737)"/>
    <path class="cls-1"
          d="M210.249,80.857c3.067.042,4.326,1.471,4.326,4.5v.168c-.083,5.8-.167,8.905-.167,11.006a.716.716,0,0,0,.714.8,2.1,2.1,0,1,1,.084,4.159h-.084c-.882-.042-2.352-.042-3.655-.042-1.008,0-1.891,0-2.394.042a2.045,2.045,0,0,1-2.4-2.059,2.086,2.086,0,0,1,2.227-2.1h.671c.547,0,.715-.126.715-.882.042-1.933.084-4.495.084-7.394v-2.1c0-1.176-.126-1.638-1.176-1.638h-.42a1.952,1.952,0,0,1-1.933-2.142,2.12,2.12,0,0,1,2.059-2.311ZM208.7,72.372a2.85,2.85,0,0,1,2.94-2.857,2.959,2.959,0,0,1,2.94,2.857,2.927,2.927,0,0,1-2.94,2.982A2.787,2.787,0,0,1,208.7,72.372Z"
          transform="translate(0 -12.737)"/>
    <path class="cls-1"
          d="M253.135,101.441c-.84-.042-2.185-.042-3.444-.042-.882,0-1.723,0-2.227.042a1.811,1.811,0,0,1-2.058-1.891,1.837,1.837,0,0,1,1.89-1.932h.462c.336,0,.588-.084.588-.546,0-1.344.042-2.941.042-4.41,0-2.1-.042-3.95-.084-4.705-.126-2.479-1.428-3.487-2.94-3.487a5.4,5.4,0,0,0-5,5c-.042.883-.042,2.1-.042,3.656,0,1.133,0,2.478.042,3.99,0,.42.21.5.5.5,1.134,0,2.436.168,2.436,1.848a1.953,1.953,0,0,1-2.1,1.975h-.042c-.84-.042-2.184-.042-3.445-.042-.882,0-1.722,0-2.226.042a1.916,1.916,0,1,1-.168-3.823h.462c.42,0,.588-.126.588-.63,0-1.344.042-2.9.042-4.368,0-2.059-.042-3.908-.084-4.663-.126-2.521-1.428-3.529-2.94-3.529a5.363,5.363,0,0,0-4.915,5.04c0,.589-.042,1.387-.042,2.395,0,1.345.042,3.066.084,5.125,0,.462.126.63.546.63.8,0,2.268.211,2.268,1.848a1.953,1.953,0,0,1-2.1,1.975h-.042c-.84-.042-2.185-.042-3.445-.042-.881,0-1.722,0-2.226.042a1.919,1.919,0,1,1-.168-3.823h.42c.42,0,.672-.084.672-.588.084-3.025.126-5.251.126-7.394,0-1.218-.042-2.393-.042-3.654,0-.336-.294-.924-.756-.924h-.084a1.826,1.826,0,0,1-2.1-2.016,1.962,1.962,0,0,1,1.849-2.143h.042c.672,0,1.092-.042,1.471-.042,2.141,0,3.486,1.135,3.7,1.891a.46.46,0,0,0,.084.168c.042,0,.084-.042.126-.084a6.715,6.715,0,0,1,5.041-2.269,6.074,6.074,0,0,1,5.671,3.823,7.585,7.585,0,0,1,6.342-3.781c3.32,0,6.386,2.521,6.512,7.1.042,1.679.084,6.006.084,9.283a.584.584,0,0,0,.63.588h.042a1.936,1.936,0,1,1,0,3.865Z"
          transform="translate(0 -12.737)"/>
    <path class="cls-1"
          d="M267.621,101.9c-4.621,0-7.351-3.361-7.351-6.595a5.521,5.521,0,0,1,4.074-5.251,45.322,45.322,0,0,1,7.184-1.849c.42-.041.756-.545.756-1.428,0-.5-.126-2.646-2.983-2.646a5.558,5.558,0,0,0-4.116,1.764,2.04,2.04,0,0,1-1.555.756,1.973,1.973,0,0,1-2.016-1.932c0-2.016,3.7-4.243,7.939-4.243,4.663,0,7.142,2.269,7.142,7.1,0,.5-.042,1.049-.084,1.637-.084.631-.21,3.95-.21,6.008,0,1.554.084,1.974.8,1.974a1.914,1.914,0,0,1,1.974,1.974c0,2.311-2.226,2.311-2.646,2.311a3.22,3.22,0,0,1-3.025-1.471A9.647,9.647,0,0,1,267.621,101.9Zm4.243-10.166c-7.1.883-7.52,2.646-7.52,3.655,0,1.3,1.135,2.605,3.277,2.605,3.4,0,4.872-1.723,4.872-4.7,0-.63-.084-1.555-.587-1.555Z"
          transform="translate(0 -12.737)"/>
    <path class="cls-1"
          d="M291.813,84.89c-.631,0-.631.21-.631.462,0,1.554-.126,5.125-.126,7.9,0,3.276.126,4.621,2.478,4.621a8.037,8.037,0,0,0,.967-.085c.126,0,.21-.042.336-.042a1.8,1.8,0,0,1,1.806,1.848c0,1.513-1.386,2.227-3.57,2.227-6.217,0-6.217-5.5-6.217-7.226,0-2.436.084-6.636.084-8.485v-.63c0-.546-.252-.588-.672-.588h-1.261a1.908,1.908,0,0,1-1.89-2.016,1.838,1.838,0,0,1,1.89-1.933h1.218c.673,0,.715-.126.715-.714,0,0,.042-.84.042-1.806,0-.5,0-1.008-.042-1.47v-.126a1.909,1.909,0,0,1,2.1-1.891,2.2,2.2,0,0,1,2.226,2.563c0,1.134-.084,2.73-.084,2.73,0,.672.168.714.589.714h2.814a1.816,1.816,0,0,1,1.848,1.975,1.837,1.837,0,0,1-1.848,1.974Z"
          transform="translate(0 -12.737)"/>
    <path class="cls-1"
          d="M304.453,80.857c3.067.042,4.327,1.471,4.327,4.5v.168c-.084,5.8-.168,8.905-.168,11.006a.716.716,0,0,0,.714.8,2.1,2.1,0,1,1,.084,4.159h-.084c-.882-.042-2.352-.042-3.655-.042-1.008,0-1.89,0-2.394.042a2.045,2.045,0,0,1-2.395-2.059,2.086,2.086,0,0,1,2.227-2.1h.672c.546,0,.714-.126.714-.882.042-1.933.084-4.495.084-7.394v-2.1c0-1.176-.126-1.638-1.176-1.638h-.42a1.952,1.952,0,0,1-1.933-2.142,2.12,2.12,0,0,1,2.059-2.311ZM302.9,72.372a2.85,2.85,0,0,1,2.94-2.857,2.96,2.96,0,0,1,2.941,2.857,2.928,2.928,0,0,1-2.941,2.982A2.787,2.787,0,0,1,302.9,72.372Z"
          transform="translate(0 -12.737)"/>
    <path class="cls-1"
          d="M316.633,91.191a10.565,10.565,0,1,1,21.13,0,10.565,10.565,0,1,1-21.13,0Zm16.887,0c0-4.159-2.857-6.805-6.3-6.805s-6.344,2.646-6.344,6.805c0,4.117,2.857,6.722,6.344,6.722S333.52,95.308,333.52,91.191Z"
          transform="translate(0 -12.737)"/>
    <path class="cls-1"
          d="M364.1,101.441c-.84-.042-2.184-.042-3.444-.042-.882,0-1.723,0-2.227.042a1.909,1.909,0,0,1-2.268-1.933,1.984,1.984,0,0,1,2.1-2.016h.294c.42,0,.63-.168.63-.63,0-1.3.043-2.773.043-4.116,0-1.975-.043-3.7-.085-4.412-.168-2.856-1.974-4.032-3.906-4.032-2.437,0-5.125,1.848-5.251,4.494-.042.756-.042,1.891-.042,3.277s0,3.067.042,4.957c0,.462.294.462.714.462a1.944,1.944,0,0,1,2.31,1.932,2.047,2.047,0,0,1-2.226,2.017H350.7c-.84-.042-2.184-.042-3.445-.042-.882,0-1.722,0-2.226.042a1.909,1.909,0,0,1-2.269-1.933,1.985,1.985,0,0,1,2.1-2.016h.378c.378,0,.5-.126.5-.588.084-4.284.126-5,.126-6.595,0-.883,0-1.975-.042-4.033a1,1,0,0,0-1.009-1.05h-.252a1.909,1.909,0,0,1-1.891-2.1,2.037,2.037,0,0,1,2.059-2.185c.5,0,.588-.042,1.009-.042h.252c1.721,0,3.108.42,3.78,1.513.042.084.084.126.168.126s.21-.126.42-.294a9.584,9.584,0,0,1,5.671-1.765c3.571,0,7.225,1.891,7.393,7.226.042,1.679.126,6.048.126,9.2a.517.517,0,0,0,.546.588,2.114,2.114,0,0,1,2.353,2.016,2.027,2.027,0,0,1-2.269,1.933Z"
          transform="translate(0 -12.737)"/>
    <path class="cls-1"
          d="M372.241,103.248a2.013,2.013,0,0,1-2.1-1.891,1.948,1.948,0,0,1,.168-.8c1.933-4.831,10.754-27.935,11.679-31.3a1.78,1.78,0,0,1,1.8-1.344,1.871,1.871,0,0,1,2.059,2.52c-1.176,2.941-9.745,25.835-11.8,31.506A1.878,1.878,0,0,1,372.241,103.248Z"
          transform="translate(0 -12.737)"/>
    <path class="cls-1"
          d="M397.107,102.491c-3.656,2.184-6.638-2.017-2.815-3.949a17.473,17.473,0,0,0,10-13.106,11.659,11.659,0,0,0,0-3.823c-.5-2.6,4.244-3.528,4.831-.42a10.213,10.213,0,0,1,.084,1.723,21.12,21.12,0,0,0,7.184-5.587c.714-.966.84-1.471-.756-1.387-5.293.21-12.057,1.135-13.947,1.387a29.054,29.054,0,0,1-5.755.546,2.195,2.195,0,1,1,.294-4.369c1.807.042,3.781-.21,5.545-.336,1.848-.126,8.864-.8,15.627-1.176,4.7-.252,6.512,3.277,3.529,6.763-2.688,3.151-6.26,6.469-10.544,8.065a2.331,2.331,0,0,1-1.764.042A23.591,23.591,0,0,1,397.107,102.491Z"
          transform="translate(0 -12.737)"/>
    <path class="cls-1"
          d="M455.868,96.19a40.815,40.815,0,0,0-6.8-.336c-4.5.168-10.04.672-13.275,1.05a37.635,37.635,0,0,1-6.048.546A2.239,2.239,0,1,1,430.076,93a47.848,47.848,0,0,0,5.461-.126c2.941-.294,9.536-.841,13.653-1.093a48.9,48.9,0,0,1,7.393-.252c1.932.168,3.025,1.639,2.815,2.856C459.188,95.644,457.717,96.442,455.868,96.19Zm-8.695-13.526c-2.394.336-5.545.63-7.309.714a24.508,24.508,0,0,1-5.25.084,2.137,2.137,0,1,1,.755-4.2,18,18,0,0,0,3.7.084,73.9,73.9,0,0,0,7.9-.8,16.111,16.111,0,0,0,1.891-.42,5.887,5.887,0,0,1,2.016-.252c3.109.084,4.033,4.075.042,4.453C449.568,82.454,448.518,82.5,447.173,82.664Z"
          transform="translate(0 -12.737)"/>
    <path class="cls-1"
          d="M469.724,103.374c-2.982,1.469-5.083-2.6-1.975-3.95,5.167-2.226,9.746-6.258,13.443-10.712a30.391,30.391,0,0,0-4.788-2.226c-2.689-.966-.925-4.746,2.393-3.4,1.555.63,3.278,1.386,5,2.226a56.93,56.93,0,0,0,3.613-5.881,17.125,17.125,0,0,0,1.554-4.033c.546-2.856,5.335-2.31,4.7.967a13.787,13.787,0,0,1-1.974,4.536c-1.344,2.227-2.731,4.411-4.2,6.512a17.894,17.894,0,0,1,3.7,3.066,2.517,2.517,0,0,1,0,3.444,2.054,2.054,0,0,1-3.109.042,23.406,23.406,0,0,0-3.318-2.9A43.263,43.263,0,0,1,469.724,103.374Z"
          transform="translate(0 -12.737)"/>
    <path class="cls-1"
          d="M531.511,87.285h-2.184c-8.023,0-14.157.378-17.475.5-2.185.084-3.318.126-4.158.126-.5,0-.883-.042-1.345-.042a2.324,2.324,0,0,1-2.437-2.269c0-1.05.84-2.058,2.521-2.058h.252c1.555.084,3.4.126,5.083.126,3.444,0,12.434-.5,19.827-.714h.085a2.3,2.3,0,0,1,2.562,2.142c0,1.092-.882,2.185-2.689,2.185Z"
          transform="translate(0 -12.737)"/>
    <path class="cls-1"
          d="M550.2,88.754a14.758,14.758,0,0,0-5.209-2.142c-2.521-.42-1.681-4.41,1.385-3.822a21.37,21.37,0,0,1,6.134,2.142,2.194,2.194,0,0,1,.882,3.109A2.13,2.13,0,0,1,550.2,88.754Zm-.21,12.939c-3.53.42-4.076-3.949-1.387-4.369a14.473,14.473,0,0,0,3.234-1.05c7.73-3.78,14.661-11.006,19.2-19.281,1.427-2.647,5.628-.8,3.7,2.52-5.545,9.493-11.93,15.837-20.668,20.751A9.639,9.639,0,0,1,549.988,101.693Zm5.293-20.416a15.615,15.615,0,0,0-4.622-3.234c-2.352-.966-.629-4.705,2.227-3.445a22.516,22.516,0,0,1,5.5,3.487,2.208,2.208,0,0,1,.168,3.234A2.145,2.145,0,0,1,555.281,81.277Z"
          transform="translate(0 -12.737)"/>
    <path class="cls-1"
          d="M600.224,96.19c0,.924-.8,1.681-2.269,1.807-.755.042-1.3.126-2.058.168-1.344.084-7.814.839-8.863.965a13.68,13.68,0,0,1-2.941.168c-2.352-.21-2.478-3.486.42-3.318a17.023,17.023,0,0,0,2.059-.042c.965-.084,6.342-.8,8.569-1.051.168-.966.42-2.1.63-3.192a1.51,1.51,0,0,1-.462.084c-.756.084-1.3.126-2.059.21-1.3.168-3.024.5-4.032.673a16.422,16.422,0,0,1-2.856.252c-2.311-.042-2.731-3.236.084-3.278a17.514,17.514,0,0,0,2.1-.042c1.093-.168,3.11-.42,4.453-.588.756-.084,1.639-.294,2.395-.378a1.97,1.97,0,0,1,1.008.168c.21-1.007.379-1.806.463-2.226.126-.672-.042-.84-.757-.756-1.428.21-6.175.924-7.309,1.134a18.15,18.15,0,0,1-3.613.379c-2.269,0-2.647-3.277.126-3.4a21.028,21.028,0,0,0,2.814-.126c1.051-.168,6.008-.672,7.058-.84a22.589,22.589,0,0,1,2.94-.462c3.025-.042,3.571,2.352,3.025,3.528a37.234,37.234,0,0,0-1.512,5.167c-.294,1.218-.547,2.478-.8,3.528A1.6,1.6,0,0,1,600.224,96.19Z"
          transform="translate(0 -12.737)"/>
    <path class="cls-1"
          d="M621.39,83.672a17.346,17.346,0,0,0-5.966-2.857c-2.52-.546-1.47-4.747,1.723-3.948a25.869,25.869,0,0,1,6.931,2.814,2.414,2.414,0,0,1,.714,3.4A2.266,2.266,0,0,1,621.39,83.672ZM623.2,99.508a9.021,9.021,0,0,1-4.033,1.345c-3.487.294-3.991-4.117-1.3-4.411a14.49,14.49,0,0,0,3.234-1.05c7.6-3.445,14.409-10.292,18.651-18.483,1.387-2.647,5.629-.883,3.782,2.478A47.411,47.411,0,0,1,623.2,99.508Z"
          transform="translate(0 -12.737)"/>
  </g>
  <path class="cls-3"
        d="M75.83,67.894h.756c1.093,0,2.437-.042,3.361-.084h.126a2.146,2.146,0,0,1,2.268,2.226,2.051,2.051,0,0,1-1.806,2.142c-.714.084-.756.294-.756,1.009.084,5.418.756,15.374,1.134,21.255.042.462.294.588.84.63h.252a2.107,2.107,0,0,1,2.269,2.142,2.218,2.218,0,0,1-2.353,2.227h-.168c-1.092-.042-2.142-.084-3.192-.084-1.219,0-2.4.042-3.4.084a2.282,2.282,0,0,1-2.521-2.185,2.174,2.174,0,0,1,2.311-2.184h.461c.42,0,.714-.126.714-.672v-.126c-.378-6.932-.546-19.575-.546-19.575-.042-1.135-.21-1.6-.419-1.6-.252,0-.589.587-.8,1.47-.924,3.486-5.251,17.18-6.973,21.718a3.585,3.585,0,0,1-3.234,2.352,3.219,3.219,0,0,1-2.942-2.31C59.867,93.1,56.171,79.7,54.617,74.741c-.21-.757-.462-1.177-.672-1.177-.378,0-.5,1.219-.546,1.6-.253,3.486-.715,18.063-.715,19.113,0,.588.294.714,1.135.8H53.9a2.2,2.2,0,1,1,.084,4.369h-.168c-1.093-.042-2.143-.084-3.194-.084-1.217,0-2.393.042-3.4.084A2.282,2.282,0,0,1,44.7,97.256a2.175,2.175,0,0,1,2.311-2.184h.336c.546,0,.8-.21.841-.84.294-6.722.84-15.417,1.134-20.92v-.42c0-.462-.084-.63-.672-.63-2.521,0-2.647-1.554-2.647-2.226a2.135,2.135,0,0,1,2.227-2.226h.252c.63.042,1.427.084,2.31.084.63,0,1.3-.042,1.89-.042h.21a4.644,4.644,0,0,1,4.621,3.4c.8,2.52,2.143,7.1,3.4,11.258,2.563,8.4,3.025,9.493,3.446,9.493.168,0,.336-.168.462-.5,1.595-3.865,4.915-15.626,6.594-20.457a4.46,4.46,0,0,1,4.327-3.15Z"
        transform="translate(0 -12.737)"/>
  <path class="cls-3"
        d="M109.806,95.324c-.882,2.6-2.394,4.117-5.839,4.117h-.42c-1.722-.042-3.57-.084-5.419-.084-2.394,0-4.747.042-6.678.168h-.168a2.509,2.509,0,0,1-1.177-4.789,8.7,8.7,0,0,0,1.6-1.3c12.476-13.19,12.728-15.123,12.728-17.349a4.4,4.4,0,0,0-4.494-4.537,5.831,5.831,0,0,0-5,3.235,2.385,2.385,0,0,1-4.453-.925c0-1.764,3.4-6.469,9.41-6.469,4.789,0,9.409,3.109,9.409,8.234,0,2.352-.924,5.041-3.192,8.107-3.025,4.075-6.89,7.436-10.334,11.132a.363.363,0,0,0-.126.252c0,.084.084.168.336.168,1.47-.084,4.789,0,6.763-.168,2.4-.21,2.647-1.344,3.277-3.277a2.427,2.427,0,0,1,2.352-1.89,2.3,2.3,0,0,1,2.353,2.268,2.488,2.488,0,0,1-.168.882Z"
        transform="translate(0 -12.737)"/>
  <path class="cls-3"
        d="M119.967,99.609a2.715,2.715,0,0,1-2.94-2.941,2.85,2.85,0,0,1,2.94-2.856,2.9,2.9,0,0,1,2.983,2.814A3.02,3.02,0,0,1,119.967,99.609Z"
        transform="translate(0 -12.737)"/>
  <path class="cls-3"
        d="M164.279,95.24a.655.655,0,0,0,.63-.672c0-.084-1.092-3.7-1.6-5.209a.713.713,0,0,0-.672-.588h-9.62c-.546.084-.714.168-.882.714-.42,1.429-1.429,4.915-1.429,4.915a.961.961,0,0,0,.967.84,2.167,2.167,0,0,1,2.521,2.142,2.112,2.112,0,0,1-2.311,2.1h-.168c-1.051-.042-2.143-.084-3.234-.084-1.345,0-2.563.042-3.572.084h-.168a2.142,2.142,0,0,1-2.31-2.143,2.1,2.1,0,0,1,2.268-2.1h.21c.672,0,1.093-.714,1.261-1.26,2.437-7.6,6.343-18.567,8.024-23.524a3.646,3.646,0,0,1,3.444-2.772,3.974,3.974,0,0,1,3.654,2.9c2.227,6.385,6.344,17.979,8.4,23.4.126.378.672,1.26,1.344,1.26a2.2,2.2,0,0,1,2.479,2.142,2.15,2.15,0,0,1-2.353,2.1H171c-1.05-.042-2.142-.084-3.234-.084-1.345,0-2.563.042-3.571.084a2.169,2.169,0,0,1-2.437-2.1,2.13,2.13,0,0,1,2.269-2.142h.252Zm-2.983-10.5c.252-.042.378-.084.378-.21,0-.294-2.9-9.157-3.234-10.207-.252-.757-.462-1.092-.672-1.092s-.462.419-.756,1.26c-.967,2.6-3.192,10-3.192,10,0,.126.084.168.42.252Z"
        transform="translate(0 -12.737)"/>
  <path class="cls-3"
        d="M198.718,99.441c-.84-.042-2.184-.042-3.444-.042-.882,0-1.723,0-2.227.042a1.909,1.909,0,0,1-2.268-1.933,1.984,1.984,0,0,1,2.1-2.016h.294c.42,0,.63-.168.63-.63,0-1.3.043-2.773.043-4.116,0-1.975-.043-3.7-.085-4.412-.168-2.856-1.974-4.032-3.906-4.032-2.437,0-5.125,1.848-5.251,4.494-.042.756-.042,1.891-.042,3.277s0,3.067.042,4.957c0,.462.294.462.714.462a1.944,1.944,0,0,1,2.31,1.932,2.047,2.047,0,0,1-2.226,2.017h-.084c-.84-.042-2.184-.042-3.445-.042-.881,0-1.722,0-2.226.042a1.909,1.909,0,0,1-2.269-1.933,1.985,1.985,0,0,1,2.1-2.016h.378c.378,0,.5-.126.5-.588.084-4.284.126-5,.126-6.595,0-.883,0-1.975-.042-4.033a1,1,0,0,0-1.009-1.05h-.252a1.909,1.909,0,0,1-1.891-2.1,2.037,2.037,0,0,1,2.059-2.185c.5,0,.588-.042,1.009-.042h.252c1.721,0,3.108.42,3.78,1.513.042.084.084.126.168.126s.21-.126.42-.294a9.584,9.584,0,0,1,5.671-1.765c3.571,0,7.225,1.891,7.393,7.226.042,1.679.126,6.048.126,9.2a.517.517,0,0,0,.546.588,2.114,2.114,0,0,1,2.353,2.016,2.027,2.027,0,0,1-2.269,1.933Z"
        transform="translate(0 -12.737)"/>
  <path class="cls-3"
        d="M208.249,78.857c3.067.042,4.326,1.471,4.326,4.5v.168c-.083,5.8-.167,8.905-.167,11.006a.716.716,0,0,0,.714.8,2.1,2.1,0,1,1,.084,4.159h-.084c-.882-.042-2.352-.042-3.655-.042-1.008,0-1.891,0-2.394.042a2.045,2.045,0,0,1-2.4-2.059,2.086,2.086,0,0,1,2.227-2.1h.671c.547,0,.715-.126.715-.882.042-1.933.084-4.495.084-7.394v-2.1c0-1.176-.126-1.638-1.176-1.638h-.42a1.952,1.952,0,0,1-1.933-2.142,2.12,2.12,0,0,1,2.059-2.311ZM206.7,70.372a2.85,2.85,0,0,1,2.94-2.857,2.959,2.959,0,0,1,2.94,2.857,2.927,2.927,0,0,1-2.94,2.982A2.787,2.787,0,0,1,206.7,70.372Z"
        transform="translate(0 -12.737)"/>
  <path class="cls-3"
        d="M251.135,99.441c-.84-.042-2.185-.042-3.444-.042-.882,0-1.723,0-2.227.042a1.811,1.811,0,0,1-2.058-1.891,1.837,1.837,0,0,1,1.89-1.932h.462c.336,0,.588-.084.588-.546,0-1.344.042-2.941.042-4.41,0-2.1-.042-3.95-.084-4.705-.126-2.479-1.428-3.487-2.94-3.487a5.4,5.4,0,0,0-5,5c-.042.883-.042,2.1-.042,3.656,0,1.133,0,2.478.042,3.99,0,.42.21.5.5.5,1.134,0,2.436.168,2.436,1.848a1.953,1.953,0,0,1-2.1,1.975h-.042c-.84-.042-2.184-.042-3.445-.042-.882,0-1.722,0-2.226.042a1.916,1.916,0,1,1-.168-3.823h.462c.42,0,.588-.126.588-.63,0-1.344.042-2.9.042-4.368,0-2.059-.042-3.908-.084-4.663-.126-2.521-1.428-3.529-2.94-3.529a5.363,5.363,0,0,0-4.915,5.04c0,.589-.042,1.387-.042,2.395,0,1.345.042,3.066.084,5.125,0,.462.126.63.546.63.8,0,2.268.211,2.268,1.848a1.953,1.953,0,0,1-2.1,1.975h-.042c-.84-.042-2.185-.042-3.445-.042-.881,0-1.722,0-2.226.042a1.919,1.919,0,1,1-.168-3.823h.42c.42,0,.672-.084.672-.588.084-3.025.126-5.251.126-7.394,0-1.218-.042-2.393-.042-3.654,0-.336-.294-.924-.756-.924h-.084a1.826,1.826,0,0,1-2.1-2.016,1.962,1.962,0,0,1,1.849-2.143h.042c.672,0,1.092-.042,1.471-.042,2.141,0,3.486,1.135,3.7,1.891a.46.46,0,0,0,.084.168c.042,0,.084-.042.126-.084a6.715,6.715,0,0,1,5.041-2.269,6.074,6.074,0,0,1,5.671,3.823,7.585,7.585,0,0,1,6.342-3.781c3.32,0,6.386,2.521,6.512,7.1.042,1.679.084,6.006.084,9.283a.584.584,0,0,0,.63.588h.042a1.936,1.936,0,1,1,0,3.865Z"
        transform="translate(0 -12.737)"/>
  <path class="cls-3"
        d="M265.621,99.9c-4.621,0-7.351-3.361-7.351-6.595a5.521,5.521,0,0,1,4.074-5.251,45.322,45.322,0,0,1,7.184-1.849c.42-.041.756-.545.756-1.428,0-.5-.126-2.646-2.983-2.646a5.558,5.558,0,0,0-4.116,1.764,2.04,2.04,0,0,1-1.555.756,1.973,1.973,0,0,1-2.016-1.932c0-2.016,3.7-4.243,7.939-4.243,4.663,0,7.142,2.269,7.142,7.1,0,.5-.042,1.049-.084,1.637-.084.631-.21,3.95-.21,6.008,0,1.554.084,1.974.8,1.974a1.914,1.914,0,0,1,1.974,1.974c0,2.311-2.226,2.311-2.646,2.311a3.22,3.22,0,0,1-3.025-1.471A9.647,9.647,0,0,1,265.621,99.9Zm4.243-10.166c-7.1.883-7.52,2.646-7.52,3.655,0,1.3,1.135,2.605,3.277,2.605,3.4,0,4.872-1.723,4.872-4.7,0-.63-.084-1.555-.587-1.555Z"
        transform="translate(0 -12.737)"/>
  <path class="cls-3"
        d="M289.813,82.89c-.631,0-.631.21-.631.462,0,1.554-.126,5.125-.126,7.9,0,3.276.126,4.621,2.478,4.621a8.037,8.037,0,0,0,.967-.085c.126,0,.21-.042.336-.042a1.8,1.8,0,0,1,1.806,1.848c0,1.513-1.386,2.227-3.57,2.227-6.217,0-6.217-5.5-6.217-7.226,0-2.436.084-6.636.084-8.485v-.63c0-.546-.252-.588-.672-.588h-1.261a1.908,1.908,0,0,1-1.89-2.016,1.838,1.838,0,0,1,1.89-1.933h1.218c.673,0,.715-.126.715-.714,0,0,.042-.84.042-1.806,0-.5,0-1.008-.042-1.47v-.126a1.909,1.909,0,0,1,2.1-1.891,2.2,2.2,0,0,1,2.226,2.563c0,1.134-.084,2.73-.084,2.73,0,.672.168.714.589.714h2.814a1.816,1.816,0,0,1,1.848,1.975,1.837,1.837,0,0,1-1.848,1.974Z"
        transform="translate(0 -12.737)"/>
  <path class="cls-3"
        d="M302.453,78.857c3.067.042,4.327,1.471,4.327,4.5v.168c-.084,5.8-.168,8.905-.168,11.006a.716.716,0,0,0,.714.8,2.1,2.1,0,1,1,.084,4.159h-.084c-.882-.042-2.352-.042-3.655-.042-1.008,0-1.89,0-2.394.042a2.045,2.045,0,0,1-2.395-2.059,2.086,2.086,0,0,1,2.227-2.1h.672c.546,0,.714-.126.714-.882.042-1.933.084-4.495.084-7.394v-2.1c0-1.176-.126-1.638-1.176-1.638h-.42a1.952,1.952,0,0,1-1.933-2.142,2.12,2.12,0,0,1,2.059-2.311ZM300.9,70.372a2.85,2.85,0,0,1,2.94-2.857,2.96,2.96,0,0,1,2.941,2.857,2.928,2.928,0,0,1-2.941,2.982A2.787,2.787,0,0,1,300.9,70.372Z"
        transform="translate(0 -12.737)"/>
  <path class="cls-3"
        d="M314.633,89.191a10.565,10.565,0,1,1,21.13,0,10.565,10.565,0,1,1-21.13,0Zm16.887,0c0-4.159-2.857-6.805-6.3-6.805s-6.344,2.646-6.344,6.805c0,4.117,2.857,6.722,6.344,6.722S331.52,93.308,331.52,89.191Z"
        transform="translate(0 -12.737)"/>
  <path class="cls-3"
        d="M362.1,99.441c-.84-.042-2.184-.042-3.444-.042-.882,0-1.723,0-2.227.042a1.909,1.909,0,0,1-2.268-1.933,1.984,1.984,0,0,1,2.1-2.016h.294c.42,0,.63-.168.63-.63,0-1.3.043-2.773.043-4.116,0-1.975-.043-3.7-.085-4.412-.168-2.856-1.974-4.032-3.906-4.032-2.437,0-5.125,1.848-5.251,4.494-.042.756-.042,1.891-.042,3.277s0,3.067.042,4.957c0,.462.294.462.714.462a1.944,1.944,0,0,1,2.31,1.932,2.047,2.047,0,0,1-2.226,2.017H348.7c-.84-.042-2.184-.042-3.445-.042-.882,0-1.722,0-2.226.042a1.909,1.909,0,0,1-2.269-1.933,1.985,1.985,0,0,1,2.1-2.016h.378c.378,0,.5-.126.5-.588.084-4.284.126-5,.126-6.595,0-.883,0-1.975-.042-4.033a1,1,0,0,0-1.009-1.05h-.252a1.909,1.909,0,0,1-1.891-2.1,2.037,2.037,0,0,1,2.059-2.185c.5,0,.588-.042,1.009-.042h.252c1.721,0,3.108.42,3.78,1.513.042.084.084.126.168.126s.21-.126.42-.294a9.584,9.584,0,0,1,5.671-1.765c3.571,0,7.225,1.891,7.393,7.226.042,1.679.126,6.048.126,9.2a.517.517,0,0,0,.546.588,2.114,2.114,0,0,1,2.353,2.016,2.027,2.027,0,0,1-2.269,1.933Z"
        transform="translate(0 -12.737)"/>
  <path class="cls-3"
        d="M370.241,101.248a2.013,2.013,0,0,1-2.1-1.891,1.948,1.948,0,0,1,.168-.8c1.933-4.831,10.754-27.935,11.679-31.3a1.78,1.78,0,0,1,1.8-1.344,1.871,1.871,0,0,1,2.059,2.52c-1.176,2.941-9.745,25.835-11.8,31.506A1.878,1.878,0,0,1,370.241,101.248Z"
        transform="translate(0 -12.737)"/>
  <path class="cls-3"
        d="M395.107,100.491c-3.656,2.184-6.638-2.017-2.815-3.949a17.473,17.473,0,0,0,10-13.106,11.659,11.659,0,0,0,0-3.823c-.5-2.6,4.244-3.528,4.831-.42a10.213,10.213,0,0,1,.084,1.723,21.12,21.12,0,0,0,7.184-5.587c.714-.966.84-1.471-.756-1.387-5.293.21-12.057,1.135-13.947,1.387a29.054,29.054,0,0,1-5.755.546,2.195,2.195,0,1,1,.294-4.369c1.807.042,3.781-.21,5.545-.336,1.848-.126,8.864-.8,15.627-1.176,4.7-.252,6.512,3.277,3.529,6.763-2.688,3.151-6.26,6.469-10.544,8.065a2.331,2.331,0,0,1-1.764.042A23.591,23.591,0,0,1,395.107,100.491Z"
        transform="translate(0 -12.737)"/>
  <path class="cls-3"
        d="M453.868,94.19a40.815,40.815,0,0,0-6.8-.336c-4.5.168-10.04.672-13.275,1.05a37.635,37.635,0,0,1-6.048.546A2.239,2.239,0,1,1,428.076,91a47.848,47.848,0,0,0,5.461-.126c2.941-.294,9.536-.841,13.653-1.093a48.9,48.9,0,0,1,7.393-.252c1.932.168,3.025,1.639,2.815,2.856C457.188,93.644,455.717,94.442,453.868,94.19Zm-8.695-13.526c-2.394.336-5.545.63-7.309.714a24.508,24.508,0,0,1-5.25.084,2.137,2.137,0,1,1,.755-4.2,18,18,0,0,0,3.7.084,73.9,73.9,0,0,0,7.9-.8,16.111,16.111,0,0,0,1.891-.42,5.887,5.887,0,0,1,2.016-.252c3.109.084,4.033,4.075.042,4.453C447.568,80.454,446.518,80.5,445.173,80.664Z"
        transform="translate(0 -12.737)"/>
  <path class="cls-3"
        d="M467.724,101.374c-2.982,1.469-5.083-2.6-1.975-3.95,5.167-2.226,9.746-6.258,13.443-10.712a30.391,30.391,0,0,0-4.788-2.226c-2.689-.966-.925-4.746,2.393-3.4,1.555.63,3.278,1.386,5,2.226a56.93,56.93,0,0,0,3.613-5.881,17.125,17.125,0,0,0,1.554-4.033c.546-2.856,5.335-2.31,4.7.967a13.787,13.787,0,0,1-1.974,4.536c-1.344,2.227-2.731,4.411-4.2,6.512a17.894,17.894,0,0,1,3.7,3.066,2.517,2.517,0,0,1,0,3.444,2.054,2.054,0,0,1-3.109.042,23.406,23.406,0,0,0-3.318-2.9A43.263,43.263,0,0,1,467.724,101.374Z"
        transform="translate(0 -12.737)"/>
  <path class="cls-3"
        d="M529.511,85.285h-2.184c-8.023,0-14.157.378-17.475.5-2.185.084-3.318.126-4.158.126-.5,0-.883-.042-1.345-.042a2.324,2.324,0,0,1-2.437-2.269c0-1.05.84-2.058,2.521-2.058h.252c1.555.084,3.4.126,5.083.126,3.444,0,12.434-.5,19.827-.714h.085a2.3,2.3,0,0,1,2.562,2.142c0,1.092-.882,2.185-2.689,2.185Z"
        transform="translate(0 -12.737)"/>
  <path class="cls-3"
        d="M548.2,86.754a14.758,14.758,0,0,0-5.209-2.142c-2.521-.42-1.681-4.41,1.385-3.822a21.37,21.37,0,0,1,6.134,2.142,2.194,2.194,0,0,1,.882,3.109A2.13,2.13,0,0,1,548.2,86.754Zm-.21,12.939c-3.53.42-4.076-3.949-1.387-4.369a14.473,14.473,0,0,0,3.234-1.05c7.73-3.78,14.661-11.006,19.2-19.281,1.427-2.647,5.628-.8,3.7,2.52-5.545,9.493-11.93,15.837-20.668,20.751A9.639,9.639,0,0,1,547.988,99.693Zm5.293-20.416a15.615,15.615,0,0,0-4.622-3.234c-2.352-.966-.629-4.705,2.227-3.445a22.516,22.516,0,0,1,5.5,3.487,2.208,2.208,0,0,1,.168,3.234A2.145,2.145,0,0,1,553.281,79.277Z"
        transform="translate(0 -12.737)"/>
  <path class="cls-3"
        d="M598.224,94.19c0,.924-.8,1.681-2.269,1.807-.755.042-1.3.126-2.058.168-1.344.084-7.814.839-8.863.965a13.68,13.68,0,0,1-2.941.168c-2.352-.21-2.478-3.486.42-3.318a17.023,17.023,0,0,0,2.059-.042c.965-.084,6.342-.8,8.569-1.051.168-.966.42-2.1.63-3.192a1.51,1.51,0,0,1-.462.084c-.756.084-1.3.126-2.059.21-1.3.168-3.024.5-4.032.673a16.422,16.422,0,0,1-2.856.252c-2.311-.042-2.731-3.236.084-3.278a17.514,17.514,0,0,0,2.1-.042c1.093-.168,3.11-.42,4.453-.588.756-.084,1.639-.294,2.395-.378a1.97,1.97,0,0,1,1.008.168c.21-1.007.379-1.806.463-2.226.126-.672-.042-.84-.757-.756-1.428.21-6.175.924-7.309,1.134a18.15,18.15,0,0,1-3.613.379c-2.269,0-2.647-3.277.126-3.4a21.028,21.028,0,0,0,2.814-.126c1.051-.168,6.008-.672,7.058-.84a22.589,22.589,0,0,1,2.94-.462c3.025-.042,3.571,2.352,3.025,3.528a37.234,37.234,0,0,0-1.512,5.167c-.294,1.218-.547,2.478-.8,3.528A1.6,1.6,0,0,1,598.224,94.19Z"
        transform="translate(0 -12.737)"/>
  <path class="cls-3"
        d="M619.39,81.672a17.346,17.346,0,0,0-5.966-2.857c-2.52-.546-1.47-4.747,1.723-3.948a25.869,25.869,0,0,1,6.931,2.814,2.414,2.414,0,0,1,.714,3.4A2.266,2.266,0,0,1,619.39,81.672ZM621.2,97.508a9.021,9.021,0,0,1-4.033,1.345c-3.487.294-3.991-4.117-1.3-4.411a14.49,14.49,0,0,0,3.234-1.05c7.6-3.445,14.409-10.292,18.651-18.483,1.387-2.647,5.629-.883,3.782,2.478A47.411,47.411,0,0,1,621.2,97.508Z"
        transform="translate(0 -12.737)"/>
  <g id="sakura">
    <path class="cls-1"
          d="M13.8,55.219l-.979,2.336-1.929-1.642s-8.08,5.36,4.7,13.266C23.429,56.351,13.8,55.219,13.8,55.219Z"
          transform="translate(0 -12.737)"/>
    <path class="cls-1" d="M28.544,64.8l1.179-2.242s-7-6.709-11.913,7.5c14.233,4.833,13.228-4.811,13.228-4.811Z"
          transform="translate(0 -12.737)"/>
    <path class="cls-1"
          d="M17.925,72.635c.422,15.025,9.113,10.726,9.113,10.726l-.453-2.492,2.513.326S32.952,72.3,17.925,72.635Z"
          transform="translate(0 -12.737)"/>
    <path class="cls-1"
          d="M15.078,73.314C1.52,79.8,8.978,86,8.978,86l2.093-1.426L11.794,87S21.49,86.909,15.078,73.314Z"
          transform="translate(0 -12.737)"/>
    <path class="cls-1" d="M0,69.655l2.066,1.467L.04,72.644S3.5,81.7,14.014,70.961C3.214,60.507,0,69.655,0,69.655Z"
          transform="translate(0 -12.737)"/>
    <path class="cls-1" d="M17.008,70.941a.965.965,0,1,0-.714,1.163A.964.964,0,0,0,17.008,70.941Z"
          transform="translate(0 -12.737)"/>
  </g>
</svg>
