<svg xmlns="http://www.w3.org/2000/svg" viewBox="0 0 481.079 28.937">
  <defs>
    <style>.cls-1 {
      fill: #5b6e80;
    }

    .cls-2 {
      fill: #fff;
    }</style>
  </defs>
  <path class="cls-1"
        d="M4.024,27.583a2.916,2.916,0,0,1-1.413-5.521,5.716,5.716,0,0,0,1-.817c9.472-10.014,9.472-11.267,9.472-12.593a2.376,2.376,0,0,0-2.438-2.471A3.5,3.5,0,0,0,7.688,8.154,2.76,2.76,0,0,1,5.245,9.588,2.743,2.743,0,0,1,2.414,6.949C2.414,4.906,5.606,1,10.612,1c3.975,0,8.2,2.558,8.2,7.3a11.629,11.629,0,0,1-2.639,6.8A54.481,54.481,0,0,1,10.828,21c-.432.433-.865.866-1.293,1.3h0c1.089-.007,2.322-.016,3.177-.089,1.083-.094,1.148-.3,1.573-1.612l.069-.207a2.862,2.862,0,0,1,2.75-2.137,2.771,2.771,0,0,1,2.8,2.736,2.9,2.9,0,0,1-.192,1.027l-.566,1.672a5.128,5.128,0,0,1-5.415,3.828h-.321c-1.335-.032-2.741-.064-4.145-.064-2.089,0-3.74.041-5.044.126l-.033,0Z"/>
  <path class="cls-2"
        d="M10.612,2c3.663,0,7.2,2.378,7.2,6.3a10.565,10.565,0,0,1-2.443,6.2c-2.313,3.118-5.27,5.688-7.9,8.516a.278.278,0,0,0-.1.193c0,.064.065.128.257.128,1.125-.064,3.664,0,5.174-.128,1.832-.161,2.024-1.028,2.507-2.506a1.856,1.856,0,0,1,1.8-1.447,1.76,1.76,0,0,1,1.8,1.736,1.888,1.888,0,0,1-.128.675l-.578,1.7a4.117,4.117,0,0,1-4.467,3.149h-.321c-1.318-.032-2.732-.064-4.145-.064-1.832,0-3.632.032-5.11.128H4.024a1.919,1.919,0,0,1-.9-3.663,6.717,6.717,0,0,0,1.221-1c9.544-10.091,9.737-11.569,9.737-13.272a3.37,3.37,0,0,0-3.438-3.471A4.462,4.462,0,0,0,6.82,7.656a1.763,1.763,0,0,1-1.575.932A1.753,1.753,0,0,1,3.414,6.949C3.414,5.6,6.017,2,10.612,2m0-2c-5.706,0-9.2,4.5-9.2,6.949a3.744,3.744,0,0,0,3.831,3.639,3.784,3.784,0,0,0,3.312-1.94,2.537,2.537,0,0,1,2.088-1.467,1.378,1.378,0,0,1,1.438,1.471c0,.972,0,2.181-9.19,11.9a4.775,4.775,0,0,1-.844.684,3.912,3.912,0,0,0,1.975,7.35h.194l.065,0c1.266-.083,2.941-.124,4.98-.124,1.371,0,2.72.03,4.1.063h.37a6.093,6.093,0,0,0,6.362-4.508l.568-1.676a3.878,3.878,0,0,0,.243-1.343A3.817,3.817,0,0,0,15.4,17.65c.546-.63,1.075-1.281,1.577-1.958A12.59,12.59,0,0,0,19.811,8.3c0-5.194-4.677-8.3-9.2-8.3Zm1.373,21.256c.526-.527,1.054-1.061,1.578-1.606a4.747,4.747,0,0,0-.168.456l-.061.187a7.742,7.742,0,0,1-.31.857,2.068,2.068,0,0,1-.4.067c-.192.016-.407.029-.637.039Z"/>
  <path class="cls-1"
        d="M31.757,27.937c-4.984,0-8.286-3.45-8.836-9.229-.134-1.427-.2-2.792-.2-4.175,0-1.152.05-2.354.164-3.9.476-5.926,3.876-9.6,8.87-9.6s8.285,3.438,8.836,9.2c.157,1.716.229,3.083.229,4.305C40.822,23.427,37.772,27.937,31.757,27.937Zm0-21.627c-1.8,0-3.078,1.77-3.342,4.619-.105,1.192-.157,2.246-.157,3.218a36.038,36.038,0,0,0,.25,4.126c.311,2.644,1.587,4.354,3.249,4.354,1.576,0,2.827-1.582,3.188-4.031a33.436,33.436,0,0,0,.279-4.417c0-1.065-.053-2.2-.158-3.383C34.8,7.99,33.562,6.31,31.757,6.31Z"/>
  <path class="cls-2"
        d="M31.757,2.032c4.3,0,7.327,2.925,7.841,8.291.129,1.414.224,2.828.224,4.21,0,3.117-.1,12.4-8.065,12.4-4.275,0-7.327-2.924-7.841-8.323-.129-1.382-.193-2.732-.193-4.081,0-1.254.064-2.507.161-3.825.45-5.591,3.5-8.676,7.873-8.676m0,21.6c2.024,0,3.727-1.832,4.178-4.885a34.549,34.549,0,0,0,.289-4.563c0-1.189-.065-2.378-.162-3.471-.321-3.374-1.992-5.4-4.3-5.4s-4.017,2.057-4.338,5.527c-.1,1.093-.161,2.217-.161,3.31a37.045,37.045,0,0,0,.257,4.242c.385,3.278,2.121,5.238,4.242,5.238m0-23.595c-5.564,0-9.345,4.03-9.867,10.516-.116,1.583-.167,2.808-.167,3.985,0,1.414.066,2.809.2,4.267.595,6.254,4.362,10.137,9.832,10.137,4.592,0,10.065-2.5,10.065-14.4,0-1.254-.074-2.649-.233-4.392C40.992,3.9,37.225.032,31.757.032Zm0,21.6c-1.105,0-2.012-1.395-2.256-3.472a35.088,35.088,0,0,1-.243-4.008c0-.942.05-1.968.153-3.134.166-1.786.869-3.7,2.346-3.7,1.455,0,2.149,1.854,2.315,3.588.1,1.137.152,2.245.152,3.281a32.562,32.562,0,0,1-.271,4.294c-.277,1.877-1.161,3.154-2.2,3.154Z"/>
  <path class="cls-1"
        d="M46.443,27.583a2.916,2.916,0,0,1-1.413-5.521,5.716,5.716,0,0,0,1-.817C55.5,11.231,55.5,9.978,55.5,8.652a2.377,2.377,0,0,0-2.439-2.471,3.5,3.5,0,0,0-2.957,1.973,2.822,2.822,0,0,1-5.273-1.2c0-2.043,3.192-5.949,8.2-5.949,3.975,0,8.2,2.558,8.2,7.3a11.627,11.627,0,0,1-2.638,6.8A54.481,54.481,0,0,1,53.247,21q-.65.649-1.293,1.3h0c1.089-.007,2.322-.016,3.177-.089,1.083-.094,1.148-.3,1.573-1.612l.068-.207a2.864,2.864,0,0,1,2.75-2.137,2.771,2.771,0,0,1,2.8,2.736,2.89,2.89,0,0,1-.193,1.027l-.567,1.672a5.127,5.127,0,0,1-5.414,3.828h-.321c-1.335-.032-2.74-.064-4.145-.064-2.089,0-3.74.041-5.044.126l-.034,0Z"/>
  <path class="cls-2"
        d="M53.031,2c3.663,0,7.2,2.378,7.2,6.3a10.569,10.569,0,0,1-2.442,6.2c-2.313,3.118-5.27,5.688-7.905,8.516a.278.278,0,0,0-.1.193c0,.064.065.128.257.128,1.125-.064,3.664,0,5.174-.128,1.832-.161,2.024-1.028,2.507-2.506a1.856,1.856,0,0,1,1.8-1.447,1.761,1.761,0,0,1,1.8,1.736,1.892,1.892,0,0,1-.129.675l-.578,1.7a4.117,4.117,0,0,1-4.467,3.149h-.321c-1.318-.032-2.731-.064-4.145-.064-1.832,0-3.632.032-5.11.128h-.129a1.919,1.919,0,0,1-.9-3.663,6.717,6.717,0,0,0,1.221-1C56.309,11.833,56.5,10.355,56.5,8.652a3.37,3.37,0,0,0-3.439-3.471,4.462,4.462,0,0,0-3.824,2.475,1.824,1.824,0,0,1-3.406-.707c0-1.35,2.6-4.949,7.2-4.949m0-2c-5.706,0-9.2,4.5-9.2,6.949a3.744,3.744,0,0,0,3.831,3.639,3.784,3.784,0,0,0,3.312-1.94,2.537,2.537,0,0,1,2.087-1.467A1.379,1.379,0,0,1,54.5,8.652c0,.972,0,2.181-9.19,11.9a4.775,4.775,0,0,1-.844.684,3.912,3.912,0,0,0,1.975,7.35h.194l.065,0c1.266-.083,2.941-.124,4.98-.124,1.371,0,2.72.03,4.1.063h.37a6.093,6.093,0,0,0,6.362-4.508l.568-1.675a3.9,3.9,0,0,0,.244-1.344,3.818,3.818,0,0,0-5.506-3.342c.546-.63,1.075-1.281,1.577-1.958A12.588,12.588,0,0,0,62.229,8.3c0-5.194-4.676-8.3-9.2-8.3ZM54.4,21.256c.526-.527,1.054-1.061,1.578-1.606a4.747,4.747,0,0,0-.168.456l-.061.187a7.742,7.742,0,0,1-.31.857,2.068,2.068,0,0,1-.4.067c-.192.016-.407.029-.637.039Z"/>
  <path class="cls-1"
        d="M67.652,27.583a2.916,2.916,0,0,1-1.413-5.521,5.716,5.716,0,0,0,1-.817c9.472-10.014,9.472-11.267,9.472-12.593a2.377,2.377,0,0,0-2.439-2.471,3.5,3.5,0,0,0-2.957,1.973,2.822,2.822,0,0,1-5.273-1.2C66.042,4.906,69.234,1,74.24,1c3.975,0,8.2,2.558,8.2,7.3A11.627,11.627,0,0,1,79.8,15.1,54.481,54.481,0,0,1,74.456,21q-.65.649-1.293,1.3h0c1.089-.007,2.322-.016,3.177-.089,1.083-.094,1.148-.3,1.573-1.612l.068-.207a2.864,2.864,0,0,1,2.75-2.137,2.771,2.771,0,0,1,2.8,2.736,2.89,2.89,0,0,1-.193,1.027l-.567,1.672a5.127,5.127,0,0,1-5.414,3.828h-.321c-1.335-.032-2.74-.064-4.145-.064-2.089,0-3.74.041-5.044.126l-.034,0Z"/>
  <path class="cls-2"
        d="M74.24,2c3.663,0,7.2,2.378,7.2,6.3A10.569,10.569,0,0,1,79,14.5c-2.313,3.118-5.27,5.688-7.905,8.516a.278.278,0,0,0-.1.193c0,.064.065.128.257.128,1.125-.064,3.664,0,5.174-.128,1.832-.161,2.024-1.028,2.507-2.506a1.856,1.856,0,0,1,1.8-1.447,1.761,1.761,0,0,1,1.8,1.736,1.892,1.892,0,0,1-.129.675l-.578,1.7a4.117,4.117,0,0,1-4.467,3.149h-.321c-1.318-.032-2.731-.064-4.145-.064-1.832,0-3.632.032-5.11.128h-.129a1.919,1.919,0,0,1-.9-3.663,6.717,6.717,0,0,0,1.221-1c9.544-10.091,9.737-11.569,9.737-13.272a3.37,3.37,0,0,0-3.439-3.471,4.462,4.462,0,0,0-3.824,2.475,1.824,1.824,0,0,1-3.406-.707c0-1.35,2.6-4.949,7.2-4.949m0-2c-5.706,0-9.2,4.5-9.2,6.949a3.744,3.744,0,0,0,3.831,3.639,3.784,3.784,0,0,0,3.312-1.94,2.537,2.537,0,0,1,2.087-1.467,1.379,1.379,0,0,1,1.439,1.471c0,.972,0,2.181-9.19,11.9a4.775,4.775,0,0,1-.844.684,3.912,3.912,0,0,0,1.975,7.35h.194l.065,0c1.266-.083,2.941-.124,4.98-.124,1.371,0,2.72.03,4.1.063h.37a6.093,6.093,0,0,0,6.362-4.508l.568-1.675a3.9,3.9,0,0,0,.244-1.344,3.818,3.818,0,0,0-5.506-3.342c.546-.63,1.075-1.281,1.577-1.958A12.588,12.588,0,0,0,83.438,8.3c0-5.194-4.676-8.3-9.2-8.3Zm1.373,21.256c.526-.527,1.054-1.061,1.578-1.606a4.747,4.747,0,0,0-.168.456l-.061.187a7.742,7.742,0,0,1-.31.857,2.068,2.068,0,0,1-.4.067c-.192.016-.407.029-.637.039Z"/>
  <path class="cls-1"
        d="M89.922,27.647a3.053,3.053,0,0,1-3.25-3.249,3.154,3.154,0,0,1,3.25-3.185A3.229,3.229,0,0,1,93.2,24.366,3.3,3.3,0,0,1,89.922,27.647Z"/>
  <path class="cls-2"
        d="M89.922,22.213A2.215,2.215,0,0,1,92.2,24.366a2.309,2.309,0,0,1-2.281,2.281,2.077,2.077,0,0,1-2.25-2.249,2.18,2.18,0,0,1,2.25-2.185m0-2a4.179,4.179,0,0,0-4.25,4.185,4.066,4.066,0,0,0,4.25,4.249A4.291,4.291,0,0,0,94.2,24.366a4.231,4.231,0,0,0-4.281-4.153Z"/>
  <path class="cls-1"
        d="M105.7,27.937c-4.983,0-8.286-3.45-8.836-9.229-.134-1.427-.2-2.792-.2-4.175,0-1.152.051-2.354.164-3.9.477-5.926,3.876-9.6,8.87-9.6s8.285,3.438,8.836,9.2c.157,1.716.23,3.083.23,4.305C114.766,23.427,111.716,27.937,105.7,27.937Zm0-21.627c-1.8,0-3.078,1.77-3.342,4.619-.105,1.192-.157,2.246-.157,3.218a36.038,36.038,0,0,0,.25,4.126c.312,2.644,1.587,4.354,3.249,4.354,1.576,0,2.827-1.582,3.189-4.031a33.615,33.615,0,0,0,.278-4.417c0-1.065-.053-2.2-.157-3.383C108.742,7.99,107.505,6.31,105.7,6.31Z"/>
  <path class="cls-2"
        d="M105.7,2.032c4.306,0,7.327,2.925,7.841,8.291.129,1.414.225,2.828.225,4.21,0,3.117-.1,12.4-8.066,12.4-4.274,0-7.327-2.924-7.841-8.323-.129-1.382-.193-2.732-.193-4.081,0-1.254.064-2.507.161-3.825.45-5.591,3.5-8.676,7.873-8.676m0,21.6c2.025,0,3.728-1.832,4.178-4.885a34.549,34.549,0,0,0,.289-4.563c0-1.189-.064-2.378-.161-3.471-.321-3.374-1.992-5.4-4.306-5.4s-4.016,2.057-4.338,5.527c-.1,1.093-.161,2.217-.161,3.31a37.274,37.274,0,0,0,.257,4.242c.386,3.278,2.121,5.238,4.242,5.238m0-23.595c-5.563,0-9.344,4.03-9.866,10.516-.117,1.583-.168,2.808-.168,3.985,0,1.414.066,2.809.2,4.267.595,6.254,4.362,10.137,9.832,10.137,4.592,0,10.066-2.5,10.066-14.4,0-1.254-.074-2.649-.233-4.392C114.936,3.9,111.168.032,105.7.032Zm0,21.6c-1.105,0-2.011-1.395-2.256-3.472a35.088,35.088,0,0,1-.243-4.008c0-.942.05-1.968.153-3.134.166-1.786.87-3.7,2.346-3.7,1.455,0,2.15,1.854,2.315,3.588.1,1.137.152,2.245.152,3.281a32.562,32.562,0,0,1-.271,4.294c-.277,1.877-1.161,3.154-2.2,3.154Z"/>
  <path class="cls-1"
        d="M126.941,27.905a8.893,8.893,0,0,1-9.13-9.259,18.092,18.092,0,0,1,2.335-8.152c1.033-1.888,6.314-9.173,9.206-9.173a3.029,3.029,0,0,1,2.96,2.864,2.4,2.4,0,0,1-1.153,2.022,26.581,26.581,0,0,0-5.412,5.073,9.137,9.137,0,0,1,1.837-.19c4.17,0,8.391,2.806,8.391,8.166C135.975,24.934,131.431,27.905,126.941,27.905Zm.128-11.987a3.657,3.657,0,0,0-3.916,3.531c0,2.585,2.3,3.274,3.659,3.274a3.54,3.54,0,0,0,3.853-3.434A3.337,3.337,0,0,0,127.069,15.918Z"/>
  <path class="cls-2"
        d="M129.352,2.321a2.021,2.021,0,0,1,1.96,1.864,1.411,1.411,0,0,1-.708,1.189C127.52,7.4,123.7,11.769,123.7,12.8c0,.1.033.161.161.161a1.222,1.222,0,0,0,.193-.064,8.323,8.323,0,0,1,3.535-.8c3.728,0,7.391,2.475,7.391,7.166,0,4.949-3.92,7.649-8.034,7.649a7.914,7.914,0,0,1-8.13-8.259,17,17,0,0,1,2.217-7.68c1.318-2.41,6.235-8.645,8.324-8.645m-2.54,21.4a4.55,4.55,0,0,0,4.853-4.434,4.334,4.334,0,0,0-4.6-4.371,4.644,4.644,0,0,0-4.916,4.531c0,2.957,2.41,4.274,4.659,4.274m2.54-23.4c-3.774,0-9.45,8.535-10.079,9.686a19.089,19.089,0,0,0-2.462,8.639,9.861,9.861,0,0,0,10.13,10.259c4.986,0,10.034-3.314,10.034-9.649,0-5.781-4.361-8.915-8.842-9.151A22.482,22.482,0,0,1,131.7,7.046a3.423,3.423,0,0,0,1.61-2.861,4.016,4.016,0,0,0-3.96-3.864Zm-2.54,21.4c-.444,0-2.659-.109-2.659-2.274a2.654,2.654,0,0,1,2.916-2.531,2.354,2.354,0,0,1,2.6,2.371,2.58,2.58,0,0,1-2.853,2.434Z"/>
  <path class="cls-1"
        d="M142.656,27.647a3.053,3.053,0,0,1-3.25-3.249,3.154,3.154,0,0,1,3.25-3.185,3.23,3.23,0,0,1,3.282,3.153A3.3,3.3,0,0,1,142.656,27.647Z"/>
  <path class="cls-2"
        d="M142.656,22.213a2.215,2.215,0,0,1,2.282,2.153,2.31,2.31,0,0,1-2.282,2.281,2.077,2.077,0,0,1-2.25-2.249,2.181,2.181,0,0,1,2.25-2.185m0-2a4.179,4.179,0,0,0-4.25,4.185,4.066,4.066,0,0,0,4.25,4.249,4.291,4.291,0,0,0,4.282-4.281,4.232,4.232,0,0,0-4.282-4.153Z"/>
  <path class="cls-1"
        d="M158.434,27.937c-4.984,0-8.287-3.45-8.836-9.229-.134-1.427-.2-2.792-.2-4.175,0-1.152.051-2.354.164-3.9.477-5.926,3.876-9.6,8.871-9.6,4.98,0,8.284,3.438,8.836,9.2.157,1.717.229,3.084.229,4.306C167.5,23.427,164.449,27.937,158.434,27.937Zm0-21.627c-1.8,0-3.079,1.77-3.342,4.619-.106,1.192-.157,2.246-.157,3.218a36.038,36.038,0,0,0,.25,4.126c.311,2.644,1.586,4.354,3.249,4.354,1.576,0,2.827-1.582,3.188-4.031a33.443,33.443,0,0,0,.278-4.417c0-1.065-.052-2.2-.157-3.383C161.476,7.99,160.238,6.31,158.434,6.31Z"/>
  <path class="cls-2"
        d="M158.434,2.032c4.305,0,7.326,2.925,7.84,8.291.129,1.414.225,2.828.225,4.21,0,3.117-.1,12.4-8.065,12.4-4.275,0-7.328-2.924-7.841-8.323-.129-1.382-.194-2.732-.194-4.081,0-1.254.065-2.507.162-3.825.45-5.591,3.5-8.676,7.873-8.676m0,21.6c2.024,0,3.727-1.832,4.177-4.885a34.379,34.379,0,0,0,.289-4.563c0-1.189-.064-2.378-.161-3.471-.321-3.374-1.992-5.4-4.305-5.4s-4.017,2.057-4.338,5.527c-.1,1.093-.161,2.217-.161,3.31a37.274,37.274,0,0,0,.256,4.242c.386,3.278,2.121,5.238,4.243,5.238m0-23.595c-5.564,0-9.345,4.03-9.867,10.516-.116,1.583-.168,2.808-.168,3.985,0,1.414.067,2.809.2,4.267.595,6.254,4.363,10.137,9.833,10.137,4.591,0,10.065-2.5,10.065-14.4,0-1.254-.074-2.649-.233-4.392C167.668,3.9,163.9.032,158.434.032Zm0,21.6c-1.1,0-2.012-1.395-2.256-3.472a34.861,34.861,0,0,1-.243-4.008c0-.942.05-1.968.153-3.134.165-1.786.869-3.7,2.346-3.7,1.454,0,2.149,1.854,2.314,3.588.1,1.137.152,2.245.152,3.281a32.569,32.569,0,0,1-.27,4.294c-.277,1.877-1.161,3.154-2.2,3.154Z"/>
  <path class="cls-1"
        d="M180.182,27.553a3.124,3.124,0,0,1-1.806-.515,2.319,2.319,0,0,1-.985-1.965,2.556,2.556,0,0,1,2.766-2.511h.125v-.789c-2.82.026-5.481.026-5.78.026-3.134,0-4.246-1.837-4.246-3.41a5.155,5.155,0,0,1,1.093-3c1.847-2.617,7.109-9.767,9.615-13.119a2.509,2.509,0,0,1,2.086-1.076,2.939,2.939,0,0,1,2.895,2.831,3.036,3.036,0,0,1-.688,1.831c-.567.692-2.018,2.491-3.635,4.517a2.675,2.675,0,0,1,4.034,2.458c0,.941-.013,1.653-.032,2.616l-.021,1.218c.658-.014,1.1-.014,1.206-.014h0a2.544,2.544,0,0,1,2.7,2.478,2.653,2.653,0,0,1-2.807,2.574c-.353.023-.727.03-1.1.032,0,.08.013.638.017.829a2.613,2.613,0,0,1,2.833,2.51,2.542,2.542,0,0,1-2.767,2.478h-.161c-.879-.031-1.814-.032-2.719-.032h-.116c-.858,0-1.682,0-2.357.031Zm.255-15.693c-1.485,1.87-2.964,3.754-3.916,5.014.929-.006,2.334-.029,3.826-.054V15.689c0-1.224,0-2.192-.032-2.809V12.7A2.852,2.852,0,0,1,180.437,11.86Z"/>
  <path class="cls-2"
        d="M183.05,2.193a1.953,1.953,0,0,1,1.895,1.831,2.044,2.044,0,0,1-.481,1.222c-1.446,1.767-7.487,9.287-9.287,11.761a.692.692,0,0,0-.194.45c0,.418.483.418,1.19.418,1,0,2.828-.032,4.723-.064a.408.408,0,0,0,.451-.451V15.689c0-1.253,0-2.217-.033-2.859V12.7a1.645,1.645,0,0,1,1.671-1.7,1.682,1.682,0,0,1,1.671,1.832c0,1.445-.032,2.345-.064,4.466,0,.257.032.386.353.386,1.029-.032,1.736-.032,1.865-.032h.1a1.507,1.507,0,0,1,1.607,1.478,1.669,1.669,0,0,1-1.832,1.575c-.514.032-1.029.032-1.542.032-.225,0-.547.032-.547.353,0,.515.032,1.382.032,1.993,0,.353.129.481.9.481h.065c1.253,0,1.863.74,1.863,1.511a1.561,1.561,0,0,1-1.767,1.478h-.161c-.868-.032-1.832-.032-2.763-.032-.9,0-1.768,0-2.475.032l-.1,0c-.9,0-1.79-.4-1.79-1.48a1.565,1.565,0,0,1,1.766-1.511h.129l.386.033c.289,0,.61-.065.61-.418V21.12a.322.322,0,0,0-.353-.353c-3.053.032-6.106.032-6.427.032-2.153,0-3.246-1-3.246-2.41a4.165,4.165,0,0,1,.9-2.41c1.928-2.732,7.231-9.93,9.609-13.111a1.529,1.529,0,0,1,1.285-.675m0-2a3.526,3.526,0,0,0-2.9,1.492c-2.238,2.994-7.606,10.273-9.63,13.14a6.108,6.108,0,0,0-1.266,3.564c0,2.2,1.622,4.41,5.246,4.41.43,0,1.45,0,2.746-.006a3.384,3.384,0,0,0-.857,2.28,3.486,3.486,0,0,0,3.79,3.48c.058,0,.116,0,.173,0,.685-.031,1.521-.031,2.407-.031.913,0,1.858,0,2.689.031h.235a3.547,3.547,0,0,0,3.767-3.478,3.449,3.449,0,0,0-1.268-2.647,3.567,3.567,0,0,0,2.329-3.3,3.506,3.506,0,0,0-3.607-3.478h-.285l0-.184c.019-.97.032-1.688.032-2.636a3.7,3.7,0,0,0-2.745-3.719c.9-1.122,1.657-2.057,2.1-2.6l.019-.023.018-.025a4.013,4.013,0,0,0,.9-2.44A3.964,3.964,0,0,0,183.05.193Zm-4.48,15.656c.247-.318.507-.651.776-.994,0,.262,0,.541,0,.834v.147l-.777.013Z"/>
  <path class="cls-1"
        d="M211.939,27.937c-4.983,0-8.286-3.45-8.835-9.229-.134-1.427-.2-2.792-.2-4.175,0-1.152.051-2.354.164-3.9.477-5.926,3.876-9.6,8.87-9.6s8.285,3.438,8.836,9.2c.158,1.717.23,3.084.23,4.306C221.005,23.427,217.955,27.937,211.939,27.937Zm0-21.627c-1.8,0-3.078,1.77-3.341,4.619-.106,1.192-.158,2.246-.158,3.218a36.038,36.038,0,0,0,.25,4.126c.312,2.644,1.587,4.354,3.249,4.354,1.577,0,2.828-1.582,3.189-4.031a33.443,33.443,0,0,0,.278-4.417c0-1.065-.052-2.2-.157-3.383C214.981,7.99,213.744,6.31,211.939,6.31Z"/>
  <path class="cls-2"
        d="M211.939,2.032c4.306,0,7.327,2.925,7.841,8.291.129,1.414.225,2.828.225,4.21,0,3.117-.1,12.4-8.066,12.4-4.274,0-7.327-2.924-7.84-8.323-.129-1.382-.194-2.732-.194-4.081,0-1.254.065-2.507.161-3.825.451-5.591,3.5-8.676,7.873-8.676m0,21.6c2.025,0,3.728-1.832,4.178-4.885a34.379,34.379,0,0,0,.289-4.563c0-1.189-.064-2.378-.161-3.471-.321-3.374-1.992-5.4-4.306-5.4s-4.016,2.057-4.337,5.527c-.1,1.093-.162,2.217-.162,3.31a37.274,37.274,0,0,0,.257,4.242c.386,3.278,2.121,5.238,4.242,5.238m0-23.595c-5.563,0-9.344,4.03-9.866,10.516-.116,1.583-.168,2.808-.168,3.985,0,1.414.066,2.809.2,4.267.595,6.254,4.363,10.137,9.832,10.137,4.592,0,10.066-2.5,10.066-14.4,0-1.254-.074-2.649-.233-4.392C221.174,3.9,217.406.032,211.939.032Zm0,21.6c-1.1,0-2.011-1.395-2.255-3.472a34.869,34.869,0,0,1-.244-4.008c0-.942.051-1.968.154-3.134.165-1.786.869-3.7,2.345-3.7,1.455,0,2.15,1.854,2.315,3.588.1,1.137.152,2.245.152,3.281a32.392,32.392,0,0,1-.271,4.294c-.277,1.877-1.16,3.154-2.2,3.154Z"/>
  <path class="cls-1"
        d="M228.649,26.844A3.052,3.052,0,0,1,225.4,23.6a3.153,3.153,0,0,1,3.249-3.185,3.217,3.217,0,1,1,0,6.434Zm0-9.673a3.052,3.052,0,0,1-3.249-3.249,3.153,3.153,0,0,1,3.249-3.185,3.217,3.217,0,1,1,0,6.434Z"/>
  <path class="cls-2"
        d="M228.649,11.737a2.217,2.217,0,1,1,0,4.434,2.077,2.077,0,0,1-2.249-2.249,2.181,2.181,0,0,1,2.249-2.185m0,9.673a2.217,2.217,0,1,1,0,4.434A2.077,2.077,0,0,1,226.4,23.6a2.18,2.18,0,0,1,2.249-2.185m0-11.673a4.178,4.178,0,0,0-4.249,4.185,4.066,4.066,0,0,0,4.249,4.249,4.217,4.217,0,1,0,0-8.434Zm0,9.673A4.178,4.178,0,0,0,224.4,23.6a4.073,4.073,0,0,0,4.249,4.249,4.217,4.217,0,1,0,0-8.434Z"/>
  <path class="cls-1"
        d="M245.359,27.937c-4.983,0-8.286-3.45-8.836-9.229-.133-1.427-.2-2.792-.2-4.175,0-1.152.051-2.354.164-3.9.477-5.926,3.876-9.6,8.87-9.6s8.285,3.438,8.836,9.2c.158,1.717.23,3.084.23,4.306C254.425,23.427,251.375,27.937,245.359,27.937Zm0-21.627c-1.8,0-3.078,1.77-3.341,4.619-.106,1.192-.158,2.246-.158,3.218a36.038,36.038,0,0,0,.25,4.126c.312,2.644,1.587,4.354,3.249,4.354,1.577,0,2.828-1.582,3.189-4.031a33.615,33.615,0,0,0,.278-4.417c0-1.065-.053-2.2-.157-3.383C248.4,7.99,247.164,6.31,245.359,6.31Z"/>
  <path class="cls-2"
        d="M245.359,2.032c4.306,0,7.327,2.925,7.841,8.291.129,1.414.225,2.828.225,4.21,0,3.117-.1,12.4-8.066,12.4-4.274,0-7.327-2.924-7.84-8.323-.129-1.382-.194-2.732-.194-4.081,0-1.254.065-2.507.161-3.825.451-5.591,3.5-8.676,7.873-8.676m0,21.6c2.025,0,3.728-1.832,4.178-4.885a34.549,34.549,0,0,0,.289-4.563c0-1.189-.064-2.378-.161-3.471-.321-3.374-1.992-5.4-4.306-5.4s-4.016,2.057-4.338,5.527c-.1,1.093-.161,2.217-.161,3.31a37.274,37.274,0,0,0,.257,4.242c.386,3.278,2.121,5.238,4.242,5.238m0-23.595c-5.563,0-9.344,4.03-9.866,10.516-.116,1.583-.168,2.808-.168,3.985,0,1.414.066,2.809.2,4.267.6,6.254,4.363,10.137,9.832,10.137,4.592,0,10.066-2.5,10.066-14.4,0-1.254-.074-2.649-.233-4.392C254.594,3.9,250.826.032,245.359.032Zm0,21.6c-1.105,0-2.011-1.395-2.256-3.472a35.088,35.088,0,0,1-.243-4.008c0-.942.051-1.968.154-3.134.165-1.786.869-3.7,2.345-3.7,1.455,0,2.15,1.854,2.315,3.588.1,1.137.152,2.245.152,3.281a32.392,32.392,0,0,1-.271,4.294c-.277,1.877-1.16,3.154-2.2,3.154Z"/>
  <path class="cls-1"
        d="M266.569,27.937c-4.983,0-8.286-3.45-8.836-9.229-.133-1.427-.2-2.792-.2-4.175,0-1.152.051-2.354.164-3.9.477-5.926,3.876-9.6,8.87-9.6s8.285,3.438,8.836,9.2c.157,1.716.23,3.083.23,4.305C275.635,23.427,272.585,27.937,266.569,27.937Zm0-21.627c-1.8,0-3.078,1.77-3.341,4.619-.106,1.192-.158,2.246-.158,3.218a36.038,36.038,0,0,0,.25,4.126c.312,2.644,1.587,4.354,3.249,4.354,1.577,0,2.827-1.582,3.189-4.031a33.615,33.615,0,0,0,.278-4.417c0-1.065-.053-2.2-.157-3.383C269.611,7.99,268.374,6.31,266.569,6.31Z"/>
  <path class="cls-2"
        d="M266.569,2.032c4.306,0,7.327,2.925,7.841,8.291.129,1.414.225,2.828.225,4.21,0,3.117-.1,12.4-8.066,12.4-4.274,0-7.327-2.924-7.84-8.323-.129-1.382-.194-2.732-.194-4.081,0-1.254.065-2.507.161-3.825.45-5.591,3.5-8.676,7.873-8.676m0,21.6c2.025,0,3.728-1.832,4.178-4.885a34.549,34.549,0,0,0,.289-4.563c0-1.189-.064-2.378-.161-3.471-.321-3.374-1.992-5.4-4.306-5.4s-4.016,2.057-4.338,5.527c-.1,1.093-.161,2.217-.161,3.31a37.274,37.274,0,0,0,.257,4.242c.386,3.278,2.121,5.238,4.242,5.238m0-23.595c-5.563,0-9.344,4.03-9.866,10.516-.117,1.583-.168,2.808-.168,3.985,0,1.414.066,2.809.2,4.267.595,6.254,4.363,10.137,9.832,10.137,4.592,0,10.066-2.5,10.066-14.4,0-1.254-.074-2.649-.233-4.392C275.805,3.9,272.037.032,266.569.032Zm0,21.6c-1.105,0-2.011-1.395-2.256-3.472a35.088,35.088,0,0,1-.243-4.008c0-.942.05-1.968.154-3.134.165-1.786.869-3.7,2.345-3.7,1.455,0,2.15,1.854,2.315,3.588.1,1.137.152,2.245.152,3.281a32.392,32.392,0,0,1-.271,4.294c-.277,1.877-1.161,3.154-2.2,3.154Z"/>
  <path class="cls-1"
        d="M291.924,18.539a7.565,7.565,0,0,1-3.045-.7,6.645,6.645,0,0,1-.884-.494,4.8,4.8,0,0,0-.544-.316,4.524,4.524,0,0,0-1.89-.613c-.581,0-1.151.294-2.35,1.209a2.656,2.656,0,0,1-4.241-2.048,2.45,2.45,0,0,1,.993-1.944c1.636-1.369,3.489-2.656,5.791-2.656a7.553,7.553,0,0,1,3.328.84c.244.113.5.255.741.4.156.088.307.176.459.252a3.744,3.744,0,0,0,1.642.441,5.17,5.17,0,0,0,2.587-1.07,2.5,2.5,0,0,1,1.4-.408,2.673,2.673,0,0,1,2.639,2.638,2.634,2.634,0,0,1-.992,2.045A8.761,8.761,0,0,1,291.924,18.539Z"/>
  <path class="cls-2"
        d="M285.754,11.979a6.542,6.542,0,0,1,2.892.74c.417.193.8.449,1.189.642a4.7,4.7,0,0,0,2.089.547,6.045,6.045,0,0,0,3.117-1.221,1.5,1.5,0,0,1,.867-.257,1.689,1.689,0,0,1,1.639,1.638,1.67,1.67,0,0,1-.643,1.286,7.781,7.781,0,0,1-4.98,2.185,6.5,6.5,0,0,1-2.636-.611c-.514-.224-.932-.578-1.413-.8a5.291,5.291,0,0,0-2.314-.707c-.932,0-1.736.482-2.957,1.414a1.645,1.645,0,0,1-.963.321,1.685,1.685,0,0,1-1.671-1.574,1.444,1.444,0,0,1,.61-1.157c1.574-1.318,3.213-2.443,5.174-2.443m0-2c-2.611,0-4.637,1.388-6.437,2.892a3.427,3.427,0,0,0-1.347,2.708,3.672,3.672,0,0,0,3.671,3.574,3.623,3.623,0,0,0,2.111-.683l.034-.024.032-.024c.946-.723,1.435-1,1.743-1a3.864,3.864,0,0,1,1.42.5l.023.012.024.011a4.524,4.524,0,0,1,.432.255,7.65,7.65,0,0,0,1.027.569,8.414,8.414,0,0,0,3.437.778,9.821,9.821,0,0,0,6.267-2.654,3.627,3.627,0,0,0-2.283-6.455,3.5,3.5,0,0,0-1.947.573,4.607,4.607,0,0,1-2.037.9,2.712,2.712,0,0,1-1.224-.35c-.106-.053-.242-.132-.38-.211-.244-.14-.522-.3-.836-.444a8.469,8.469,0,0,0-3.73-.924Z"/>
  <path class="cls-1"
        d="M326.076,27.555a2.732,2.732,0,0,1-2.082-.841,2.573,2.573,0,0,1-.679-1.737,2.642,2.642,0,0,1,2.613-2.6c.052-1.309.087-4.28.087-7.811,0-3.27-.031-6.459-.061-7.951a2.626,2.626,0,0,1-2.606-2.654,2.6,2.6,0,0,1,2.735-2.639h.183l.116.006c.657.029,1.288.059,1.918.059.748,0,1.48-.016,2.212-.032s1.493-.033,2.255-.033c.779,0,1.585,0,2.4.068,6,.446,8.148,3.994,8.148,7.167a6.9,6.9,0,0,1-4.494,6.55,32.986,32.986,0,0,1,1.933,2.82c2.614,4.2,2.639,4.2,3.253,4.254a2.6,2.6,0,0,1,2.586,2.6,2.775,2.775,0,0,1-2.929,2.735c-.923-.032-1.778-.032-2.6-.032H341c-.8,0-1.561,0-2.237.031h-.175a2.492,2.492,0,0,1-2.671-2.478,2.548,2.548,0,0,1,1.485-2.308c-1.643-2.793-3.882-6.521-4.668-6.622-.381-.031-.635-.032-.882-.032H331.8c-.14,0-.4,0-.606.013,0,1.21.034,2.964.063,4.591l.027,1.65.08.005a2.6,2.6,0,0,1,2.753,2.574,2.644,2.644,0,0,1-2.7,2.639h-.128c-.8-.032-1.621-.064-2.41-.064-1.289,0-2.319.034-2.568.059ZM331.26,11.38c.355.032.967.032,1.6.032.72,0,1.5-.032,2.067-.063a2.994,2.994,0,0,0,2.879-2.729c0-1.3-1.162-2.137-3.107-2.247-.4-.031-1.164-.031-1.9-.031h-.153c-.462,0-.915,0-1.243.029l-.105.009c-.038.359-.038,1.032-.038,1.469Z"/>
  <path class="cls-2"
        d="M332.767,2.321c.771,0,1.543,0,2.313.065,5.624.417,7.231,3.663,7.231,6.17a5.872,5.872,0,0,1-4.595,5.816c-.257.032-.483.1-.483.257a.387.387,0,0,0,.129.257,30.409,30.409,0,0,1,2.538,3.567c2.861,4.595,2.893,4.628,4.018,4.724a1.619,1.619,0,0,1,1.671,1.607,1.78,1.78,0,0,1-1.929,1.735c-.9-.032-1.766-.032-2.6-.032s-1.639,0-2.346.032h-.129a1.509,1.509,0,0,1-1.671-1.478,1.553,1.553,0,0,1,1.222-1.511c.224-.064.578-.193.578-.449a.443.443,0,0,0-.065-.193c-3.149-5.367-4.691-7.777-5.913-7.777-.353-.032-.642-.032-.931-.032-1,0-1.607.032-1.607.707,0,1.671.064,4.724.1,6.845,0,.482.354.675,1.028.706a1.62,1.62,0,0,1,1.8,1.575,1.658,1.658,0,0,1-1.7,1.639h-.128c-.771-.032-1.607-.064-2.41-.064-1.254,0-2.347.032-2.668.064-.046,0-.091,0-.134,0a1.6,1.6,0,0,1-1.762-1.578,1.655,1.655,0,0,1,1.831-1.607h.129c.515,0,.611-.386.643-.771.064-1.382.1-4.692.1-8.034s-.033-6.716-.065-8.163c0-.514-.128-.771-.61-.771-1.864,0-1.992-1.318-1.992-1.671a1.611,1.611,0,0,1,1.735-1.639h.16c.707.033,1.382.065,2.057.065,1.511,0,2.957-.065,4.467-.065m.1,10.091c.74,0,1.542-.033,2.121-.064a3.985,3.985,0,0,0,3.825-3.728c0-1.575-1.222-3.085-4.05-3.246-.417-.032-1.189-.032-1.96-.032-.546,0-1.093,0-1.479.032-1,.1-1.06.161-1.06,2.475v3.824c0,.739.579.739,2.6.739m-.1-12.091c-.77,0-1.523.017-2.277.033-.724.016-1.449.032-2.19.032-.6,0-1.218-.028-1.873-.058l-.093-.005-.045,0h-.206a3.607,3.607,0,0,0-3.735,3.639,3.558,3.558,0,0,0,2.621,3.489c.024,1.667.046,4.362.046,7.116,0,2.859-.024,5.417-.062,6.963a3.579,3.579,0,0,0,1.124,7.027c.074,0,.151,0,.229-.006l.052,0,.053-.006c.183-.018,1.124-.054,2.468-.054.762,0,1.567.031,2.327.063h.211A3.7,3.7,0,0,0,335,25.833a3.538,3.538,0,0,0,3.583,2.686h.174l.046,0c.661-.03,1.435-.03,2.255-.03s1.667,0,2.531.031h.071a3.8,3.8,0,0,0,3.929-3.735,3.6,3.6,0,0,0-3.5-3.6l-.026,0c-.405-.484-1.326-1.962-2.461-3.786-.431-.7-.841-1.318-1.246-1.9a7.971,7.971,0,0,0,3.959-6.945c0-3.456-2.379-7.667-9.083-8.165-.835-.07-1.662-.07-2.461-.07Zm-.506,7.022h.538c.687,0,1.466,0,1.806.026.548.032,2.2.207,2.2,1.252a2,2,0,0,1-1.978,1.733c-.427.023-1.212.059-1.968.059h-.6V7.849c0-.126,0-.31,0-.506Zm.011,14.1-.012-.78c-.021-1.194-.043-2.5-.055-3.583.078,0,.156.005.237.011.728.57,2.321,3.156,3.618,5.342a3.536,3.536,0,0,0-1.028,1.692,3.535,3.535,0,0,0-2.76-2.682Z"/>
  <path class="cls-1"
        d="M350.232,27.553a3.15,3.15,0,0,1-1.763-.54,2.524,2.524,0,0,1-1.083-2.133,2.661,2.661,0,0,1,2.767-2.671h.08c.116-1.93.173-6.193.173-12.464V6.6c-1.815-.055-2.892-1.032-2.892-2.637a2.662,2.662,0,0,1,2.8-2.639h.129c.895.033,1.974.065,3.15.065,1.283,0,2.67-.019,3.941-.036,1.085-.015,2.087-.029,2.871-.029,4.455,0,5.3,1.816,6.073,4.587l.025.1a3.5,3.5,0,0,1,.14.876,2.667,2.667,0,0,1-2.767,2.672,2.639,2.639,0,0,1-2.689-2.25c-.136-.7-.151-.771-1.232-.771-.87,0-2.2-.014-3.16-.023l-.953-.009c-.028,1.267-.055,3.137-.083,5.007V11.6c.792,0,1.745,0,2.3-.019v-.041a2.628,2.628,0,0,1,.732-1.954,2.762,2.762,0,0,1,1.939-.813,2.522,2.522,0,0,1,2.574,2.639v.128c-.032.769-.065,1.622-.065,2.442,0,.98.033,1.959.064,2.654v.174a2.623,2.623,0,0,1-5.245,0s0-.19,0-.223c-.261,0-1.884-.024-2.341-.028,0,2.519,0,4.97.055,5.7.418.043,1.2.043,1.707.043,4.549,0,4.549,0,4.955-1.372A2.651,2.651,0,0,1,365,18.963a2.712,2.712,0,0,1,2.768,2.7,9.516,9.516,0,0,1-.721,2.476c-.906,2.358-2.752,3.376-6.16,3.376-.814,0-1.776-.007-2.8-.015-1.16-.008-2.4-.017-3.6-.017-1.522,0-2.961,0-4.124.063Z"/>
  <path class="cls-2"
        d="M360.4,2.321c3.952,0,4.435,1.447,5.11,3.857a3.011,3.011,0,0,1,.128.706,1.679,1.679,0,0,1-1.767,1.672,1.653,1.653,0,0,1-1.7-1.414c-.226-1.157-.611-1.607-2.218-1.607-1.35,0-3.824-.032-4.242-.032-.643,0-.835.128-.867.835-.033,1.446-.065,3.7-.1,5.849,0,.321.161.417.45.417,1.029,0,2.667,0,3.214-.032s.643-.482.643-1.028a1.652,1.652,0,0,1,1.671-1.767,1.534,1.534,0,0,1,1.574,1.639v.128c-.032.739-.065,1.607-.065,2.442,0,1,.033,1.993.065,2.7v.128a1.623,1.623,0,0,1-3.245,0v-.128c0-.129.032-.29.032-.418,0-.353-.1-.675-.675-.675-.611,0-2.218-.032-3.214-.032-.386,0-.482.161-.482.514,0,2.925,0,5.592.064,6.331.032.835.225.9,2.7.9,5.142,0,5.335-.129,5.914-2.089A1.639,1.639,0,0,1,365,19.963a1.726,1.726,0,0,1,1.768,1.7,8.815,8.815,0,0,1-.643,2.088c-.643,1.671-1.832,2.764-5.238,2.764-1.736,0-4.146-.032-6.4-.032-1.543,0-2.988,0-4.178.064l-.08,0a1.714,1.714,0,0,1-1.847-1.673,1.662,1.662,0,0,1,1.767-1.671h.322c.546,0,.707-.161.739-.643.16-2.121.192-8.162.192-12.821V6.338c0-.482-.129-.739-.836-.739-.738,0-2.056-.161-2.056-1.639a1.667,1.667,0,0,1,1.8-1.639h.129c.868.033,1.96.065,3.15.065,2.378,0,5.109-.065,6.812-.065m0-2c-.788,0-1.794.014-2.884.029-1.267.017-2.649.036-3.928.036-1.235,0-2.347-.036-3.075-.063l-.038,0h-.166a3.681,3.681,0,0,0-3.8,3.639,3.463,3.463,0,0,0,2.892,3.526V9.745c0,5.5-.044,9.436-.127,11.559a3.646,3.646,0,0,0-2.893,3.576,3.69,3.69,0,0,0,3.847,3.673c.058,0,.115,0,.17,0,1.154-.062,2.579-.062,4.088-.062,1.193,0,2.431.009,3.588.017,1.027.008,1.991.015,2.807.015,3.824,0,6.013-1.239,7.093-4.016a9.381,9.381,0,0,0,.788-2.836,3.771,3.771,0,0,0-4.683-3.592,3.705,3.705,0,0,0,.216-1.261V16.64l0-.046c-.024-.511-.063-1.529-.063-2.608,0-.815.034-1.687.063-2.355l0-.043v-.172a4.015,4.015,0,0,0-.1-.874,3.665,3.665,0,0,0,3.437-3.658,4.4,4.4,0,0,0-.17-1.122l-.019-.071-.006-.026-.007-.026c-.815-2.91-1.906-5.318-7.036-5.318ZM356.772,10.6c.017-1.106.033-2.177.05-3.09.955.01,2.271.023,3.132.023.1,0,.187,0,.257.006.017.09.037.178.059.265a3.786,3.786,0,0,0-2.2,1.086,3.514,3.514,0,0,0-.923,1.707l-.377,0Zm-.033,10.7c-.017-.909-.022-2.295-.023-3.728l.418.006a3.555,3.555,0,0,0,3.527,2.809,3.961,3.961,0,0,0,.943-.112q-.072.18-.129.372c-.032.109-.1.345-.162.511a28.575,28.575,0,0,1-3.834.146c-.179,0-.458,0-.74,0Z"/>
  <path class="cls-1"
        d="M382.062,27.519c-.837,0-2.069-.012-3.009-.022l-1.361-.01c-1.081-.032-2.258-.032-3.341-.032h-.086c-.751,0-1.442,0-2.015.03l-.182,0a2.669,2.669,0,0,1-.244-5.333c.145-1.254.145-5.161.145-11.156V6.7c-.01,0-.112,0-.18,0A2.645,2.645,0,0,1,369.5,5.514a2.977,2.977,0,0,1-.489-1.522,2.661,2.661,0,0,1,2.767-2.671h.161c.709.033,1.528.065,2.411.065,1.047,0,2.126-.032,2.983-.064h.1A2.693,2.693,0,1,1,377.5,6.7h-.071c-.06,2.651-.118,7.268-.118,10.858,0,2.138,0,4.157.058,4.716v.008l4.5,0c1.214,0,1.654-.306,2.434-2.458a2.715,2.715,0,0,1,2.611-1.783,2.862,2.862,0,0,1,2.928,2.767,5.371,5.371,0,0,1-.7,2.24C388.031,25.883,386.521,27.519,382.062,27.519Z"/>
  <path class="cls-2"
        d="M377.436,2.321A1.7,1.7,0,1,1,377.5,5.7h-.129c-.129,0-.257-.031-.386-.031-.289,0-.513.1-.546.545-.064,2.636-.128,7.552-.128,11.344,0,2.314,0,4.21.064,4.821.032.546.1.835.835.9h4.66c1.9,0,2.57-.9,3.374-3.117a1.711,1.711,0,0,1,1.671-1.124,1.858,1.858,0,0,1,1.928,1.767,5,5,0,0,1-.643,1.9c-.964,2.474-2.12,3.824-6.138,3.824-1.349,0-3.727-.032-4.241-.032h-.129c-1.06-.032-2.249-.032-3.341-.032-.8,0-1.543,0-2.154.032h-.129a1.644,1.644,0,0,1-1.766-1.671,1.662,1.662,0,0,1,1.766-1.671h.194c.675,0,.707-.032.707-12.147V6.242c0-.45-.161-.578-.483-.578h-.128c-.129,0-.257.031-.418.031-.051,0-.1,0-.151,0a1.754,1.754,0,0,1-1.777-1.708,1.663,1.663,0,0,1,1.767-1.671h.161c.675.033,1.51.065,2.411.065,1.06,0,2.152-.032,3.02-.065h.065m0-2h-.1l-.037,0c-1.144.042-2.107.063-2.946.063-.908,0-1.756-.036-2.315-.062l-.048,0h-.209a3.681,3.681,0,0,0-3.767,3.671,3.791,3.791,0,0,0,2.957,3.627V11c0,4.833,0,8.606-.086,10.326a3.664,3.664,0,0,0,1.185,7.163h.182l.053,0c.557-.029,1.281-.029,2.048-.029,1.055,0,2.25,0,3.281.031h.189c.193,0,.653.005,1.222.01.943.01,2.179.022,3.019.022,4.974,0,6.8-2.022,7.988-5.063l.009-.02a6.2,6.2,0,0,0,.784-2.637,3.854,3.854,0,0,0-3.928-3.767,3.691,3.691,0,0,0-3.544,2.422c-.659,1.819-.821,1.819-1.5,1.819h-3.542c-.017-.916-.017-2.334-.017-3.72,0-3.2.046-7.229.1-9.953a3.686,3.686,0,0,0,2.921-3.576,3.719,3.719,0,0,0-3.9-3.7Z"/>
  <path class="cls-1"
        d="M393.454,27.553a3.155,3.155,0,0,1-1.764-.54,2.524,2.524,0,0,1-1.083-2.133,2.662,2.662,0,0,1,2.768-2.671h.08c.115-1.93.173-6.193.173-12.464V6.6c-1.816-.055-2.893-1.032-2.893-2.637a2.663,2.663,0,0,1,2.8-2.639h.129c.9.033,1.974.065,3.149.065,1.284,0,2.67-.019,3.942-.036,1.085-.015,2.087-.029,2.871-.029,4.455,0,5.3,1.816,6.072,4.587l.026.1a3.5,3.5,0,0,1,.139.876,2.752,2.752,0,0,1-5.456.422c-.136-.7-.15-.771-1.231-.771-.87,0-2.2-.014-3.16-.023l-.954-.009c-.027,1.267-.054,3.137-.083,5.007V11.6c.792,0,1.745,0,2.3-.019v-.041a2.632,2.632,0,0,1,.733-1.954,2.759,2.759,0,0,1,1.938-.813,2.522,2.522,0,0,1,2.574,2.639v.128c-.032.769-.064,1.622-.064,2.442,0,.98.032,1.959.064,2.654v.174a2.623,2.623,0,0,1-5.245,0s0-.19,0-.223c-.26,0-1.883-.024-2.341-.028,0,2.519,0,4.97.056,5.7.418.043,1.2.043,1.707.043,4.549,0,4.549,0,4.954-1.372a2.653,2.653,0,0,1,2.566-1.971,2.712,2.712,0,0,1,2.767,2.7,9.522,9.522,0,0,1-.72,2.476c-.907,2.358-2.752,3.376-6.161,3.376-.813,0-1.775-.007-2.8-.015-1.161-.008-2.4-.017-3.6-.017-1.523,0-2.961,0-4.124.063Z"/>
  <path class="cls-2"
        d="M403.626,2.321c3.952,0,4.435,1.447,5.109,3.857a2.96,2.96,0,0,1,.128.706A1.678,1.678,0,0,1,407.1,8.556a1.653,1.653,0,0,1-1.7-1.414c-.226-1.157-.612-1.607-2.218-1.607-1.35,0-3.824-.032-4.242-.032-.643,0-.835.128-.868.835-.032,1.446-.064,3.7-.1,5.849,0,.321.161.417.45.417,1.028,0,2.667,0,3.214-.032s.642-.482.642-1.028a1.653,1.653,0,0,1,1.671-1.767,1.534,1.534,0,0,1,1.574,1.639v.128c-.032.739-.064,1.607-.064,2.442,0,1,.032,1.993.064,2.7v.128a1.623,1.623,0,0,1-3.245,0v-.128c0-.129.033-.29.033-.418,0-.353-.1-.675-.675-.675-.612,0-2.218-.032-3.214-.032-.386,0-.482.161-.482.514,0,2.925,0,5.592.064,6.331.032.835.225.9,2.7.9,5.142,0,5.335-.129,5.913-2.089a1.641,1.641,0,0,1,1.607-1.254,1.725,1.725,0,0,1,1.767,1.7,8.806,8.806,0,0,1-.642,2.088c-.643,1.671-1.832,2.764-5.239,2.764-1.735,0-4.145-.032-6.394-.032-1.543,0-2.988,0-4.178.064l-.081,0a1.714,1.714,0,0,1-1.847-1.673,1.663,1.663,0,0,1,1.768-1.671h.321c.546,0,.707-.161.74-.643.16-2.121.192-8.162.192-12.821V6.338c0-.482-.129-.739-.836-.739-.738,0-2.057-.161-2.057-1.639a1.668,1.668,0,0,1,1.8-1.639h.129c.867.033,1.96.065,3.149.065,2.378,0,5.11-.065,6.813-.065m0-2c-.788,0-1.794.014-2.884.029-1.267.017-2.649.036-3.929.036-1.235,0-2.346-.036-3.075-.063l-.037,0h-.166a3.682,3.682,0,0,0-3.8,3.639,3.464,3.464,0,0,0,2.893,3.526V9.745c0,5.5-.044,9.436-.128,11.559a3.647,3.647,0,0,0-2.893,3.576,3.69,3.69,0,0,0,3.847,3.673c.058,0,.115,0,.171,0,1.154-.062,2.579-.062,4.088-.062,1.192,0,2.43.009,3.588.017,1.027.008,1.991.015,2.806.015,3.824,0,6.014-1.239,7.094-4.016a9.381,9.381,0,0,0,.787-2.836,3.77,3.77,0,0,0-4.682-3.592,3.705,3.705,0,0,0,.215-1.261V16.64l0-.046c-.023-.511-.062-1.529-.062-2.608,0-.815.033-1.687.063-2.355v-.215a3.955,3.955,0,0,0-.1-.874,3.665,3.665,0,0,0,3.437-3.658,4.359,4.359,0,0,0-.17-1.122l-.018-.071-.006-.026-.008-.026c-.814-2.91-1.906-5.318-7.035-5.318ZM399.994,10.6c.016-1.106.033-2.177.049-3.09.956.01,2.272.023,3.133.023.1,0,.186,0,.257.006.017.09.036.178.059.265a3.792,3.792,0,0,0-2.2,1.086,3.521,3.521,0,0,0-.922,1.707l-.377,0Zm-.034,10.7c-.017-.909-.021-2.295-.022-3.728l.418.006a3.554,3.554,0,0,0,3.527,2.809,3.967,3.967,0,0,0,.943-.112c-.048.12-.092.244-.129.372-.033.109-.1.345-.162.511a28.583,28.583,0,0,1-3.834.146c-.179,0-.458,0-.741,0Z"/>
  <path class="cls-1"
        d="M429.87,27.553a2.955,2.955,0,0,1-1.883-.646,2.5,2.5,0,0,1-.906-1.963,2.611,2.611,0,0,1,2.242-2.6c-.24-.8-.648-2.141-.925-2.987h-6.763c-.249.842-.64,2.188-.866,2.969a2.616,2.616,0,1,1-.24,5.226H420.4c-.83-.032-1.652-.064-2.473-.064-1.013,0-1.931.032-2.69.063h-.171a2.646,2.646,0,0,1-2.767-2.639,2.614,2.614,0,0,1,2.735-2.606h.047a.962.962,0,0,0,.122-.26c1.285-4.011,3.08-9.171,4.522-13.318.651-1.873,1.221-3.514,1.625-4.7a3.8,3.8,0,0,1,3.582-2.8,4.053,4.053,0,0,1,3.745,2.9c1.719,4.933,4.85,13.749,6.412,17.86a1.063,1.063,0,0,0,.207.321,2.684,2.684,0,0,1,2.783,2.637,2.646,2.646,0,0,1-2.8,2.607h-.129c-.83-.032-1.652-.064-2.473-.064-1.013,0-1.931.032-2.69.063Zm-3.138-13.282c-.45-1.442-1.283-4.015-1.729-5.39-.55,1.64-1.284,4.015-1.7,5.39Z"/>
  <path class="cls-2"
        d="M424.932,2.225a3.041,3.041,0,0,1,2.8,2.217c1.7,4.885,4.852,13.754,6.426,17.9.1.29.515.965,1.029.965h.063a1.675,1.675,0,0,1,1.833,1.639,1.644,1.644,0,0,1-1.8,1.607h-.129c-.8-.032-1.638-.064-2.473-.064-1.029,0-1.961.032-2.732.064l-.075,0a1.646,1.646,0,0,1-1.789-1.609,1.628,1.628,0,0,1,1.735-1.638h.193a.5.5,0,0,0,.482-.514c0-.065-.835-2.829-1.22-3.985a.547.547,0,0,0-.515-.451H421.4c-.418.065-.546.129-.674.547-.323,1.093-1.093,3.76-1.093,3.76a.735.735,0,0,0,.739.643l.086,0a1.638,1.638,0,0,1,1.842,1.64,1.615,1.615,0,0,1-1.768,1.607H420.4c-.8-.032-1.638-.064-2.473-.064-1.029,0-1.961.032-2.732.064h-.129a1.638,1.638,0,0,1-1.767-1.639,1.6,1.6,0,0,1,1.735-1.606h.161c.514,0,.835-.547.964-.965,1.863-5.816,4.853-14.2,6.138-17.995a2.791,2.791,0,0,1,2.635-2.121m-2.6,13.046h5.4c.193-.031.289-.063.289-.16,0-.225-2.217-7.006-2.474-7.809-.193-.578-.354-.835-.515-.835s-.353.321-.578.964c-.739,1.992-2.442,7.648-2.442,7.648,0,.1.064.129.321.192m2.6-15.046A4.773,4.773,0,0,0,420.4,3.713c-.4,1.178-.97,2.817-1.62,4.687-1.4,4.023-3.129,9-4.4,12.957a3.55,3.55,0,0,0-3.076,3.555,3.623,3.623,0,0,0,3.767,3.639h.213c.7-.03,1.63-.063,2.648-.063.766,0,1.537.028,2.393.063h.209a3.609,3.609,0,0,0,3.768-3.607,3.5,3.5,0,0,0-2.274-3.356c.118-.408.244-.84.358-1.232h5.288c.134.428.28.9.414,1.338a3.546,3.546,0,0,0-2,3.25,3.621,3.621,0,0,0,3.789,3.609l.141,0c.716-.03,1.648-.063,2.666-.063.766,0,1.537.028,2.393.063h.209a3.616,3.616,0,0,0,.64-7.2c-1.59-4.211-4.618-12.737-6.3-17.569A5.038,5.038,0,0,0,424.932.225Zm-.28,13.046c.112-.361.231-.743.353-1.133.124.386.247.77.363,1.133Z"/>
  <path class="cls-1"
        d="M448.873,27.905a10.892,10.892,0,0,1-4.516-.911,2.837,2.837,0,0,1-1.911.718,2.583,2.583,0,0,1-2.7-2.575v-.128c.032-.587.064-1.242.064-1.9,0-.82-.033-1.7-.063-2.364v-.111a2.727,2.727,0,0,1,5.439-.032v.257c0,.957,1.949,1.7,3.627,1.7,2.716,0,3.434-1.658,3.434-2.534a3.352,3.352,0,0,0-1.967-2.761c-1.377-.782-3.17-1.776-4.836-2.53a7.406,7.406,0,0,1-4.7-6.695c0-3.414,2.783-7.042,7.941-7.042a9.491,9.491,0,0,1,3.679.727,3.039,3.039,0,0,1,1.784-.534,2.479,2.479,0,0,1,2.735,2.349v.149c-.031.594-.063,1.187-.063,1.812,0,.718.031,1.406.062,1.969a2.289,2.289,0,0,1-.615,1.742,3.013,3.013,0,0,1-2.118.856,2.515,2.515,0,0,1-2.7-2.414V7.527a2.581,2.581,0,0,1,.027-.335c-.049-.291-1-1.043-2.819-1.043-1.58,0-2.406.9-2.406,1.8a2.472,2.472,0,0,0,1.56,2.042c.61.319,1.4.7,2.225,1.1.979.474,2,.968,2.82,1.405,3.238,1.749,5.092,4.459,5.092,7.438C457.938,24.4,453.956,27.905,448.873,27.905Z"/>
  <path class="cls-2"
        d="M448.68,2a8.376,8.376,0,0,1,3.567.771.481.481,0,0,0,.225.032.449.449,0,0,0,.289-.1,1.9,1.9,0,0,1,1.382-.514c.868,0,1.735.45,1.735,1.349v.1c-.032.611-.064,1.221-.064,1.864,0,.739.032,1.446.064,2.024.064,1.222-1.156,1.543-1.735,1.543a1.541,1.541,0,0,1-1.7-1.414V7.527c0-.129.033-.257.033-.353,0-.932-1.478-2.025-3.825-2.025-2.12,0-3.406,1.318-3.406,2.8a3.412,3.412,0,0,0,2.089,2.924c1.35.707,3.535,1.7,5.046,2.507,3.213,1.735,4.562,4.209,4.562,6.555,0,3.664-3.309,6.974-8.065,6.974a9.671,9.671,0,0,1-4.4-.965.617.617,0,0,0-.289-.1c-.129,0-.226.1-.323.225a1.785,1.785,0,0,1-1.413.643,1.586,1.586,0,0,1-1.7-1.575v-.128c.031-.547.064-1.221.064-1.9,0-.836-.033-1.736-.064-2.41v-.065a1.732,1.732,0,0,1,3.439-.032v.257c0,1.832,2.731,2.7,4.627,2.7,3.277,0,4.434-2.088,4.434-3.534a4.3,4.3,0,0,0-2.474-3.632c-1.415-.8-3.213-1.8-4.916-2.57a6.394,6.394,0,0,1-4.114-5.784c0-3.085,2.538-6.042,6.941-6.042m0-2c-5.807,0-8.941,4.143-8.941,8.042a8.377,8.377,0,0,0,5.286,7.6c1.632.739,3.4,1.719,4.756,2.49a2.447,2.447,0,0,1,1.462,1.892c0,.57-.513,1.534-2.434,1.534a4.316,4.316,0,0,1-2.627-.774v-.182a3.725,3.725,0,0,0-7.439.032v.111l0,.046c.028.6.062,1.5.062,2.318,0,.646-.033,1.291-.061,1.782l0,.057v.185a3.561,3.561,0,0,0,3.7,3.575,3.92,3.92,0,0,0,2.053-.575,12.142,12.142,0,0,0,4.374.768c5.644,0,10.065-3.942,10.065-8.974,0-3.358-2.045-6.389-5.612-8.315-.856-.455-1.877-.95-2.864-1.428-.826-.4-1.607-.778-2.2-1.09-.632-.338-1.017-.771-1.017-1.153s.483-.8,1.406-.8a3.541,3.541,0,0,1,1.792.394v.113a3.489,3.489,0,0,0,3.7,3.414A4.031,4.031,0,0,0,456.986,9.9a3.308,3.308,0,0,0,.889-2.481c-.026-.471-.061-1.176-.061-1.919,0-.608.033-1.22.061-1.759l0-.053V3.542A3.48,3.48,0,0,0,454.143.193a4.182,4.182,0,0,0-1.874.427A10.582,10.582,0,0,0,448.68,0Z"/>
  <path class="cls-1"
        d="M462.545,27.553a3.153,3.153,0,0,1-1.764-.54A2.524,2.524,0,0,1,459.7,24.88a2.662,2.662,0,0,1,2.768-2.671h.08c.115-1.93.173-6.193.173-12.464V6.6c-1.816-.055-2.893-1.032-2.893-2.637a2.663,2.663,0,0,1,2.8-2.639h.129c.894.033,1.974.065,3.149.065,1.284,0,2.67-.019,3.942-.036,1.085-.015,2.087-.029,2.871-.029,4.455,0,5.3,1.816,6.072,4.587l.025.1a3.455,3.455,0,0,1,.14.876,2.752,2.752,0,0,1-5.456.422c-.136-.7-.15-.771-1.231-.771-.871,0-2.2-.014-3.161-.023l-.953-.009c-.027,1.267-.054,3.137-.083,5.007V11.6c.792,0,1.745,0,2.3-.019v-.041A2.632,2.632,0,0,1,471.1,9.59a2.759,2.759,0,0,1,1.938-.813,2.522,2.522,0,0,1,2.574,2.639v.128c-.032.769-.064,1.622-.064,2.442,0,.98.032,1.959.063,2.654v.174a2.623,2.623,0,0,1-5.245,0s0-.19,0-.223c-.261,0-1.884-.024-2.341-.028,0,2.519,0,4.97.056,5.7.418.043,1.2.043,1.707.043,4.549,0,4.549,0,4.954-1.372a2.652,2.652,0,0,1,2.566-1.971,2.712,2.712,0,0,1,2.767,2.7,9.477,9.477,0,0,1-.721,2.476c-.906,2.358-2.752,3.376-6.16,3.376-.813,0-1.775-.007-2.8-.015-1.16-.008-2.4-.017-3.6-.017-1.523,0-2.961,0-4.124.063Z"/>
  <path class="cls-2"
        d="M472.717,2.321c3.952,0,4.434,1.447,5.109,3.857a2.96,2.96,0,0,1,.128.706,1.678,1.678,0,0,1-1.766,1.672,1.654,1.654,0,0,1-1.7-1.414c-.225-1.157-.611-1.607-2.217-1.607-1.35,0-3.825-.032-4.243-.032-.642,0-.835.128-.867.835-.032,1.446-.064,3.7-.1,5.849,0,.321.161.417.45.417,1.028,0,2.667,0,3.214-.032s.642-.482.642-1.028a1.653,1.653,0,0,1,1.671-1.767,1.534,1.534,0,0,1,1.574,1.639v.128c-.032.739-.064,1.607-.064,2.442,0,1,.032,1.993.064,2.7v.128a1.623,1.623,0,0,1-3.245,0v-.128c0-.129.032-.29.032-.418,0-.353-.1-.675-.674-.675-.612,0-2.218-.032-3.214-.032-.386,0-.483.161-.483.514,0,2.925,0,5.592.065,6.331.032.835.224.9,2.7.9,5.142,0,5.335-.129,5.913-2.089a1.641,1.641,0,0,1,1.607-1.254,1.725,1.725,0,0,1,1.767,1.7,8.853,8.853,0,0,1-.642,2.088c-.643,1.671-1.833,2.764-5.239,2.764-1.735,0-4.145-.032-6.394-.032-1.543,0-2.989,0-4.178.064l-.081,0A1.714,1.714,0,0,1,460.7,24.88a1.663,1.663,0,0,1,1.768-1.671h.321c.546,0,.707-.161.739-.643.161-2.121.193-8.162.193-12.821V6.338c0-.482-.129-.739-.836-.739-.738,0-2.057-.161-2.057-1.639a1.668,1.668,0,0,1,1.8-1.639h.129c.867.033,1.96.065,3.149.065,2.378,0,5.11-.065,6.813-.065m0-2c-.788,0-1.795.014-2.884.029-1.268.017-2.65.036-3.929.036-1.235,0-2.346-.036-3.075-.063l-.037,0h-.166a3.682,3.682,0,0,0-3.8,3.639,3.464,3.464,0,0,0,2.893,3.526V9.745c0,5.5-.044,9.436-.128,11.559A3.647,3.647,0,0,0,458.7,24.88a3.69,3.69,0,0,0,3.847,3.673c.058,0,.115,0,.171,0,1.154-.062,2.579-.062,4.088-.062,1.192,0,2.43.009,3.588.017,1.026.008,1.99.015,2.806.015,3.824,0,6.013-1.239,7.094-4.016a9.381,9.381,0,0,0,.787-2.836,3.74,3.74,0,0,0-3.767-3.7,3.78,3.78,0,0,0-.916.112,3.681,3.681,0,0,0,.216-1.261V16.64l0-.046c-.023-.511-.062-1.529-.062-2.608,0-.815.033-1.687.062-2.355l0-.043v-.172a4.015,4.015,0,0,0-.1-.874,3.665,3.665,0,0,0,3.437-3.658,4.359,4.359,0,0,0-.17-1.122l-.018-.071-.007-.026-.007-.026c-.814-2.91-1.906-5.318-7.035-5.318ZM469.084,10.6c.017-1.106.034-2.177.05-3.09.955.01,2.272.023,3.133.023.1,0,.186,0,.257.006.017.09.036.178.059.265a3.792,3.792,0,0,0-2.2,1.086,3.513,3.513,0,0,0-.922,1.707l-.378,0Zm-.033,10.7c-.017-.909-.021-2.295-.022-3.728l.418.006a3.554,3.554,0,0,0,3.527,2.809,3.973,3.973,0,0,0,.943-.112c-.049.12-.092.244-.13.372-.032.109-.1.345-.161.511a28.583,28.583,0,0,1-3.834.146c-.179,0-.458,0-.741,0Z"/>
</svg>
