<svg xmlns="http://www.w3.org/2000/svg" viewBox="0 0 67.889 69.323">
  <defs>
    <style>.cls-1 {
      fill: #ffcbcb;
    }</style>
  </defs>
  <path class="cls-1"
        d="M46.853,41.913c-.957,0-6.375.4-8.287.478h-.159a2.28,2.28,0,0,1-2.232-2.471l-.159-9.482v-.159a2.521,2.521,0,0,1,2.47-2.39c8.685-.478,19.921-.956,20.877-.956,6.3,0,8.526,3.984,8.526,11.952,0,19.123-16.415,30.438-32.989,30.438C17.131,69.323,0,56.335,0,34.582,0,6.136,27.012,0,38.008,0A31.607,31.607,0,0,1,51.235,2.629,2.386,2.386,0,0,1,52.51,4.781V5.1L49.8,18.486a2,2,0,0,1-1.912,1.434,1.537,1.537,0,0,1-.8-.238,19.9,19.9,0,0,0-8.367-1.674c-12.829,0-17.052,8.845-17.052,16.733,0,10.2,7.251,16.1,14.742,16.1,7.888,0,11.793-5.578,11.793-7.809a.975.975,0,0,0-1.116-1.115Z"/>
</svg>
