<svg xmlns="http://www.w3.org/2000/svg" viewBox="0 0 64.383 67.331">
  <defs>
    <style>.cls-1 {
      fill: #ffcbcb;
    }</style>
  </defs>
  <path class="cls-1"
        d="M44.064,66.136a2.848,2.848,0,0,1-2.072-1.514c-1.673-2.63-17.609-32.271-21.035-36.574-.319-.478-.638-.638-.877-.638-.4,0-.558.319-.558.957v.319l4.064,33.943v.08A3,3,0,0,1,20.8,65.418L5.9,67.331H5.658A2.545,2.545,0,0,1,3.426,65.02L0,3.9V3.745C0,2.869.558.956,2.151.876L17.689.159h.16A5.991,5.991,0,0,1,21.036,1.2C25.817,5.976,35.618,22.231,43.108,34.9c.239.478.478.638.717.638.319,0,.478-.478.478-1.116l.956-32.589A1.91,1.91,0,0,1,47.092,0h.159l15.3.956a1.813,1.813,0,0,1,1.833,1.913c0,2.071-2.152,47.489-3.267,62.31a1.893,1.893,0,0,1-1.992,1.833Z"/>
</svg>
