<svg xmlns="http://www.w3.org/2000/svg" viewBox="0 0 62.789 69.402">
  <defs>
    <style>.cls-1 {
      fill: #ffcbcb;
    }</style>
  </defs>
  <path class="cls-1"
        d="M0,4.781A1.943,1.943,0,0,1,1.833,2.789l12.749-.717A44.209,44.209,0,0,1,28.127,0C41.594,0,55.7,5.817,60.239,19.761A47.416,47.416,0,0,1,62.789,34.5c0,22.55-19.761,34.9-42.391,34.9a66.662,66.662,0,0,1-11.155-.956,18.015,18.015,0,0,0-1.832-.319c-2.63-.637-4.144-1.912-4.3-4.939Zm22.47,45.9a15.3,15.3,0,0,0,1.912.08c9.243,0,16.893-6.613,16.893-16.733,0-1.355-.08-17.131-14.821-17.131a23.179,23.179,0,0,0-5.737.8Z"/>
</svg>
