<svg xmlns="http://www.w3.org/2000/svg" viewBox="0 0 72.351 66.693">
  <defs>
    <style>.cls-1 {
      fill: #ffcbcb;
    }</style>
  </defs>
  <path class="cls-1"
        d="M56.016,66.375a3.612,3.612,0,0,1-1.275.238,2.76,2.76,0,0,1-2.47-1.275L34.582,25.657c-.239-.557-.478-.8-.717-.8-.637,0-1.514,2.231-6.534,14.9l9.084.478a1.87,1.87,0,0,1,1.832,1.912v.16l-.956,14.263a1.983,1.983,0,0,1-1.912,1.832h-.16l-14.74-.717c-1.515,3.825-2.63,6.773-2.869,7.49a2.1,2.1,0,0,1-1.992,1.514,3.969,3.969,0,0,1-1.275-.239L2.151,62.948A2.657,2.657,0,0,1,0,60.318C0,57.849,13.626,13.067,26.614.956A5.063,5.063,0,0,1,29.482,0H41.036a3.818,3.818,0,0,1,3.347,1.514L72.032,57.769a2.953,2.953,0,0,1,.319,1.2,2.11,2.11,0,0,1-1.195,1.992Z"/>
</svg>
