<svg width="381" height="377" viewBox="0 0 381 377" fill="none" xmlns="http://www.w3.org/2000/svg">
<path d="M215.9 225.392V260.18C215.9 272.868 217.128 301.108 217.538 312.567V315.432C217.538 369.456 152.463 374.367 150.826 374.367C147.143 374.367 143.869 373.14 142.226 369.867C136.906 357.18 127.902 349.404 116.443 344.083C109.076 340.809 90.659 335.483 79.199 331.805C78.3089 331.524 77.5223 330.985 76.9392 330.256C76.3561 329.528 76.0026 328.642 75.924 327.712C75.887 327.219 75.9571 326.723 76.1292 326.26C76.3012 325.796 76.5714 325.375 76.9211 325.025C77.2709 324.676 77.692 324.406 78.1558 324.234C78.6195 324.062 79.1148 323.992 79.608 324.029H80.426C95.979 326.075 122.581 328.529 139.771 328.529C155.323 328.529 170.871 319.116 170.871 303.563V225.392H110.299C91.0639 225.392 30.0819 226.62 10.8459 228.667C7.16295 225.801 3.48004 214.751 3.07104 210.249C19.032 211.886 84.924 213.933 120.941 213.933H170.871V139.033H122.171C117.26 139.033 53.004 139.442 31.313 141.489C27.22 137.396 25.174 131.257 24.765 125.527C41.544 127.164 93.931 128.392 132.403 128.392H170.874V61.684C128.719 64.549 84.1091 65.777 38.6801 66.184C34.9961 66.184 32.54 64.137 32.54 62.091C32.54 60.8629 33.7691 59.6349 36.6331 59.2259C161.052 44.9019 251.091 19.5259 276.875 2.74695C293.656 11.7469 324.351 37.947 324.351 46.947C324.351 50.63 321.077 52.6769 316.165 52.6769C311.665 52.6769 305.525 51.0399 298.976 47.3559C274.829 51.8559 246.589 55.5419 215.894 58.4069V128.4H277.694C294.883 103.844 307.162 90.7469 310.436 90.7469C315.347 90.7469 356.274 123.489 356.274 132.492C356.274 135.767 354.228 139.041 349.317 139.041H215.9V213.941H298.573C320.673 179.153 329.268 172.604 330.906 172.604C337.044 172.604 378.791 209.439 378.791 219.261C378.791 222.536 376.744 225.4 372.242 225.4L215.9 225.392Z" stroke="white" stroke-width="4" stroke-miterlimit="10"/>
</svg>
