<svg width="291" height="358" viewBox="0 0 291 358" fill="none" xmlns="http://www.w3.org/2000/svg">
<path d="M136.791 195.292C136.381 173.192 128.191 156.411 113.052 156.411C101.593 156.411 79.4929 162.959 47.1599 219.439C41.4299 228.439 32.0169 237.039 21.7849 237.039C15.6459 237.039 7.45984 234.993 7.45984 215.757C7.45984 207.981 8.68783 199.386 12.3718 194.066C16.8718 187.108 25.8719 185.066 36.5189 173.602C63.5309 144.953 77.0369 127.764 92.5889 98.702C63.5309 104.84 58.6199 105.659 51.6619 105.659C20.1479 105.659 2.96191 79.059 2.96191 68.006C2.96191 61.048 7.05392 56.956 8.69092 56.956C9.91992 56.956 11.1469 58.184 13.6029 60.639C25.4709 72.508 41.0239 75.782 54.5299 75.782C60.2589 75.782 74.5849 75.373 104.87 68.006C107.326 59.006 110.191 47.952 110.191 40.176C110.191 29.535 104.87 20.122 92.1829 20.122H86.8619C83.9979 20.122 82.7689 19.303 82.7689 17.666C82.7689 14.801 88.4998 2.11304 103.642 2.11304C117.557 2.11304 147.025 14.801 147.025 33.218C147.025 38.539 144.16 44.269 141.296 49.998L136.796 58.998C139.53 58.0973 142.143 56.8602 144.572 55.315C155.622 48.767 159.714 46.72 174.857 46.72C202.279 46.72 203.097 57.771 203.097 61.863C203.097 75.369 190.41 78.234 152.756 85.191C143.343 86.829 131.475 89.284 119.606 92.149C114.286 102.381 106.919 114.249 80.3159 156.814C92.1849 148.219 108.964 143.308 122.061 143.308C149.892 143.308 163.398 164.181 167.082 181.371C188.364 168.271 220.282 149.856 241.16 138.397C244.433 136.76 247.298 134.304 247.298 132.258C247.298 131.849 247.298 126.119 229.698 126.119H226.014C220.285 126.119 217.829 124.481 217.829 122.435C217.829 114.25 241.158 114.25 242.795 114.25C266.532 114.25 299.683 124.072 299.683 150.675C299.683 165.818 284.131 166.228 271.853 167.455C255.073 169.092 196.546 192.011 169.126 205.518V212.066C169.126 257.495 165.851 285.325 146.207 285.325C133.107 285.325 130.245 267.317 130.245 256.267V254.221C130.654 246.444 133.519 242.761 134.337 237.44C135.155 232.119 135.565 226.799 135.975 221.479C99.5489 243.17 79.9049 261.997 79.9049 283.279C79.9049 315.612 129.426 318.067 147.434 318.067C151.934 318.067 156.434 318.067 160.534 317.658C182.634 316.021 190.411 305.789 203.507 304.152C206.633 303.82 209.777 303.684 212.921 303.743C235.021 303.743 243.616 315.202 243.616 323.797C243.616 345.489 205.964 355.72 161.352 355.72H159.715C106.915 355.72 61.4908 329.936 61.4908 290.236C61.4908 258.314 99.5519 225.163 136.797 198.969L136.791 195.292Z" stroke="white" stroke-width="4" stroke-miterlimit="10"/>
</svg>
