<svg width="363" height="360" viewBox="0 0 363 360" fill="none" xmlns="http://www.w3.org/2000/svg">
<path d="M59.83 68.5139V74.244C59.83 117.626 36.911 134.816 18.084 134.816C2.12304 134.816 -4.83496 122.538 -4.83496 111.488C-4.83496 100.438 2.53204 91.8429 10.308 87.7499C36.501 73.4249 46.733 56.236 48.779 33.317C48.779 30.452 50.417 29.2239 51.644 29.2239C56.144 29.2239 57.374 40.6839 59.011 57.4639H153.144V43.1389C153.064 29.3985 151.693 15.6961 149.051 2.21191H153.144C177.7 2.21191 214.125 4.25795 214.125 15.312C214.125 19.404 209.214 23.4969 198.573 25.9529C197.754 34.5469 197.345 48.8719 197.345 57.4669H291.886C298.435 48.8669 311.531 37.822 313.986 37.822C314.986 37.9026 315.959 38.1806 316.851 38.64C317.669 39.049 360.643 61.56 360.643 78.749C360.643 84.888 354.504 88.5709 344.272 88.5709C341.121 88.4841 337.978 88.2109 334.859 87.7529C313.167 104.124 279.607 120.904 279.607 120.904C277.97 120.904 277.152 119.267 277.152 117.629C277.087 116.79 277.228 115.947 277.561 115.174C284.574 100.212 290.058 84.5804 293.932 68.517L59.83 68.5139ZM8.67104 220.763H6.62504C3.35004 220.763 1.30404 219.535 1.30404 217.898C1.30404 216.67 2.53204 215.442 4.98704 214.624C94.209 186.384 105.668 130.314 105.668 88.5679V82.02C109.352 82.429 163.376 85.704 163.376 97.572C163.376 101.256 158.464 104.939 149.051 105.758C139.228 182.291 79.884 207.666 8.67104 220.763ZM101.171 354.185C90.121 354.185 29.548 355.413 9.90304 357.459C6.22004 354.595 1.71804 343.959 1.71804 339.042C17.68 340.68 75.387 342.726 111.403 342.726H149.46V253.914H128.178C117.127 253.914 56.556 254.323 37.32 256.779C33.636 253.505 29.543 243.273 29.543 238.362C45.505 239.998 102.803 242.455 138.819 242.455H235.819C242.777 231.404 263.24 206.438 267.742 206.438C273.881 206.438 314.4 239.18 314.4 247.775C314.4 250.64 312.762 253.914 307.851 253.914H194.48V342.726H269.786C273.469 336.996 297.207 303.845 303.346 303.845C304.055 303.738 304.779 303.883 305.393 304.254C319.308 311.621 352.049 341.089 352.049 347.637C352.049 350.911 350.412 354.185 345.501 354.185H101.171ZM330.363 112.715C329.954 121.31 329.135 133.588 329.135 140.546C329.135 145.866 329.954 148.322 334.865 150.368C341.413 153.233 345.506 158.554 345.506 165.921C345.506 175.743 343.869 196.206 255.466 196.206C223.134 196.206 183.435 194.979 183.435 153.643V152.824C183.435 152.824 184.253 120.901 184.253 116.399C184.253 111.488 183.844 93.07 181.798 82.02C196.122 82.429 221.906 86.1129 230.91 88.5679C236.231 90.2059 238.686 92.6609 238.686 95.5259C238.686 99.2089 234.186 103.302 225.18 104.939C224.362 111.897 223.543 141.364 223.543 143.411C223.543 160.6 239.095 161.828 258.743 161.828C303.354 161.828 312.767 152.828 322.999 111.897C323.152 110.94 323.657 110.075 324.413 109.469C325.17 108.864 326.125 108.562 327.092 108.622C327.555 108.63 328.012 108.733 328.433 108.927C328.854 109.12 329.23 109.399 329.538 109.745C329.846 110.091 330.078 110.498 330.221 110.939C330.363 111.379 330.413 111.845 330.366 112.306L330.363 112.715Z" stroke="white" stroke-width="4" stroke-miterlimit="10"/>
</svg>
