<svg width="307" height="324" viewBox="0 0 307 324" fill="none" xmlns="http://www.w3.org/2000/svg">
<path d="M2.86402 230.643C2.78592 220.116 3.33219 209.593 4.5 199.13C9.412 153.291 22.508 110.73 29.057 69.391C30.6378 60.6113 31.4591 51.7117 31.512 42.791C31.512 30.513 29.466 18.644 21.689 14.142C18.006 11.687 15.141 10.459 15.141 8.41302C15.141 7.18502 18.825 2.68298 27.01 2.68298C44.61 2.68298 67.528 37.062 67.528 57.934C67.528 69.803 63.028 80.854 58.115 93.134C36.015 150.024 29.057 188.904 29.057 202.41C29.057 203.229 29.057 224.92 33.968 224.92C35.195 224.92 36.833 223.283 38.061 220.42C64.661 159.848 74.895 142.658 78.578 142.658C79.397 142.658 79.806 143.886 79.806 145.523C79.806 147.979 78.987 152.481 76.941 158.211C64.254 195.454 56.068 230.242 56.068 263.393C55.9201 272.984 56.605 282.57 58.115 292.043C58.59 294.885 58.8634 297.757 58.933 300.637C58.933 316.599 48.702 321.51 40.925 321.51C22.1 321.5 2.86402 288.351 2.86402 230.643ZM243.106 96.812C224.689 100.496 206.272 113.183 196.04 122.596C191.129 126.689 187.04 129.144 184.581 129.144C184.308 129.161 184.034 129.119 183.779 129.022C183.523 128.925 183.29 128.775 183.097 128.582C182.903 128.388 182.753 128.156 182.656 127.9C182.559 127.645 182.517 127.371 182.534 127.098C182.534 125.052 184.171 120.959 188.673 115.229C193.994 107.862 206.681 89.445 206.681 86.99C206.681 84.943 200.133 84.943 198.081 84.943C189.487 84.943 181.71 86.58 171.888 87.808C167.84 88.582 163.731 88.993 159.61 89.036C139.556 89.036 124.003 74.302 124.003 66.526C124.003 63.661 124.003 61.206 126.05 61.206C127.278 61.206 129.324 62.024 131.78 63.252C136.625 65.0291 141.765 65.8624 146.923 65.707C158.791 65.707 173.523 62.843 186.213 60.387C201.356 57.522 212.406 55.887 220.182 55.887H225.912C239.012 55.887 278.299 59.57 278.299 77.987C278.299 87.401 270.932 92.312 263.156 93.949C257.431 95.175 247.608 95.994 243.106 96.812ZM245.562 304.722C167.391 304.722 130.147 260.522 130.147 233.922C130.147 218.779 141.198 210.184 143.247 210.184C144.884 210.184 145.703 211.821 145.703 214.684C145.621 216.916 145.207 219.122 144.475 221.232C143.637 223.312 143.219 225.538 143.247 227.781C143.247 239.24 169.441 262.981 218.962 263.797C227.856 263.876 236.745 263.329 245.562 262.16C251.701 261.341 257.431 256.839 264.388 256.839C290.172 256.839 304.906 267.89 304.906 278.53C304.906 304.722 250.473 304.722 245.562 304.722Z" stroke="white" stroke-width="4" stroke-miterlimit="10"/>
</svg>
