<svg xmlns="http://www.w3.org/2000/svg" viewBox="0 0 113.674 23.784">
  <defs>
    <style>.cls-1 {
      fill: #5b6e80;
    }

    .cls-2 {
      fill: #fff;
    }</style>
  </defs>
  <path class="cls-1"
        d="M6.88,17.887c-.541,0-1.058-.015-1.575-.03s-1.006-.029-1.532-.029H3.744c-.329,0-.676,0-1.04.019l-.123,0a1.862,1.862,0,0,1-1.335-.52,1.71,1.71,0,0,1-.5-1.223,1.759,1.759,0,0,1,1.583-1.742c.031-.893.048-2.605.048-4.552,0-1.833-.015-3.683-.033-4.657A1.7,1.7,0,0,1,.75,3.442,1.751,1.751,0,0,1,2.588,1.7h.139c.322.019.646.019.951.019h.036c.49,0,.956-.015,1.418-.03s.947-.029,1.438-.029c.363,0,.746.018,1.145.037,3.85.238,5.2,2.34,5.2,4.229a4,4,0,0,1-1.3,2.961,4.168,4.168,0,0,1,2.176,3.8c0,2.33-1.747,4.937-5.582,5.159C7.7,17.869,7.281,17.887,6.88,17.887Zm-.96-3.424c.271.02.708.02.9.02.51,0,1.039-.018,1.4-.038a1.979,1.979,0,0,0,1.874-1.951c0-.94-.689-1.531-1.89-1.622-.466-.037-.856-.056-1.244-.056-.294,0-.769,0-1.077.021C5.883,13.225,5.9,14.087,5.92,14.463ZM5.907,7.518c.145.006.351.011.643.011H6.6c.343,0,.716,0,1.037-.018a1.651,1.651,0,0,0,1.6-1.466c0-.865-1.188-.959-1.7-.959-.034,0-.522-.02-1.01-.02-.182,0-.419,0-.6.007-.011.322-.012.843-.014,1.4C5.912,6.82,5.911,7.178,5.907,7.518Z"/>
  <path class="cls-2"
        d="M6.57,2.413c.369,0,.758.02,1.165.039,3.439.213,4.429,2.039,4.429,3.477a2.977,2.977,0,0,1-2.311,3.01c-.311.04-.331.118-.331.136,0,.078.292.078.311.078a3.4,3.4,0,0,1,3.205,3.535c0,2.041-1.515,4.215-4.875,4.41-.447.019-.874.039-1.282.039-1.069,0-2.039-.059-3.108-.059-.349,0-.718,0-1.107.02l-.085,0A.991.991,0,0,1,1.5,16.107,1.024,1.024,0,0,1,2.627,15.1h.039c.33,0,.389-.175.408-.427.038-.816.058-2.836.058-4.857s-.02-4.059-.039-4.933c0-.311-.077-.446-.35-.446-.562,0-1.243-.214-1.243-.992a1,1,0,0,1,1.088-.99h.1c.349.02.7.02,1.029.02.99,0,1.884-.059,2.855-.059M6.551,8.279c.369,0,.777,0,1.127-.019A2.393,2.393,0,0,0,9.989,6.045c0-.894-.7-1.709-2.448-1.709,0,0-.505-.02-1.01-.02-1.184,0-1.321.02-1.34.5-.039.467-.019,1.943-.039,3.05,0,.33.117.408,1.4.408m.271,6.954c.525,0,1.069-.019,1.438-.039a2.727,2.727,0,0,0,2.584-2.7c0-1.145-.778-2.233-2.584-2.37-.486-.038-.894-.058-1.3-.058-1.555,0-1.826.039-1.826.447,0,3.322.019,3.9.058,4.216.058.446.2.5,1.631.5M6.57.913c-.5,0-.979.015-1.461.03C4.654.957,4.2.972,3.715.972H3.644c-.282,0-.578,0-.875-.018l-.042,0H2.588A2.485,2.485,0,0,0,0,3.442a2.372,2.372,0,0,0,1.607,2.3c.014,1.03.025,2.535.025,4.072,0,1.6-.012,3.035-.032,3.975A2.442,2.442,0,0,0,0,16.107,2.483,2.483,0,0,0,2.581,18.6c.053,0,.107,0,.162,0,.34-.017.664-.018.973-.018h.057c.52,0,1.015.015,1.511.029.524.015,1.048.03,1.6.03.411,0,.839-.019,1.287-.038l.061,0c4.341-.251,6.309-3.238,6.309-5.908a5.017,5.017,0,0,0-1.8-3.937,4.769,4.769,0,0,0,.929-2.822c0-2.128-1.528-4.707-5.836-4.974l-.076,0C7.34.931,6.946.913,6.57.913Zm.092,5.866c0-.1,0-.2,0-.3,0-.218,0-.448,0-.662.423,0,.809.018.817.018h.058c.754,0,.953.2.955.2a.936.936,0,0,1-.9.724c-.288.016-.62.017-.931.017Zm-.028,4.788h.325c.351,0,.716.017,1.183.053.8.061,1.2.355,1.2.875a1.232,1.232,0,0,1-1.175,1.2c-.426.023-.934.036-1.347.036H6.648c-.008-.475-.013-1.172-.014-2.166Z"/>
  <path class="cls-1"
        d="M20.6,18a5.469,5.469,0,0,1-5.645-5.664A5.53,5.53,0,0,1,20.6,6.675a5.52,5.52,0,0,1,5.625,5.664A5.459,5.459,0,0,1,20.6,18Zm0-8.061a2.2,2.2,0,0,0-2.183,2.4,2.18,2.18,0,1,0,4.346,0A2.189,2.189,0,0,0,20.6,9.942Z"/>
  <path class="cls-2"
        d="M20.6,7.425a4.768,4.768,0,0,1,4.875,4.914A4.713,4.713,0,0,1,20.6,17.253a4.728,4.728,0,0,1-4.9-4.914,4.784,4.784,0,0,1,4.9-4.914m0,8.022a2.9,2.9,0,0,0,2.913-3.108,2.931,2.931,0,1,0-5.847,0A2.917,2.917,0,0,0,20.6,15.447m0-9.522a6.264,6.264,0,0,0-6.4,6.414,6.2,6.2,0,0,0,6.4,6.414,6.185,6.185,0,0,0,6.375-6.414A6.254,6.254,0,0,0,20.6,5.925Zm0,8.022a1.432,1.432,0,0,1-1.434-1.608A1.463,1.463,0,0,1,20.6,10.692c.858,0,1.413.647,1.413,1.647s-.542,1.608-1.413,1.608Z"/>
  <path class="cls-1"
        d="M33.243,18A5.469,5.469,0,0,1,27.6,12.339a5.636,5.636,0,1,1,11.271,0A5.459,5.459,0,0,1,33.243,18Zm0-8.061a2.2,2.2,0,0,0-2.184,2.4,2.181,2.181,0,1,0,4.347,0A2.19,2.19,0,0,0,33.243,9.942Z"/>
  <path class="cls-2"
        d="M33.243,7.425a4.768,4.768,0,0,1,4.875,4.914,4.712,4.712,0,0,1-4.875,4.914,4.728,4.728,0,0,1-4.9-4.914,4.784,4.784,0,0,1,4.9-4.914m0,8.022a2.9,2.9,0,0,0,2.913-3.108,2.931,2.931,0,1,0-5.846,0,2.917,2.917,0,0,0,2.933,3.108m0-9.522a6.264,6.264,0,0,0-6.4,6.414,6.194,6.194,0,0,0,6.4,6.414,6.185,6.185,0,0,0,6.375-6.414,6.254,6.254,0,0,0-6.375-6.414Zm0,8.022a1.431,1.431,0,0,1-1.433-1.608,1.462,1.462,0,0,1,1.433-1.647c.859,0,1.413.647,1.413,1.647s-.541,1.608-1.413,1.608Z"/>
  <path class="cls-1"
        d="M45.151,18c-1.354,0-3.625-.531-3.625-4.091,0-.6.011-1.443.021-2.224.008-.577.015-1.121.017-1.513h-.142A1.636,1.636,0,0,1,39.8,8.493,1.6,1.6,0,0,1,41.422,6.85h.158c0-.123.005-.266.005-.416,0-.209,0-.419-.017-.612l0-.127a1.62,1.62,0,0,1,1.721-1.624,1.724,1.724,0,0,1,1.779,1.936c0,.266-.01.587-.019.843h.8a1.581,1.581,0,0,1,1.6,1.663,1.6,1.6,0,0,1-1.6,1.662h-.829c-.005.243-.011.518-.017.814-.016.726-.036,1.574-.036,2.3a4.586,4.586,0,0,0,.115,1.359h0a1.08,1.08,0,0,0,.281.028,3.1,3.1,0,0,0,.352-.033,1.415,1.415,0,0,1,.249-.026,1.578,1.578,0,0,1,1.585,1.605C47.551,16.641,47.379,18,45.151,18Z"/>
  <path class="cls-2"
        d="M43.286,4.821a1.018,1.018,0,0,1,1.029,1.186c0,.524-.038,1.263-.038,1.263,0,.31.077.33.272.33h1.3a.839.839,0,0,1,.854.913.848.848,0,0,1-.854.912H44.568c-.291,0-.291.1-.291.214,0,.718-.058,2.37-.058,3.652,0,1.515.058,2.137,1.146,2.137a3.9,3.9,0,0,0,.447-.039c.058,0,.1-.02.155-.02a.833.833,0,0,1,.835.855c0,.7-.641,1.029-1.651,1.029-2.875,0-2.875-2.544-2.875-3.341,0-1.126.039-3.069.039-3.924V9.7c0-.253-.117-.272-.31-.272h-.583a.882.882,0,0,1-.874-.932.849.849,0,0,1,.874-.893h.563c.311,0,.33-.059.33-.33,0,0,.02-.389.02-.836,0-.233,0-.466-.02-.68V5.7a.883.883,0,0,1,.971-.874m0-1.5A2.371,2.371,0,0,0,40.815,5.7v.127l.007.068c.008.09.011.184.012.281a2.359,2.359,0,0,0-1.786,2.322,2.391,2.391,0,0,0,1.761,2.353c0,.259-.007.541-.011.831-.01.785-.022,1.628-.022,2.235,0,4.369,3.06,4.841,4.375,4.841,2.326,0,3.151-1.363,3.151-2.529a2.32,2.32,0,0,0-2.335-2.355,1.672,1.672,0,0,0-.241.017c-.007-.219-.007-.456-.007-.595,0-.723.019-1.564.035-2.285l0-.081h.095a2.331,2.331,0,0,0,2.354-2.412A2.332,2.332,0,0,0,45.851,6.1h-.036V6.007a2.47,2.47,0,0,0-2.529-2.686Z"/>
  <path class="cls-1"
        d="M56.127,17.831a1.6,1.6,0,0,1-1.491-.816,1.737,1.737,0,0,1-.193-.584,1.7,1.7,0,0,1-1.755,1.4c-.434-.019-1.008-.019-1.553-.019H50.9c-.326,0-.625,0-.815.016l-.159.006a1.6,1.6,0,0,1-1.49-.816,1.79,1.79,0,0,1-.212-.83,1.659,1.659,0,0,1,1.388-1.655c.033-1.914.05-4.191.05-6.27,0-1.108,0-2.149-.016-3.048a1.653,1.653,0,0,1-1.616-1.75A1.668,1.668,0,0,1,49.677,1.7l.121,0c.2.016.361.017.524.017h.036c1.676.029,2.765.966,2.789,2.387,0,.239.005.458.01.671s.01.411.01.6c0,.607-.009,1.152-.021,1.612a5.554,5.554,0,0,1,1.971-.361A3.949,3.949,0,0,1,59.285,10.7c.017.712.052,2.446.057,3.855a1.653,1.653,0,0,1-.458,3.27c-.434-.019-1.007-.019-1.552-.019H57.1c-.326,0-.625,0-.814.016ZM53.06,14.525A1.61,1.61,0,0,1,54.45,15.9a1.645,1.645,0,0,1,1.376-1.368c0-.17,0-.341.007-.515.005-.322.009-.646.009-.955,0-.895-.018-1.674-.037-2C55.749,10.1,55.2,9.9,54.748,9.9a1.667,1.667,0,0,0-1.68,1.365c-.019.343-.018.854-.018,1.479C53.05,13.259,53.05,13.858,53.06,14.525Z"/>
  <path class="cls-2"
        d="M49.736,2.452c.234.02.428.02.622.02,1.068.018,2.02.485,2.039,1.65,0,.447.02.874.02,1.263,0,1.262-.039,2.253-.059,2.759,0,.077,0,.116.039.116.02,0,.04-.02.1-.059a4.439,4.439,0,0,1,2.623-.815,3.18,3.18,0,0,1,3.418,3.341c.02.777.059,2.8.059,4.253a.24.24,0,0,0,.253.273.978.978,0,0,1,1.088.932.937.937,0,0,1-1.05.893h-.038c-.389-.019-1.011-.019-1.593-.019-.408,0-.8,0-1.03.019l-.1,0a.871.871,0,0,1-.952-.9.918.918,0,0,1,.971-.932H56.3c.194,0,.271-.078.271-.292,0-.6.02-1.282.02-1.9,0-.913-.02-1.709-.038-2.04a1.763,1.763,0,0,0-1.807-1.865,2.4,2.4,0,0,0-2.429,2.078c-.018.35-.018.874-.018,1.516s0,1.418.018,2.292c0,.214.137.214.331.214l.081,0a.886.886,0,0,1,.988.9.947.947,0,0,1-1.031.932H52.65c-.388-.019-1.01-.019-1.592-.019-.409,0-.8,0-1.031.019l-.1,0a.87.87,0,0,1-.952-.9.917.917,0,0,1,.971-.932h.175c.175,0,.233-.059.233-.273.038-1.981.058-4.467.058-6.72,0-1.2,0-2.331-.02-3.283,0-.35-.116-.5-.524-.5a.935.935,0,0,1-1.088-1.01.919.919,0,0,1,.894-1.01h.058M49.8.952h-.121a2.4,2.4,0,0,0-2.394,2.51,2.37,2.37,0,0,0,1.625,2.373c.007.752.007,1.571.007,2.425,0,1.974-.015,4.005-.041,5.727a2.4,2.4,0,0,0-1.4,2.2,2.53,2.53,0,0,0,.3,1.191,2.361,2.361,0,0,0,2.149,1.2c.058,0,.118,0,.18,0,.212-.017.6-.017.947-.017.546,0,1.166,0,1.517.017l.038,0h.037a2.645,2.645,0,0,0,1.761-.64,2.451,2.451,0,0,0,1.716.643c.058,0,.118,0,.18,0,.213-.017.6-.017.947-.017.547,0,1.166,0,1.517.017l.038,0h.038a2.432,2.432,0,0,0,2.588-2.393,2.362,2.362,0,0,0-1.346-2.153c-.011-1.381-.042-2.849-.054-3.343a4.649,4.649,0,0,0-4.918-4.8,6.37,6.37,0,0,0-1.2.116q0-.3,0-.617c0-.2-.005-.407-.01-.622s-.01-.421-.01-.641c-.031-1.858-1.442-3.114-3.513-3.15-.181,0-.336,0-.523-.015L49.8.952ZM53.8,13.963c0-.448,0-.854,0-1.216,0-.6,0-1.126.016-1.436s.5-.658.931-.658c.164,0,.283,0,.309.453.014.252.036.984.036,1.952,0,.3-.005.612-.01.923a2.406,2.406,0,0,0-.623.411,2.335,2.335,0,0,0-.656-.429Z"/>
  <path class="cls-1"
        d="M73.63,17.945C69.253,17.545,66,14.518,66,10.9a5.69,5.69,0,0,1,.372-2.018,4.79,4.79,0,0,1-2.206.767,1.85,1.85,0,0,1-1.935-1.8,1.865,1.865,0,0,1,1.42-1.726c.127-.042.347-.111.6-.19.48-.151,1.084-.339,1.462-.478.283-.1.625-.219,1.021-.354.88-.3,2.084-.709,3.411-1.233a15.647,15.647,0,0,1,5.423-1.256c1.529,0,2.071.916,2.071,1.7a1.944,1.944,0,0,1-.516,1.347c1.025.347,2.653,1.2,2.653,2.422a1.639,1.639,0,0,1-1.566,1.663,1.337,1.337,0,0,1-.636-.167,1.226,1.226,0,0,1,.007.136A1.668,1.668,0,0,1,76,11.38a1.424,1.424,0,0,1-1.066-.505,6.916,6.916,0,0,0-1.386-1.013,1.38,1.38,0,0,1-.94-1.292,1.56,1.56,0,0,1,1.6-1.507A2.4,2.4,0,0,1,74.8,7.2a1.232,1.232,0,0,1-.013-.183A1.436,1.436,0,0,1,75,6.264c-.065,0-.13-.009-.2-.017a2.242,2.242,0,0,0-.3-.015h-.073c-2.583,0-5.213,2.23-5.213,4.417,0,2,1.983,3.562,4.514,3.562a1.983,1.983,0,0,1,2.188,1.9,1.906,1.906,0,0,1-2.091,1.838Z"/>
  <path class="cls-2"
        d="M75.572,3.365c.972,0,1.322.447,1.322.951,0,.992-.817,1.205-1.554,1.205a3.662,3.662,0,0,1-.447-.019,3.641,3.641,0,0,0-.466-.02c-3.011,0-5.964,2.564-5.964,5.167,0,2.33,2.215,4.312,5.265,4.312.97,0,1.437.563,1.437,1.146,0,.544-.447,1.088-1.341,1.088H73.63c-4.215-.388-6.876-3.3-6.876-6.294a5.47,5.47,0,0,1,1.4-3.554.387.387,0,0,0,.1-.175.041.041,0,0,0-.038-.039.645.645,0,0,0-.194.078C64.967,8.784,64.6,8.9,64.17,8.9a1.105,1.105,0,0,1-1.185-1.048,1.114,1.114,0,0,1,.894-1.01c.408-.136,1.516-.466,2.1-.68.913-.33,2.525-.835,4.448-1.593a14.834,14.834,0,0,1,5.147-1.2m.817,2.874c.31,0,2.641.836,2.641,1.846A.9.9,0,0,1,78.214,9a.711.711,0,0,1-.485-.233,6.821,6.821,0,0,0-1.69-1.146.676.676,0,0,1-.506-.6.838.838,0,0,1,.856-.778M74.213,7.813c.253,0,2.622.893,2.622,1.9A.928.928,0,0,1,76,10.63a.67.67,0,0,1-.5-.253,7.359,7.359,0,0,0-1.651-1.2.652.652,0,0,1-.486-.6.823.823,0,0,1,.855-.757m1.359-5.948a16.3,16.3,0,0,0-5.7,1.308c-1.313.518-2.459.908-3.38,1.222-.4.136-.748.254-1.03.356-.36.133-.981.327-1.435.469-.259.081-.484.151-.626.2a2.588,2.588,0,0,0-1.921,2.434A2.592,2.592,0,0,0,64.17,10.4a2.992,2.992,0,0,0,1.125-.213,6.317,6.317,0,0,0-.041.714c0,4.007,3.542,7.355,8.238,7.788l.069.006h.263a2.659,2.659,0,0,0,2.841-2.588,2.736,2.736,0,0,0-2.937-2.646c-2.111,0-3.765-1.235-3.765-2.812A3.84,3.84,0,0,1,72.05,7.68a2.119,2.119,0,0,0,1.209,2.875,6.921,6.921,0,0,1,1.116.819A2.161,2.161,0,0,0,76,12.13,2.416,2.416,0,0,0,78.2,10.5h.015A2.4,2.4,0,0,0,80.53,8.085c0-1.352-1.193-2.258-2.31-2.783a2.841,2.841,0,0,0,.174-.986,2.5,2.5,0,0,0-2.822-2.451Z"/>
  <path class="cls-1"
        d="M83.364,19.266a1.7,1.7,0,0,1-1.779-1.7,1.655,1.655,0,0,1,1.636-1.681,8.07,8.07,0,0,0,2.157-.453,2.3,2.3,0,0,1-1.345-2.03c-.038-.706-.059-1.6-.059-2.518,0-.936.021-1.814.059-2.471a2.3,2.3,0,0,1,.8-1.665C82.5,6.619,82.3,5.369,82.3,3.986c0-1.176,0-2.956,2.784-2.983,1.514-.02,3.44-.02,5.406-.02,1.945,0,3.93,0,5.525.02,2.723.055,2.723,1.836,2.723,2.692,0,1.251,0,2.954-2.541,3.057A2.184,2.184,0,0,1,97.031,8.3c.039.691.058,1.463.058,2.255,0,.983-.019,1.986-.058,2.831a2.375,2.375,0,0,1-1.176,1.965,8.127,8.127,0,0,0,1.891.34,1.613,1.613,0,0,1,1.578,1.643,1.821,1.821,0,0,1-1.838,1.838,15.022,15.022,0,0,1-5.581-1.888,1.566,1.566,0,0,1-.821-1.368c0-.041,0-.083,0-.124H89.771a1.619,1.619,0,0,1,.015.221,1.519,1.519,0,0,1-.772,1.342A14.268,14.268,0,0,1,83.364,19.266ZM95.415,3.936V3.882l-1.355-.015v.069Zm-4.506,0V3.862h-.967v.074Zm-4.138,0V3.87l-1.16.012c0,.016,0,.034,0,.054Z"/>
  <path class="cls-2"
        d="M90.493,1.733c1.943,0,3.924,0,5.517.02,1.9.038,1.981.971,1.981,1.942,0,1.34,0,2.292-1.981,2.312-1.652.019-3.594.019-5.517.019-1.9,0-3.787,0-5.322-.019-1.982-.02-2.117-.7-2.117-2.021,0-1.262.039-2.214,2.04-2.233,1.514-.02,3.437-.02,5.4-.02M93.31,4.686h2.136c.622,0,.719-.291.719-.719,0-.8-.214-.835-.757-.835-.641,0-1.36-.02-2.1-.02V4.686m-4.118,0h2.467V3.112H89.192V4.686m-3.536,0h1.865V3.112l-1.883.02c-.642,0-.778.194-.778.815,0,.487.078.739.8.739M90.1,6.842c1.418,0,2.875,0,4.254.039a1.788,1.788,0,0,1,1.924,1.457c.038.68.058,1.436.058,2.214,0,.971-.02,1.962-.058,2.8a1.848,1.848,0,0,1-2.02,1.671c-.369,0-.758.019-1.147.019a11.384,11.384,0,0,0,4.585,1.4.858.858,0,0,1,.874.893,1.072,1.072,0,0,1-1.088,1.088,14.548,14.548,0,0,1-5.206-1.787.814.814,0,0,1-.446-.719,1.011,1.011,0,0,1,.562-.874H88.3a1.037,1.037,0,0,1,.737.971.78.78,0,0,1-.407.7,13.8,13.8,0,0,1-5.265,1.807.961.961,0,0,1-1.029-.952.915.915,0,0,1,.933-.932,9.381,9.381,0,0,0,4.37-1.477.969.969,0,0,1,.292-.135c-.369,0-.719-.02-1.069-.02-1.38-.039-2.04-.719-2.079-1.632-.038-.719-.057-1.612-.057-2.486,0-.894.019-1.768.057-2.428.039-.758.544-1.573,2.04-1.593,1.01-.019,2.137-.019,3.282-.019m-3.612,2.37h8.023V8.9c-.02-.446-.234-.7-.875-.718-1.107-.019-2.525-.038-3.866-.038-.835,0-1.65,0-2.35.019a.861.861,0,0,0-.932.737v.312m-.039,2.214h8.1V10.4h-8.1v1.03m8.08,1.184H86.492v.312c.02.544.389.719.951.738,1.069.038,2.331.058,3.594.058.913,0,1.826-.02,2.622-.039.506-.019.817-.233.856-.738,0-.1.018-.213.018-.331M90.493.233c-2,0-3.894,0-5.419.02-3.52.034-3.52,2.626-3.52,3.733,0,1.371.271,2.769,1.98,3.3a3.255,3.255,0,0,0-.25,1.092c-.038.663-.059,1.555-.059,2.5,0,.928.021,1.839.059,2.566a3.136,3.136,0,0,0,.529,1.615,6.192,6.192,0,0,1-.633.071,2.41,2.41,0,0,0-2.345,2.43,2.465,2.465,0,0,0,2.529,2.452,14.92,14.92,0,0,0,6.047-2.027,2.276,2.276,0,0,0,1.041-1.349,2.351,2.351,0,0,0,1.092,1.3,15.689,15.689,0,0,0,5.942,1.98,2.56,2.56,0,0,0,2.588-2.588,2.362,2.362,0,0,0-2.277-2.39c-.141-.009-.294-.022-.46-.043a3.006,3.006,0,0,0,.445-1.516c.037-.8.058-1.819.058-2.83,0-.8-.021-1.6-.06-2.3a2.738,2.738,0,0,0-.237-.975c1.948-.657,1.948-2.572,1.948-3.584,0-2.238-1.161-3.4-3.451-3.442-1.614-.02-3.613-.02-5.547-.02Z"/>
  <path class="cls-1"
        d="M105.958,19.188a1.8,1.8,0,0,1-1.781-1.78,1.624,1.624,0,0,1,1.006-1.5c2.854-1.257,4.3-3.025,4.3-5.26,0-1.04-.367-2.611-.921-2.611a2.84,2.84,0,0,0-1.133.486,4.93,4.93,0,0,1-2.441.991,1.779,1.779,0,1,1-.2-3.552,2.608,2.608,0,0,0,.846-.3l.259-.122a6.7,6.7,0,0,1,2.781-.69c3.353,0,4.247,3.622,4.247,5.761C112.923,16.309,107.134,19.188,105.958,19.188Zm3.865-14.452a9.72,9.72,0,0,1-4.109-.916,1.666,1.666,0,0,1-.934-1.466,1.626,1.626,0,0,1,1.643-1.6,2.171,2.171,0,0,1,.8.169,4.636,4.636,0,0,0,2,.375h.054c.191,0,.37,0,.564-.017l.14,0a1.647,1.647,0,0,1,1.74,1.624A1.809,1.809,0,0,1,109.823,4.736Z"/>
  <path class="cls-2"
        d="M106.424,1.5a1.443,1.443,0,0,1,.524.116,5.37,5.37,0,0,0,2.273.428c.233,0,.447,0,.679-.02h.079a.892.892,0,0,1,.99.874,1.068,1.068,0,0,1-1.146,1.088,8.911,8.911,0,0,1-3.768-.835.914.914,0,0,1-.525-.8.871.871,0,0,1,.894-.854m2.253,4.1c3.419,0,3.5,4.623,3.5,5.011,0,5.205-5.42,7.828-6.216,7.828a1.048,1.048,0,0,1-1.03-1.03.876.876,0,0,1,.563-.815c3.574-1.573,4.74-3.826,4.74-5.944,0-.544-.174-3.361-1.67-3.361a3.087,3.087,0,0,0-1.535.6,4.3,4.3,0,0,1-2.04.874,1.033,1.033,0,1,1-.1-2.059,4.24,4.24,0,0,0,1.32-.486,6.033,6.033,0,0,1,2.467-.621M106.424,0a2.377,2.377,0,0,0-2.394,2.354,2.413,2.413,0,0,0,1.3,2.108l.024.014.025.013q.254.128.509.235c-.1.042-.2.087-.3.134l-.268.126a2.019,2.019,0,0,1-.6.233,2.528,2.528,0,0,0,.276,5.048,5.471,5.471,0,0,0,2.827-1.1,4.286,4.286,0,0,1,.581-.321,5.092,5.092,0,0,1,.337,1.8c0,1.91-1.293,3.448-3.844,4.571a2.391,2.391,0,0,0-1.459,2.188,2.533,2.533,0,0,0,2.53,2.53c1.473,0,7.716-3.109,7.716-9.328a7.076,7.076,0,0,0-2.259-5.616,2.534,2.534,0,0,0,1.054-2.1,2.381,2.381,0,0,0-2.49-2.374h-.141l-.063.006c-.157.013-.3.014-.457.014h-.1a3.871,3.871,0,0,1-1.672-.3l-.024-.011L107.5.222A2.937,2.937,0,0,0,106.424,0Z"/>
</svg>
