<svg xmlns="http://www.w3.org/2000/svg" viewBox="0 0 141.648 23.784">
  <defs>
    <style>.cls-1 {
      fill: #5b6e80;
    }

    .cls-2 {
      fill: #fff;
    }</style>
  </defs>
  <path class="cls-1"
        d="M6.959,18.061c-.559,0-1.088-.015-1.62-.029S4.292,18,3.734,18H3.7c-.325,0-.652,0-1,.019H2.7a1.969,1.969,0,0,1-1.419-.5A1.721,1.721,0,0,1,.75,16.262a1.77,1.77,0,0,1,1.6-1.762c.011-.24.011-.554.011-.7,0,0,0-1.408-.009-1.873-.005-.52-.011-1.069-.011-1.624s0-1.1.011-1.622c0-.48.009-1.913.009-1.913,0-.414-.007-.781-.012-1.089,0-.1,0-.191,0-.277a1.766,1.766,0,0,1,.262-3.521h.112c.415.019.812.038,1.19.038.553,0,1.079-.02,1.6-.039.543-.019,1.086-.039,1.658-.039.467,0,.933,0,1.44.041,4.639.3,7.643,3.455,7.643,8.033C16.254,15.319,13.127,18.061,6.959,18.061Zm-.882-3.538a9.23,9.23,0,0,0,1,.037c2.746,0,5.427-.359,5.427-4.649,0-2.766-1.62-4.553-4.125-4.553-.02,0-.865-.02-1.593-.02-.321,0-.561.006-.718.018-.028.457-.028,1.516-.028,2.632,0,1.658.016,3.642.028,5.041C6.071,13.688,6.076,14.218,6.077,14.523Z"/>
  <path class="cls-2"
        d="M7.172,2.588c.447,0,.893,0,1.38.039,4.486.291,6.953,3.341,6.953,7.284,0,7.361-6.41,7.4-8.546,7.4-1.107,0-2.1-.059-3.225-.059-.349,0-.7,0-1.068.019H2.62a1.009,1.009,0,0,1-1.12-1.01,1.038,1.038,0,0,1,1.127-1.03c.428,0,.485-.058.485-1.437v-.564c0-.854-.019-1.883-.019-2.933s.019-2.1.019-2.991V6.764c0-.719-.019-1.3-.019-1.67,0-.311-.058-.428-.35-.428h-.1a1.023,1.023,0,1,1-.039-2.039h.079c.426.019.835.038,1.223.038,1.126,0,2.137-.077,3.263-.077m-.1,12.723c2.2,0,6.177-.058,6.177-5.4,0-3.069-1.884-5.3-4.875-5.3,0,0-.856-.019-1.593-.019-1.321,0-1.4.077-1.457.6-.039.448-.039,1.536-.039,2.8,0,2.564.039,5.905.039,6.662,0,.544.214.661,1.748.661m.1-14.223c-.582,0-1.134.019-1.686.039-.516.019-1.033.038-1.577.038-.367,0-.752-.018-1.155-.036l-.034,0H2.607A2.522,2.522,0,0,0,.02,3.637,2.466,2.466,0,0,0,1.605,5.974c0,.237.007.5.007.79v.544c0,.424,0,.884-.009,1.362,0,.528-.01,1.079-.01,1.629s.005,1.108.01,1.631c.005.462.009.9.009,1.3v.688A2.461,2.461,0,0,0,0,16.263a2.51,2.51,0,0,0,2.62,2.51h.085c.358-.019.665-.019.969-.019h.06c.551,0,1.069.015,1.585.029.538.015,1.074.03,1.64.03,8.3,0,10.046-4.841,10.046-8.9,0-5-3.28-8.452-8.356-8.781-.523-.042-1.008-.042-1.477-.042Zm-.35,12.721c0-.232,0-.5-.006-.786-.012-1.4-.028-3.378-.028-5.035,0-.679,0-1.373.007-1.9.717,0,1.543.019,1.548.019,2.522,0,3.409,1.965,3.409,3.8,0,3.612-2.027,3.9-4.677,3.9l-.253,0Z"/>
  <path class="cls-1"
        d="M23.1,18.216a5.341,5.341,0,0,1-5.392-5.644A5.446,5.446,0,0,1,23.063,6.81c2.959,0,4.946,2.166,4.946,4.189a2.428,2.428,0,0,1-2.572,2.439c-.577.019-.962.02-4.16.02a1.8,1.8,0,0,0,1.845,1.452,2.535,2.535,0,0,0,1.977-.948,1.629,1.629,0,0,1,1.208-.547,1.815,1.815,0,0,1,1.779,1.759,1.683,1.683,0,0,1-.51,1.21A5.572,5.572,0,0,1,23.1,18.216Zm-.383-7.851c.53,0,1.087,0,1.548-.006A1.688,1.688,0,0,0,23.083,10a1.86,1.86,0,0,0-1.1.364Z"/>
  <path class="cls-2"
        d="M23.063,7.561A3.924,3.924,0,0,1,27.26,11a1.676,1.676,0,0,1-1.846,1.689c-.6.02-1.01.02-4.778.02-.117,0-.156.155-.156.369a2.557,2.557,0,0,0,2.642,2.583,3.27,3.27,0,0,0,2.525-1.184.883.883,0,0,1,.661-.311,1.059,1.059,0,0,1,1.029,1.01.924.924,0,0,1-.291.679A4.891,4.891,0,0,1,23.1,17.467a4.6,4.6,0,0,1-4.643-4.895,4.718,4.718,0,0,1,4.6-5.011m-.408,3.554c.8,0,1.671,0,2.2-.019a.412.412,0,0,0,.388-.428c0-.272-.408-1.418-2.156-1.418a2.552,2.552,0,0,0-2.428,1.69c0,.175.2.175,2,.175m.408-5.054a6.25,6.25,0,0,0-6.1,6.511,6.066,6.066,0,0,0,6.143,6.4,6.371,6.371,0,0,0,5.025-2.074,2.4,2.4,0,0,0,.709-1.718,2.514,2.514,0,0,0-.965-1.956A3.074,3.074,0,0,0,28.76,11c0-2.385-2.289-4.938-5.7-4.938Z"/>
  <path class="cls-1"
        d="M33.339,18.2a4.418,4.418,0,0,1-1.674-.287,2,2,0,0,1-.871.19,1.612,1.612,0,0,1-1.72-1.566l0-.112c.017-.251.017-.448.017-.626,0-.258,0-.5-.018-.811v-.1a1.618,1.618,0,0,1,1.7-1.6,1.66,1.66,0,0,1,1.706,1.448,1.344,1.344,0,0,0,.723.183c.423,0,.693-.111.707-.288,0-.122-.293-.47-2.256-1.346a3.385,3.385,0,0,1-2.193-3.094,3.457,3.457,0,0,1,3.7-3.352,3.762,3.762,0,0,1,1.32.229,1.826,1.826,0,0,1,.8-.172,1.658,1.658,0,0,1,1.741,1.644c-.02.377-.02.636-.02.893,0,.152,0,.321.016.489A1.581,1.581,0,0,1,35.6,11.6a3.656,3.656,0,0,1,1.786,2.993A3.832,3.832,0,0,1,33.347,18.2h-.008Zm-.174-8.158c-.209,0-.291.061-.3.078a.653.653,0,0,0,.261.216c.181.1.407.2.647.315a1.585,1.585,0,0,1-.13-.54A1.62,1.62,0,0,0,33.165,10.039Z"/>
  <path class="cls-2"
        d="M33.165,7.58a3.007,3.007,0,0,1,1.185.232.322.322,0,0,0,.136.02.492.492,0,0,0,.252-.058,1.033,1.033,0,0,1,.544-.136.913.913,0,0,1,.991.893v.02c-.019.33-.019.6-.019.874,0,.175,0,.369.019.563a.84.84,0,0,1-.913.874.889.889,0,0,1-.971-.854V9.969c0-.68-1.146-.68-1.224-.68-.68,0-1.049.389-1.049.816a1.076,1.076,0,0,0,.66.894c.525.272,1.379.641,1.962.951a3.094,3.094,0,0,1,1.9,2.642,3.107,3.107,0,0,1-3.3,2.855,3.547,3.547,0,0,1-1.573-.31.453.453,0,0,0-.156-.039.256.256,0,0,0-.155.058,1.105,1.105,0,0,1-.661.2.873.873,0,0,1-.971-.817v-.057c.02-.273.02-.487.02-.68,0-.273,0-.526-.02-.856v-.057a.872.872,0,0,1,.951-.855.912.912,0,0,1,.972.912.352.352,0,0,0,.175.312,2.024,2.024,0,0,0,1.282.407c1.32,0,1.457-.815,1.457-1.029,0-.544-.349-.99-2.7-2.039a2.643,2.643,0,0,1-1.748-2.409,2.723,2.723,0,0,1,2.952-2.6m0-1.5a4.238,4.238,0,0,0-4.452,4.1,3.877,3.877,0,0,0,.967,2.577,2.3,2.3,0,0,0-1.356,2.124v.1l0,.044c.017.3.017.523.017.767,0,.163,0,.343-.016.572l0,.054v.111A2.345,2.345,0,0,0,30.8,18.851a2.786,2.786,0,0,0,.882-.141,5.441,5.441,0,0,0,1.663.237,4.577,4.577,0,0,0,4.8-4.355,4.07,4.07,0,0,0-1.157-2.8,2.4,2.4,0,0,0,.788-1.8V9.913l-.007-.075c-.014-.142-.012-.285-.012-.413,0-.244,0-.489.017-.786l0-.044V8.551a2.394,2.394,0,0,0-2.491-2.413,2.684,2.684,0,0,0-.819.124,4.549,4.549,0,0,0-1.3-.182Z"/>
  <path class="cls-1"
        d="M40.019,18.024a1.68,1.68,0,0,1-1.776-1.7A1.71,1.71,0,0,1,39.92,14.6c.018-.89.033-1.926.033-3.078v-.981A1.648,1.648,0,0,1,38.321,8.8a1.723,1.723,0,0,1,1.7-1.818h.621A2.516,2.516,0,0,1,43.4,9.813c-.017,1.228-.033,2.143-.047,2.893-.014.81-.026,1.427-.03,1.927A1.684,1.684,0,0,1,44.754,16.3a1.732,1.732,0,0,1-1.818,1.721C42.483,18,41.854,18,41.284,18h-.258c-.363,0-.674,0-.863.017ZM41.285,5.94a2.028,2.028,0,0,1-2.11-2.129,2.071,2.071,0,0,1,2.11-2.071,2.1,2.1,0,1,1,0,4.2Z"/>
  <path class="cls-2"
        d="M41.285,2.49a1.37,1.37,0,0,1,1.361,1.322A1.354,1.354,0,0,1,41.285,5.19a1.288,1.288,0,0,1-1.359-1.378A1.318,1.318,0,0,1,41.285,2.49m-.64,5.245c1.417.02,2,.68,2,2.078v.079c-.04,2.68-.079,4.118-.079,5.088a.332.332,0,0,0,.33.37h.044a.967.967,0,1,1,0,1.923H42.9c-.407-.019-1.086-.019-1.689-.019-.466,0-.874,0-1.107.019-.028,0-.055,0-.081,0a.933.933,0,0,1-1.027-.953.964.964,0,0,1,1.03-.971h.311c.252,0,.33-.059.33-.409.02-.893.039-2.078.039-3.418v-.971c0-.544-.058-.758-.544-.758h-.194a.9.9,0,0,1-.894-.99.98.98,0,0,1,.952-1.069h.622M41.285.99a2.815,2.815,0,0,0-2.859,2.822,2.809,2.809,0,0,0,1.281,2.443A2.465,2.465,0,0,0,37.571,8.8,2.419,2.419,0,0,0,39.2,11.175v.348c0,.8-.007,1.613-.021,2.461a2.457,2.457,0,0,0,.838,4.79l.151,0H40.2l.028,0c.171-.014.583-.014.982-.014.584,0,1.246,0,1.618.018H42.9a2.476,2.476,0,0,0,2.608-2.47,2.388,2.388,0,0,0-1.43-2.217c.006-.386.014-.834.024-1.366.013-.75.03-1.666.046-2.806v-.1a3.238,3.238,0,0,0-1.9-3.282,2.843,2.843,0,0,0,1.9-2.719A2.879,2.879,0,0,0,41.285.99Z"/>
  <path class="cls-1"
        d="M50.8,23.034c-2.438,0-4.577-1.277-4.577-2.732a1.815,1.815,0,0,1,1.78-1.8,1.737,1.737,0,0,1,1.089.4,3.272,3.272,0,0,0,2.019.71,1.936,1.936,0,0,0,2.1-1.928,4.692,4.692,0,0,1-2.077.475,5.363,5.363,0,0,1-5.373-5.586c0-2.729,1.7-5.665,5.45-5.665a4.838,4.838,0,0,1,2.806.921,2.689,2.689,0,0,1,2.09-.8c1.834,0,2.032,1.258,2.032,1.8a1.609,1.609,0,0,1-1.465,1.7c-.05.426-.05,1.32-.05,1.9,0,.455,0,.956.008,1.475.006.565.011,1.152.011,1.73,0,.322-.005.644-.01.959-.005.292-.009.576-.009.846A5.543,5.543,0,0,1,50.8,23.034Zm.427-12.821A2.061,2.061,0,0,0,49.2,12.572a2.049,2.049,0,0,0,1.969,2.318,2.122,2.122,0,0,0,2.047-2.357A2.057,2.057,0,0,0,51.231,10.213Z"/>
  <path class="cls-2"
        d="M51.212,7.657a3.884,3.884,0,0,1,2.837,1.224c.038.058.077.1.116.1s.059-.04.077-.1a1.753,1.753,0,0,1,1.865-1.107c.855,0,1.283.311,1.283,1.049a.867.867,0,0,1-.817.951H56.5c-.563,0-.622.214-.622,2.643,0,.951.02,2.1.02,3.205,0,.621-.02,1.243-.02,1.806a4.77,4.77,0,0,1-5.069,4.856c-2.04,0-3.827-1.049-3.827-1.981a1.067,1.067,0,0,1,1.03-1.049.993.993,0,0,1,.621.233,4.033,4.033,0,0,0,2.486.874,2.7,2.7,0,0,0,2.856-2.894l.019-1.049c0-.078-.019-.1-.058-.1-.02,0-.039,0-.078.038a4.039,4.039,0,0,1-2.719,1.049,4.59,4.59,0,0,1-4.623-4.836,4.61,4.61,0,0,1,4.7-4.915m-.038,7.984a2.859,2.859,0,0,0,2.8-3.108,2.776,2.776,0,1,0-5.517.039,2.79,2.79,0,0,0,2.72,3.069m.038-9.484a6.116,6.116,0,0,0-6.2,6.415,6.3,6.3,0,0,0,2.562,5.221,2.586,2.586,0,0,0-2.1,2.51c0,2.082,2.754,3.481,5.327,3.481a6.261,6.261,0,0,0,6.569-6.331c0-.292,0-.572.009-.859,0-.319.011-.646.011-.972,0-.579-.006-1.169-.011-1.737,0-.517-.009-1.015-.009-1.468,0-.325,0-.865.014-1.293a2.421,2.421,0,0,0,1.5-2.3,2.475,2.475,0,0,0-2.783-2.549A3.746,3.746,0,0,0,53.95,6.9a5.652,5.652,0,0,0-2.738-.738Zm-.038,7.984c-.753,0-1.22-.6-1.22-1.569,0-1.394.8-1.606,1.278-1.608.775,0,1.239.587,1.239,1.569s-.509,1.608-1.3,1.608Z"/>
  <path class="cls-1"
        d="M66.559,18.005a1.6,1.6,0,0,1-1.49-.816,1.737,1.737,0,0,1-.193-.584A1.7,1.7,0,0,1,63.121,18c-.435-.019-1.007-.019-1.553-.019h-.232c-.326,0-.625,0-.814.017l-.159,0a1.6,1.6,0,0,1-1.49-.816,1.774,1.774,0,0,1-.212-.83,1.658,1.658,0,0,1,1.388-1.654l.029-1.289c.013-.583.02-.875.02-1.311,0-.368,0-.817-.014-1.607a1.624,1.624,0,0,1-1.462-1.714,1.694,1.694,0,0,1,1.7-1.76c.095,0,.147,0,.2-.008C60.6,7.01,60.671,7,60.79,7h.117a3.075,3.075,0,0,1,1.917.533,5.364,5.364,0,0,1,2.725-.727,3.948,3.948,0,0,1,4.168,4.067c.018.712.052,2.447.058,3.855A1.653,1.653,0,0,1,69.317,18c-.435-.019-1.007-.019-1.553-.019h-.231c-.326,0-.625,0-.815.017Zm-3.066-3.3a1.607,1.607,0,0,1,1.389,1.37A1.644,1.644,0,0,1,66.259,14.7c0-.169.016-1.161.016-1.471,0-.894-.018-1.672-.037-2-.057-.957-.607-1.158-1.058-1.158A1.666,1.666,0,0,0,63.5,11.442c-.019.344-.018.854-.018,1.479C63.483,13.433,63.483,14.033,63.493,14.7Z"/>
  <path class="cls-2"
        d="M65.55,7.561a3.18,3.18,0,0,1,3.418,3.34c.019.778.058,2.8.058,4.254a.24.24,0,0,0,.253.273.977.977,0,0,1,1.088.931.936.936,0,0,1-1.05.894h-.038c-.388-.02-1.01-.02-1.592-.02-.409,0-.8,0-1.031.02l-.1,0a.872.872,0,0,1-.953-.9.918.918,0,0,1,.972-.931h.136c.194,0,.292-.078.292-.292,0-.6.018-1.282.018-1.9,0-.913-.018-1.709-.038-2.04a1.763,1.763,0,0,0-1.806-1.864,2.4,2.4,0,0,0-2.429,2.078c-.019.35-.019.874-.019,1.516s0,1.418.019,2.292c0,.214.137.214.331.214l.08,0a.886.886,0,0,1,.988.9.946.946,0,0,1-1.03.932h-.038c-.389-.02-1.011-.02-1.593-.02-.408,0-.8,0-1.03.02l-.1,0a.871.871,0,0,1-.952-.9.917.917,0,0,1,.972-.931h.175c.174,0,.232-.059.232-.273.039-1.981.059-2.311.059-3.05,0-.407,0-.913-.02-1.864a.463.463,0,0,0-.466-.485h-.116a.884.884,0,0,1-.875-.972.942.942,0,0,1,.952-1.01c.234,0,.273-.019.466-.019h.117a1.924,1.924,0,0,1,1.748.7c.02.039.039.059.078.059s.1-.059.194-.137a4.439,4.439,0,0,1,2.623-.815m0-1.5a6.26,6.26,0,0,0-2.7.61,4.155,4.155,0,0,0-1.943-.416H60.79c-.143,0-.232.006-.325.013-.036,0-.074.006-.141.006a2.427,2.427,0,0,0-2.452,2.51,2.414,2.414,0,0,0,1.471,2.3c.006.453.006.758.006,1.021,0,.431-.007.718-.021,1.294-.005.21-.011.457-.018.761a2.4,2.4,0,0,0-1.4,2.2,2.529,2.529,0,0,0,.3,1.191,2.359,2.359,0,0,0,2.148,1.206c.058,0,.119,0,.181,0,.212-.018.6-.018.946-.018.547,0,1.167,0,1.518.018l.037,0h.038a2.645,2.645,0,0,0,1.76-.64,2.454,2.454,0,0,0,1.717.643c.058,0,.118,0,.18,0,.212-.018.6-.018.947-.018.546,0,1.166,0,1.517.018l.038,0h.037a2.432,2.432,0,0,0,2.588-2.394,2.363,2.363,0,0,0-1.345-2.152c-.011-1.382-.042-2.85-.055-3.343a4.648,4.648,0,0,0-4.917-4.8Zm-1.313,8.077c0-.449,0-.854,0-1.216,0-.6,0-1.126.017-1.436s.5-.658.931-.658c.164,0,.282,0,.309.453.018.3.035,1.065.035,1.951,0,.3,0,.613-.009.924a2.406,2.406,0,0,0-.623.411,2.313,2.313,0,0,0-.656-.429Z"/>
  <path class="cls-1"
        d="M73.244,18.838a1.676,1.676,0,0,1-1.722-1.624,1.649,1.649,0,0,1,.14-.666c.924-2.311,4.962-12.908,5.364-14.373A1.574,1.574,0,0,1,78.586,1a1.715,1.715,0,0,1,1.759,1.605,1.708,1.708,0,0,1-.1.55c-.566,1.415-4.535,12.024-5.464,14.585A1.612,1.612,0,0,1,73.244,18.838Z"/>
  <path class="cls-2"
        d="M78.586,1.753a.966.966,0,0,1,1.01.854.963.963,0,0,1-.059.311c-.544,1.359-4.506,11.946-5.458,14.568a.867.867,0,0,1-.835.6.931.931,0,0,1-.972-.874.887.887,0,0,1,.079-.369c.893-2.235,4.972-12.918,5.4-14.472a.825.825,0,0,1,.836-.621m0-1.5A2.335,2.335,0,0,0,76.3,1.977c-.4,1.446-4.418,11.99-5.346,14.312a2.323,2.323,0,0,0-.186.926,2.427,2.427,0,0,0,2.472,2.374A2.375,2.375,0,0,0,75.489,18c.929-2.557,4.892-13.15,5.441-14.523l.015-.039.014-.04a2.451,2.451,0,0,0,.137-.789A2.439,2.439,0,0,0,78.586.253Z"/>
  <path class="cls-1"
        d="M89.308,19.208a1.675,1.675,0,0,1-1.359-.72,11.4,11.4,0,0,1-1.982.1c-.557,0-1.135-.019-1.534-.04a2.243,2.243,0,0,1-2.207-2.266c-.019-.422-.019-.821-.019-1.221,0-.555,0-1.069.02-1.565a2.166,2.166,0,0,1,1.022-1.851,1.551,1.551,0,0,1-.829-1.362,1.508,1.508,0,0,1,.644-1.256,1.559,1.559,0,0,1-.625-1.25A1.541,1.541,0,0,1,82.8,6.752,1.561,1.561,0,0,1,82.833,3.7a1.538,1.538,0,0,1-.491-1.112,1.563,1.563,0,0,1,1.644-1.546h4.04a1.522,1.522,0,0,1,1.566,1.546,1.581,1.581,0,0,1-.434,1.089,1.559,1.559,0,0,1,1.183.769c0-.1,0-.2,0-.3s0-.21-.009-.32c0-.141-.01-.286-.01-.438,0-2.4,2.523-2.4,3.352-2.4,2.281,0,3.664.207,3.664,3.081,0,.183,0,.355-.007.521a1.5,1.5,0,0,1,1.375-.727,1.562,1.562,0,0,1,1.682,1.43v.135c0,2.634-1.276,3.349-2.516,3.519a2.2,2.2,0,0,1,.593,1.532c0,1.174-.96,2.817-1.952,4.1a9.509,9.509,0,0,0,2.828,1.031,1.609,1.609,0,0,1,1.338,1.609,1.751,1.751,0,0,1-1.818,1.76,10.115,10.115,0,0,1-4.685-2.019A9.793,9.793,0,0,1,89.308,19.208Zm-.482-7.561a2.055,2.055,0,0,1,1.116,1.762c.019.442.019.939.019,1.435,0,.278,0,.554,0,.821a8.145,8.145,0,0,0,1.908-1.024,6.9,6.9,0,0,1-1.443-2.847,1.449,1.449,0,0,1,.074-.457l-.164,0a1.463,1.463,0,0,1-.9-.295A1.473,1.473,0,0,1,88.826,11.647Zm-3.435,3.867c.146.012.358.018.634.018a5.993,5.993,0,0,0,.721-.032c.006-.194.006-.395.006-.6,0-.223,0-.445-.008-.651-.2-.017-.511-.017-.719-.017h-.038c-.2,0-.395,0-.6.009-.01.173-.01.426-.01.659,0,.149,0,.3.009.447C85.388,15.405,85.389,15.459,85.391,15.514ZM93.583,11.3a8.531,8.531,0,0,0,.541.98,7.773,7.773,0,0,0,.543-.98ZM89.025,9.041q.01-.023.021-.042l-.039.029Zm5.642-.81a3.161,3.161,0,0,1-.612-2.244c0-.381.006-.795.011-1.188,0-.27.007-.531.008-.762h-.066c-.13,0-.291,0-.414.006a5.878,5.878,0,0,1-1.3,4.185h.764C93.6,8.228,94.144,8.228,94.667,8.231Z"/>
  <path class="cls-2"
        d="M93.679,1.733c2.311,0,2.914.233,2.914,2.331,0,.622-.039,1.126-.039,1.67v.273a.56.56,0,0,0,.622.64c.66,0,.737-.5.737-1.184V5.269c0-.467.389-.661.8-.661.446,0,.933.252.933.68v.136c0,2.37-1.069,2.816-2.545,2.816-2.078,0-2.292-.777-2.292-2.253,0-.718.019-1.553.019-2.136,0-.544-.447-.564-.816-.564-.7,0-1.165,0-1.165.6,0,1.805-.195,3.223-1.748,4.428a1.021,1.021,0,0,1-.66.233,1,1,0,0,1-1.011-.913.686.686,0,0,1,.33-.582C90.882,6.317,91.1,5.54,91.1,4.142c0-.234-.02-.486-.02-.758V3.346c0-1.535,1.554-1.613,2.6-1.613m-5.653.058a.77.77,0,0,1,.817.8.78.78,0,0,1-.817.8h-4.04a.824.824,0,0,1-.893-.8.814.814,0,0,1,.893-.8h4.04m.913,2.623a.816.816,0,1,1,0,1.631h-5.75a.816.816,0,1,1,0-1.631h5.75m-.874,2.564a.769.769,0,0,1,.816.8.779.779,0,0,1-.816.8h-4.04a.785.785,0,0,1-.836-.8.775.775,0,0,1,.836-.8h4.04m4.993,2c1.029,0,2.078,0,2.952.019,1.243.02,1.71.719,1.71,1.477,0,1.106-1.186,2.971-2.312,4.272A9.635,9.635,0,0,0,99.2,16.34a.867.867,0,0,1,.739.875,1.006,1.006,0,0,1-1.069,1.01,9.885,9.885,0,0,1-4.7-2.235,9.588,9.588,0,0,1-4.856,2.468,1.02,1.02,0,0,1-.953-.894,5.159,5.159,0,0,1-2.388.272c-.544,0-1.108-.02-1.5-.039a1.5,1.5,0,0,1-1.495-1.534c-.02-.428-.02-.816-.02-1.2,0-.544,0-1.049.02-1.536a1.451,1.451,0,0,1,1.456-1.475c.447-.02.952-.039,1.457-.039.622,0,1.223.019,1.69.039a1.585,1.585,0,0,1,1.612,1.379c.019.446.019.932.019,1.418s0,.97-.019,1.4a1.654,1.654,0,0,1-.078.447,8.759,8.759,0,0,0,3.808-1.923A8.2,8.2,0,0,1,91.173,11.8a.9.9,0,0,1,.932-.816.743.743,0,0,1,.719.466,8.854,8.854,0,0,0,1.3,2.1,6.925,6.925,0,0,0,1.495-2.738c0-.234-.291-.253-.427-.253H93.951c-1.2,0-2.564.019-3.633.039H90.3a.721.721,0,0,1-.7-.8.728.728,0,0,1,.679-.8c.758-.019,1.749-.019,2.779-.019m-7.033,7.3c1.108,0,1.438-.117,1.457-.485.02-.273.02-.583.02-.894s0-.622-.02-.893c-.039-.506-.465-.525-1.457-.525-.271,0-.544,0-.835.019-.563.039-.563.369-.563,1.4,0,.311.019.621.019.912.02.409.389.467,1.379.467m2.04-6.8a.769.769,0,0,1,.816.8.779.779,0,0,1-.816.8h-4.04a.8.8,0,0,1-.854-.8.791.791,0,0,1,.854-.8h4.04M93.679.233c-1.978,0-3.023.6-3.563,1.33A2.265,2.265,0,0,0,88.026.291h-4.04a2.321,2.321,0,0,0-2.393,2.3,2.251,2.251,0,0,0,.146.8A2.317,2.317,0,0,0,81.784,7.1a2.4,2.4,0,0,0-.1.675,2.288,2.288,0,0,0,.36,1.241,2.3,2.3,0,0,0,.076,2.637,3.017,3.017,0,0,0-.648,1.834c-.02.483-.02,1.007-.02,1.573,0,.41,0,.82.021,1.272a2.986,2.986,0,0,0,2.9,2.963c.264.013.908.042,1.591.042s1.214,0,1.692-.05a2.421,2.421,0,0,0,1.649.672A10.087,10.087,0,0,0,94.2,17.885a10.121,10.121,0,0,0,4.668,1.84,2.514,2.514,0,0,0,2.569-2.51,2.375,2.375,0,0,0-1.954-2.348,9.418,9.418,0,0,1-1.832-.565,7.593,7.593,0,0,0,1.572-3.827,3.127,3.127,0,0,0-.191-1.082c1.7-.726,2.114-2.459,2.114-3.969V5.288a2.293,2.293,0,0,0-2.433-2.18,2.619,2.619,0,0,0-.666.085C97.719.477,95.8.233,93.679.233ZM90.711,14.491c0-.071,0-.141,0-.211.033.052.066.1.1.154l-.1.057Z"/>
  <path class="cls-1"
        d="M115.612,19.265a1.693,1.693,0,0,1-1.722-1.74l.018-7.661h-1.929a1.728,1.728,0,0,1-.964-.283,1.562,1.562,0,0,1,.16.7,1.49,1.49,0,0,1-.826,1.362,2.1,2.1,0,0,1,1.155,1.749c.02.353.04.952.04,1.55s-.02,1.186-.041,1.487a2.419,2.419,0,0,1-2.414,2.254c-.424.02-1.175.039-1.927.039s-1.485-.019-1.881-.039a2.332,2.332,0,0,1-2.268-2.25c-.019-.395-.019-1.09-.019-1.724,0-.487,0-.952.02-1.236a2.236,2.236,0,0,1,1.072-1.824,1.521,1.521,0,0,1-.2-2.625,1.545,1.545,0,0,1-.271-2.258,1.531,1.531,0,0,1-1.265-1.536,1.53,1.53,0,0,1,1.3-1.542,1.534,1.534,0,0,1-.444-1.1,1.523,1.523,0,0,1,1.566-1.546h4.817a1.522,1.522,0,0,1,1.566,1.546,1.587,1.587,0,0,1-.425,1.08,1.563,1.563,0,0,1,.093,3.116,1.313,1.313,0,0,1,.12.165,1.666,1.666,0,0,1,1.035-.332l1.928.013-.017-4.1a1.732,1.732,0,1,1,3.462,0l-.016,4.1,2.136-.014a1.627,1.627,0,1,1,.005,3.248h-2.142l.017,7.659A1.7,1.7,0,0,1,115.612,19.265Zm-9.447-3.626c.188.017.5.028,1.036.028.348,0,.835,0,1.111-.028,0-.15,0-.323,0-.5,0-.3,0-.635-.008-.888-.276-.012-.646-.012-1.014-.012h-.2c-.335,0-.661,0-.91.01-.016.218-.016.579-.016.929C106.164,15.347,106.163,15.508,106.165,15.639Z"/>
  <path class="cls-2"
        d="M115.632,1.5a.964.964,0,0,1,.971,1.029l-.02,4.857,2.895-.02a.9.9,0,0,1,.971.874.885.885,0,0,1-.971.874h-2.895l.02,8.411a.981.981,0,1,1-1.962,0l.019-8.411h-2.681a.856.856,0,0,1-.913-.874.867.867,0,0,1,.913-.874l2.681.02-.019-4.857a.969.969,0,0,1,.991-1.029m-6.041.291a.769.769,0,0,1,.815.8.778.778,0,0,1-.815.8h-4.818a.769.769,0,0,1-.816-.8.779.779,0,0,1,.816-.8h4.818m1.029,2.623a.816.816,0,1,1,0,1.631h-6.682a.788.788,0,0,1-.835-.816.788.788,0,0,1,.835-.815h6.682M109.629,7a.777.777,0,1,1,0,1.554h-4.817a.778.778,0,1,1,0-1.554h4.817m0,2.506a.777.777,0,1,1,0,1.554h-4.817a.779.779,0,1,1,0-1.554h4.817m-2.6,2.506c.8,0,1.613.019,2.078.039a1.64,1.64,0,0,1,1.652,1.379c.019.349.039.932.039,1.514s-.02,1.147-.039,1.438a1.675,1.675,0,0,1-1.709,1.555c-.408.018-1.147.038-1.885.038s-1.456-.02-1.845-.038a1.569,1.569,0,0,1-1.554-1.536c-.019-.388-.019-1.068-.019-1.689,0-.467,0-.913.019-1.186a1.518,1.518,0,0,1,1.515-1.475c.447-.02,1.088-.039,1.748-.039m.175,4.409c1.341,0,1.807-.02,1.846-.485.019-.2.019-.486.019-.8,0-.407,0-.855-.019-1.126a.575.575,0,0,0-.583-.506c-.311-.019-.8-.019-1.263-.019s-.932,0-1.223.019c-.564.039-.564.369-.564,1.671,0,.33,0,.622.02.777.039.369.135.466,1.767.466M115.632,0a2.455,2.455,0,0,0-2.491,2.529l.013,3.346-.264,0a2.46,2.46,0,0,0,.085-.644,2.262,2.262,0,0,0-1.154-2.011,2.332,2.332,0,0,0,.085-.63,2.255,2.255,0,0,0-2.315-2.3h-4.818a2.282,2.282,0,0,0-2.316,2.3,2.414,2.414,0,0,0,.114.74,2.273,2.273,0,0,0-.968,1.9,2.272,2.272,0,0,0,.981,1.911,2.317,2.317,0,0,0-.088.634,2.271,2.271,0,0,0,.363,1.241,2.282,2.282,0,0,0,.082,2.643,3.034,3.034,0,0,0-.676,1.786c-.021.3-.021.769-.021,1.265,0,.657,0,1.337.02,1.761a3.06,3.06,0,0,0,2.957,2.961c.409.019,1.142.041,1.941.041s1.551-.022,1.953-.04a3.176,3.176,0,0,0,3.135-2.921c.024-.346.045-.944.045-1.57s-.021-1.24-.041-1.6a2.686,2.686,0,0,0-.742-1.743,2.249,2.249,0,0,0,.39-.987h1.255l-.016,6.908a2.481,2.481,0,1,0,4.962,0l-.017-6.911h1.392a2.37,2.37,0,0,0,2.471-2.374,2.4,2.4,0,0,0-2.471-2.374l-1.389.01.014-3.341A2.476,2.476,0,0,0,115.632,0Z"/>
  <path class="cls-1"
        d="M132.378,18.585c-1.793,0-3.586-.019-5.339-.058a3.032,3.032,0,0,1-3.316-3.069c-.054-1.318-.079-2.967-.079-5.042,0-2.2.039-4.459.078-6.368A2.941,2.941,0,0,1,126.88,1.2c1.7-.039,3.492-.059,5.323-.059s3.682.02,5.512.059a3.1,3.1,0,0,1,3.1,3.011c.039,1.983.078,4.163.078,6.285,0,1.965-.025,3.571-.079,4.9a3.153,3.153,0,0,1-3.137,3.129C135.963,18.566,134.17,18.585,132.378,18.585Zm-.233-3.248c1.436,0,2.928-.018,4.456-.037l.118,0c.634-.011.695-.172.718-.664q.012-.306.021-.627a1.726,1.726,0,0,1-1.545,1.024,1.667,1.667,0,0,1-1.145-.467,10.416,10.416,0,0,0-1.7-1.271,14.855,14.855,0,0,1-2.742,2.036C130.922,15.334,131.529,15.337,132.145,15.337ZM126.97,10.25c0,1.063.011,2.106.029,3.09a1.987,1.987,0,0,1,.6-.36,9.621,9.621,0,0,0,2.264-1.2c-.6-.221-1.222-.415-1.851-.58A1.44,1.44,0,0,1,126.97,10.25Zm8.266.532c1.329.743,2,1.3,2.254,1.885.015-.883.023-1.843.023-2.893,0-1.418-.013-2.654-.043-3.747A15.748,15.748,0,0,1,135.236,10.782ZM127,6.375c-.017.986-.027,2.007-.029,3.022A1.625,1.625,0,0,1,128.2,8.284a1.664,1.664,0,0,1-.057-.159,3.446,3.446,0,0,0-.9-1.451A1.772,1.772,0,0,1,127,6.375Zm3.727,2.418c.5.164,1.031.357,1.564.572q.317-.435.593-.9a1.612,1.612,0,0,1-.428.059,1.44,1.44,0,0,1-1.194-.6A1.629,1.629,0,0,1,130.727,8.793Zm2.407-4.463A4.949,4.949,0,0,1,133.994,6c.114-.356.212-.72.293-1.087a1.6,1.6,0,0,1,.251-.574C134.073,4.335,133.6,4.332,133.134,4.33Zm-4.043.018a3.143,3.143,0,0,1,.911.687c0-.038,0-.077,0-.117a1.318,1.318,0,0,1,.134-.581Zm-1.453.021c-.442.016-.533.089-.537.092a.887.887,0,0,0-.07.416A1.649,1.649,0,0,1,127.638,4.369Zm9.65.046a1.357,1.357,0,0,1,.107.164.374.374,0,0,0-.049-.144A.184.184,0,0,0,137.288,4.415Z"/>
  <path class="cls-2"
        d="M132.2,1.889c1.826,0,3.672.019,5.5.058a2.33,2.33,0,0,1,2.37,2.273c.039,1.981.078,4.156.078,6.273,0,1.73-.019,3.4-.078,4.876a2.394,2.394,0,0,1-2.408,2.408c-1.71.039-3.5.059-5.284.059s-3.574-.02-5.322-.059a2.3,2.3,0,0,1-2.583-2.349c-.059-1.457-.078-3.2-.078-5.012,0-2.2.039-4.448.078-6.352A2.207,2.207,0,0,1,126.9,1.947c1.691-.039,3.478-.058,5.3-.058m-.057,14.2c1.475,0,3.01-.02,4.583-.039,1.088-.02,1.418-.544,1.458-1.379.057-1.554.077-3.225.077-4.9s-.02-3.34-.077-4.836c-.04-1.107-.428-1.3-1.38-1.321-1.456-.019-3.069-.039-4.623-.039-1.574,0-3.108.02-4.467.039-1.108.02-1.418.33-1.438,1.321-.039,1.574-.058,3.3-.058,4.993s.019,3.34.058,4.8c.038,1.106.427,1.3,1.631,1.32,1.341.019,2.759.039,4.236.039M131.6,4.22c.97,0,1.787,1.884,1.787,2.622a.931.931,0,0,1-.933.932.706.706,0,0,1-.719-.622,4.373,4.373,0,0,0-.835-1.826.6.6,0,0,1-.155-.407.8.8,0,0,1,.855-.7m4.214.232a.973.973,0,0,1,1.03.874,14.1,14.1,0,0,1-2.72,5.711c2.39,1.243,2.739,1.768,2.739,2.254a1,1,0,0,1-.952.99.933.933,0,0,1-.641-.271,11.882,11.882,0,0,0-2.311-1.652,10.637,10.637,0,0,1-4.778,3.05.95.95,0,0,1-.953-.932.876.876,0,0,1,.642-.8,10.641,10.641,0,0,0,3.457-2.117,21.088,21.088,0,0,0-3.127-1.087.654.654,0,0,1-.544-.642A.868.868,0,0,1,128.552,9a18.392,18.392,0,0,1,3.981,1.282,12.667,12.667,0,0,0,2.487-5.206.768.768,0,0,1,.8-.622m-7.4.486c.971,0,2.137,2.04,2.137,2.623a.959.959,0,0,1-.952.913.738.738,0,0,1-.739-.564,4.194,4.194,0,0,0-1.107-1.787.673.673,0,0,1-.233-.466.846.846,0,0,1,.894-.719M132.2.389c-1.847,0-3.643.02-5.337.059a3.694,3.694,0,0,0-3.893,3.593c-.037,1.772-.078,4.106-.078,6.375,0,2.085.025,3.745.079,5.072a3.8,3.8,0,0,0,4.048,3.789c1.751.039,3.553.059,5.356.059s3.605-.02,5.318-.059a3.89,3.89,0,0,0,3.874-3.865c.052-1.328.078-2.943.078-4.919,0-2.145-.04-4.378-.078-6.3A3.838,3.838,0,0,0,137.724.447C135.905.409,134.045.389,132.2.389Zm4.091,10.143q.253-.409.47-.806v.048c0,.365,0,.72,0,1.063-.146-.1-.3-.2-.467-.3Zm-8.562,1.59,0-.222.089.025.22.059c-.1.048-.2.094-.307.138Zm4.991,2.465c.142-.114.282-.232.423-.354q.255.174.485.349l-.908,0Z"/>
</svg>
