<svg xmlns="http://www.w3.org/2000/svg" viewBox="0 0 20.755 18.585">
  <defs>
    <style>.cls-1 {
      fill: #fff;
    }</style>
  </defs>
  <path class="cls-1"
        d="M16.953,10.7h0c.143-.914-.907-1.433-2.528-1.932A38.421,38.421,0,0,0,9.3,7.648a38.606,38.606,0,0,0-5.225-.5c-1.7-.019-2.854.156-3,1.07h0L.013,15.035h0c-.143.914.907,1.434,2.528,1.932a38.421,38.421,0,0,0,5.127,1.12,38.284,38.284,0,0,0,5.225.5c1.7.019,2.854-.156,3-1.07h0ZM9.177,8.423c3.956.618,7.09,1.583,7,2.156s-3.369.537-7.325-.08-7.091-1.583-7-2.156S5.221,7.806,9.177,8.423ZM7.789,17.312c-3.956-.618-7.09-1.583-7-2.156h0c-.089.573,3.045,1.538,7,2.156s7.236.653,7.325.08h0C15.025,17.965,11.745,17.929,7.789,17.312Z"/>
  <path class="cls-1"
        d="M11.562,9.352h0c-.135-.212.06-.569.435-.827L19.323,3.04a.974.974,0,0,1,1.311.095h0a.905.905,0,0,1-.387,1.254L12.378,9.3C12,9.559,11.67,9.508,11.562,9.352Z"/>
  <path class="cls-1"
        d="M6.351,9.031h0c-.219.124-.555-.075-.78-.444L.73,1.365A.942.942,0,0,1,.923.105h0a.875.875,0,0,1,1.205.41L6.363,8.244C6.588,8.613,6.512,8.932,6.351,9.031Z"/>
</svg>
