<svg xmlns="http://www.w3.org/2000/svg" viewBox="0 0 197.315 19.785">
  <defs>
    <style>.cls-1 {
      isolation: isolate;
    }

    .cls-2 {
      opacity: 0.3;
      mix-blend-mode: multiply;
    }

    .cls-3 {
      fill: #fff;
    }</style>
  </defs>
  <g class="cls-1">
    <g class="cls-2">
      <path
        d="M4.315,21.149a1.579,1.579,0,0,1-1.776-1.8v-6.2a1.573,1.573,0,0,1,1.776-1.776H9.429a1.659,1.659,0,0,1,1.8,1.885v6.089a1.6,1.6,0,0,1-1.8,1.8ZM5.68,10.468A1.574,1.574,0,0,1,3.9,8.69V4.422A1.573,1.573,0,0,1,5.68,2.646H17.814a1.588,1.588,0,0,1,1.8,1.776V8.69a1.589,1.589,0,0,1-1.8,1.778Zm2.9,3.51c0-.043-.043-.065-.086-.065H5.247a.058.058,0,0,0-.065.065V18.55a.057.057,0,0,0,.065.064H8.5c.043,0,.086-.021.086-.064Zm8.169-8.732a.1.1,0,0,0-.064-.065H6.829a.1.1,0,0,0-.065.065v2.6a.1.1,0,0,0,.065.065h9.859a.1.1,0,0,0,.064-.065Zm-2.838,15.9a1.579,1.579,0,0,1-1.777-1.8V13.263a1.643,1.643,0,0,1,1.777-1.885h5.46a1.588,1.588,0,0,1,1.8,1.776v6.2a1.594,1.594,0,0,1-1.8,1.8Zm4.615-7.171c0-.043-.043-.065-.087-.065h-3.6a.058.058,0,0,0-.066.065V18.55c0,.043.022.064.066.064h3.6c.044,0,.087-.021.087-.064Z"
        transform="translate(-1.539 -1.364)"/>
      <path
        d="M30.206,21.106a1.588,1.588,0,0,1-1.776-1.8V13.826a1.386,1.386,0,0,1,.086-.476,1.948,1.948,0,0,1-.347.043,1.314,1.314,0,0,1-1.234-1.344,1.048,1.048,0,0,1,.823-1.062,19.472,19.472,0,0,0,4.268-1.559H28.343a1.075,1.075,0,0,1-1.062-1.17,1.068,1.068,0,0,1,1.062-1.149H30.6a3.361,3.361,0,0,0-.455-.758.872.872,0,0,1-.217-.542.943.943,0,0,1,.347-.694H29.188a1.177,1.177,0,0,1-1.17-1.234,1.084,1.084,0,0,1,1.127-1.149h1.234c3.879,0,9.252-.021,13.694-.368h.109a1.241,1.241,0,0,1,1.213,1.3.989.989,0,0,1-.953,1.04c-.5.043-1.019.087-1.539.108a1.042,1.042,0,0,1,.434.8,4.022,4.022,0,0,1-.586,1.5h2.384a1.085,1.085,0,0,1,1.083,1.149,1.091,1.091,0,0,1-1.083,1.17h-3.7A21.27,21.27,0,0,0,45.7,10.987a1.088,1.088,0,0,1,.824,1.062,1.3,1.3,0,0,1-1.235,1.322,1.083,1.083,0,0,1-.26-.021,1.933,1.933,0,0,1,.065.476v5.482a1.6,1.6,0,0,1-1.8,1.8Zm5.157-6.76H31.116V15.43h4.247Zm0,3.185H31.116V18.7h4.247Zm0-7.692a17.129,17.129,0,0,1-3.9,2.21H36.1a.98.98,0,0,1-.737-.953Zm0-4.767c-1.17.022-2.188.022-3.185.043a13.173,13.173,0,0,1,.975,1.994h2.21Zm6.63,6.977A17.551,17.551,0,0,1,38.028,9.8v1.3a.958.958,0,0,1-.758.953Zm-1.842-4.94a10.122,10.122,0,0,0,.781-1.863,1.1,1.1,0,0,1,.194-.347c-1.061.043-2.036.086-3.1.13v2.08Zm2.254,7.237H38.028V15.43h4.377Zm0,3.185H38.028V18.7h4.377Z"
        transform="translate(-1.539 -1.364)"/>
      <path
        d="M74.124,15.538H65.868L64.2,19.222a1.583,1.583,0,0,1-2.99-.478,1.41,1.41,0,0,1,.151-.628L67.818,4.054a2.455,2.455,0,0,1,4.4,0l6.457,14.062a1.41,1.41,0,0,1,.151.628,1.583,1.583,0,0,1-2.99.478ZM70.007,6.416l-2.839,6.24h5.677Z"
        transform="translate(-1.539 -1.364)"/>
      <path
        d="M83.547,7.391c0-2.752,2.3-4.941,6.587-4.941,3.6,0,5.872,1.431,6.565,3.858a1.126,1.126,0,0,1,.087.455,1.584,1.584,0,0,1-1.669,1.365,1.322,1.322,0,0,1-1.278-.78c-.39-1.236-1.625-2.1-3.749-2.1-2.188,0-3.488.866-3.488,2.123,0,.8.585,1.278,1.733,1.6,1.084.368,2.926.519,4.551.974,2.925.738,4.442,2.363,4.442,5.115,0,3.141-2.3,5.286-7.129,5.286-6.631,0-7.107-5.048-7.107-5.265a1.607,1.607,0,0,1,1.69-1.452,1.188,1.188,0,0,1,1.235.867c.368,1.733,1.842,2.925,4.182,2.925,2.817,0,3.944-1.127,3.944-2.492,0-1-.737-1.82-2.081-2.189-1.517-.432-3.228-.519-4.875-1.061C84.76,10.923,83.547,9.428,83.547,7.391Z"
        transform="translate(-1.539 -1.364)"/>
      <path
        d="M106.08,12.439V18.9c0,.8-.737,1.213-1.5,1.213A1.339,1.339,0,0,1,103.09,18.9V3.9a1.34,1.34,0,0,1,1.494-1.213c.759,0,1.5.412,1.5,1.213V9.124l7.627-6.089a1.315,1.315,0,0,1,.866-.324,1.565,1.565,0,0,1,1.517,1.517,1.389,1.389,0,0,1-.563,1.1l-6.847,5.482,7.692,6.566a1.3,1.3,0,0,1,.455,1,1.736,1.736,0,0,1-1.582,1.69,1.285,1.285,0,0,1-.889-.368Z"
        transform="translate(-1.539 -1.364)"/>
      <path
        d="M122,14.779c-.8,0-1.192-.78-1.192-1.559s.39-1.561,1.192-1.561h5.807c.8,0,1.192.78,1.192,1.561s-.39,1.559-1.192,1.559Z"
        transform="translate(-1.539 -1.364)"/>
      <path
        d="M134.137,11.4c0-5.438,2.058-8.926,6.088-8.926s6.088,3.488,6.088,8.926-2.015,8.927-6.088,8.927C136.2,20.326,134.137,16.838,134.137,11.4Zm9.208,0c0-3.315-.823-5.98-3.12-5.98-2.253,0-3.1,2.665-3.1,5.98,0,3.293.954,5.958,3.1,5.958C142.392,17.357,143.345,14.692,143.345,11.4Z"
        transform="translate(-1.539 -1.364)"/>
      <path
        d="M157.774,8.647c3.77,0,5.786,2.232,5.786,5.743,0,3.293-1.972,5.958-5.808,5.958a6.368,6.368,0,0,1-2.08-.325c-3.791-1.3-4.095-6.24-4.095-8.624,0-5.655,2.492-8.949,6.262-8.949A5.3,5.3,0,0,1,163.1,5.7a1.584,1.584,0,0,1,.13.585,1.514,1.514,0,0,1-1.581,1.408,1.159,1.159,0,0,1-1.127-.672,2.727,2.727,0,0,0-2.687-1.711c-1.885,0-3.12,1.711-3.337,4.832A4,4,0,0,1,157.774,8.647Zm2.86,5.743a2.769,2.769,0,0,0-2.9-2.969,2.644,2.644,0,0,0-2.838,2.752c0,3.207,2.556,3.228,2.859,3.228A2.784,2.784,0,0,0,160.634,14.39Z"
        transform="translate(-1.539 -1.364)"/>
      <path
        d="M168.8,11.4c0-5.438,2.058-8.926,6.089-8.926s6.088,3.488,6.088,8.926-2.015,8.927-6.088,8.927C170.86,20.326,168.8,16.838,168.8,11.4Zm9.209,0c0-3.315-.823-5.98-3.12-5.98-2.254,0-3.1,2.665-3.1,5.98,0,3.293.954,5.958,3.1,5.958C177.057,17.357,178.011,14.692,178.011,11.4Z"
        transform="translate(-1.539 -1.364)"/>
      <path
        d="M196.557,16.751v2.231c0,.781-.737,1.171-1.474,1.171s-1.473-.39-1.473-1.171V16.751h-5.677a1.806,1.806,0,0,1-2.015-1.863,3.128,3.128,0,0,1,.455-1.56l5.785-9.447A2.45,2.45,0,0,1,194.3,2.689a2.127,2.127,0,0,1,2.254,2.123v9.014h1.235c.715,0,1.062.736,1.062,1.474s-.347,1.451-1.062,1.451ZM193.61,6.416l-4.377,7.41h4.377Z"
        transform="translate(-1.539 -1.364)"/>
    </g>
    <path class="cls-3"
          d="M3.315,20.149a1.579,1.579,0,0,1-1.776-1.8v-6.2a1.573,1.573,0,0,1,1.776-1.776H8.429a1.659,1.659,0,0,1,1.8,1.885v6.089a1.6,1.6,0,0,1-1.8,1.8ZM4.68,9.468A1.574,1.574,0,0,1,2.9,7.69V3.422A1.573,1.573,0,0,1,4.68,1.646H16.814a1.588,1.588,0,0,1,1.8,1.776V7.69a1.589,1.589,0,0,1-1.8,1.778Zm2.9,3.51c0-.043-.043-.065-.086-.065H4.247a.058.058,0,0,0-.065.065V17.55a.057.057,0,0,0,.065.064H7.5c.043,0,.086-.021.086-.064Zm8.169-8.732a.1.1,0,0,0-.064-.065H5.829a.1.1,0,0,0-.065.065v2.6a.1.1,0,0,0,.065.065h9.859a.1.1,0,0,0,.064-.065Zm-2.838,15.9a1.579,1.579,0,0,1-1.777-1.8V12.263a1.643,1.643,0,0,1,1.777-1.885h5.46a1.588,1.588,0,0,1,1.8,1.776v6.2a1.594,1.594,0,0,1-1.8,1.8Zm4.615-7.171c0-.043-.043-.065-.087-.065h-3.6a.058.058,0,0,0-.066.065V17.55c0,.043.022.064.066.064h3.6c.044,0,.087-.021.087-.064Z"
          transform="translate(-1.539 -1.364)"/>
    <path class="cls-3"
          d="M29.206,20.106a1.588,1.588,0,0,1-1.776-1.8V12.826a1.386,1.386,0,0,1,.086-.476,1.948,1.948,0,0,1-.347.043,1.314,1.314,0,0,1-1.234-1.344,1.048,1.048,0,0,1,.823-1.062,19.472,19.472,0,0,0,4.268-1.559H27.343a1.075,1.075,0,0,1-1.062-1.17,1.068,1.068,0,0,1,1.062-1.149H29.6a3.361,3.361,0,0,0-.455-.758.872.872,0,0,1-.217-.542.943.943,0,0,1,.347-.694H28.188a1.177,1.177,0,0,1-1.17-1.234,1.084,1.084,0,0,1,1.127-1.149h1.234c3.879,0,9.252-.021,13.694-.368h.109a1.241,1.241,0,0,1,1.213,1.3.989.989,0,0,1-.953,1.04c-.5.043-1.019.087-1.539.108a1.042,1.042,0,0,1,.434.8,4.022,4.022,0,0,1-.586,1.5h2.384a1.085,1.085,0,0,1,1.083,1.149,1.091,1.091,0,0,1-1.083,1.17h-3.7A21.27,21.27,0,0,0,44.7,9.987a1.088,1.088,0,0,1,.824,1.062,1.3,1.3,0,0,1-1.235,1.322,1.083,1.083,0,0,1-.26-.021,1.933,1.933,0,0,1,.065.476v5.482a1.6,1.6,0,0,1-1.8,1.8Zm5.157-6.76H30.116V14.43h4.247Zm0,3.185H30.116V17.7h4.247Zm0-7.692a17.129,17.129,0,0,1-3.9,2.21H35.1a.98.98,0,0,1-.737-.953Zm0-4.767c-1.17.022-2.188.022-3.185.043a13.173,13.173,0,0,1,.975,1.994h2.21Zm6.63,6.977A17.551,17.551,0,0,1,37.028,8.8v1.3a.958.958,0,0,1-.758.953Zm-1.842-4.94a10.122,10.122,0,0,0,.781-1.863,1.1,1.1,0,0,1,.194-.347c-1.061.043-2.036.086-3.1.13v2.08Zm2.254,7.237H37.028V14.43h4.377Zm0,3.185H37.028V17.7h4.377Z"
          transform="translate(-1.539 -1.364)"/>
    <path class="cls-3"
          d="M73.124,14.538H64.868L63.2,18.222a1.583,1.583,0,0,1-2.99-.478,1.41,1.41,0,0,1,.151-.628L66.818,3.054a2.455,2.455,0,0,1,4.4,0l6.457,14.062a1.41,1.41,0,0,1,.151.628,1.583,1.583,0,0,1-2.99.478ZM69.007,5.416l-2.839,6.24h5.677Z"
          transform="translate(-1.539 -1.364)"/>
    <path class="cls-3"
          d="M82.547,6.391c0-2.752,2.3-4.941,6.587-4.941,3.6,0,5.872,1.431,6.565,3.858a1.126,1.126,0,0,1,.087.455,1.584,1.584,0,0,1-1.669,1.365,1.322,1.322,0,0,1-1.278-.78c-.39-1.236-1.625-2.1-3.749-2.1-2.188,0-3.488.866-3.488,2.123,0,.8.585,1.278,1.733,1.6,1.084.368,2.926.519,4.551.974,2.925.738,4.442,2.363,4.442,5.115,0,3.141-2.3,5.286-7.129,5.286-6.631,0-7.107-5.048-7.107-5.265a1.607,1.607,0,0,1,1.69-1.452,1.188,1.188,0,0,1,1.235.867c.368,1.733,1.842,2.925,4.182,2.925,2.817,0,3.944-1.127,3.944-2.492,0-1-.737-1.82-2.081-2.189-1.517-.432-3.228-.519-4.875-1.061C83.76,9.923,82.547,8.428,82.547,6.391Z"
          transform="translate(-1.539 -1.364)"/>
    <path class="cls-3"
          d="M105.08,11.439V17.9c0,.8-.737,1.213-1.5,1.213A1.339,1.339,0,0,1,102.09,17.9V2.9a1.34,1.34,0,0,1,1.494-1.213c.759,0,1.5.412,1.5,1.213V8.124l7.627-6.089a1.315,1.315,0,0,1,.866-.324,1.565,1.565,0,0,1,1.517,1.517,1.389,1.389,0,0,1-.563,1.1L107.68,9.814l7.692,6.566a1.3,1.3,0,0,1,.455,1,1.736,1.736,0,0,1-1.582,1.69,1.285,1.285,0,0,1-.889-.368Z"
          transform="translate(-1.539 -1.364)"/>
    <path class="cls-3"
          d="M121,13.779c-.8,0-1.192-.78-1.192-1.559s.39-1.561,1.192-1.561h5.807c.8,0,1.192.78,1.192,1.561s-.39,1.559-1.192,1.559Z"
          transform="translate(-1.539 -1.364)"/>
    <path class="cls-3"
          d="M133.137,10.4c0-5.438,2.058-8.926,6.088-8.926s6.088,3.488,6.088,8.926-2.015,8.927-6.088,8.927C135.2,19.326,133.137,15.838,133.137,10.4Zm9.208,0c0-3.315-.823-5.98-3.12-5.98-2.253,0-3.1,2.665-3.1,5.98,0,3.293.954,5.958,3.1,5.958C141.392,16.357,142.345,13.692,142.345,10.4Z"
          transform="translate(-1.539 -1.364)"/>
    <path class="cls-3"
          d="M156.774,7.647c3.77,0,5.786,2.232,5.786,5.743,0,3.293-1.972,5.958-5.808,5.958a6.368,6.368,0,0,1-2.08-.325c-3.791-1.3-4.095-6.24-4.095-8.624,0-5.655,2.492-8.949,6.262-8.949A5.3,5.3,0,0,1,162.1,4.7a1.584,1.584,0,0,1,.13.585,1.514,1.514,0,0,1-1.581,1.408,1.159,1.159,0,0,1-1.127-.672,2.727,2.727,0,0,0-2.687-1.711c-1.885,0-3.12,1.711-3.337,4.832A4,4,0,0,1,156.774,7.647Zm2.86,5.743a2.769,2.769,0,0,0-2.9-2.969,2.644,2.644,0,0,0-2.838,2.752c0,3.207,2.556,3.228,2.859,3.228A2.784,2.784,0,0,0,159.634,13.39Z"
          transform="translate(-1.539 -1.364)"/>
    <path class="cls-3"
          d="M167.8,10.4c0-5.438,2.058-8.926,6.089-8.926s6.088,3.488,6.088,8.926-2.015,8.927-6.088,8.927C169.86,19.326,167.8,15.838,167.8,10.4Zm9.209,0c0-3.315-.823-5.98-3.12-5.98-2.254,0-3.1,2.665-3.1,5.98,0,3.293.954,5.958,3.1,5.958C176.057,16.357,177.011,13.692,177.011,10.4Z"
          transform="translate(-1.539 -1.364)"/>
    <path class="cls-3"
          d="M195.557,15.751v2.231c0,.781-.737,1.171-1.474,1.171s-1.473-.39-1.473-1.171V15.751h-5.677a1.806,1.806,0,0,1-2.015-1.863,3.128,3.128,0,0,1,.455-1.56l5.785-9.447A2.45,2.45,0,0,1,193.3,1.689a2.127,2.127,0,0,1,2.254,2.123v9.014h1.235c.715,0,1.062.736,1.062,1.474s-.347,1.451-1.062,1.451ZM192.61,5.416l-4.377,7.41h4.377Z"
          transform="translate(-1.539 -1.364)"/>
  </g>
</svg>
