<svg xmlns="http://www.w3.org/2000/svg" viewBox="0 0 764 95.147">
  <defs>
    <style>.cls-1 {
      fill: #fff;
    }

    .cls-2 {
      opacity: 0.75;
    }

    .cls-3 {
      fill: #5b6e80;
    }</style>
  </defs>
  <rect class="cls-1" x="30.907" y="78.326" width="707.698" height="16.822" rx="7.747"/>
  <path class="cls-1"
        d="M653.327,61.013c0,8.363,2.565,19.007,12.923,19.957.665.095,1.046.475,1.046.76s-.285.57-.855.57c-12.449,0-17.866-8.838-17.866-21.1a41.78,41.78,0,0,1,.379-5.891c4.752-38.679,26.325-42.195,26.325-42.195.285,0,.474.095.474.285,0,.286-.284.571-.95.951C653.8,25.187,653.327,60.918,653.327,61.013Zm17.77,21c-.38,0-.475-.095-.475-.285,0-.285.285-.665.951-1.045,21.476-12.544,21.572-46.851,21.572-47.041,0-8.363-2.471-18.626-13.02-19.577-.665-.094-1.046-.475-1.046-.759s.286-.571.856-.571c12.449,0,17.866,8.838,17.866,21.1a41.8,41.8,0,0,1-.38,5.892C692.764,77.359,671.1,82.015,671.1,82.015Z"
        transform="translate(0 -11.977)"/>
  <path class="cls-1"
        d="M741.707,46.854c-7.7,27.369-10.454,36.872-12.069,36.872-.285,0-.476-.19-.476-.76,0-2.946,6.938-39.629,18.057-68.138-10.834,11.594-21.192,15.4-21.572,15.4-.285,0-.38-.095-.38-.38,0-.475,5.036-5.892,10.073-9.694a104.232,104.232,0,0,1,13.589-8.172.252.252,0,0,1,.285.285v.19c.1.1.1.19.1.38a1.029,1.029,0,0,1-.1.476A287.249,287.249,0,0,1,741.707,46.854Z"
        transform="translate(0 -11.977)"/>
  <g class="cls-2">
    <path class="cls-1"
          d="M74.934,69.894h.756c1.093,0,2.436-.042,3.36-.084h.126a2.146,2.146,0,0,1,2.269,2.226,2.051,2.051,0,0,1-1.806,2.142c-.715.084-.757.294-.757,1.009.084,5.418.757,15.374,1.135,21.255.042.462.294.588.84.63h.252a2.107,2.107,0,0,1,2.268,2.143,2.217,2.217,0,0,1-2.352,2.226h-.168c-1.092-.042-2.143-.084-3.193-.084-1.218,0-2.394.042-3.4.084a2.28,2.28,0,0,1-2.52-2.184,2.174,2.174,0,0,1,2.31-2.185h.462c.42,0,.714-.126.714-.672v-.126c-.378-6.931-.546-19.575-.546-19.575-.042-1.135-.21-1.6-.42-1.6-.252,0-.589.587-.8,1.47-.924,3.486-5.251,17.18-6.972,21.718a3.584,3.584,0,0,1-3.235,2.352,3.217,3.217,0,0,1-2.941-2.31C58.971,95.1,55.275,81.7,53.72,76.741c-.21-.757-.462-1.177-.672-1.177-.378,0-.5,1.219-.546,1.6-.253,3.486-.715,18.063-.715,19.113,0,.588.294.714,1.135.8h.084a2.2,2.2,0,1,1,.084,4.369h-.168c-1.093-.042-2.142-.084-3.193-.084-1.218,0-2.394.042-3.4.084a2.281,2.281,0,0,1-2.521-2.184,2.175,2.175,0,0,1,2.311-2.185h.335c.546,0,.8-.21.841-.84.294-6.721.84-15.417,1.134-20.92v-.42c0-.462-.084-.63-.672-.63-2.52,0-2.646-1.554-2.646-2.226a2.135,2.135,0,0,1,2.226-2.226h.252c.63.042,1.428.084,2.311.084.63,0,1.3-.042,1.889-.042H52a4.642,4.642,0,0,1,4.621,3.4c.8,2.52,2.143,7.1,3.4,11.258,2.562,8.4,3.024,9.494,3.445,9.494.168,0,.336-.168.462-.5,1.6-3.864,4.915-15.626,6.595-20.457a4.459,4.459,0,0,1,4.327-3.15Z"
          transform="translate(0 -11.977)"/>
    <path class="cls-1"
          d="M103.743,96.778h.168a2.3,2.3,0,1,1,0,4.579h-.168c-1.134-.042-2.773-.084-4.453-.084-1.974,0-3.991.042-5.041.084a2.308,2.308,0,1,1-.21-4.579h.21c.462.042,1.3.042,1.933.042.8,0,.966-.252.966-1.008.042-4.7.126-11.342.126-15.5,0-1.764,0-3.066-.042-3.612-.042-1.3-.462-1.975-1.849-2.017H94.375A2.311,2.311,0,0,1,91.813,72.2,2.193,2.193,0,0,1,94,69.81h.168c.5,0,1.05.042,1.639.042.546,0,1.092-.042,1.47-.042h.378a4.146,4.146,0,0,1,4.453,4.368v.084c0,.757-.084,1.974-.084,3.529-.042,3.486-.168,8.611-.168,13.988,0,1.3.042,2.647.042,3.949,0,.63.21,1.05.882,1.05Z"
          transform="translate(0 -11.977)"/>
    <path class="cls-1"
          d="M119.071,101.609a2.716,2.716,0,0,1-2.941-2.941,2.851,2.851,0,0,1,2.941-2.856,2.9,2.9,0,0,1,2.982,2.814A3.02,3.02,0,0,1,119.071,101.609Z"
          transform="translate(0 -11.977)"/>
    <path class="cls-1"
          d="M144.6,96.946h.169c.588,0,.8-.21.8-.882.084-4.117.126-8.443.126-12.686,0-2.773,0-5.545-.084-8.149,0-.589-.168-.967-.8-.967h-.085l-.63.042a2.27,2.27,0,0,1-2.521-2.226,2.183,2.183,0,0,1,2.311-2.226h.21c.883.042,2.142.084,3.4.084,1.554,0,3.193-.042,4.326-.084h.084A2.235,2.235,0,1,1,152,74.3h-.755c-.672,0-.882.336-.882.925-.042,2.688-.084,5.5-.084,8.4,0,4.033.042,8.233.126,12.392,0,.42.126.924.672.924.21,0,.545-.042.713-.042h.084a2.265,2.265,0,0,1,2.479,2.268,2.2,2.2,0,0,1-2.4,2.185h-.168c-1.091-.042-2.352-.084-3.612-.084-1.555,0-3.024.042-4.075.084h-.168a2.23,2.23,0,1,1,0-4.453h.168Z"
          transform="translate(0 -11.977)"/>
    <path class="cls-1"
          d="M179.761,101.441c-.84-.042-2.184-.042-3.444-.042-.882,0-1.723,0-2.227.042a1.908,1.908,0,0,1-2.268-1.932,1.984,1.984,0,0,1,2.1-2.017h.294c.42,0,.63-.168.63-.63,0-1.3.043-2.772.043-4.116,0-1.975-.043-3.7-.085-4.412-.168-2.856-1.974-4.032-3.906-4.032-2.437,0-5.125,1.848-5.251,4.495-.042.756-.042,1.89-.042,3.276s0,3.067.042,4.957c0,.462.294.462.714.462a1.944,1.944,0,0,1,2.31,1.933,2.046,2.046,0,0,1-2.226,2.016h-.084c-.84-.042-2.184-.042-3.445-.042-.881,0-1.722,0-2.226.042a1.909,1.909,0,0,1-2.269-1.932,1.985,1.985,0,0,1,2.1-2.017h.378c.378,0,.5-.126.5-.588.084-4.284.126-5,.126-6.595,0-.882,0-1.975-.042-4.033a1,1,0,0,0-1.009-1.05h-.252a1.909,1.909,0,0,1-1.891-2.1,2.037,2.037,0,0,1,2.059-2.185c.5,0,.588-.042,1.009-.042h.252c1.721,0,3.108.42,3.78,1.513.042.084.084.126.168.126s.21-.126.42-.294a9.584,9.584,0,0,1,5.671-1.765c3.571,0,7.225,1.891,7.393,7.226.042,1.68.126,6.048.126,9.2a.517.517,0,0,0,.546.588,2.114,2.114,0,0,1,2.353,2.017,2.026,2.026,0,0,1-2.269,1.932Z"
          transform="translate(0 -11.977)"/>
    <path class="cls-1"
          d="M194.628,84.932c-.42,0-.547,0-.547.672,0,0,.085,7.436.085,11.426,0,.42.378.462.714.462a1.945,1.945,0,0,1,2.311,1.933,2.047,2.047,0,0,1-2.227,2.016h-.084c-.841-.042-2.184-.042-3.444-.042-.883,0-1.723,0-2.227.042a1.932,1.932,0,0,1-2.268-1.974,1.976,1.976,0,0,1,2.1-1.975h.168c.336,0,.63-.126.63-.462V94.3c0-3.949-.042-8.7-.042-8.7,0-.588-.042-.672-.714-.672h-1.47a1.826,1.826,0,0,1-1.891-1.974,1.919,1.919,0,0,1,1.891-2.059h1.512c.42,0,.672,0,.672-.546,0-.42-.042-.882-.042-1.974,0-8.108,6.469-8.653,7.6-8.653,1.469,0,2.6.462,2.6,2.016a2.007,2.007,0,0,1-2.016,2.1h-.462c-3.362,0-3.446,3.655-3.446,5,0,.714,0,1.092.042,1.638,0,.42.3.42.589.42h3.235a2.021,2.021,0,0,1,0,4.033Z"
          transform="translate(0 -11.977)"/>
    <path class="cls-1"
          d="M204.5,91.191a10.565,10.565,0,1,1,21.13,0,10.565,10.565,0,1,1-21.13,0Zm16.887,0c0-4.159-2.856-6.805-6.3-6.805s-6.343,2.646-6.343,6.805c0,4.117,2.856,6.722,6.343,6.722S221.383,95.308,221.383,91.191Z"
          transform="translate(0 -11.977)"/>
    <path class="cls-1"
          d="M238.6,101.441h-.084c-.84-.042-2.184-.042-3.444-.042-.882,0-1.723,0-2.227.042a1.9,1.9,0,0,1-2.269-1.974,2,2,0,0,1,2.1-2.059h.378c.378,0,.546-.126.546-.588.085-4.284.127-4.957.127-6.553,0-.84,0-1.933-.042-3.991,0-.63-.211-1.05-.967-1.05h-.252a1.945,1.945,0,0,1-1.891-2.142,1.975,1.975,0,0,1,1.933-2.143c.5,0,.63-.042,1.05-.042h.211c1.764,0,3.15.5,3.822,1.6.042.084.084.126.168.126s.21-.126.42-.294a8.3,8.3,0,0,1,4.7-1.681,2.16,2.16,0,0,1,2.227,2.227,1.96,1.96,0,0,1-2.1,2.016c-2.394.042-5.041,1.722-5.209,4.369-.042.756-.042,1.722-.042,3.024,0,1.26,0,2.773.042,4.663,0,.462.294.462.714.462a1.979,1.979,0,0,1,2.31,1.975A2.053,2.053,0,0,1,238.6,101.441Z"
          transform="translate(0 -11.977)"/>
    <path class="cls-1"
          d="M280.563,101.441c-.84-.042-2.185-.042-3.445-.042-.881,0-1.722,0-2.226.042a1.812,1.812,0,0,1-2.059-1.89,1.838,1.838,0,0,1,1.891-1.933h.462c.336,0,.588-.084.588-.546,0-1.344.042-2.94.042-4.41,0-2.1-.042-3.949-.084-4.705-.126-2.479-1.428-3.487-2.941-3.487a5.4,5.4,0,0,0-5,5c-.042.882-.042,2.1-.042,3.655,0,1.134,0,2.478.042,3.99,0,.42.21.5.505.5,1.134,0,2.436.168,2.436,1.849a1.953,1.953,0,0,1-2.1,1.974h-.042c-.841-.042-2.184-.042-3.445-.042-.882,0-1.722,0-2.226.042a1.916,1.916,0,1,1-.169-3.823h.463c.42,0,.588-.126.588-.63,0-1.344.042-2.9.042-4.368,0-2.059-.042-3.907-.084-4.663-.126-2.521-1.429-3.529-2.94-3.529a5.363,5.363,0,0,0-4.915,5.041c0,.588-.042,1.386-.042,2.394,0,1.345.042,3.067.084,5.125,0,.462.126.63.546.63.8,0,2.268.211,2.268,1.849a1.953,1.953,0,0,1-2.1,1.974h-.042c-.839-.042-2.184-.042-3.444-.042-.882,0-1.722,0-2.226.042a1.866,1.866,0,0,1-2.143-1.89,1.884,1.884,0,0,1,1.975-1.933h.42c.419,0,.671-.084.671-.588.084-3.024.126-5.251.126-7.393,0-1.219-.042-2.394-.042-3.655,0-.336-.294-.924-.755-.924h-.084a1.826,1.826,0,0,1-2.1-2.016,1.962,1.962,0,0,1,1.849-2.143h.042c.671,0,1.091-.042,1.47-.042,2.142,0,3.487,1.135,3.7,1.891a.46.46,0,0,0,.084.168c.042,0,.084-.042.126-.084a6.714,6.714,0,0,1,5.041-2.269,6.072,6.072,0,0,1,5.67,3.823,7.588,7.588,0,0,1,6.343-3.781c3.32,0,6.386,2.521,6.512,7.1.042,1.68.084,6.006.084,9.283a.584.584,0,0,0,.63.588h.042a1.936,1.936,0,1,1,0,3.865Z"
          transform="translate(0 -11.977)"/>
    <path class="cls-1"
          d="M295.049,101.9c-4.621,0-7.351-3.361-7.351-6.595a5.519,5.519,0,0,1,4.074-5.251,45.461,45.461,0,0,1,7.183-1.849c.42-.041.756-.545.756-1.428,0-.5-.126-2.646-2.982-2.646a5.556,5.556,0,0,0-4.116,1.764,2.04,2.04,0,0,1-1.555.756,1.974,1.974,0,0,1-2.017-1.932c0-2.016,3.7-4.243,7.94-4.243,4.663,0,7.141,2.269,7.141,7.1,0,.5-.042,1.05-.084,1.638-.084.63-.21,3.949-.21,6.007,0,1.554.084,1.974.8,1.974a1.914,1.914,0,0,1,1.975,1.974c0,2.311-2.227,2.311-2.647,2.311a3.221,3.221,0,0,1-3.024-1.47A9.654,9.654,0,0,1,295.049,101.9Zm4.242-10.166c-7.1.883-7.519,2.647-7.519,3.655,0,1.3,1.135,2.605,3.277,2.605,3.4,0,4.872-1.723,4.872-4.7,0-.63-.084-1.555-.588-1.555Z"
          transform="translate(0 -11.977)"/>
    <path class="cls-1"
          d="M319.241,84.89c-.631,0-.631.21-.631.462,0,1.554-.126,5.125-.126,7.9,0,3.276.126,4.621,2.478,4.621a8.037,8.037,0,0,0,.967-.085c.126,0,.21-.042.336-.042a1.8,1.8,0,0,1,1.806,1.849c0,1.512-1.386,2.226-3.571,2.226-6.216,0-6.216-5.5-6.216-7.225,0-2.437.084-6.637.084-8.486v-.63c0-.546-.252-.588-.672-.588h-1.261a1.909,1.909,0,0,1-1.891-2.016,1.839,1.839,0,0,1,1.891-1.933h1.218c.673,0,.715-.126.715-.714,0,0,.042-.84.042-1.806,0-.5,0-1.008-.042-1.47v-.126a1.908,1.908,0,0,1,2.1-1.891,2.2,2.2,0,0,1,2.226,2.563c0,1.134-.084,2.73-.084,2.73,0,.672.168.714.589.714h2.814a1.816,1.816,0,0,1,1.848,1.975,1.837,1.837,0,0,1-1.848,1.974Z"
          transform="translate(0 -11.977)"/>
    <path class="cls-1"
          d="M331.881,80.857c3.067.042,4.326,1.471,4.326,4.5v.168c-.084,5.8-.168,8.906-.168,11.006a.716.716,0,0,0,.715.8,2.1,2.1,0,1,1,.084,4.159h-.084c-.883-.042-2.352-.042-3.655-.042-1.008,0-1.891,0-2.395.042a2.044,2.044,0,0,1-2.394-2.058,2.086,2.086,0,0,1,2.226-2.1h.672c.547,0,.715-.126.715-.882.042-1.932.084-4.495.084-7.393v-2.1c0-1.176-.126-1.638-1.177-1.638h-.42a1.952,1.952,0,0,1-1.932-2.142,2.12,2.12,0,0,1,2.058-2.311Zm-1.554-8.485a2.85,2.85,0,0,1,2.94-2.857,2.959,2.959,0,0,1,2.94,2.857,2.927,2.927,0,0,1-2.94,2.982A2.787,2.787,0,0,1,330.327,72.372Z"
          transform="translate(0 -11.977)"/>
    <path class="cls-1"
          d="M344.06,91.191a10.565,10.565,0,1,1,21.13,0,10.565,10.565,0,1,1-21.13,0Zm16.887,0c0-4.159-2.857-6.805-6.3-6.805s-6.344,2.646-6.344,6.805c0,4.117,2.857,6.722,6.344,6.722S360.947,95.308,360.947,91.191Z"
          transform="translate(0 -11.977)"/>
    <path class="cls-1"
          d="M391.523,101.441c-.84-.042-2.184-.042-3.445-.042-.881,0-1.722,0-2.226.042a1.909,1.909,0,0,1-2.269-1.932,1.985,1.985,0,0,1,2.1-2.017h.294c.42,0,.63-.168.63-.63,0-1.3.043-2.772.043-4.116,0-1.975-.043-3.7-.085-4.412-.168-2.856-1.974-4.032-3.906-4.032-2.437,0-5.125,1.848-5.251,4.495-.042.756-.042,1.89-.042,3.276s0,3.067.042,4.957c0,.462.293.462.713.462a1.945,1.945,0,0,1,2.311,1.933,2.047,2.047,0,0,1-2.227,2.016h-.084c-.839-.042-2.183-.042-3.444-.042-.882,0-1.723,0-2.226.042a1.909,1.909,0,0,1-2.269-1.932,1.985,1.985,0,0,1,2.1-2.017h.377c.378,0,.5-.126.5-.588.084-4.284.126-5,.126-6.595,0-.882,0-1.975-.042-4.033a1,1,0,0,0-1.008-1.05h-.252a1.909,1.909,0,0,1-1.891-2.1,2.037,2.037,0,0,1,2.059-2.185c.5,0,.587-.042,1.008-.042h.252c1.722,0,3.109.42,3.781,1.513.042.084.084.126.168.126s.21-.126.419-.294a9.589,9.589,0,0,1,5.671-1.765c3.572,0,7.226,1.891,7.394,7.226.042,1.68.126,6.048.126,9.2a.517.517,0,0,0,.546.588,2.114,2.114,0,0,1,2.352,2.017,2.026,2.026,0,0,1-2.268,1.932Z"
          transform="translate(0 -11.977)"/>
    <path class="cls-1"
          d="M399.667,103.248a2.013,2.013,0,0,1-2.1-1.891,1.948,1.948,0,0,1,.168-.8c1.932-4.831,10.754-27.935,11.678-31.3a1.781,1.781,0,0,1,1.806-1.344,1.871,1.871,0,0,1,2.059,2.52c-1.176,2.941-9.745,25.835-11.8,31.506A1.878,1.878,0,0,1,399.667,103.248Z"
          transform="translate(0 -11.977)"/>
    <path class="cls-1"
          d="M424.534,94.552c-3.908,2.394-6.092-1.932-3.193-3.361,6.763-3.318,13.485-9.83,17.643-16.341a26.58,26.58,0,0,0,1.512-3.318c.882-2.479,5.8-1.219,4.327,1.89a16.382,16.382,0,0,1-2.059,3.655c-1.176,1.554-2.31,3.024-3.444,4.41a1.585,1.585,0,0,1,.378.631c.336.924.336,1.3.21,4.158-.168,3.277-.126,9.662,0,14.2a2.456,2.456,0,0,1-2.226,2.815c-1.093.126-2.269-.673-2.227-2.521.042-4.5.5-10.04.336-14.031a10.325,10.325,0,0,0-.084-1.176A52.956,52.956,0,0,1,424.534,94.552Z"
          transform="translate(0 -11.977)"/>
    <path class="cls-1"
          d="M463.174,83.672a17.337,17.337,0,0,0-5.966-2.857c-2.52-.546-1.469-4.747,1.723-3.948a25.875,25.875,0,0,1,6.932,2.814,2.416,2.416,0,0,1,.714,3.4A2.267,2.267,0,0,1,463.174,83.672Zm1.806,15.837a9.02,9.02,0,0,1-4.032,1.344c-3.488.294-3.992-4.117-1.3-4.411a14.473,14.473,0,0,0,3.234-1.05c7.6-3.445,14.409-10.292,18.652-18.483,1.386-2.647,5.629-.883,3.781,2.478A47.408,47.408,0,0,1,464.98,99.509Z"
          transform="translate(0 -11.977)"/>
    <path class="cls-1"
          d="M496.606,97.7c8.821-3.192,15.543-12.266,17.894-18.315.295-.714-.21-1.008-.756-.966-3.234.168-8.821,1.092-11.719,1.428a25.482,25.482,0,0,1-5.293.462c-3.109-.126-3.445-4.705.294-4.5a41.846,41.846,0,0,0,5.167-.21c3.528-.252,9.241-1.176,13.946-1.47,3.528-.21,5.167,2.1,3.907,4.663-4.411,8.99-9.788,18.231-21.55,23.062C494.421,103.542,492.951,99.046,496.606,97.7Z"
          transform="translate(0 -11.977)"/>
    <path class="cls-1"
          d="M541.885,83.966a25.99,25.99,0,0,1,4.789-.336c2.563.168,2.731,3.907-.672,3.571a21.561,21.561,0,0,0-4.033,0c.084,3.36.168,7.435.336,10.081a13.5,13.5,0,0,1,.042,2.605c-.168,1.218-.882,2.268-1.932,2.268a1.949,1.949,0,0,1-1.68-1.05,11.046,11.046,0,0,0-2.311-2.73c-2.142-2.1.8-3.991,2.017-2.689.42.42.462.42.462.042-.042-1.47-.084-3.276-.126-5.167a32.273,32.273,0,0,1-9.158,8.569c-2.814,1.807-4.579-1.6-2.352-2.772a25.2,25.2,0,0,0,9.493-8.7c-1.218.126-2.352.21-3.234.336a25.06,25.06,0,0,1-3.949.335,1.739,1.739,0,1,1,.462-3.444,17.07,17.07,0,0,0,3.235-.126c1.26-.168,3.276-.336,5.293-.5-.042-.672-.042-1.218-.084-1.638a7,7,0,0,0-.336-1.933c-.8-2.394,3.444-3.192,3.738-.042.042.294,0,.714,0,1.6Z"
          transform="translate(0 -11.977)"/>
    <path class="cls-1"
          d="M558.472,103.374c-2.982,1.47-5.083-2.6-1.975-3.949,5.167-2.227,9.746-6.259,13.443-10.712a30.31,30.31,0,0,0-4.788-2.227c-2.689-.966-.925-4.746,2.393-3.4,1.555.63,3.278,1.386,5,2.226a57.119,57.119,0,0,0,3.614-5.881,17.157,17.157,0,0,0,1.553-4.033c.546-2.856,5.335-2.31,4.705.967a13.766,13.766,0,0,1-1.974,4.536c-1.344,2.227-2.731,4.411-4.2,6.512a17.946,17.946,0,0,1,3.7,3.066,2.518,2.518,0,0,1,0,3.445,2.054,2.054,0,0,1-3.109.042,23.346,23.346,0,0,0-3.318-2.9A43.252,43.252,0,0,1,558.472,103.374Z"
          transform="translate(0 -11.977)"/>
    <path class="cls-1"
          d="M620.258,87.285h-2.183c-8.024,0-14.158.378-17.476.5-2.185.084-3.318.126-4.158.126-.5,0-.883-.042-1.345-.042A2.324,2.324,0,0,1,592.66,85.6c0-1.05.84-2.058,2.52-2.058h.252c1.555.084,3.4.126,5.083.126,3.444,0,12.435-.5,19.827-.714h.085a2.3,2.3,0,0,1,2.562,2.142c0,1.092-.882,2.185-2.689,2.185Z"
          transform="translate(0 -11.977)"/>
    <path class="cls-1"
          d="M638.946,88.755a14.742,14.742,0,0,0-5.209-2.143c-2.521-.42-1.681-4.41,1.385-3.822a21.36,21.36,0,0,1,6.134,2.142,2.194,2.194,0,0,1,.882,3.109A2.129,2.129,0,0,1,638.946,88.755Zm-.21,12.938c-3.53.42-4.076-3.949-1.387-4.369a14.457,14.457,0,0,0,3.234-1.05c7.73-3.78,14.661-11.006,19.2-19.281,1.427-2.647,5.628-.8,3.7,2.52-5.545,9.494-11.93,15.837-20.668,20.752A9.651,9.651,0,0,1,638.736,101.693Zm5.293-20.416a15.624,15.624,0,0,0-4.621-3.234c-2.353-.966-.63-4.705,2.226-3.445a22.516,22.516,0,0,1,5.5,3.487,2.208,2.208,0,0,1,.168,3.234A2.145,2.145,0,0,1,644.029,81.277Z"
          transform="translate(0 -11.977)"/>
    <path class="cls-1"
          d="M688.972,96.19c0,.924-.8,1.681-2.269,1.807-.755.042-1.3.126-2.058.168-1.344.084-7.814.839-8.863.965a13.616,13.616,0,0,1-2.941.169c-2.352-.211-2.478-3.487.42-3.319a17.023,17.023,0,0,0,2.059-.042c.965-.084,6.342-.8,8.569-1.05.168-.966.42-2.1.63-3.193a1.51,1.51,0,0,1-.462.084c-.756.084-1.3.126-2.059.21-1.3.168-3.024.5-4.032.673a16.413,16.413,0,0,1-2.856.252c-2.311-.042-2.731-3.235.084-3.277a17.51,17.51,0,0,0,2.1-.042c1.093-.168,3.11-.42,4.453-.588.756-.084,1.639-.294,2.395-.378a1.97,1.97,0,0,1,1.008.168c.21-1.008.379-1.807.463-2.227.126-.672-.042-.84-.757-.756-1.428.21-6.175.924-7.309,1.134a18.143,18.143,0,0,1-3.613.379c-2.269,0-2.647-3.277.126-3.4a21.02,21.02,0,0,0,2.814-.126c1.051-.168,6.008-.672,7.058-.84a22.589,22.589,0,0,1,2.94-.462c3.025-.042,3.571,2.352,3.025,3.528a37.276,37.276,0,0,0-1.512,5.167c-.294,1.218-.547,2.478-.8,3.529A1.6,1.6,0,0,1,688.972,96.19Z"
          transform="translate(0 -11.977)"/>
    <path class="cls-1"
          d="M710.138,83.672a17.346,17.346,0,0,0-5.966-2.857c-2.52-.546-1.47-4.747,1.723-3.948a25.888,25.888,0,0,1,6.932,2.814,2.415,2.415,0,0,1,.713,3.4A2.266,2.266,0,0,1,710.138,83.672Zm1.806,15.837a9.02,9.02,0,0,1-4.033,1.344c-3.487.294-3.991-4.117-1.3-4.411a14.473,14.473,0,0,0,3.234-1.05c7.6-3.445,14.409-10.292,18.651-18.483,1.387-2.647,5.629-.883,3.782,2.478A47.408,47.408,0,0,1,711.944,99.509Z"
          transform="translate(0 -11.977)"/>
  </g>
  <path class="cls-3"
        d="M72.934,67.894h.756c1.093,0,2.436-.042,3.36-.084h.126a2.146,2.146,0,0,1,2.269,2.226,2.051,2.051,0,0,1-1.806,2.142c-.715.084-.757.294-.757,1.009.084,5.418.757,15.374,1.135,21.255.042.462.294.588.84.63h.252a2.107,2.107,0,0,1,2.268,2.143,2.217,2.217,0,0,1-2.352,2.226h-.168c-1.092-.042-2.143-.084-3.193-.084-1.218,0-2.394.042-3.4.084a2.28,2.28,0,0,1-2.52-2.184,2.174,2.174,0,0,1,2.31-2.185h.462c.42,0,.714-.126.714-.672v-.126c-.378-6.931-.546-19.575-.546-19.575-.042-1.135-.21-1.6-.42-1.6-.252,0-.589.587-.8,1.47-.924,3.486-5.251,17.18-6.972,21.718a3.584,3.584,0,0,1-3.235,2.352,3.217,3.217,0,0,1-2.941-2.31C56.971,93.1,53.275,79.7,51.72,74.741c-.21-.757-.462-1.177-.672-1.177-.378,0-.5,1.219-.546,1.6-.253,3.486-.715,18.063-.715,19.113,0,.588.294.714,1.135.8h.084a2.2,2.2,0,1,1,.084,4.369h-.168c-1.093-.042-2.142-.084-3.193-.084-1.218,0-2.394.042-3.4.084a2.281,2.281,0,0,1-2.521-2.184,2.175,2.175,0,0,1,2.311-2.185h.335c.546,0,.8-.21.841-.84.294-6.721.84-15.417,1.134-20.92v-.42c0-.462-.084-.63-.672-.63-2.52,0-2.646-1.554-2.646-2.226a2.135,2.135,0,0,1,2.226-2.226h.252c.63.042,1.428.084,2.311.084.63,0,1.3-.042,1.889-.042H50a4.642,4.642,0,0,1,4.621,3.4c.8,2.52,2.143,7.1,3.4,11.258,2.562,8.4,3.024,9.494,3.445,9.494.168,0,.336-.168.462-.5,1.6-3.864,4.915-15.626,6.595-20.457a4.459,4.459,0,0,1,4.327-3.15Z"
        transform="translate(0 -11.977)"/>
  <path class="cls-3"
        d="M101.743,94.778h.168a2.3,2.3,0,1,1,0,4.579h-.168c-1.134-.042-2.773-.084-4.453-.084-1.974,0-3.991.042-5.041.084a2.308,2.308,0,1,1-.21-4.579h.21c.462.042,1.3.042,1.933.042.8,0,.966-.252.966-1.008.042-4.7.126-11.342.126-15.5,0-1.764,0-3.066-.042-3.612-.042-1.3-.462-1.975-1.849-2.017H92.375A2.311,2.311,0,0,1,89.813,70.2,2.193,2.193,0,0,1,92,67.81h.168c.5,0,1.05.042,1.639.042.546,0,1.092-.042,1.47-.042h.378a4.146,4.146,0,0,1,4.453,4.368v.084c0,.757-.084,1.974-.084,3.529-.042,3.486-.168,8.611-.168,13.988,0,1.3.042,2.647.042,3.949,0,.63.21,1.05.882,1.05Z"
        transform="translate(0 -11.977)"/>
  <path class="cls-3"
        d="M117.071,99.609a2.716,2.716,0,0,1-2.941-2.941,2.851,2.851,0,0,1,2.941-2.856,2.9,2.9,0,0,1,2.982,2.814A3.02,3.02,0,0,1,117.071,99.609Z"
        transform="translate(0 -11.977)"/>
  <path class="cls-3"
        d="M142.6,94.946h.169c.588,0,.8-.21.8-.882.084-4.117.126-8.443.126-12.686,0-2.773,0-5.545-.084-8.149,0-.589-.168-.967-.8-.967h-.085l-.63.042a2.27,2.27,0,0,1-2.521-2.226,2.183,2.183,0,0,1,2.311-2.226h.21c.883.042,2.142.084,3.4.084,1.554,0,3.193-.042,4.326-.084h.084A2.235,2.235,0,1,1,150,72.3h-.755c-.672,0-.882.336-.882.925-.042,2.688-.084,5.5-.084,8.4,0,4.033.042,8.233.126,12.392,0,.42.126.924.672.924.21,0,.545-.042.713-.042h.084a2.265,2.265,0,0,1,2.479,2.268,2.2,2.2,0,0,1-2.4,2.185h-.168c-1.091-.042-2.352-.084-3.612-.084-1.555,0-3.024.042-4.075.084h-.168a2.23,2.23,0,1,1,0-4.453h.168Z"
        transform="translate(0 -11.977)"/>
  <path class="cls-3"
        d="M177.761,99.441c-.84-.042-2.184-.042-3.444-.042-.882,0-1.723,0-2.227.042a1.908,1.908,0,0,1-2.268-1.932,1.984,1.984,0,0,1,2.1-2.017h.294c.42,0,.63-.168.63-.63,0-1.3.043-2.772.043-4.116,0-1.975-.043-3.7-.085-4.412-.168-2.856-1.974-4.032-3.906-4.032-2.437,0-5.125,1.848-5.251,4.495-.042.756-.042,1.89-.042,3.276s0,3.067.042,4.957c0,.462.294.462.714.462a1.944,1.944,0,0,1,2.31,1.933,2.046,2.046,0,0,1-2.226,2.016h-.084c-.84-.042-2.184-.042-3.445-.042-.881,0-1.722,0-2.226.042a1.909,1.909,0,0,1-2.269-1.932,1.985,1.985,0,0,1,2.1-2.017h.378c.378,0,.5-.126.5-.588.084-4.284.126-5,.126-6.595,0-.882,0-1.975-.042-4.033a1,1,0,0,0-1.009-1.05h-.252a1.909,1.909,0,0,1-1.891-2.1,2.037,2.037,0,0,1,2.059-2.185c.5,0,.588-.042,1.009-.042h.252c1.721,0,3.108.42,3.78,1.513.042.084.084.126.168.126s.21-.126.42-.294a9.584,9.584,0,0,1,5.671-1.765c3.571,0,7.225,1.891,7.393,7.226.042,1.68.126,6.048.126,9.2a.517.517,0,0,0,.546.588,2.114,2.114,0,0,1,2.353,2.017,2.026,2.026,0,0,1-2.269,1.932Z"
        transform="translate(0 -11.977)"/>
  <path class="cls-3"
        d="M192.628,82.932c-.42,0-.547,0-.547.672,0,0,.085,7.436.085,11.426,0,.42.378.462.714.462a1.945,1.945,0,0,1,2.311,1.933,2.047,2.047,0,0,1-2.227,2.016h-.084c-.841-.042-2.184-.042-3.444-.042-.883,0-1.723,0-2.227.042a1.932,1.932,0,0,1-2.268-1.974,1.976,1.976,0,0,1,2.1-1.975h.168c.336,0,.63-.126.63-.462V92.3c0-3.949-.042-8.7-.042-8.7,0-.588-.042-.672-.714-.672h-1.47a1.826,1.826,0,0,1-1.891-1.974,1.919,1.919,0,0,1,1.891-2.059h1.512c.42,0,.672,0,.672-.546,0-.42-.042-.882-.042-1.974,0-8.108,6.469-8.653,7.6-8.653,1.469,0,2.6.462,2.6,2.016a2.007,2.007,0,0,1-2.016,2.1h-.462c-3.362,0-3.446,3.655-3.446,5,0,.714,0,1.092.042,1.638,0,.42.3.42.589.42h3.235a2.021,2.021,0,0,1,0,4.033Z"
        transform="translate(0 -11.977)"/>
  <path class="cls-3"
        d="M202.5,89.191a10.565,10.565,0,1,1,21.13,0,10.565,10.565,0,1,1-21.13,0Zm16.887,0c0-4.159-2.856-6.805-6.3-6.805s-6.343,2.646-6.343,6.805c0,4.117,2.856,6.722,6.343,6.722S219.383,93.308,219.383,89.191Z"
        transform="translate(0 -11.977)"/>
  <path class="cls-3"
        d="M236.6,99.441h-.084c-.84-.042-2.184-.042-3.444-.042-.882,0-1.723,0-2.227.042a1.9,1.9,0,0,1-2.269-1.974,2,2,0,0,1,2.1-2.059h.378c.378,0,.546-.126.546-.588.085-4.284.127-4.957.127-6.553,0-.84,0-1.933-.042-3.991,0-.63-.211-1.05-.967-1.05h-.252a1.945,1.945,0,0,1-1.891-2.142,1.975,1.975,0,0,1,1.933-2.143c.5,0,.63-.042,1.05-.042h.211c1.764,0,3.15.5,3.822,1.6.042.084.084.126.168.126s.21-.126.42-.294a8.3,8.3,0,0,1,4.7-1.681,2.16,2.16,0,0,1,2.227,2.227,1.96,1.96,0,0,1-2.1,2.016c-2.394.042-5.041,1.722-5.209,4.369-.042.756-.042,1.722-.042,3.024,0,1.26,0,2.773.042,4.663,0,.462.294.462.714.462a1.979,1.979,0,0,1,2.31,1.975A2.053,2.053,0,0,1,236.6,99.441Z"
        transform="translate(0 -11.977)"/>
  <path class="cls-3"
        d="M278.563,99.441c-.84-.042-2.185-.042-3.445-.042-.881,0-1.722,0-2.226.042a1.812,1.812,0,0,1-2.059-1.89,1.838,1.838,0,0,1,1.891-1.933h.462c.336,0,.588-.084.588-.546,0-1.344.042-2.94.042-4.41,0-2.1-.042-3.949-.084-4.705-.126-2.479-1.428-3.487-2.941-3.487a5.4,5.4,0,0,0-5,5c-.042.882-.042,2.1-.042,3.655,0,1.134,0,2.478.042,3.99,0,.42.21.5.505.5,1.134,0,2.436.168,2.436,1.849a1.953,1.953,0,0,1-2.1,1.974h-.042c-.841-.042-2.184-.042-3.445-.042-.882,0-1.722,0-2.226.042a1.916,1.916,0,1,1-.169-3.823h.463c.42,0,.588-.126.588-.63,0-1.344.042-2.9.042-4.368,0-2.059-.042-3.907-.084-4.663-.126-2.521-1.429-3.529-2.94-3.529a5.363,5.363,0,0,0-4.915,5.041c0,.588-.042,1.386-.042,2.394,0,1.345.042,3.067.084,5.125,0,.462.126.63.546.63.8,0,2.268.211,2.268,1.849a1.953,1.953,0,0,1-2.1,1.974h-.042c-.839-.042-2.184-.042-3.444-.042-.882,0-1.722,0-2.226.042a1.866,1.866,0,0,1-2.143-1.89,1.884,1.884,0,0,1,1.975-1.933h.42c.419,0,.671-.084.671-.588.084-3.024.126-5.251.126-7.393,0-1.219-.042-2.394-.042-3.655,0-.336-.294-.924-.755-.924h-.084a1.826,1.826,0,0,1-2.1-2.016,1.962,1.962,0,0,1,1.849-2.143h.042c.671,0,1.091-.042,1.47-.042,2.142,0,3.487,1.135,3.7,1.891a.46.46,0,0,0,.084.168c.042,0,.084-.042.126-.084a6.714,6.714,0,0,1,5.041-2.269,6.072,6.072,0,0,1,5.67,3.823,7.588,7.588,0,0,1,6.343-3.781c3.32,0,6.386,2.521,6.512,7.1.042,1.68.084,6.006.084,9.283a.584.584,0,0,0,.63.588h.042a1.936,1.936,0,1,1,0,3.865Z"
        transform="translate(0 -11.977)"/>
  <path class="cls-3"
        d="M293.049,99.9c-4.621,0-7.351-3.361-7.351-6.595a5.519,5.519,0,0,1,4.074-5.251,45.461,45.461,0,0,1,7.183-1.849c.42-.041.756-.545.756-1.428,0-.5-.126-2.646-2.982-2.646a5.556,5.556,0,0,0-4.116,1.764,2.04,2.04,0,0,1-1.555.756,1.974,1.974,0,0,1-2.017-1.932c0-2.016,3.7-4.243,7.94-4.243,4.663,0,7.141,2.269,7.141,7.1,0,.5-.042,1.05-.084,1.638-.084.63-.21,3.949-.21,6.007,0,1.554.084,1.974.8,1.974a1.914,1.914,0,0,1,1.975,1.974c0,2.311-2.227,2.311-2.647,2.311a3.221,3.221,0,0,1-3.024-1.47A9.654,9.654,0,0,1,293.049,99.9Zm4.242-10.166c-7.1.883-7.519,2.647-7.519,3.655,0,1.3,1.135,2.605,3.277,2.605,3.4,0,4.872-1.723,4.872-4.7,0-.63-.084-1.555-.588-1.555Z"
        transform="translate(0 -11.977)"/>
  <path class="cls-3"
        d="M317.241,82.89c-.631,0-.631.21-.631.462,0,1.554-.126,5.125-.126,7.9,0,3.276.126,4.621,2.478,4.621a8.037,8.037,0,0,0,.967-.085c.126,0,.21-.042.336-.042a1.8,1.8,0,0,1,1.806,1.849c0,1.512-1.386,2.226-3.571,2.226-6.216,0-6.216-5.5-6.216-7.225,0-2.437.084-6.637.084-8.486v-.63c0-.546-.252-.588-.672-.588h-1.261a1.909,1.909,0,0,1-1.891-2.016,1.839,1.839,0,0,1,1.891-1.933h1.218c.673,0,.715-.126.715-.714,0,0,.042-.84.042-1.806,0-.5,0-1.008-.042-1.47v-.126a1.908,1.908,0,0,1,2.1-1.891,2.2,2.2,0,0,1,2.226,2.563c0,1.134-.084,2.73-.084,2.73,0,.672.168.714.589.714h2.814a1.816,1.816,0,0,1,1.848,1.975,1.837,1.837,0,0,1-1.848,1.974Z"
        transform="translate(0 -11.977)"/>
  <path class="cls-3"
        d="M329.881,78.857c3.067.042,4.326,1.471,4.326,4.5v.168c-.084,5.8-.168,8.906-.168,11.006a.716.716,0,0,0,.715.8,2.1,2.1,0,1,1,.084,4.159h-.084c-.883-.042-2.352-.042-3.655-.042-1.008,0-1.891,0-2.395.042a2.044,2.044,0,0,1-2.394-2.058,2.086,2.086,0,0,1,2.226-2.1h.672c.547,0,.715-.126.715-.882.042-1.932.084-4.495.084-7.393v-2.1c0-1.176-.126-1.638-1.177-1.638h-.42a1.952,1.952,0,0,1-1.932-2.142,2.12,2.12,0,0,1,2.058-2.311Zm-1.554-8.485a2.85,2.85,0,0,1,2.94-2.857,2.959,2.959,0,0,1,2.94,2.857,2.927,2.927,0,0,1-2.94,2.982A2.787,2.787,0,0,1,328.327,70.372Z"
        transform="translate(0 -11.977)"/>
  <path class="cls-3"
        d="M342.06,89.191a10.565,10.565,0,1,1,21.13,0,10.565,10.565,0,1,1-21.13,0Zm16.887,0c0-4.159-2.857-6.805-6.3-6.805s-6.344,2.646-6.344,6.805c0,4.117,2.857,6.722,6.344,6.722S358.947,93.308,358.947,89.191Z"
        transform="translate(0 -11.977)"/>
  <path class="cls-3"
        d="M389.523,99.441c-.84-.042-2.184-.042-3.445-.042-.881,0-1.722,0-2.226.042a1.909,1.909,0,0,1-2.269-1.932,1.985,1.985,0,0,1,2.1-2.017h.294c.42,0,.63-.168.63-.63,0-1.3.043-2.772.043-4.116,0-1.975-.043-3.7-.085-4.412-.168-2.856-1.974-4.032-3.906-4.032-2.437,0-5.125,1.848-5.251,4.495-.042.756-.042,1.89-.042,3.276s0,3.067.042,4.957c0,.462.293.462.713.462a1.945,1.945,0,0,1,2.311,1.933,2.047,2.047,0,0,1-2.227,2.016h-.084c-.839-.042-2.183-.042-3.444-.042-.882,0-1.723,0-2.226.042a1.909,1.909,0,0,1-2.269-1.932,1.985,1.985,0,0,1,2.1-2.017h.377c.378,0,.5-.126.5-.588.084-4.284.126-5,.126-6.595,0-.882,0-1.975-.042-4.033a1,1,0,0,0-1.008-1.05h-.252a1.909,1.909,0,0,1-1.891-2.1,2.037,2.037,0,0,1,2.059-2.185c.5,0,.587-.042,1.008-.042h.252c1.722,0,3.109.42,3.781,1.513.042.084.084.126.168.126s.21-.126.419-.294a9.589,9.589,0,0,1,5.671-1.765c3.572,0,7.226,1.891,7.394,7.226.042,1.68.126,6.048.126,9.2a.517.517,0,0,0,.546.588,2.114,2.114,0,0,1,2.352,2.017,2.026,2.026,0,0,1-2.268,1.932Z"
        transform="translate(0 -11.977)"/>
  <path class="cls-3"
        d="M397.667,101.248a2.013,2.013,0,0,1-2.1-1.891,1.948,1.948,0,0,1,.168-.8c1.932-4.831,10.754-27.935,11.678-31.3a1.781,1.781,0,0,1,1.806-1.344,1.871,1.871,0,0,1,2.059,2.52c-1.176,2.941-9.745,25.835-11.8,31.506A1.878,1.878,0,0,1,397.667,101.248Z"
        transform="translate(0 -11.977)"/>
  <path class="cls-3"
        d="M422.534,92.552c-3.908,2.394-6.092-1.932-3.193-3.361,6.763-3.318,13.485-9.83,17.643-16.341a26.58,26.58,0,0,0,1.512-3.318c.882-2.479,5.8-1.219,4.327,1.89a16.382,16.382,0,0,1-2.059,3.655c-1.176,1.554-2.31,3.024-3.444,4.41a1.585,1.585,0,0,1,.378.631c.336.924.336,1.3.21,4.158-.168,3.277-.126,9.662,0,14.2a2.456,2.456,0,0,1-2.226,2.815c-1.093.126-2.269-.673-2.227-2.521.042-4.5.5-10.04.336-14.031a10.325,10.325,0,0,0-.084-1.176A52.956,52.956,0,0,1,422.534,92.552Z"
        transform="translate(0 -11.977)"/>
  <path class="cls-3"
        d="M461.174,81.672a17.337,17.337,0,0,0-5.966-2.857c-2.52-.546-1.469-4.747,1.723-3.948a25.875,25.875,0,0,1,6.932,2.814,2.416,2.416,0,0,1,.714,3.4A2.267,2.267,0,0,1,461.174,81.672Zm1.806,15.837a9.02,9.02,0,0,1-4.032,1.344c-3.488.294-3.992-4.117-1.3-4.411a14.473,14.473,0,0,0,3.234-1.05c7.6-3.445,14.409-10.292,18.652-18.483,1.386-2.647,5.629-.883,3.781,2.478A47.408,47.408,0,0,1,462.98,97.509Z"
        transform="translate(0 -11.977)"/>
  <path class="cls-3"
        d="M494.606,95.7c8.821-3.192,15.543-12.266,17.894-18.315.295-.714-.21-1.008-.756-.966-3.234.168-8.821,1.092-11.719,1.428a25.482,25.482,0,0,1-5.293.462c-3.109-.126-3.445-4.705.294-4.5a41.846,41.846,0,0,0,5.167-.21c3.528-.252,9.241-1.176,13.946-1.47,3.528-.21,5.167,2.1,3.907,4.663-4.411,8.99-9.788,18.231-21.55,23.062C492.421,101.542,490.951,97.046,494.606,95.7Z"
        transform="translate(0 -11.977)"/>
  <path class="cls-3"
        d="M539.885,81.966a25.99,25.99,0,0,1,4.789-.336c2.563.168,2.731,3.907-.672,3.571a21.561,21.561,0,0,0-4.033,0c.084,3.36.168,7.435.336,10.081a13.5,13.5,0,0,1,.042,2.605c-.168,1.218-.882,2.268-1.932,2.268a1.949,1.949,0,0,1-1.68-1.05,11.046,11.046,0,0,0-2.311-2.73c-2.142-2.1.8-3.991,2.017-2.689.42.42.462.42.462.042-.042-1.47-.084-3.276-.126-5.167a32.273,32.273,0,0,1-9.158,8.569c-2.814,1.807-4.579-1.6-2.352-2.772a25.2,25.2,0,0,0,9.493-8.7c-1.218.126-2.352.21-3.234.336a25.06,25.06,0,0,1-3.949.335,1.739,1.739,0,1,1,.462-3.444,17.07,17.07,0,0,0,3.235-.126c1.26-.168,3.276-.336,5.293-.5-.042-.672-.042-1.218-.084-1.638a7,7,0,0,0-.336-1.933c-.8-2.394,3.444-3.192,3.738-.042.042.294,0,.714,0,1.6Z"
        transform="translate(0 -11.977)"/>
  <path class="cls-3"
        d="M556.472,101.374c-2.982,1.47-5.083-2.6-1.975-3.949,5.167-2.227,9.746-6.259,13.443-10.712a30.31,30.31,0,0,0-4.788-2.227c-2.689-.966-.925-4.746,2.393-3.4,1.555.63,3.278,1.386,5,2.226a57.119,57.119,0,0,0,3.614-5.881,17.157,17.157,0,0,0,1.553-4.033c.546-2.856,5.335-2.31,4.705.967a13.766,13.766,0,0,1-1.974,4.536c-1.344,2.227-2.731,4.411-4.2,6.512a17.946,17.946,0,0,1,3.7,3.066,2.518,2.518,0,0,1,0,3.445,2.054,2.054,0,0,1-3.109.042,23.346,23.346,0,0,0-3.318-2.9A43.252,43.252,0,0,1,556.472,101.374Z"
        transform="translate(0 -11.977)"/>
  <path class="cls-3"
        d="M618.258,85.285h-2.183c-8.024,0-14.158.378-17.476.5-2.185.084-3.318.126-4.158.126-.5,0-.883-.042-1.345-.042A2.324,2.324,0,0,1,590.66,83.6c0-1.05.84-2.058,2.52-2.058h.252c1.555.084,3.4.126,5.083.126,3.444,0,12.435-.5,19.827-.714h.085a2.3,2.3,0,0,1,2.562,2.142c0,1.092-.882,2.185-2.689,2.185Z"
        transform="translate(0 -11.977)"/>
  <path class="cls-3"
        d="M636.946,86.755a14.742,14.742,0,0,0-5.209-2.143c-2.521-.42-1.681-4.41,1.385-3.822a21.36,21.36,0,0,1,6.134,2.142,2.194,2.194,0,0,1,.882,3.109A2.129,2.129,0,0,1,636.946,86.755Zm-.21,12.938c-3.53.42-4.076-3.949-1.387-4.369a14.457,14.457,0,0,0,3.234-1.05c7.73-3.78,14.661-11.006,19.2-19.281,1.427-2.647,5.628-.8,3.7,2.52-5.545,9.494-11.93,15.837-20.668,20.752A9.651,9.651,0,0,1,636.736,99.693Zm5.293-20.416a15.624,15.624,0,0,0-4.621-3.234c-2.353-.966-.63-4.705,2.226-3.445a22.516,22.516,0,0,1,5.5,3.487,2.208,2.208,0,0,1,.168,3.234A2.145,2.145,0,0,1,642.029,79.277Z"
        transform="translate(0 -11.977)"/>
  <path class="cls-3"
        d="M686.972,94.19c0,.924-.8,1.681-2.269,1.807-.755.042-1.3.126-2.058.168-1.344.084-7.814.839-8.863.965a13.616,13.616,0,0,1-2.941.169c-2.352-.211-2.478-3.487.42-3.319a17.023,17.023,0,0,0,2.059-.042c.965-.084,6.342-.8,8.569-1.05.168-.966.42-2.1.63-3.193a1.51,1.51,0,0,1-.462.084c-.756.084-1.3.126-2.059.21-1.3.168-3.024.5-4.032.673a16.413,16.413,0,0,1-2.856.252c-2.311-.042-2.731-3.235.084-3.277a17.51,17.51,0,0,0,2.1-.042c1.093-.168,3.11-.42,4.453-.588.756-.084,1.639-.294,2.395-.378a1.97,1.97,0,0,1,1.008.168c.21-1.008.379-1.807.463-2.227.126-.672-.042-.84-.757-.756-1.428.21-6.175.924-7.309,1.134a18.143,18.143,0,0,1-3.613.379c-2.269,0-2.647-3.277.126-3.4a21.02,21.02,0,0,0,2.814-.126c1.051-.168,6.008-.672,7.058-.84a22.589,22.589,0,0,1,2.94-.462c3.025-.042,3.571,2.352,3.025,3.528a37.276,37.276,0,0,0-1.512,5.167c-.294,1.218-.547,2.478-.8,3.529A1.6,1.6,0,0,1,686.972,94.19Z"
        transform="translate(0 -11.977)"/>
  <path class="cls-3"
        d="M708.138,81.672a17.346,17.346,0,0,0-5.966-2.857c-2.52-.546-1.47-4.747,1.723-3.948a25.888,25.888,0,0,1,6.932,2.814,2.415,2.415,0,0,1,.713,3.4A2.266,2.266,0,0,1,708.138,81.672Zm1.806,15.837a9.02,9.02,0,0,1-4.033,1.344c-3.487.294-3.991-4.117-1.3-4.411a14.473,14.473,0,0,0,3.234-1.05c7.6-3.445,14.409-10.292,18.651-18.483,1.387-2.647,5.629-.883,3.782,2.478A47.408,47.408,0,0,1,709.944,97.509Z"
        transform="translate(0 -11.977)"/>
  <path class="cls-1"
        d="M26.533,78.881a8.108,8.108,0,0,1-2.313.935,5.863,5.863,0,0,0-4.606,3.416,5.953,5.953,0,0,1-2.625,2.709A4.808,4.808,0,0,1,9.881,82.3a8.7,8.7,0,0,1,.134-2.8,15.572,15.572,0,0,0,.327-4.26,8.926,8.926,0,0,1,.259-2.738,5.523,5.523,0,0,1,5.988-4.392,11.065,11.065,0,0,1,3.026.678,12.078,12.078,0,0,0,3.491.724,6.009,6.009,0,0,1,4.341,1.658c1.831,2.021,2.614,5.157-.5,7.46C26.862,78.7,26.806,78.721,26.533,78.881Z"
        transform="translate(0 -11.977)"/>
  <path class="cls-1"
        d="M8.709,64.837a5.769,5.769,0,0,1,1.016,2.49,3.256,3.256,0,0,1-3.682,3.9,5.637,5.637,0,0,1-4.669-5.589A3.106,3.106,0,0,1,5.135,62.59,5.754,5.754,0,0,1,8.709,64.837Z"
        transform="translate(0 -11.977)"/>
  <path class="cls-1"
        d="M9.78,64.15a5.528,5.528,0,0,1-1.171-4.074,3.124,3.124,0,0,1,4-2.8,5.67,5.67,0,0,1,4.031,5.963,3.275,3.275,0,0,1-5.062,2.4A5.605,5.605,0,0,1,9.78,64.15Z"
        transform="translate(0 -11.977)"/>
  <path class="cls-1"
        d="M7,74.486c.192.318.41.625.571.958a3.114,3.114,0,0,1-.245,3.54,3.288,3.288,0,0,1-3.52,1.2A5.015,5.015,0,0,1,.014,75.874,3.115,3.115,0,0,1,3.7,72.408,5.031,5.031,0,0,1,7,74.486Z"
        transform="translate(0 -11.977)"/>
  <path class="cls-1"
        d="M24.579,60.16a5.2,5.2,0,0,1,1.2,4.153,3.223,3.223,0,0,1-5.349,1.921,5.121,5.121,0,0,1-2.012-4.6,3.091,3.091,0,0,1,4.568-2.588A9.424,9.424,0,0,1,24.579,60.16Z"
        transform="translate(0 -11.977)"/>
</svg>
