<svg xmlns="http://www.w3.org/2000/svg" viewBox="0 0 764 94.387">
  <defs>
    <style>.cls-1 {
      fill: #fff;
    }

    .cls-2 {
      opacity: 0.75;
    }

    .cls-3 {
      fill: #5b6e80;
    }</style>
  </defs>
  <rect class="cls-1" x="30.907" y="77.565" width="707.698" height="16.822" rx="7.747"/>
  <path class="cls-1"
        d="M653.327,61.013c0,8.363,2.565,19.007,12.923,19.957.665.094,1.046.475,1.046.76s-.285.57-.855.57c-12.449,0-17.866-8.838-17.866-21.1a41.78,41.78,0,0,1,.379-5.891c4.752-38.679,26.325-42.195,26.325-42.195.285,0,.474.095.474.285,0,.286-.284.571-.95.951C653.8,25.187,653.327,60.918,653.327,61.013Zm17.77,21c-.38,0-.475-.095-.475-.285,0-.285.285-.666.951-1.045,21.476-12.544,21.572-46.851,21.572-47.041,0-8.363-2.471-18.626-13.02-19.577-.665-.094-1.046-.475-1.046-.759s.286-.571.856-.571c12.449,0,17.866,8.838,17.866,21.1a41.807,41.807,0,0,1-.38,5.892C692.764,77.358,671.1,82.015,671.1,82.015Z"
        transform="translate(0 -12.737)"/>
  <path class="cls-1"
        d="M760.048,46.093c0,10.643-15.205,27.845-44.285,37.823a5.445,5.445,0,0,1-.95.189c-.285,0-.475-.094-.475-.189,0-.19.285-.476.856-.761,28.794-15.2,39.248-28.7,39.248-36.016,0-2.661-1.426-6.082-8.838-6.082-3.326,0-7.6.855-12.925,2.945q-3.42,2-7.412,3.992a3.953,3.953,0,0,1-1.141.38.252.252,0,0,1-.285-.285c0-.095.191-.38.665-.761C743.513,33.739,748.36,26.9,748.36,22.811c0-2.282-1.426-5.417-6.938-5.417-4.657,0-11.689,2.28-19.577,8.552a1.536,1.536,0,0,1-.95.38.252.252,0,0,1-.285-.285c0-.76,10.739-12.924,23.472-12.924,8.173,0,9.314,6.177,9.314,8.553,0,4.467-3.421,10.168-11.689,16.44a24.492,24.492,0,0,1,7.412-1.33C755.3,36.78,760.048,40.106,760.048,46.093Z"
        transform="translate(0 -12.737)"/>
  <g class="cls-2">
    <path class="cls-1"
          d="M74.934,69.894h.756c1.093,0,2.436-.042,3.36-.084h.126a2.146,2.146,0,0,1,2.269,2.225,2.051,2.051,0,0,1-1.806,2.143c-.715.084-.757.294-.757,1.009.084,5.418.757,15.374,1.135,21.254.042.463.294.589.84.631h.252a2.106,2.106,0,0,1,2.268,2.143,2.216,2.216,0,0,1-2.352,2.225h-.168c-1.092-.042-2.143-.084-3.193-.084-1.218,0-2.394.042-3.4.084a2.279,2.279,0,0,1-2.52-2.183,2.173,2.173,0,0,1,2.31-2.185h.462c.42,0,.714-.126.714-.673v-.126c-.378-6.93-.546-19.575-.546-19.575-.042-1.134-.21-1.595-.42-1.595-.252,0-.589.587-.8,1.469-.924,3.487-5.251,17.181-6.972,21.718a3.583,3.583,0,0,1-3.235,2.353,3.217,3.217,0,0,1-2.941-2.311C58.971,95.1,55.275,81.7,53.72,76.74c-.21-.756-.462-1.176-.672-1.176-.378,0-.5,1.218-.546,1.6-.253,3.487-.715,18.064-.715,19.113,0,.589.294.715,1.135.8h.084a2.2,2.2,0,1,1,.084,4.368h-.168c-1.093-.042-2.142-.084-3.193-.084-1.218,0-2.394.042-3.4.084a2.28,2.28,0,0,1-2.521-2.183,2.175,2.175,0,0,1,2.311-2.185h.335c.546,0,.8-.21.841-.841.294-6.72.84-15.416,1.134-20.919v-.42c0-.462-.084-.63-.672-.63-2.52,0-2.646-1.554-2.646-2.227a2.135,2.135,0,0,1,2.226-2.225h.252c.63.042,1.428.084,2.311.084.63,0,1.3-.042,1.889-.042H52a4.642,4.642,0,0,1,4.621,3.4c.8,2.52,2.143,7.1,3.4,11.258,2.562,8.4,3.024,9.494,3.445,9.494.168,0,.336-.168.462-.5,1.6-3.864,4.915-15.626,6.595-20.457a4.458,4.458,0,0,1,4.327-3.15Z"
          transform="translate(0 -12.737)"/>
    <path class="cls-1"
          d="M99,81.823c2.563-.084,3.865-1.764,3.865-4.285v-.126c0-1.806-1.722-3.738-4.452-3.738a6.078,6.078,0,0,0-4.538,2.184,1.858,1.858,0,0,1-1.428.63,2.382,2.382,0,0,1-2.311-2.268c0-1.722,3.487-4.789,8.486-4.789,4.411,0,8.7,2.52,8.7,8.065a6.792,6.792,0,0,1-3.445,6.218,8.735,8.735,0,0,1,5.083,8.107c0,5.923-4.537,10.124-10.88,10.124-6.385,0-10.039-3.823-10.039-5.672A2.562,2.562,0,0,1,90.469,93.8a2.256,2.256,0,0,1,1.638.8c1.89,2.1,3.234,2.9,6.175,2.9a5.885,5.885,0,0,0,6.091-5.755c0-5.125-3.655-5.629-5.587-5.629h-.377c-.253,0-.463.042-.631.042a2.222,2.222,0,0,1-2.185-2.184,2.15,2.15,0,0,1,2.143-2.143Z"
          transform="translate(0 -12.737)"/>
    <path class="cls-1"
          d="M119.071,101.608a2.716,2.716,0,0,1-2.941-2.94,2.851,2.851,0,0,1,2.941-2.856,2.9,2.9,0,0,1,2.982,2.814A3.019,3.019,0,0,1,119.071,101.608Z"
          transform="translate(0 -12.737)"/>
    <path class="cls-1"
          d="M166.029,89.259c-.42,0-2.563.042-4.872.126a2.149,2.149,0,0,1-2.1-2.353,1.891,1.891,0,0,1,1.975-2.058h.126c1.007.042,2.309.084,3.57.084.882,0,1.723-.042,2.436-.042h.42c3.865,0,4.747,1.764,4.747,5.293,0,.294-.042,3.613-.042,6.09,0,1.261,0,2.311.042,2.689v.3a2.214,2.214,0,0,1-2.268,2.183,2.1,2.1,0,0,1-2.185-2.225v-.463c0-.252-.042-.5-.252-.5a.638.638,0,0,0-.42.21,13.431,13.431,0,0,1-9.032,3.319c-9.241,0-15.248-7.351-15.248-15.879,0-8.191,5.5-16.509,15.837-16.509a12.587,12.587,0,0,1,6.931,1.848.45.45,0,0,0,.252.084c.126,0,.252-.084.294-.336.043-.923,1.092-1.427,2.184-1.427a2.1,2.1,0,0,1,2.353,1.973v.168c-.042.883-.084,1.849-.084,2.815,0,1.134.042,2.226.084,3.067v.168a2.315,2.315,0,0,1-4.579.336c-.294-2.1-3.193-4.453-7.351-4.453-6.848,0-11.132,5.839-11.132,12.014,0,5.419,3.529,11.594,11.006,11.594,7.141,0,8.863-5.629,8.863-6.847,0-.84-.672-1.26-1.47-1.26Z"
          transform="translate(0 -12.737)"/>
    <path class="cls-1"
          d="M179.044,91.191a10.565,10.565,0,1,1,21.13,0,10.565,10.565,0,1,1-21.13,0Zm16.887,0c0-4.159-2.856-6.805-6.3-6.805s-6.344,2.646-6.344,6.805c0,4.117,2.857,6.721,6.344,6.721S195.931,95.308,195.931,91.191Z"
          transform="translate(0 -12.737)"/>
    <path class="cls-1"
          d="M205.966,91.191a10.565,10.565,0,1,1,21.13,0,10.565,10.565,0,1,1-21.13,0Zm16.887,0c0-4.159-2.857-6.805-6.3-6.805s-6.344,2.646-6.344,6.805c0,4.117,2.857,6.721,6.344,6.721S222.853,95.308,222.853,91.191Z"
          transform="translate(0 -12.737)"/>
    <path class="cls-1"
          d="M247.883,69.852c.5,0,1.009-.042,1.429-.042,3.192.084,4.242,1.511,4.242,4.41v.336c-.126,3.655-.168,9.284-.168,14.325,0,2.52.042,4.914.042,6.805,0,.966.463,1.47,1.3,1.47h.21a1.892,1.892,0,0,1,1.932,2.016c0,1.387-.714,2.31-3.025,2.31-.672,0-3.234-.084-4.074-2.394-.042-.126-.126-.21-.168-.21-.084,0-.126.084-.21.168a8.509,8.509,0,0,1-6.3,2.688c-5.8,0-10.165-4.2-10.165-10.543,0-6.133,4.368-10.544,10.165-10.544a8.533,8.533,0,0,1,5.84,2.226.154.154,0,0,0,.126.042c.126,0,.21-.042.21-.21,0,0,.126-3.78.126-6.385,0-1.344,0-2.142-1.345-2.142-1.092,0-2.52-.084-2.52-2.059a2.237,2.237,0,0,1,2.31-2.267Zm1.345,21.339c0-4.159-2.689-6.721-6.049-6.721s-6.05,2.562-6.05,6.721c0,4.117,2.689,6.637,6.05,6.637S249.228,95.308,249.228,91.191Z"
          transform="translate(0 -12.737)"/>
    <path class="cls-1"
          d="M274.806,82.621c-.042.715-.042,1.3-.042,1.891,0,.378,0,.8.042,1.217a1.817,1.817,0,0,1-1.975,1.891,1.924,1.924,0,0,1-2.1-1.848v-.084c0-1.47-2.479-1.47-2.647-1.47-1.469,0-2.268.84-2.268,1.764a2.324,2.324,0,0,0,1.428,1.932c1.134.589,2.983,1.387,4.243,2.059,2.9,1.554,4.117,3.7,4.117,5.713,0,3.192-2.941,6.132-7.142,6.174a7.685,7.685,0,0,1-3.4-.672.988.988,0,0,0-.336-.084.559.559,0,0,0-.336.126,2.387,2.387,0,0,1-1.429.42,1.887,1.887,0,0,1-2.1-1.763v-.126c.042-.589.042-1.051.042-1.471,0-.588,0-1.134-.042-1.849v-.126a1.888,1.888,0,0,1,2.058-1.847,1.972,1.972,0,0,1,2.1,1.973.757.757,0,0,0,.378.673,4.364,4.364,0,0,0,2.772.882c2.857,0,3.151-1.765,3.151-2.226,0-1.176-.756-2.143-5.839-4.411a5.71,5.71,0,0,1-3.78-5.209c0-2.856,2.352-5.629,6.384-5.629a6.489,6.489,0,0,1,2.563.5.715.715,0,0,0,.294.042,1.051,1.051,0,0,0,.546-.126,2.229,2.229,0,0,1,1.176-.294,1.974,1.974,0,0,1,2.143,1.932Z"
          transform="translate(0 -12.737)"/>
    <path class="cls-1"
          d="M282.447,103.247a2.013,2.013,0,0,1-2.1-1.891,1.944,1.944,0,0,1,.168-.8c1.933-4.831,10.754-27.935,11.679-31.3A1.781,1.781,0,0,1,294,67.919a1.871,1.871,0,0,1,2.059,2.52c-1.176,2.941-9.745,25.834-11.8,31.506A1.877,1.877,0,0,1,282.447,103.247Z"
          transform="translate(0 -12.737)"/>
    <path class="cls-1"
          d="M306.851,89.007c-2.9,1.931-5.377-1.891-2.437-3.655,4.075-2.479,7.142-6.679,9.116-9.746a13.453,13.453,0,0,0,1.638-3.445c.756-2.814,4.957-2.057,4.5.715a6.884,6.884,0,0,1-.63,1.848c2.016-.336,4.2-.84,6.091-.966,2.941-.168,5.545,1.89,3.949,4.621-6.763,11.594-12.9,19.7-24.239,24.112-3.612,1.386-5.251-2.9-1.68-4.075,8.864-2.982,15.753-10.544,20.584-19.659.42-.84.042-1.008-.588-1.008a62.015,62.015,0,0,0-6.722,1.05C313.908,82.285,310.547,86.486,306.851,89.007Zm21.214-16.425c-2.1-.883-.462-3.4,1.47-2.688a14.1,14.1,0,0,1,4.117,2.52c1.637,1.722-.8,4.284-2.185,2.647A14.426,14.426,0,0,0,328.065,72.582Zm3.78-3.571c-2.143-.84-.63-3.361,1.345-2.731a13.222,13.222,0,0,1,4.2,2.395c1.681,1.68-.672,4.243-2.1,2.688A15.112,15.112,0,0,0,331.845,69.011Z"
          transform="translate(0 -12.737)"/>
    <path class="cls-1"
          d="M343.938,90.771a9.887,9.887,0,0,0-2.269-3.067c-1.721-1.47.715-4.074,2.647-2.31a16.872,16.872,0,0,1,2.983,3.613A1.9,1.9,0,1,1,343.938,90.771Zm.21,8.359A21.927,21.927,0,0,0,356.2,86.36a6.7,6.7,0,0,0,.294-2.016c-.084-2.563,3.991-2.773,4.16.042a7.182,7.182,0,0,1-.8,3.444,26.814,26.814,0,0,1-13.821,14.619C343.182,103.835,341.838,100.181,344.148,99.13Zm5.167-10.543a10.358,10.358,0,0,0-1.848-3.361c-1.513-1.68,1.26-3.907,2.941-1.89a15.653,15.653,0,0,1,2.436,3.948A1.885,1.885,0,1,1,349.315,88.587Z"
          transform="translate(0 -12.737)"/>
    <path class="cls-1"
          d="M374.85,100.265c-3.109,1.175-5.251-2.773-1.639-3.992a36.266,36.266,0,0,0,18.778-16.13c.336-.672.126-.966-.378-.924-2.059.21-6.848,1.554-7.94,1.806a19.028,19.028,0,0,1-4.243.714c-2.688.042-3.444-4.327.042-4.327a25.975,25.975,0,0,0,3.739-.462c1.512-.252,6.595-1.6,10.123-1.931,3.572-.337,5.419,2.141,4.034,4.578a57.673,57.673,0,0,1-5.293,7.9c3.948,1.807,9.115,4.537,11.509,7.982a2.583,2.583,0,0,1-.378,3.486,2.093,2.093,0,0,1-3.108-.378,34.45,34.45,0,0,0-10.628-8.107A39.266,39.266,0,0,1,374.85,100.265Zm25.372-23.483a15.407,15.407,0,0,0-2.94-3.024c-1.933-1.26.168-3.4,1.932-2.353a12.776,12.776,0,0,1,3.613,3.151C404.128,76.53,401.272,78.631,400.222,76.782Zm5-2.394a14.4,14.4,0,0,0-3.024-2.941c-1.975-1.176,0-3.4,1.805-2.436a12.606,12.606,0,0,1,3.656,3.066C409.043,74.01,406.355,76.194,405.221,74.388Z"
          transform="translate(0 -12.737)"/>
  </g>
  <path class="cls-3"
        d="M72.934,67.894h.756c1.093,0,2.436-.042,3.36-.084h.126a2.146,2.146,0,0,1,2.269,2.225,2.051,2.051,0,0,1-1.806,2.143c-.715.084-.757.294-.757,1.009.084,5.418.757,15.374,1.135,21.254.042.463.294.589.84.631h.252a2.106,2.106,0,0,1,2.268,2.143,2.216,2.216,0,0,1-2.352,2.225h-.168c-1.092-.042-2.143-.084-3.193-.084-1.218,0-2.394.042-3.4.084a2.279,2.279,0,0,1-2.52-2.183,2.173,2.173,0,0,1,2.31-2.185h.462c.42,0,.714-.126.714-.673v-.126c-.378-6.93-.546-19.575-.546-19.575-.042-1.134-.21-1.595-.42-1.595-.252,0-.589.587-.8,1.469-.924,3.487-5.251,17.181-6.972,21.718a3.583,3.583,0,0,1-3.235,2.353,3.217,3.217,0,0,1-2.941-2.311C56.971,93.1,53.275,79.7,51.72,74.74c-.21-.756-.462-1.176-.672-1.176-.378,0-.5,1.218-.546,1.6-.253,3.487-.715,18.064-.715,19.113,0,.589.294.715,1.135.8h.084a2.2,2.2,0,1,1,.084,4.368h-.168c-1.093-.042-2.142-.084-3.193-.084-1.218,0-2.394.042-3.4.084a2.28,2.28,0,0,1-2.521-2.183,2.175,2.175,0,0,1,2.311-2.185h.335c.546,0,.8-.21.841-.841.294-6.72.84-15.416,1.134-20.919v-.42c0-.462-.084-.63-.672-.63-2.52,0-2.646-1.554-2.646-2.227a2.135,2.135,0,0,1,2.226-2.225h.252c.63.042,1.428.084,2.311.084.63,0,1.3-.042,1.889-.042H50a4.642,4.642,0,0,1,4.621,3.4c.8,2.52,2.143,7.1,3.4,11.258,2.562,8.4,3.024,9.494,3.445,9.494.168,0,.336-.168.462-.5,1.6-3.864,4.915-15.626,6.595-20.457a4.458,4.458,0,0,1,4.327-3.15Z"
        transform="translate(0 -12.737)"/>
  <path class="cls-3"
        d="M97,79.823c2.563-.084,3.865-1.764,3.865-4.285v-.126c0-1.806-1.722-3.738-4.452-3.738a6.078,6.078,0,0,0-4.538,2.184,1.858,1.858,0,0,1-1.428.63,2.382,2.382,0,0,1-2.311-2.268c0-1.722,3.487-4.789,8.486-4.789,4.411,0,8.7,2.52,8.7,8.065a6.792,6.792,0,0,1-3.445,6.218,8.735,8.735,0,0,1,5.083,8.107c0,5.923-4.537,10.124-10.88,10.124-6.385,0-10.039-3.823-10.039-5.672A2.562,2.562,0,0,1,88.469,91.8a2.256,2.256,0,0,1,1.638.8c1.89,2.1,3.234,2.9,6.175,2.9a5.885,5.885,0,0,0,6.091-5.755c0-5.125-3.655-5.629-5.587-5.629h-.377c-.253,0-.463.042-.631.042a2.222,2.222,0,0,1-2.185-2.184,2.15,2.15,0,0,1,2.143-2.143Z"
        transform="translate(0 -12.737)"/>
  <path class="cls-3"
        d="M117.071,99.608a2.716,2.716,0,0,1-2.941-2.94,2.851,2.851,0,0,1,2.941-2.856,2.9,2.9,0,0,1,2.982,2.814A3.019,3.019,0,0,1,117.071,99.608Z"
        transform="translate(0 -12.737)"/>
  <path class="cls-3"
        d="M164.029,87.259c-.42,0-2.563.042-4.872.126a2.149,2.149,0,0,1-2.1-2.353,1.891,1.891,0,0,1,1.975-2.058h.126c1.007.042,2.309.084,3.57.084.882,0,1.723-.042,2.436-.042h.42c3.865,0,4.747,1.764,4.747,5.293,0,.294-.042,3.613-.042,6.09,0,1.261,0,2.311.042,2.689v.3a2.214,2.214,0,0,1-2.268,2.183,2.1,2.1,0,0,1-2.185-2.225v-.463c0-.252-.042-.5-.252-.5a.638.638,0,0,0-.42.21,13.431,13.431,0,0,1-9.032,3.319c-9.241,0-15.248-7.351-15.248-15.879,0-8.191,5.5-16.509,15.837-16.509a12.587,12.587,0,0,1,6.931,1.848.45.45,0,0,0,.252.084c.126,0,.252-.084.294-.336.043-.923,1.092-1.427,2.184-1.427a2.1,2.1,0,0,1,2.353,1.973v.168c-.042.883-.084,1.849-.084,2.815,0,1.134.042,2.226.084,3.067v.168a2.315,2.315,0,0,1-4.579.336c-.294-2.1-3.193-4.453-7.351-4.453-6.848,0-11.132,5.839-11.132,12.014,0,5.419,3.529,11.594,11.006,11.594,7.141,0,8.863-5.629,8.863-6.847,0-.84-.672-1.26-1.47-1.26Z"
        transform="translate(0 -12.737)"/>
  <path class="cls-3"
        d="M177.044,89.191a10.565,10.565,0,1,1,21.13,0,10.565,10.565,0,1,1-21.13,0Zm16.887,0c0-4.159-2.856-6.805-6.3-6.805s-6.344,2.646-6.344,6.805c0,4.117,2.857,6.721,6.344,6.721S193.931,93.308,193.931,89.191Z"
        transform="translate(0 -12.737)"/>
  <path class="cls-3"
        d="M203.966,89.191a10.565,10.565,0,1,1,21.13,0,10.565,10.565,0,1,1-21.13,0Zm16.887,0c0-4.159-2.857-6.805-6.3-6.805s-6.344,2.646-6.344,6.805c0,4.117,2.857,6.721,6.344,6.721S220.853,93.308,220.853,89.191Z"
        transform="translate(0 -12.737)"/>
  <path class="cls-3"
        d="M245.883,67.852c.5,0,1.009-.042,1.429-.042,3.192.084,4.242,1.511,4.242,4.41v.336c-.126,3.655-.168,9.284-.168,14.325,0,2.52.042,4.914.042,6.805,0,.966.463,1.47,1.3,1.47h.21a1.892,1.892,0,0,1,1.932,2.016c0,1.387-.714,2.31-3.025,2.31-.672,0-3.234-.084-4.074-2.394-.042-.126-.126-.21-.168-.21-.084,0-.126.084-.21.168a8.509,8.509,0,0,1-6.3,2.688c-5.8,0-10.165-4.2-10.165-10.543,0-6.133,4.368-10.544,10.165-10.544a8.533,8.533,0,0,1,5.84,2.226.154.154,0,0,0,.126.042c.126,0,.21-.042.21-.21,0,0,.126-3.78.126-6.385,0-1.344,0-2.142-1.345-2.142-1.092,0-2.52-.084-2.52-2.059a2.237,2.237,0,0,1,2.31-2.267Zm1.345,21.339c0-4.159-2.689-6.721-6.049-6.721s-6.05,2.562-6.05,6.721c0,4.117,2.689,6.637,6.05,6.637S247.228,93.308,247.228,89.191Z"
        transform="translate(0 -12.737)"/>
  <path class="cls-3"
        d="M272.806,80.621c-.042.715-.042,1.3-.042,1.891,0,.378,0,.8.042,1.217a1.817,1.817,0,0,1-1.975,1.891,1.924,1.924,0,0,1-2.1-1.848v-.084c0-1.47-2.479-1.47-2.647-1.47-1.469,0-2.268.84-2.268,1.764a2.324,2.324,0,0,0,1.428,1.932c1.134.589,2.983,1.387,4.243,2.059,2.9,1.554,4.117,3.7,4.117,5.713,0,3.192-2.941,6.132-7.142,6.174a7.685,7.685,0,0,1-3.4-.672.988.988,0,0,0-.336-.084.559.559,0,0,0-.336.126,2.387,2.387,0,0,1-1.429.42,1.887,1.887,0,0,1-2.1-1.763v-.126c.042-.589.042-1.051.042-1.471,0-.588,0-1.134-.042-1.849v-.126a1.888,1.888,0,0,1,2.058-1.847,1.972,1.972,0,0,1,2.1,1.973.757.757,0,0,0,.378.673,4.364,4.364,0,0,0,2.772.882c2.857,0,3.151-1.765,3.151-2.226,0-1.176-.756-2.143-5.839-4.411a5.71,5.71,0,0,1-3.78-5.209c0-2.856,2.352-5.629,6.384-5.629a6.489,6.489,0,0,1,2.563.5.715.715,0,0,0,.294.042,1.051,1.051,0,0,0,.546-.126,2.229,2.229,0,0,1,1.176-.294,1.974,1.974,0,0,1,2.143,1.932Z"
        transform="translate(0 -12.737)"/>
  <path class="cls-3"
        d="M280.447,101.247a2.013,2.013,0,0,1-2.1-1.891,1.944,1.944,0,0,1,.168-.8c1.933-4.831,10.754-27.935,11.679-31.3A1.781,1.781,0,0,1,292,65.919a1.871,1.871,0,0,1,2.059,2.52c-1.176,2.941-9.745,25.834-11.8,31.506A1.877,1.877,0,0,1,280.447,101.247Z"
        transform="translate(0 -12.737)"/>
  <path class="cls-3"
        d="M304.851,87.007c-2.9,1.931-5.377-1.891-2.437-3.655,4.075-2.479,7.142-6.679,9.116-9.746a13.453,13.453,0,0,0,1.638-3.445c.756-2.814,4.957-2.057,4.5.715a6.884,6.884,0,0,1-.63,1.848c2.016-.336,4.2-.84,6.091-.966,2.941-.168,5.545,1.89,3.949,4.621-6.763,11.594-12.9,19.7-24.239,24.112-3.612,1.386-5.251-2.9-1.68-4.075,8.864-2.982,15.753-10.544,20.584-19.659.42-.84.042-1.008-.588-1.008a62.015,62.015,0,0,0-6.722,1.05C311.908,80.285,308.547,84.486,304.851,87.007Zm21.214-16.425c-2.1-.883-.462-3.4,1.47-2.688a14.1,14.1,0,0,1,4.117,2.52c1.637,1.722-.8,4.284-2.185,2.647A14.426,14.426,0,0,0,326.065,70.582Zm3.78-3.571c-2.143-.84-.63-3.361,1.345-2.731a13.222,13.222,0,0,1,4.2,2.395c1.681,1.68-.672,4.243-2.1,2.688A15.112,15.112,0,0,0,329.845,67.011Z"
        transform="translate(0 -12.737)"/>
  <path class="cls-3"
        d="M341.938,88.771a9.887,9.887,0,0,0-2.269-3.067c-1.721-1.47.715-4.074,2.647-2.31a16.872,16.872,0,0,1,2.983,3.613A1.9,1.9,0,1,1,341.938,88.771Zm.21,8.359A21.927,21.927,0,0,0,354.2,84.36a6.7,6.7,0,0,0,.294-2.016c-.084-2.563,3.991-2.773,4.16.042a7.182,7.182,0,0,1-.8,3.444,26.814,26.814,0,0,1-13.821,14.619C341.182,101.835,339.838,98.181,342.148,97.13Zm5.167-10.543a10.358,10.358,0,0,0-1.848-3.361c-1.513-1.68,1.26-3.907,2.941-1.89a15.653,15.653,0,0,1,2.436,3.948A1.885,1.885,0,1,1,347.315,86.587Z"
        transform="translate(0 -12.737)"/>
  <path class="cls-3"
        d="M372.85,98.265c-3.109,1.175-5.251-2.773-1.639-3.992a36.266,36.266,0,0,0,18.778-16.13c.336-.672.126-.966-.378-.924-2.059.21-6.848,1.554-7.94,1.806a19.028,19.028,0,0,1-4.243.714c-2.688.042-3.444-4.327.042-4.327a25.975,25.975,0,0,0,3.739-.462c1.512-.252,6.595-1.6,10.123-1.931,3.572-.337,5.419,2.141,4.034,4.578a57.673,57.673,0,0,1-5.293,7.9c3.948,1.807,9.115,4.537,11.509,7.982a2.583,2.583,0,0,1-.378,3.486,2.093,2.093,0,0,1-3.108-.378,34.45,34.45,0,0,0-10.628-8.107A39.266,39.266,0,0,1,372.85,98.265Zm25.372-23.483a15.407,15.407,0,0,0-2.94-3.024c-1.933-1.26.168-3.4,1.932-2.353a12.776,12.776,0,0,1,3.613,3.151C402.128,74.53,399.272,76.631,398.222,74.782Zm5-2.394a14.4,14.4,0,0,0-3.024-2.941c-1.975-1.176,0-3.4,1.805-2.436a12.606,12.606,0,0,1,3.656,3.066C407.043,72.01,404.355,74.194,403.221,72.388Z"
        transform="translate(0 -12.737)"/>
  <path class="cls-1"
        d="M26.533,78.881a8.083,8.083,0,0,1-2.313.934,5.867,5.867,0,0,0-4.606,3.417,5.946,5.946,0,0,1-2.625,2.708A4.807,4.807,0,0,1,9.881,82.3a8.7,8.7,0,0,1,.134-2.8,15.572,15.572,0,0,0,.327-4.26,8.923,8.923,0,0,1,.259-2.738,5.524,5.524,0,0,1,5.988-4.393,11.1,11.1,0,0,1,3.026.679,12.078,12.078,0,0,0,3.491.724,6.009,6.009,0,0,1,4.341,1.658c1.831,2.021,2.614,5.157-.5,7.459A4.753,4.753,0,0,1,26.533,78.881Z"
        transform="translate(0 -12.737)"/>
  <path class="cls-1"
        d="M8.709,64.837a5.769,5.769,0,0,1,1.016,2.49,3.256,3.256,0,0,1-3.682,3.9,5.637,5.637,0,0,1-4.669-5.589A3.106,3.106,0,0,1,5.135,62.59,5.754,5.754,0,0,1,8.709,64.837Z"
        transform="translate(0 -12.737)"/>
  <path class="cls-1"
        d="M9.78,64.15a5.528,5.528,0,0,1-1.171-4.074,3.125,3.125,0,0,1,4-2.8,5.672,5.672,0,0,1,4.031,5.964,3.274,3.274,0,0,1-5.062,2.4A5.6,5.6,0,0,1,9.78,64.15Z"
        transform="translate(0 -12.737)"/>
  <path class="cls-1"
        d="M7,74.485c.192.319.41.626.571.959a3.114,3.114,0,0,1-.245,3.54,3.288,3.288,0,0,1-3.52,1.2A5.015,5.015,0,0,1,.014,75.874,3.115,3.115,0,0,1,3.7,72.408,5.033,5.033,0,0,1,7,74.485Z"
        transform="translate(0 -12.737)"/>
  <path class="cls-1"
        d="M24.579,60.16a5.194,5.194,0,0,1,1.2,4.152,3.223,3.223,0,0,1-5.349,1.922,5.122,5.122,0,0,1-2.012-4.6,3.09,3.09,0,0,1,4.568-2.588A9.424,9.424,0,0,1,24.579,60.16Z"
        transform="translate(0 -12.737)"/>
  <g class="cls-2">
    <path class="cls-1"
          d="M422.112,99.912l.175-8.432c-1.393,1.764-1.921,2.029-2.328,2.029a.822.822,0,0,1-.829-.794.886.886,0,0,1,.318-.635,16.25,16.25,0,0,0,4.251-6.226.757.757,0,0,1,.758-.53.948.948,0,0,1,.97.864,11.6,11.6,0,0,1-1.41,2.823l-.212,10.9a.8.8,0,0,1-.847.812.791.791,0,0,1-.846-.794Zm7.92-3.157v3.051a.847.847,0,1,1-1.694,0V89.822h-.653a19.728,19.728,0,0,1-1.9,2.982,1.056,1.056,0,0,1-.794.458.787.787,0,0,1-.794-.777.9.9,0,0,1,.229-.564,15.415,15.415,0,0,0,2.982-5.98.8.8,0,0,1,.81-.652.867.867,0,0,1,.918.794,14.03,14.03,0,0,1-.741,2.2h6.086a.745.745,0,0,1,.758.775.721.721,0,0,1-.758.759h-4.445v1.906h3.633a.743.743,0,0,1,.758.775.72.72,0,0,1-.758.759h-3.633V95.22h3.809A.745.745,0,0,1,434.6,96a.721.721,0,0,1-.759.759Z"
          transform="translate(0 -12.737)"/>
    <path class="cls-1"
          d="M446.646,85.959a.787.787,0,0,1,.847-.776.807.807,0,0,1,.881.776v2.452c.653.018,1.252.018,1.8.035a2.067,2.067,0,0,1,2.153,2.011c.035,1.129.052,2.575.052,3.986,0,1.2-.017,2.382-.035,3.264-.053,1.658-.987,2.346-2.7,2.4-1.183.037-2.54.054-3.863.054-1.482,0-2.947-.017-4.111-.071-1.8-.07-2.645-.652-2.7-2.346-.035-1.058-.053-2.275-.053-3.51s.018-2.5.053-3.669a2.037,2.037,0,0,1,2.275-2.117c.458-.017.97-.017,1.552-.035V85.959a.787.787,0,0,1,.847-.776.808.808,0,0,1,.882.776v2.435h2.117Zm-3.793,3.934c-.388,0-.74.017-1.04.017-.935.018-1.236.353-1.271,1.147-.017.635-.052,1.393-.052,2.152h2.363Zm0,4.8H440.49c0,1.006.017,1.976.052,2.735.035.952.389,1.111,1.483,1.146.246,0,.51.018.828.018Zm3.846-4.815h-2.223v3.334H446.7Zm0,4.815h-2.223v3.916H446.7Zm4.075-1.481c0-.776-.036-1.517-.054-2.152-.053-1.164-.529-1.164-2.4-1.164v3.316Zm-2.452,1.481v3.9c.387,0,.74-.018,1.076-.018.987-.017,1.287-.459,1.322-1.2.035-.794.054-1.728.054-2.682Z"
          transform="translate(0 -12.737)"/>
    <path class="cls-1"
          d="M458.18,89.1a1.251,1.251,0,0,1,1.287-1.252,1.274,1.274,0,0,1,1.288,1.234,1.31,1.31,0,0,1-1.288,1.306A1.221,1.221,0,0,1,458.18,89.1Zm0,7.214a1.251,1.251,0,0,1,1.287-1.251,1.273,1.273,0,0,1,1.288,1.234,1.31,1.31,0,0,1-1.288,1.3A1.221,1.221,0,0,1,458.18,96.313Z"
          transform="translate(0 -12.737)"/>
    <path class="cls-1"
          d="M472.819,97.689h.036a.939.939,0,1,1,.035,1.87h-.071c-.458-.018-.988-.036-1.5-.036-.618,0-1.217.018-1.641.036a.9.9,0,0,1-1.058-.935.931.931,0,0,1,.988-.935h.07l.177.018h.035c.212,0,.282-.159.282-.353,0-.97.018-1.94.018-3.034a.751.751,0,0,0-.195-.6c-1.128-1.711-2.663-4.023-3.6-5.415a.527.527,0,0,0-.477-.23c-.317,0-1.111-.017-1.111-.9a.9.9,0,0,1,.97-.918h.088c.371.017.847.035,1.341.035.6,0,1.217-.018,1.694-.035h.07a.884.884,0,0,1,1,.846,1.049,1.049,0,0,1-1.075.971c-.142.018-.247.035-.247.123a.284.284,0,0,0,.07.159c2.275,3.51,2.381,3.652,2.487,3.652.3,0,2.558-3.687,2.558-3.811,0-.088-.107-.123-.23-.123a.966.966,0,0,1-1.041-.917.922.922,0,0,1,1.006-.9h.088c.371.017.812.035,1.271.035.564,0,1.128-.018,1.6-.035.23,0,1.076.053,1.076.918a.911.911,0,0,1-1,.9h-.053c-.211.035-.283.035-.406.23-.934,1.446-2.575,3.933-3.563,5.326a.867.867,0,0,0-.229.706c0,.794.018,1.923.018,3.034,0,.229.053.317.317.317Z"
          transform="translate(0 -12.737)"/>
    <path class="cls-1"
          d="M484.053,92.662a.874.874,0,1,1,.07-1.746h.16c1.058,0,1.993.44,1.993,1.869v.071c-.053,2.011-.088,2.117-.088,3,0,.318,0,.742.017,1.412,0,.317.123.459.5.459h.193a.8.8,0,0,1,.794.864.883.883,0,0,1-.882.934c-.212,0-.388.018-.564.018h-.106a1.746,1.746,0,0,1-1.588-.635c-.017-.035-.035-.052-.07-.052s-.089.052-.177.123a3.953,3.953,0,0,1-2.346.741,2.82,2.82,0,0,1-3-3.034c0-.353-.017-.935-.017-1.587s.017-1.394.017-2.047a.386.386,0,0,0-.352-.388.777.777,0,0,1-.847-.811.9.9,0,0,1,.864-.935h.335c1.447,0,1.835.723,1.835,1.888v.07c-.017.987-.053,2.223-.053,2.98,0,.618.018,2.258,1.588,2.258a2.165,2.165,0,0,0,2.152-1.886c.017-.319.035-.706.035-1.218,0-.493-.018-1.129-.035-1.9a.407.407,0,0,0-.406-.442Z"
          transform="translate(0 -12.737)"/>
    <path class="cls-1"
          d="M497.987,99.541c-.353-.018-.917-.018-1.447-.018-.37,0-.722,0-.934.018a.8.8,0,0,1-.952-.812.832.832,0,0,1,.881-.845h.124c.176,0,.264-.072.264-.265,0-.547.018-1.165.018-1.729,0-.828-.018-1.552-.035-1.852a1.6,1.6,0,0,0-1.641-1.693,2.18,2.18,0,0,0-2.2,1.887c-.018.318-.018.793-.018,1.375s0,1.289.018,2.082c0,.2.124.2.3.2a.815.815,0,0,1,.97.81.859.859,0,0,1-.934.847h-.036c-.353-.018-.917-.018-1.447-.018-.37,0-.722,0-.934.018a.8.8,0,0,1-.952-.812.833.833,0,0,1,.882-.845h.158c.159,0,.212-.054.212-.247.035-1.8.052-2.1.052-2.77,0-.37,0-.829-.017-1.693a.421.421,0,0,0-.423-.442h-.106a.8.8,0,0,1-.794-.881.854.854,0,0,1,.864-.917c.212,0,.247-.018.424-.018h.105a1.746,1.746,0,0,1,1.588.635c.018.035.035.053.07.053s.089-.053.177-.124a4.027,4.027,0,0,1,2.381-.741,2.888,2.888,0,0,1,3.1,3.034c.018.706.053,2.54.053,3.864a.218.218,0,0,0,.23.247.887.887,0,0,1,.988.845.85.85,0,0,1-.953.812Z"
          transform="translate(0 -12.737)"/>
    <path class="cls-1"
          d="M505.8,99.523h-.088c-.459,0-1.129-.017-1.817-.017-1,0-2.081.017-2.822.035h-.053c-.635,0-.917-.37-.917-.758a1.013,1.013,0,0,1,.811-.988c.547-.106,4.146-5.115,4.146-5.274,0-.071-.054-.106-.159-.106-.37,0-1.112.035-1.888.053-.176.035-.37.141-.529.617a.837.837,0,0,1-.829.583.779.779,0,0,1-.846-.724,2.177,2.177,0,0,1,2.1-2.028h.052c.353.018,1.359.035,2.346.035.636,0,1.271-.017,1.73-.035h.052a.821.821,0,0,1,.917.829.853.853,0,0,1-.794.882c-.07,0-.335.388-.387.44-.3.371-3.669,4.728-3.669,4.834,0,.036.052.053.175.053.442,0,1.376-.017,2.312-.053.44-.017.617-.229.793-.776a.8.8,0,0,1,.811-.582.857.857,0,0,1,.918.811.869.869,0,0,1-.053.283C507.617,99.241,506.805,99.523,505.8,99.523Z"
          transform="translate(0 -12.737)"/>
    <path class="cls-1"
          d="M518.727,99.541c-.353-.018-.917-.018-1.446-.018-.371,0-.723,0-.935.018a.8.8,0,0,1-.952-.812.833.833,0,0,1,.882-.845h.14c.177,0,.247-.072.247-.265,0-.547.018-1.165.018-1.729,0-.828-.018-1.552-.035-1.852a1.6,1.6,0,0,0-1.641-1.693,2.18,2.18,0,0,0-2.205,1.887c-.017.318-.017.793-.017,1.375s0,1.289.017,2.082c0,.2.124.2.3.2a.816.816,0,0,1,.971.81.86.86,0,0,1-.935.847H513.1c-.353-.018-.917-.018-1.446-.018-.37,0-.723,0-.935.018a.8.8,0,0,1-.952-.812.833.833,0,0,1,.882-.845h.158c.159,0,.212-.054.212-.247.035-1.8.053-4.058.053-6.1,0-1.094,0-2.116-.018-2.981,0-.318-.1-.458-.477-.458a.848.848,0,0,1-.987-.917.835.835,0,0,1,.812-.918h.052c.212.017.388.017.565.017.97.018,1.834.442,1.852,1.5,0,.406.018.793.018,1.147,0,1.146-.036,2.046-.054,2.5,0,.07,0,.105.036.105.018,0,.036-.017.088-.053a4.027,4.027,0,0,1,2.381-.741,2.889,2.889,0,0,1,3.105,3.034c.017.706.052,2.54.052,3.864a.218.218,0,0,0,.23.247.887.887,0,0,1,.988.845.85.85,0,0,1-.953.812Z"
          transform="translate(0 -12.737)"/>
    <path class="cls-1"
          d="M525.571,99.735a4.177,4.177,0,0,1-4.216-4.445,4.285,4.285,0,0,1,4.18-4.551,3.563,3.563,0,0,1,3.81,3.122,1.522,1.522,0,0,1-1.676,1.535c-.547.018-.917.018-4.339.018-.106,0-.141.141-.141.335a2.321,2.321,0,0,0,2.4,2.346,2.973,2.973,0,0,0,2.293-1.076.8.8,0,0,1,.6-.283.962.962,0,0,1,.934.918.843.843,0,0,1-.264.617A4.441,4.441,0,0,1,525.571,99.735Zm1.94-6.173c0-.248-.371-1.288-1.958-1.288a2.317,2.317,0,0,0-2.205,1.535c0,.159.177.159,1.816.159.724,0,1.518,0,1.994-.018A.374.374,0,0,0,527.511,93.562Z"
          transform="translate(0 -12.737)"/>
    <path class="cls-1"
          d="M543.524,99.418a.711.711,0,0,1-.74-.689.871.871,0,0,1,.123-.422,8.616,8.616,0,0,0,.864-3.087.629.629,0,0,1,.635-.635.747.747,0,0,1,.741.794,10.821,10.821,0,0,1-.952,3.634A.768.768,0,0,1,543.524,99.418Zm2.028.37.054-6.12c-.864.141-1.8.246-1.888.246a.661.661,0,0,1-.617-.723.577.577,0,0,1,.529-.634q.317-.027.74-.054c.3-.37.635-.811.971-1.305a15.744,15.744,0,0,0-1.87-1.64.711.711,0,0,1-.3-.582.67.67,0,0,1,.653-.688,1,1,0,0,1,.441.158,13.133,13.133,0,0,0,1.287-3.016.622.622,0,0,1,.653-.493.785.785,0,0,1,.83.7,14.788,14.788,0,0,1-1.694,3.633c.265.23.547.495.758.706a19.628,19.628,0,0,0,1.253-2.541.61.61,0,0,1,.617-.44.817.817,0,0,1,.829.776,18.968,18.968,0,0,1-2.646,4.551c.476-.053.918-.106,1.288-.159-.3-.547-.335-.617-.335-.74a.552.552,0,0,1,.582-.512c.794,0,1.534,1.869,1.534,2.346a.754.754,0,0,1-.705.794c-.353,0-.477-.265-.6-.777-.247.053-.547.107-.881.159l.035,6.35a.77.77,0,0,1-.777.812.737.737,0,0,1-.741-.794Zm11.289-2.716h-.864V99.7a.609.609,0,1,1-1.217,0V97.072h-.706V99.7a.6.6,0,1,1-1.2,0V97.072h-.812v2.981a.618.618,0,0,1-.617.671.658.658,0,0,1-.652-.689v-.723c0-1.27.017-3.246.053-4.41-.459,4.2-1.289,4.728-1.853,4.728a.783.783,0,0,1-.811-.724.854.854,0,0,1,.159-.476,5.692,5.692,0,0,0,.6-1.182.764.764,0,0,1-.44.142.587.587,0,0,1-.582-.547,4.6,4.6,0,0,0-.636-1.764.533.533,0,0,1-.088-.3.557.557,0,0,1,.6-.51c.776,0,1.323,1.586,1.428,1.993a20.119,20.119,0,0,0,.354-4.234c0-.794-.019-1.588-.036-2.364V89.61c0-.776.371-1.358,1.5-1.376.811-.017,1.676-.035,2.557-.035s1.764.018,2.576.035c1.464.036,1.675.582,1.675,2.065,0,1.287-.176,1.676-1.658,1.711-1.094.017-2.222.035-3.563.035h-1.587c-.018.529-.053,1.111-.089,1.676.177-.582.583-.865,1.376-.882.811-.018,1.693-.035,2.594-.035.582,0,1.164.017,1.746.035a1.438,1.438,0,0,1,1.5,1.6c.035.794.035,3.793.053,4.375v.176c0,.988-.388,1.535-1.252,1.535-.547,0-.936-.088-.936-.794,0-.352.177-.7.477-.7h.106c.141,0,.246-.089.246-.635Zm-7.073-9.649a.742.742,0,1,1,0-1.482H557.6a.742.742,0,1,1,0,1.482Zm2.769,3.281c3.546,0,3.669,0,3.7-.335a1.387,1.387,0,0,0,.017-.282,1.3,1.3,0,0,0-.017-.265c-.053-.3-.23-.3-2.258-.3-.812,0-1.623,0-2.4.018-.406,0-.529.247-.529.617,0,.177-.018.353-.018.547Zm.318,3.369-.282.018c-.353.017-.512.194-.512.564,0,.3-.018.706-.018,1.182h.812Zm1.9-.017h-.706v1.781h.706Zm2.064.6c0-.335-.123-.564-.494-.564l-.353-.018v1.764h.847Z"
          transform="translate(0 -12.737)"/>
    <path class="cls-1"
          d="M570.192,85.959a.786.786,0,0,1,.846-.776.807.807,0,0,1,.882.776v2.452c.653.018,1.253.018,1.8.035a2.066,2.066,0,0,1,2.152,2.011c.036,1.129.053,2.575.053,3.986,0,1.2-.017,2.382-.035,3.264-.053,1.658-.987,2.346-2.7,2.4-1.183.037-2.54.054-3.864.054-1.481,0-2.946-.017-4.11-.071-1.8-.07-2.645-.652-2.7-2.346-.035-1.058-.053-2.275-.053-3.51s.018-2.5.053-3.669a2.037,2.037,0,0,1,2.275-2.117c.458-.017.97-.017,1.552-.035V85.959a.787.787,0,0,1,.847-.776.808.808,0,0,1,.882.776v2.435h2.117ZM566.4,89.893c-.389,0-.741.017-1.041.017-.936.018-1.236.353-1.271,1.147-.017.635-.053,1.393-.053,2.152H566.4Zm0,4.8h-2.365c0,1.006.018,1.976.053,2.735.035.952.389,1.111,1.483,1.146.246,0,.51.018.829.018Zm3.844-4.815h-2.222v3.334h2.222Zm0,4.815h-2.222v3.916h2.222Zm4.076-1.481c0-.776-.036-1.517-.054-2.152-.053-1.164-.528-1.164-2.4-1.164v3.316Zm-2.452,1.481v3.9c.387,0,.741-.018,1.076-.018.987-.017,1.287-.459,1.322-1.2.036-.794.054-1.728.054-2.682Z"
          transform="translate(0 -12.737)"/>
    <path class="cls-1"
          d="M581.727,89.1a1.251,1.251,0,0,1,1.287-1.252,1.274,1.274,0,0,1,1.288,1.234,1.31,1.31,0,0,1-1.288,1.306A1.221,1.221,0,0,1,581.727,89.1Zm0,7.214a1.251,1.251,0,0,1,1.287-1.251A1.273,1.273,0,0,1,584.3,96.3a1.31,1.31,0,0,1-1.288,1.3A1.221,1.221,0,0,1,581.727,96.313Z"
          transform="translate(0 -12.737)"/>
    <path class="cls-1"
          d="M596.365,97.689h.036a.939.939,0,1,1,.035,1.87h-.071c-.458-.018-.988-.036-1.5-.036-.618,0-1.217.018-1.641.036a.9.9,0,0,1-1.058-.935.931.931,0,0,1,.988-.935h.07l.177.018h.035c.212,0,.282-.159.282-.353,0-.97.018-1.94.018-3.034a.751.751,0,0,0-.195-.6c-1.129-1.711-2.663-4.023-3.6-5.415a.528.528,0,0,0-.477-.23c-.317,0-1.111-.017-1.111-.9a.9.9,0,0,1,.97-.918h.088c.37.017.847.035,1.341.035.6,0,1.217-.018,1.694-.035h.07a.884.884,0,0,1,1,.846,1.049,1.049,0,0,1-1.075.971c-.142.018-.248.035-.248.123a.288.288,0,0,0,.071.159c2.275,3.51,2.381,3.652,2.487,3.652.3,0,2.558-3.687,2.558-3.811,0-.088-.107-.123-.23-.123a.966.966,0,0,1-1.041-.917.922.922,0,0,1,1.006-.9h.088c.37.017.811.035,1.27.035.565,0,1.129-.018,1.605-.035.229,0,1.076.053,1.076.918a.911.911,0,0,1-1,.9h-.053c-.211.035-.283.035-.406.23-.934,1.446-2.575,3.933-3.563,5.326a.867.867,0,0,0-.229.706c0,.794.018,1.923.018,3.034,0,.229.053.317.317.317Z"
          transform="translate(0 -12.737)"/>
    <path class="cls-1"
          d="M607.6,92.662a.874.874,0,1,1,.07-1.746h.159c1.059,0,1.994.44,1.994,1.869v.071c-.053,2.011-.088,2.117-.088,3,0,.318,0,.742.017,1.412,0,.317.123.459.494.459h.194a.8.8,0,0,1,.794.864.883.883,0,0,1-.882.934c-.212,0-.388.018-.565.018h-.105a1.746,1.746,0,0,1-1.588-.635c-.017-.035-.035-.052-.07-.052s-.089.052-.177.123a3.953,3.953,0,0,1-2.346.741,2.819,2.819,0,0,1-3-3.034c0-.353-.017-.935-.017-1.587s.017-1.394.017-2.047a.386.386,0,0,0-.352-.388.777.777,0,0,1-.847-.811.9.9,0,0,1,.864-.935h.335c1.447,0,1.835.723,1.835,1.888v.07c-.017.987-.053,2.223-.053,2.98,0,.618.018,2.258,1.587,2.258a2.166,2.166,0,0,0,2.153-1.886c.017-.319.035-.706.035-1.218,0-.493-.018-1.129-.035-1.9a.407.407,0,0,0-.406-.442Z"
          transform="translate(0 -12.737)"/>
    <path class="cls-1"
          d="M621.533,99.541c-.353-.018-.917-.018-1.447-.018-.37,0-.722,0-.934.018a.8.8,0,0,1-.953-.812.833.833,0,0,1,.882-.845h.123c.177,0,.265-.072.265-.265,0-.547.018-1.165.018-1.729,0-.828-.018-1.552-.035-1.852a1.6,1.6,0,0,0-1.641-1.693,2.181,2.181,0,0,0-2.205,1.887c-.018.318-.018.793-.018,1.375s0,1.289.018,2.082c0,.2.124.2.3.2a.815.815,0,0,1,.97.81.859.859,0,0,1-.935.847h-.035c-.353-.018-.917-.018-1.447-.018-.37,0-.722,0-.934.018a.8.8,0,0,1-.952-.812.832.832,0,0,1,.881-.845h.159c.159,0,.212-.054.212-.247.035-1.8.052-2.1.052-2.77,0-.37,0-.829-.017-1.693a.421.421,0,0,0-.423-.442h-.107a.8.8,0,0,1-.794-.881.855.855,0,0,1,.866-.917c.211,0,.246-.018.423-.018h.1a1.746,1.746,0,0,1,1.588.635c.017.035.035.053.07.053s.089-.053.177-.124a4.025,4.025,0,0,1,2.381-.741,2.888,2.888,0,0,1,3.1,3.034c.018.706.054,2.54.054,3.864a.217.217,0,0,0,.229.247.887.887,0,0,1,.988.845.851.851,0,0,1-.953.812Z"
          transform="translate(0 -12.737)"/>
    <path class="cls-1"
          d="M629.346,99.523h-.088c-.459,0-1.129-.017-1.817-.017-1,0-2.081.017-2.823.035h-.052c-.635,0-.917-.37-.917-.758a1.013,1.013,0,0,1,.811-.988c.547-.106,4.146-5.115,4.146-5.274,0-.071-.054-.106-.159-.106-.37,0-1.112.035-1.888.053-.176.035-.37.141-.529.617a.838.838,0,0,1-.829.583.779.779,0,0,1-.846-.724,2.176,2.176,0,0,1,2.1-2.028h.053c.353.018,1.359.035,2.346.035.636,0,1.27-.017,1.729-.035h.053a.821.821,0,0,1,.917.829.853.853,0,0,1-.794.882c-.07,0-.335.388-.388.44-.3.371-3.668,4.728-3.668,4.834,0,.036.052.053.175.053.442,0,1.376-.017,2.312-.053.44-.017.617-.229.793-.776a.8.8,0,0,1,.811-.582.857.857,0,0,1,.918.811.869.869,0,0,1-.053.283C631.163,99.241,630.352,99.523,629.346,99.523Z"
          transform="translate(0 -12.737)"/>
    <path class="cls-1"
          d="M642.274,99.541c-.353-.018-.917-.018-1.447-.018-.37,0-.722,0-.934.018a.8.8,0,0,1-.952-.812.833.833,0,0,1,.882-.845h.14c.177,0,.247-.072.247-.265,0-.547.018-1.165.018-1.729,0-.828-.018-1.552-.035-1.852a1.6,1.6,0,0,0-1.641-1.693,2.18,2.18,0,0,0-2.205,1.887c-.018.318-.018.793-.018,1.375s0,1.289.018,2.082c0,.2.124.2.3.2a.816.816,0,0,1,.971.81.86.86,0,0,1-.935.847h-.036c-.353-.018-.917-.018-1.446-.018-.371,0-.723,0-.935.018a.8.8,0,0,1-.952-.812.833.833,0,0,1,.882-.845h.158c.159,0,.212-.054.212-.247.035-1.8.052-4.058.052-6.1,0-1.094,0-2.116-.017-2.981,0-.318-.106-.458-.477-.458a.848.848,0,0,1-.987-.917.835.835,0,0,1,.812-.918H634c.212.017.388.017.565.017.969.018,1.834.442,1.852,1.5,0,.406.018.793.018,1.147,0,1.146-.036,2.046-.054,2.5,0,.07,0,.105.036.105.018,0,.035-.017.088-.053a4.027,4.027,0,0,1,2.381-.741,2.889,2.889,0,0,1,3.105,3.034c.017.706.052,2.54.052,3.864a.218.218,0,0,0,.23.247.887.887,0,0,1,.988.845.85.85,0,0,1-.953.812Z"
          transform="translate(0 -12.737)"/>
    <path class="cls-1"
          d="M649.118,99.735A4.177,4.177,0,0,1,644.9,95.29a4.285,4.285,0,0,1,4.18-4.551,3.563,3.563,0,0,1,3.81,3.122,1.522,1.522,0,0,1-1.676,1.535c-.547.018-.917.018-4.339.018-.106,0-.141.141-.141.335a2.321,2.321,0,0,0,2.4,2.346,2.975,2.975,0,0,0,2.293-1.076.8.8,0,0,1,.6-.283.962.962,0,0,1,.934.918.843.843,0,0,1-.264.617A4.441,4.441,0,0,1,649.118,99.735Zm1.94-6.173c0-.248-.371-1.288-1.958-1.288a2.317,2.317,0,0,0-2.205,1.535c0,.159.177.159,1.816.159.724,0,1.518,0,1.993-.018A.374.374,0,0,0,651.058,93.562Z"
          transform="translate(0 -12.737)"/>
  </g>
  <path class="cls-3"
        d="M421.02,98.82l.176-8.431c-1.394,1.763-1.922,2.028-2.328,2.028a.822.822,0,0,1-.83-.794.888.888,0,0,1,.318-.635,16.25,16.25,0,0,0,4.251-6.226.758.758,0,0,1,.759-.53.949.949,0,0,1,.969.865,11.6,11.6,0,0,1-1.41,2.822l-.212,10.9a.8.8,0,0,1-.846.812.791.791,0,0,1-.847-.794Zm7.92-3.157v3.051a.847.847,0,1,1-1.694,0V88.73h-.653a19.6,19.6,0,0,1-1.9,2.982,1.056,1.056,0,0,1-.794.458.787.787,0,0,1-.794-.776.9.9,0,0,1,.229-.565,15.4,15.4,0,0,0,2.982-5.979.8.8,0,0,1,.81-.653.867.867,0,0,1,.918.794,14,14,0,0,1-.741,2.2h6.086a.745.745,0,0,1,.758.776.72.72,0,0,1-.758.758H428.94v1.906h3.634a.743.743,0,0,1,.757.775.72.72,0,0,1-.757.759H428.94v1.958h3.809a.745.745,0,0,1,.759.776.721.721,0,0,1-.759.759Z"
        transform="translate(0 -12.737)"/>
  <path class="cls-3"
        d="M445.554,84.867a.787.787,0,0,1,.847-.776.808.808,0,0,1,.882.776v2.452c.652.018,1.252.018,1.8.035a2.067,2.067,0,0,1,2.153,2.011c.035,1.129.052,2.575.052,3.987,0,1.2-.017,2.381-.035,3.263-.052,1.658-.987,2.346-2.7,2.4-1.183.036-2.54.053-3.863.053-1.482,0-2.947-.017-4.111-.071-1.8-.07-2.645-.652-2.7-2.346-.035-1.058-.053-2.275-.053-3.509s.018-2.505.053-3.669a2.038,2.038,0,0,1,2.276-2.118c.458-.017.969-.017,1.551-.035V84.867a.787.787,0,0,1,.847-.776.808.808,0,0,1,.882.776V87.3h2.117ZM441.761,88.8c-.388,0-.74.017-1.04.017-.935.018-1.235.353-1.27,1.147-.018.636-.053,1.393-.053,2.152h2.363Zm0,4.8H439.4c0,1,.017,1.975.053,2.734.035.952.388,1.111,1.482,1.146.246,0,.511.018.828.018Zm3.846-4.816h-2.223v3.334h2.223Zm0,4.816h-2.223v3.916h2.223Zm4.075-1.482c0-.776-.036-1.516-.054-2.152-.052-1.164-.529-1.164-2.4-1.164v3.316ZM447.23,93.6v3.9c.388,0,.74-.018,1.076-.018.987-.017,1.287-.458,1.322-1.2.035-.794.054-1.728.054-2.681Z"
        transform="translate(0 -12.737)"/>
  <path class="cls-3"
        d="M457.088,88.007a1.252,1.252,0,0,1,1.287-1.252,1.274,1.274,0,0,1,1.288,1.234,1.31,1.31,0,0,1-1.288,1.306A1.221,1.221,0,0,1,457.088,88.007Zm0,7.215a1.252,1.252,0,0,1,1.287-1.252,1.274,1.274,0,0,1,1.288,1.234,1.31,1.31,0,0,1-1.288,1.305A1.22,1.22,0,0,1,457.088,95.222Z"
        transform="translate(0 -12.737)"/>
  <path class="cls-3"
        d="M471.727,96.6h.036a.938.938,0,1,1,.035,1.869h-.071c-.458-.018-.987-.035-1.5-.035-.617,0-1.217.017-1.641.035a.9.9,0,0,1-1.057-.935.93.93,0,0,1,.987-.934h.07l.177.017h.035c.212,0,.282-.159.282-.352,0-.971.018-1.941.018-3.034a.756.756,0,0,0-.194-.6c-1.129-1.711-2.663-4.023-3.6-5.415a.527.527,0,0,0-.477-.23c-.317,0-1.111-.017-1.111-.9a.9.9,0,0,1,.97-.918h.089c.37.018.846.035,1.34.035.6,0,1.217-.017,1.694-.035h.07a.884.884,0,0,1,1,.847,1.049,1.049,0,0,1-1.075.97c-.142.018-.247.036-.247.123a.286.286,0,0,0,.07.16c2.275,3.509,2.381,3.651,2.487,3.651.3,0,2.558-3.687,2.558-3.811,0-.087-.106-.123-.229-.123a.965.965,0,0,1-1.041-.917.921.921,0,0,1,1-.9h.088c.371.018.812.035,1.271.035.564,0,1.129-.017,1.6-.035.23,0,1.076.053,1.076.918a.91.91,0,0,1-1,.9H475.4c-.211.036-.282.036-.405.23-.935,1.446-2.576,3.933-3.564,5.326a.867.867,0,0,0-.228.706c0,.794.017,1.923.017,3.034,0,.229.053.318.318.318Z"
        transform="translate(0 -12.737)"/>
  <path class="cls-3"
        d="M482.961,91.57a.874.874,0,1,1,.071-1.746h.159c1.058,0,1.993.441,1.993,1.869v.072c-.053,2.01-.088,2.116-.088,3,0,.317,0,.741.018,1.411,0,.317.123.459.494.459h.193a.8.8,0,0,1,.794.864.884.884,0,0,1-.882.935c-.212,0-.387.017-.564.017h-.106a1.749,1.749,0,0,1-1.588-.635c-.017-.035-.035-.052-.07-.052s-.089.052-.177.123a3.952,3.952,0,0,1-2.345.741,2.819,2.819,0,0,1-3-3.034c0-.353-.018-.935-.018-1.587s.018-1.394.018-2.047a.387.387,0,0,0-.353-.388.777.777,0,0,1-.847-.811.9.9,0,0,1,.865-.935h.335c1.446,0,1.835.723,1.835,1.888v.07c-.018.988-.054,2.223-.054,2.981,0,.617.018,2.258,1.588,2.258a2.166,2.166,0,0,0,2.152-1.887c.018-.319.035-.706.035-1.218,0-.493-.017-1.129-.035-1.9a.407.407,0,0,0-.406-.442Z"
        transform="translate(0 -12.737)"/>
  <path class="cls-3"
        d="M496.9,98.449c-.353-.017-.917-.017-1.446-.017-.371,0-.723,0-.935.017a.8.8,0,0,1-.952-.811.833.833,0,0,1,.882-.846h.123c.176,0,.264-.071.264-.265,0-.547.018-1.165.018-1.729,0-.828-.018-1.552-.035-1.852a1.6,1.6,0,0,0-1.641-1.693,2.18,2.18,0,0,0-2.2,1.888c-.017.317-.017.793-.017,1.375s0,1.288.017,2.082c0,.194.124.194.3.194a.817.817,0,0,1,.971.811.859.859,0,0,1-.935.846h-.036c-.353-.017-.917-.017-1.446-.017-.37,0-.723,0-.935.017a.8.8,0,0,1-.952-.811.833.833,0,0,1,.882-.846h.158c.159,0,.212-.054.212-.247.035-1.8.053-2.1.053-2.77,0-.37,0-.829-.018-1.693a.42.42,0,0,0-.423-.441h-.106a.8.8,0,0,1-.794-.882.854.854,0,0,1,.864-.917c.212,0,.247-.018.424-.018h.1a1.746,1.746,0,0,1,1.588.635c.018.035.035.053.071.053s.088-.053.176-.123a4.021,4.021,0,0,1,2.381-.742,2.889,2.889,0,0,1,3.105,3.035c.017.7.052,2.54.052,3.863a.218.218,0,0,0,.23.247.887.887,0,0,1,.988.846.85.85,0,0,1-.953.811Z"
        transform="translate(0 -12.737)"/>
  <path class="cls-3"
        d="M504.707,98.432h-.088c-.459,0-1.128-.018-1.817-.018-1,0-2.081.018-2.822.035h-.053c-.635,0-.917-.37-.917-.758a1.013,1.013,0,0,1,.812-.988c.546-.105,4.145-5.115,4.145-5.274,0-.071-.054-.106-.159-.106-.37,0-1.111.035-1.888.053-.176.035-.37.142-.529.617a.837.837,0,0,1-.829.583.779.779,0,0,1-.846-.723,2.178,2.178,0,0,1,2.1-2.029h.053c.352.018,1.358.035,2.345.035.636,0,1.271-.017,1.73-.035H506a.821.821,0,0,1,.917.829.853.853,0,0,1-.794.882c-.07,0-.334.388-.387.441-.3.371-3.669,4.727-3.669,4.834,0,.035.053.052.176.052.441,0,1.376-.017,2.311-.052.441-.018.617-.23.793-.777a.8.8,0,0,1,.812-.582.857.857,0,0,1,.918.812.867.867,0,0,1-.054.282C506.525,98.149,505.713,98.432,504.707,98.432Z"
        transform="translate(0 -12.737)"/>
  <path class="cls-3"
        d="M517.635,98.449c-.352-.017-.917-.017-1.446-.017-.37,0-.723,0-.935.017a.8.8,0,0,1-.952-.811.833.833,0,0,1,.882-.846h.141c.176,0,.247-.071.247-.265,0-.547.017-1.165.017-1.729,0-.828-.017-1.552-.035-1.852a1.6,1.6,0,0,0-1.641-1.693,2.18,2.18,0,0,0-2.2,1.888c-.017.317-.017.793-.017,1.375s0,1.288.017,2.082c0,.194.124.194.3.194a.816.816,0,0,1,.971.811.859.859,0,0,1-.935.846h-.036c-.352-.017-.917-.017-1.446-.017-.37,0-.723,0-.935.017a.8.8,0,0,1-.952-.811.833.833,0,0,1,.882-.846h.158c.159,0,.212-.054.212-.247.035-1.8.053-4.058.053-6.1,0-1.093,0-2.116-.018-2.981,0-.317-.1-.458-.476-.458a.849.849,0,0,1-.988-.917.835.835,0,0,1,.812-.918h.053c.212.018.387.018.564.018.97.017,1.834.441,1.853,1.5,0,.405.017.793.017,1.146,0,1.147-.036,2.046-.054,2.5,0,.07,0,.105.037.105.017,0,.035-.017.088-.052a4.015,4.015,0,0,1,2.38-.742,2.889,2.889,0,0,1,3.1,3.035c.017.7.053,2.54.053,3.863a.218.218,0,0,0,.229.247.887.887,0,0,1,.988.846.85.85,0,0,1-.953.811Z"
        transform="translate(0 -12.737)"/>
  <path class="cls-3"
        d="M524.479,98.644a4.178,4.178,0,0,1-4.216-4.446,4.285,4.285,0,0,1,4.181-4.551,3.562,3.562,0,0,1,3.809,3.123,1.522,1.522,0,0,1-1.676,1.535c-.546.017-.917.017-4.338.017-.107,0-.142.141-.142.335A2.322,2.322,0,0,0,524.5,97a2.968,2.968,0,0,0,2.293-1.076.8.8,0,0,1,.6-.282.961.961,0,0,1,.935.917.847.847,0,0,1-.265.618A4.441,4.441,0,0,1,524.479,98.644Zm1.94-6.174c0-.247-.371-1.287-1.958-1.287a2.318,2.318,0,0,0-2.205,1.534c0,.159.177.159,1.817.159.723,0,1.517,0,1.993-.018A.372.372,0,0,0,526.419,92.47Z"
        transform="translate(0 -12.737)"/>
  <path class="cls-3"
        d="M542.432,98.326a.71.71,0,0,1-.74-.688.874.874,0,0,1,.123-.423,8.6,8.6,0,0,0,.864-3.087.629.629,0,0,1,.635-.635.747.747,0,0,1,.741.794,10.821,10.821,0,0,1-.952,3.634A.767.767,0,0,1,542.432,98.326Zm2.028.37.054-6.12c-.864.141-1.8.246-1.888.246a.66.66,0,0,1-.617-.722.578.578,0,0,1,.529-.635q.317-.027.741-.054c.3-.37.634-.81.97-1.305a15.666,15.666,0,0,0-1.87-1.64.71.71,0,0,1-.3-.582.67.67,0,0,1,.653-.688,1,1,0,0,1,.441.158,13.133,13.133,0,0,0,1.287-3.016.623.623,0,0,1,.654-.493.785.785,0,0,1,.829.7,14.793,14.793,0,0,1-1.694,3.634c.265.229.547.494.758.706a19.692,19.692,0,0,0,1.253-2.541.611.611,0,0,1,.617-.441.817.817,0,0,1,.829.777,18.987,18.987,0,0,1-2.646,4.55c.476-.052.918-.106,1.288-.159-.3-.547-.335-.617-.335-.74a.552.552,0,0,1,.582-.512c.794,0,1.534,1.869,1.534,2.346a.753.753,0,0,1-.705.794c-.352,0-.476-.265-.6-.776-.248.052-.547.106-.882.159l.035,6.349a.769.769,0,0,1-.776.812.738.738,0,0,1-.742-.794Zm11.289-2.716h-.864v2.628a.609.609,0,1,1-1.217,0V95.98h-.706v2.628a.6.6,0,1,1-1.2,0V95.98h-.811v2.981a.618.618,0,0,1-.618.671.659.659,0,0,1-.652-.689v-.722c0-1.271.018-3.246.053-4.41-.459,4.2-1.288,4.727-1.853,4.727a.781.781,0,0,1-.81-.724.853.853,0,0,1,.158-.476,5.667,5.667,0,0,0,.6-1.182.764.764,0,0,1-.44.142.587.587,0,0,1-.582-.547,4.583,4.583,0,0,0-.636-1.764.532.532,0,0,1-.088-.3.558.558,0,0,1,.6-.511c.776,0,1.323,1.587,1.429,1.993a20.184,20.184,0,0,0,.353-4.233c0-.794-.018-1.588-.036-2.365v-.052c0-.777.371-1.359,1.5-1.376.812-.018,1.676-.036,2.558-.036s1.763.018,2.575.036c1.464.035,1.676.582,1.676,2.064,0,1.287-.177,1.676-1.659,1.711-1.093.018-2.222.035-3.563.035h-1.587c-.018.529-.053,1.111-.089,1.676.177-.582.583-.864,1.376-.882.812-.018,1.694-.035,2.594-.035.582,0,1.164.017,1.746.035a1.438,1.438,0,0,1,1.5,1.605c.035.794.035,3.793.053,4.375V97.9c0,.989-.388,1.536-1.252,1.536-.547,0-.936-.088-.936-.794,0-.353.177-.706.477-.706h.106c.141,0,.246-.088.246-.635Zm-7.073-9.649a.741.741,0,1,1,0-1.481h7.832a.741.741,0,1,1,0,1.481Zm2.77,3.281c3.546,0,3.669,0,3.7-.335a1.382,1.382,0,0,0,.017-.282,1.3,1.3,0,0,0-.017-.265c-.053-.3-.23-.3-2.258-.3-.812,0-1.623,0-2.4.017-.406,0-.529.247-.529.617,0,.177-.017.353-.017.547Zm.317,3.369-.282.018c-.353.018-.512.194-.512.564,0,.3-.017.707-.017,1.182h.811Zm1.9-.017h-.706v1.781h.706Zm2.064.6c0-.334-.123-.564-.493-.564l-.354-.018v1.764h.847Z"
        transform="translate(0 -12.737)"/>
  <path class="cls-3"
        d="M569.1,84.867a.787.787,0,0,1,.847-.776.807.807,0,0,1,.881.776v2.452c.653.018,1.253.018,1.8.035a2.068,2.068,0,0,1,2.153,2.011c.035,1.129.052,2.575.052,3.987,0,1.2-.017,2.381-.035,3.263-.053,1.658-.987,2.346-2.7,2.4-1.183.036-2.54.053-3.863.053-1.482,0-2.947-.017-4.111-.071-1.8-.07-2.645-.652-2.7-2.346-.035-1.058-.053-2.275-.053-3.509s.018-2.505.053-3.669a2.038,2.038,0,0,1,2.275-2.118c.458-.017.97-.017,1.552-.035V84.867a.787.787,0,0,1,.847-.776.808.808,0,0,1,.882.776V87.3H569.1ZM565.308,88.8c-.389,0-.741.017-1.041.017-.936.018-1.235.353-1.271,1.147-.017.636-.052,1.393-.052,2.152h2.364Zm0,4.8h-2.364c0,1,.017,1.975.052,2.734.036.952.389,1.111,1.483,1.146.246,0,.511.018.829.018Zm3.845-4.816H566.93v3.334h2.223Zm0,4.816H566.93v3.916h2.223Zm4.075-1.482c0-.776-.036-1.516-.054-2.152-.053-1.164-.528-1.164-2.4-1.164v3.316ZM570.776,93.6v3.9c.387,0,.741-.018,1.076-.018.987-.017,1.287-.458,1.322-1.2.036-.794.054-1.728.054-2.681Z"
        transform="translate(0 -12.737)"/>
  <path class="cls-3"
        d="M580.635,88.007a1.251,1.251,0,0,1,1.287-1.252,1.274,1.274,0,0,1,1.288,1.234,1.31,1.31,0,0,1-1.288,1.306A1.221,1.221,0,0,1,580.635,88.007Zm0,7.215a1.251,1.251,0,0,1,1.287-1.252A1.274,1.274,0,0,1,583.21,95.2a1.31,1.31,0,0,1-1.288,1.305A1.22,1.22,0,0,1,580.635,95.222Z"
        transform="translate(0 -12.737)"/>
  <path class="cls-3"
        d="M595.273,96.6h.036a.938.938,0,1,1,.035,1.869h-.071c-.458-.018-.988-.035-1.5-.035-.617,0-1.217.017-1.641.035a.9.9,0,0,1-1.057-.935.929.929,0,0,1,.987-.934h.07l.177.017h.035c.212,0,.282-.159.282-.352,0-.971.018-1.941.018-3.034a.756.756,0,0,0-.194-.6c-1.129-1.711-2.664-4.023-3.6-5.415a.527.527,0,0,0-.477-.23c-.317,0-1.111-.017-1.111-.9a.9.9,0,0,1,.971-.918h.088c.37.018.846.035,1.34.035.6,0,1.217-.017,1.694-.035h.07a.884.884,0,0,1,1,.847,1.049,1.049,0,0,1-1.075.97c-.142.018-.247.036-.247.123a.286.286,0,0,0,.07.16c2.275,3.509,2.381,3.651,2.487,3.651.3,0,2.558-3.687,2.558-3.811,0-.087-.107-.123-.23-.123a.966.966,0,0,1-1.041-.917.922.922,0,0,1,1.006-.9h.088c.37.018.812.035,1.271.035.564,0,1.129-.017,1.6-.035.23,0,1.076.053,1.076.918a.911.911,0,0,1-1,.9h-.053c-.211.036-.282.036-.406.23-.934,1.446-2.575,3.933-3.563,5.326a.868.868,0,0,0-.229.706c0,.794.018,1.923.018,3.034,0,.229.053.318.317.318Z"
        transform="translate(0 -12.737)"/>
  <path class="cls-3"
        d="M606.508,91.57a.874.874,0,1,1,.07-1.746h.16c1.058,0,1.993.441,1.993,1.869v.072c-.053,2.01-.088,2.116-.088,3,0,.317,0,.741.017,1.411,0,.317.124.459.5.459h.193a.8.8,0,0,1,.794.864.884.884,0,0,1-.882.935c-.212,0-.388.017-.564.017h-.106A1.749,1.749,0,0,1,607,97.814c-.017-.035-.035-.052-.07-.052s-.089.052-.177.123a3.952,3.952,0,0,1-2.345.741,2.82,2.82,0,0,1-3-3.034c0-.353-.017-.935-.017-1.587s.017-1.394.017-2.047a.386.386,0,0,0-.352-.388.777.777,0,0,1-.847-.811.9.9,0,0,1,.865-.935h.334c1.447,0,1.835.723,1.835,1.888v.07c-.017.988-.053,2.223-.053,2.981,0,.617.018,2.258,1.588,2.258a2.166,2.166,0,0,0,2.152-1.887c.018-.319.035-.706.035-1.218,0-.493-.017-1.129-.035-1.9a.407.407,0,0,0-.406-.442Z"
        transform="translate(0 -12.737)"/>
  <path class="cls-3"
        d="M620.441,98.449c-.353-.017-.917-.017-1.447-.017-.37,0-.722,0-.934.017a.8.8,0,0,1-.953-.811.834.834,0,0,1,.883-.846h.123c.176,0,.264-.071.264-.265,0-.547.018-1.165.018-1.729,0-.828-.018-1.552-.035-1.852a1.6,1.6,0,0,0-1.641-1.693,2.182,2.182,0,0,0-2.205,1.888c-.018.317-.018.793-.018,1.375s0,1.288.018,2.082c0,.194.124.194.3.194a.817.817,0,0,1,.971.811.86.86,0,0,1-.936.846h-.035c-.353-.017-.917-.017-1.446-.017-.371,0-.723,0-.935.017a.8.8,0,0,1-.952-.811.833.833,0,0,1,.882-.846h.158c.159,0,.212-.054.212-.247.035-1.8.052-2.1.052-2.77,0-.37,0-.829-.017-1.693a.42.42,0,0,0-.423-.441h-.106a.8.8,0,0,1-.794-.882.855.855,0,0,1,.865-.917c.211,0,.246-.018.423-.018h.105a1.746,1.746,0,0,1,1.588.635c.018.035.035.053.07.053s.089-.053.177-.123a4.021,4.021,0,0,1,2.381-.742,2.889,2.889,0,0,1,3.105,3.035c.017.7.053,2.54.053,3.863a.217.217,0,0,0,.229.247.887.887,0,0,1,.988.846.85.85,0,0,1-.953.811Z"
        transform="translate(0 -12.737)"/>
  <path class="cls-3"
        d="M628.254,98.432h-.088c-.459,0-1.129-.018-1.817-.018-1,0-2.081.018-2.822.035h-.053c-.635,0-.917-.37-.917-.758a1.013,1.013,0,0,1,.811-.988c.547-.105,4.146-5.115,4.146-5.274,0-.071-.054-.106-.159-.106-.37,0-1.112.035-1.888.053-.176.035-.37.142-.529.617a.837.837,0,0,1-.829.583.779.779,0,0,1-.846-.723,2.177,2.177,0,0,1,2.1-2.029h.052c.353.018,1.359.035,2.346.035.636,0,1.271-.017,1.73-.035h.052a.821.821,0,0,1,.917.829.853.853,0,0,1-.794.882c-.07,0-.335.388-.387.441-.3.371-3.669,4.727-3.669,4.834,0,.035.052.052.176.052.441,0,1.375-.017,2.311-.052.44-.018.617-.23.793-.777a.8.8,0,0,1,.812-.582.812.812,0,0,1,.864,1.094C630.072,98.149,629.26,98.432,628.254,98.432Z"
        transform="translate(0 -12.737)"/>
  <path class="cls-3"
        d="M641.182,98.449c-.353-.017-.917-.017-1.446-.017-.37,0-.723,0-.935.017a.8.8,0,0,1-.952-.811.833.833,0,0,1,.882-.846h.14c.177,0,.247-.071.247-.265,0-.547.018-1.165.018-1.729,0-.828-.018-1.552-.035-1.852a1.6,1.6,0,0,0-1.641-1.693,2.18,2.18,0,0,0-2.205,1.888c-.017.317-.017.793-.017,1.375s0,1.288.017,2.082c0,.194.124.194.3.194a.817.817,0,0,1,.971.811.859.859,0,0,1-.935.846h-.036c-.353-.017-.917-.017-1.446-.017-.37,0-.723,0-.935.017a.8.8,0,0,1-.952-.811.833.833,0,0,1,.882-.846h.158c.159,0,.212-.054.212-.247.035-1.8.053-4.058.053-6.1,0-1.093,0-2.116-.018-2.981,0-.317-.105-.458-.476-.458a.849.849,0,0,1-.988-.917.835.835,0,0,1,.812-.918h.053c.211.018.387.018.564.018.97.017,1.834.441,1.853,1.5,0,.405.017.793.017,1.146,0,1.147-.036,2.046-.054,2.5,0,.07,0,.105.037.105.017,0,.035-.017.087-.052a4.021,4.021,0,0,1,2.381-.742,2.889,2.889,0,0,1,3.105,3.035c.017.7.052,2.54.052,3.863a.218.218,0,0,0,.23.247.887.887,0,0,1,.988.846.85.85,0,0,1-.953.811Z"
        transform="translate(0 -12.737)"/>
  <path class="cls-3"
        d="M648.026,98.644A4.178,4.178,0,0,1,643.81,94.2a4.285,4.285,0,0,1,4.181-4.551A3.562,3.562,0,0,1,651.8,92.77a1.522,1.522,0,0,1-1.676,1.535c-.547.017-.917.017-4.339.017-.106,0-.141.141-.141.335a2.321,2.321,0,0,0,2.4,2.346,2.968,2.968,0,0,0,2.293-1.076.8.8,0,0,1,.6-.282.961.961,0,0,1,.934.917.846.846,0,0,1-.264.618A4.441,4.441,0,0,1,648.026,98.644Zm1.94-6.174c0-.247-.371-1.287-1.958-1.287a2.317,2.317,0,0,0-2.205,1.534c0,.159.177.159,1.816.159.724,0,1.518,0,1.994-.018A.372.372,0,0,0,649.966,92.47Z"
        transform="translate(0 -12.737)"/>
</svg>
