<svg xmlns="http://www.w3.org/2000/svg" viewBox="0 0 764 96.002">
  <defs>
    <style>.cls-1 {
      fill: #fff;
    }

    .cls-2 {
      opacity: 0.75;
    }

    .cls-3 {
      fill: #5b6e80;
    }</style>
  </defs>
  <rect class="cls-1" x="33.804" y="79.181" width="707.698" height="16.822" rx="7.747"/>
  <path class="cls-1"
        d="M656.223,61.013c0,8.363,2.565,19.007,12.924,19.957.665.095,1.046.475,1.046.76s-.285.57-.856.57c-12.449,0-17.866-8.838-17.866-21.1a41.793,41.793,0,0,1,.38-5.891c4.752-38.678,26.324-42.195,26.324-42.195.285,0,.475.095.475.285,0,.286-.284.571-.95.951C656.7,25.187,656.223,60.919,656.223,61.013Zm17.77,21c-.379,0-.474-.094-.474-.285,0-.285.284-.665.95-1.045,21.477-12.544,21.572-46.851,21.572-47.041,0-8.363-2.47-18.625-13.019-19.577-.665-.094-1.046-.474-1.046-.759s.285-.571.855-.571c12.45,0,17.867,8.838,17.867,21.1a41.8,41.8,0,0,1-.38,5.892C695.66,77.358,673.993,82.015,673.993,82.015Z"
        transform="translate(0 -11.122)"/>
  <path class="cls-1"
        d="M750.4,65.67A58.368,58.368,0,0,0,761.9,59.3a1.536,1.536,0,0,1,.95-.38.434.434,0,0,1,.475.38c0,.95-6.748,7.032-14.16,10.263-.76,2.186-4.657,14.065-6.082,14.065-.19,0-.381-.191-.381-.856a86.24,86.24,0,0,1,1.806-11.4,36.531,36.531,0,0,1-11.4,2c-9.788,0-12.164-4.941-12.164-10.168,0-12.164,12.544-34.116,35.257-51.507a2.3,2.3,0,0,1,1.235-.57.252.252,0,0,1,.285.285c0,.19-.19.475-.665.949-22.618,21.668-29.84,39.724-29.84,48.752,0,4.562,1.805,7.793,9.313,7.793a32.2,32.2,0,0,0,8.933-1.425c5.322-21.762,12.734-41.91,13.969-41.91.19,0,.476.286.476.856C759.9,29.083,755.722,49.229,750.4,65.67Z"
        transform="translate(0 -11.122)"/>
  <g class="cls-2">
    <path class="cls-1"
          d="M77.83,69.894h.756c1.093,0,2.437-.042,3.361-.084h.126a2.146,2.146,0,0,1,2.268,2.226,2.052,2.052,0,0,1-1.806,2.143c-.714.084-.756.294-.756,1.008.084,5.418.756,15.375,1.134,21.255.042.462.294.588.84.63h.252a2.107,2.107,0,0,1,2.269,2.143,2.217,2.217,0,0,1-2.353,2.226h-.168c-1.092-.042-2.142-.084-3.192-.084-1.219,0-2.4.042-3.4.084a2.281,2.281,0,0,1-2.521-2.184,2.175,2.175,0,0,1,2.311-2.185h.461c.42,0,.714-.126.714-.672v-.126c-.378-6.931-.546-19.575-.546-19.575-.042-1.135-.21-1.6-.419-1.6-.252,0-.589.587-.8,1.47-.924,3.487-5.251,17.181-6.973,21.718a3.585,3.585,0,0,1-3.234,2.353,3.219,3.219,0,0,1-2.942-2.311C61.867,95.1,58.171,81.7,56.617,76.741c-.21-.757-.462-1.177-.672-1.177-.378,0-.5,1.219-.546,1.6-.253,3.486-.715,18.064-.715,19.113,0,.588.294.714,1.135.8H55.9a2.2,2.2,0,1,1,.084,4.369h-.168c-1.093-.042-2.143-.084-3.194-.084-1.217,0-2.393.042-3.4.084A2.281,2.281,0,0,1,46.7,99.257a2.175,2.175,0,0,1,2.311-2.185h.336c.546,0,.8-.21.841-.84.294-6.721.84-15.417,1.134-20.92v-.419c0-.462-.084-.63-.672-.63-2.521,0-2.647-1.555-2.647-2.227a2.135,2.135,0,0,1,2.227-2.226h.252c.63.042,1.427.084,2.31.084.63,0,1.3-.042,1.89-.042h.21a4.644,4.644,0,0,1,4.621,3.4c.8,2.52,2.143,7.1,3.4,11.259,2.563,8.4,3.025,9.493,3.446,9.493.168,0,.336-.168.462-.5,1.595-3.865,4.915-15.627,6.594-20.458a4.46,4.46,0,0,1,4.327-3.15Z"
          transform="translate(0 -11.122)"/>
    <path class="cls-1"
          d="M103.95,94.384a.419.419,0,0,0-.461-.462c-3.991.042-7.982.042-8.4.042-2.814,0-4.242-1.3-4.242-3.151a5.451,5.451,0,0,1,1.176-3.15c2.52-3.571,9.452-12.98,12.56-17.14a2,2,0,0,1,1.68-.881,2.553,2.553,0,0,1,2.479,2.394,2.673,2.673,0,0,1-.63,1.6c-1.891,2.309-9.788,12.139-12.14,15.374a.9.9,0,0,0-.253.588c0,.547.631.547,1.555.547,1.3,0,3.7-.042,6.175-.084a.532.532,0,0,0,.588-.589V87.285c0-1.639,0-2.9-.043-3.739v-.168a2.152,2.152,0,0,1,2.185-2.227,2.2,2.2,0,0,1,2.185,2.4c0,1.891-.042,3.066-.084,5.839,0,.336.042.5.462.5,1.344-.042,2.268-.042,2.436-.042h.126a1.969,1.969,0,0,1,2.1,1.931,2.18,2.18,0,0,1-2.4,2.059c-.672.042-1.344.042-2.016.042-.294,0-.714.042-.714.462,0,.672.042,1.806.042,2.6,0,.462.168.63,1.176.63h.084c1.638,0,2.436.967,2.436,1.975a2.041,2.041,0,0,1-2.31,1.932h-.21c-1.134-.042-2.394-.042-3.613-.042-1.176,0-2.31,0-3.234.042-1.218.042-2.479-.462-2.479-1.932a2.047,2.047,0,0,1,2.311-1.975h.168l.5.042c.378,0,.8-.084.8-.546Z"
          transform="translate(0 -11.122)"/>
    <path class="cls-1"
          d="M121.967,101.609a2.715,2.715,0,0,1-2.94-2.94,2.85,2.85,0,0,1,2.94-2.857,2.9,2.9,0,0,1,2.983,2.815A3.02,3.02,0,0,1,121.967,101.609Z"
          transform="translate(0 -11.122)"/>
    <path class="cls-1"
          d="M166.279,97.24a.655.655,0,0,0,.63-.672c0-.084-1.092-3.7-1.6-5.209a.713.713,0,0,0-.672-.588h-9.62c-.546.084-.714.168-.882.714-.42,1.429-1.429,4.915-1.429,4.915a.961.961,0,0,0,.967.84,2.167,2.167,0,0,1,2.521,2.143,2.112,2.112,0,0,1-2.311,2.1h-.168c-1.051-.042-2.143-.084-3.234-.084-1.345,0-2.563.042-3.572.084h-.168a2.142,2.142,0,0,1-2.31-2.142,2.1,2.1,0,0,1,2.268-2.1h.21c.672,0,1.093-.714,1.261-1.26,2.437-7.6,6.343-18.567,8.024-23.524a3.646,3.646,0,0,1,3.444-2.772,3.974,3.974,0,0,1,3.654,2.9c2.227,6.385,6.344,17.98,8.4,23.4.126.378.672,1.26,1.344,1.26a2.2,2.2,0,0,1,2.479,2.143,2.149,2.149,0,0,1-2.353,2.1H173c-1.05-.042-2.142-.084-3.234-.084-1.345,0-2.563.042-3.571.084a2.168,2.168,0,0,1-2.437-2.1,2.13,2.13,0,0,1,2.269-2.143h.252Zm-2.983-10.5c.252-.042.378-.084.378-.21,0-.294-2.9-9.157-3.234-10.207-.252-.757-.462-1.092-.672-1.092s-.462.419-.756,1.26c-.967,2.6-3.192,10-3.192,10,0,.126.084.168.42.252Z"
          transform="translate(0 -11.122)"/>
    <path class="cls-1"
          d="M187.907,84.891c-.631,0-.631.21-.631.462,0,1.553-.126,5.125-.126,7.9,0,3.276.126,4.621,2.478,4.621a8.037,8.037,0,0,0,.967-.085c.126,0,.21-.042.336-.042a1.8,1.8,0,0,1,1.806,1.849c0,1.512-1.386,2.226-3.571,2.226-6.216,0-6.216-5.5-6.216-7.225,0-2.437.084-6.637.084-8.486v-.629c0-.546-.252-.588-.672-.588H181.1a1.91,1.91,0,0,1-1.891-2.017,1.839,1.839,0,0,1,1.891-1.933h1.218c.673,0,.715-.126.715-.713,0,0,.041-.84.041-1.807,0-.5,0-1.008-.041-1.47v-.126a1.907,1.907,0,0,1,2.1-1.89A2.2,2.2,0,0,1,187.36,77.5c0,1.134-.084,2.731-.084,2.731,0,.671.168.713.589.713h2.814a1.816,1.816,0,0,1,1.848,1.975,1.838,1.838,0,0,1-1.848,1.975Z"
          transform="translate(0 -11.122)"/>
    <path class="cls-1"
          d="M205.546,84.891c-.631,0-.631.21-.631.462,0,1.553-.126,5.125-.126,7.9,0,3.276.126,4.621,2.479,4.621a8.037,8.037,0,0,0,.967-.085c.126,0,.21-.042.336-.042a1.8,1.8,0,0,1,1.805,1.849c0,1.512-1.385,2.226-3.57,2.226-6.217,0-6.217-5.5-6.217-7.225,0-2.437.084-6.637.084-8.486v-.629c0-.546-.252-.588-.673-.588h-1.259a1.91,1.91,0,0,1-1.891-2.017,1.839,1.839,0,0,1,1.891-1.933h1.217c.673,0,.715-.126.715-.713,0,0,.042-.84.042-1.807,0-.5,0-1.008-.042-1.47v-.126a1.908,1.908,0,0,1,2.1-1.89A2.2,2.2,0,0,1,205,77.5c0,1.134-.084,2.731-.084,2.731,0,.671.168.713.589.713h2.815a1.816,1.816,0,0,1,1.847,1.975,1.837,1.837,0,0,1-1.847,1.975Z"
          transform="translate(0 -11.122)"/>
    <path class="cls-1"
          d="M225.537,101.9c-5.754,0-10.039-4.327-10.039-10.586,0-6.426,4.536-10.838,9.955-10.838,5.8,0,9.075,4.244,9.075,7.436,0,1.975-1.3,3.57-3.992,3.654-1.3.042-2.184.042-10.334.042-.252,0-.335.336-.335.8A5.529,5.529,0,0,0,225.579,98a7.077,7.077,0,0,0,5.461-2.562,1.91,1.91,0,0,1,1.429-.673,2.292,2.292,0,0,1,2.227,2.184,2.009,2.009,0,0,1-.63,1.471A10.578,10.578,0,0,1,225.537,101.9Zm4.622-14.7c0-.589-.882-3.067-4.664-3.067-3.4,0-5.251,2.941-5.251,3.655,0,.378.421.378,4.328.378,1.722,0,3.612,0,4.747-.042A.888.888,0,0,0,230.159,87.2Z"
          transform="translate(0 -11.122)"/>
    <path class="cls-1"
          d="M260.819,101.441c-.84-.042-2.184-.042-3.445-.042-.882,0-1.722,0-2.226.042a1.909,1.909,0,0,1-2.269-1.932,1.985,1.985,0,0,1,2.1-2.017h.294c.42,0,.631-.168.631-.63,0-1.3.042-2.772.042-4.116,0-1.975-.042-3.7-.085-4.411-.168-2.856-1.974-4.033-3.907-4.033-2.436,0-5.125,1.848-5.251,4.495-.042.756-.042,1.891-.042,3.276s0,3.068.042,4.957c0,.462.294.462.714.462a1.945,1.945,0,0,1,2.311,1.933,2.047,2.047,0,0,1-2.227,2.016h-.084c-.84-.042-2.183-.042-3.444-.042-.882,0-1.723,0-2.227.042a1.908,1.908,0,0,1-2.268-1.932,1.985,1.985,0,0,1,2.1-2.017h.378c.378,0,.5-.126.5-.588.085-4.284.127-5,.127-6.594,0-.883,0-1.975-.042-4.034a1,1,0,0,0-1.009-1.049h-.252a1.91,1.91,0,0,1-1.89-2.1,2.037,2.037,0,0,1,2.058-2.185c.5,0,.588-.042,1.008-.042h.253c1.722,0,3.109.42,3.78,1.513.042.084.084.126.168.126s.21-.126.42-.294a9.589,9.589,0,0,1,5.671-1.765c3.572,0,7.226,1.891,7.394,7.226.042,1.68.126,6.049.126,9.2a.517.517,0,0,0,.546.588,2.114,2.114,0,0,1,2.352,2.017,2.026,2.026,0,0,1-2.268,1.932Z"
          transform="translate(0 -11.122)"/>
    <path class="cls-1"
          d="M275.349,84.891c-.631,0-.631.21-.631.462,0,1.553-.126,5.125-.126,7.9,0,3.276.126,4.621,2.479,4.621a8.021,8.021,0,0,0,.966-.085c.126,0,.21-.042.336-.042a1.8,1.8,0,0,1,1.806,1.849c0,1.512-1.386,2.226-3.57,2.226-6.217,0-6.217-5.5-6.217-7.225,0-2.437.084-6.637.084-8.486v-.629c0-.546-.252-.588-.673-.588h-1.26a1.909,1.909,0,0,1-1.89-2.017,1.839,1.839,0,0,1,1.89-1.933h1.218c.673,0,.715-.126.715-.713,0,0,.042-.84.042-1.807,0-.5,0-1.008-.042-1.47v-.126a1.908,1.908,0,0,1,2.1-1.89A2.2,2.2,0,0,1,274.8,77.5c0,1.134-.084,2.731-.084,2.731,0,.671.168.713.589.713h2.814a1.816,1.816,0,0,1,1.848,1.975,1.838,1.838,0,0,1-1.848,1.975Z"
          transform="translate(0 -11.122)"/>
    <path class="cls-1"
          d="M287.99,80.857c3.066.042,4.326,1.471,4.326,4.5v.168c-.084,5.8-.168,8.905-.168,11a.716.716,0,0,0,.715.8,2.1,2.1,0,1,1,.084,4.159h-.084c-.883-.042-2.353-.042-3.656-.042-1.007,0-1.89,0-2.394.042a2.044,2.044,0,0,1-2.395-2.058,2.086,2.086,0,0,1,2.227-2.1h.672c.547,0,.715-.126.715-.882.042-1.932.084-4.495.084-7.393v-2.1c0-1.176-.126-1.637-1.177-1.637h-.42a1.953,1.953,0,0,1-1.933-2.143,2.12,2.12,0,0,1,2.059-2.311Zm-1.555-8.485a2.85,2.85,0,0,1,2.94-2.856,2.959,2.959,0,0,1,2.941,2.856,2.928,2.928,0,0,1-2.941,2.982A2.787,2.787,0,0,1,286.435,72.372Z"
          transform="translate(0 -11.122)"/>
    <path class="cls-1"
          d="M300.169,91.191a10.565,10.565,0,1,1,21.13,0,10.565,10.565,0,1,1-21.13,0Zm16.887,0c0-4.159-2.856-6.8-6.3-6.8s-6.344,2.645-6.344,6.8c0,4.118,2.857,6.722,6.344,6.722S317.056,95.309,317.056,91.191Z"
          transform="translate(0 -11.122)"/>
    <path class="cls-1"
          d="M347.631,101.441c-.84-.042-2.183-.042-3.444-.042-.882,0-1.723,0-2.227.042a1.908,1.908,0,0,1-2.268-1.932,1.985,1.985,0,0,1,2.1-2.017h.294c.42,0,.631-.168.631-.63,0-1.3.042-2.772.042-4.116,0-1.975-.042-3.7-.085-4.411-.168-2.856-1.974-4.033-3.906-4.033-2.437,0-5.125,1.848-5.251,4.495-.042.756-.042,1.891-.042,3.276s0,3.068.042,4.957c0,.462.294.462.714.462a1.945,1.945,0,0,1,2.31,1.933,2.046,2.046,0,0,1-2.226,2.016h-.084c-.84-.042-2.184-.042-3.445-.042-.881,0-1.722,0-2.226.042a1.909,1.909,0,0,1-2.269-1.932,1.985,1.985,0,0,1,2.1-2.017h.378c.378,0,.5-.126.5-.588.085-4.284.127-5,.127-6.594,0-.883,0-1.975-.042-4.034a1,1,0,0,0-1.009-1.049H328.1a1.91,1.91,0,0,1-1.891-2.1,2.037,2.037,0,0,1,2.059-2.185c.5,0,.588-.042,1.008-.042h.253c1.721,0,3.108.42,3.78,1.513.042.084.084.126.168.126s.21-.126.42-.294a9.586,9.586,0,0,1,5.671-1.765c3.571,0,7.225,1.891,7.393,7.226.042,1.68.126,6.049.126,9.2a.517.517,0,0,0,.546.588,2.115,2.115,0,0,1,2.353,2.017,2.026,2.026,0,0,1-2.269,1.932Z"
          transform="translate(0 -11.122)"/>
    <path class="cls-1"
          d="M355.777,103.248a2.013,2.013,0,0,1-2.1-1.891,1.944,1.944,0,0,1,.168-.8c1.933-4.831,10.754-27.936,11.679-31.3a1.782,1.782,0,0,1,1.8-1.345,1.871,1.871,0,0,1,2.059,2.52c-1.176,2.941-9.745,25.835-11.8,31.506A1.877,1.877,0,0,1,355.777,103.248Z"
          transform="translate(0 -11.122)"/>
    <path class="cls-1"
          d="M380.642,94.552c-3.907,2.394-6.092-1.932-3.192-3.361,6.762-3.318,13.484-9.83,17.642-16.34a26.6,26.6,0,0,0,1.513-3.319c.882-2.478,5.8-1.219,4.326,1.89a16.36,16.36,0,0,1-2.059,3.655c-1.175,1.554-2.309,3.025-3.444,4.41a1.585,1.585,0,0,1,.378.631c.336.924.336,1.3.21,4.158-.168,3.277-.126,9.662,0,14.2a2.456,2.456,0,0,1-2.226,2.815c-1.092.126-2.268-.673-2.226-2.52.042-4.5.5-10.041.336-14.032a10.325,10.325,0,0,0-.084-1.176A52.988,52.988,0,0,1,380.642,94.552Z"
          transform="translate(0 -11.122)"/>
    <path class="cls-1"
          d="M443.9,97.7a52.991,52.991,0,0,1-7.142-5.671c-2.982-2.6-6.427-5.629-8.527-7.182-1.849-1.387-2.731-1.219-4.326.042-2.563,2.057-4.621,3.7-6.68,5.083-2.857,1.889-5.755-2.227-2.311-4.16,1.009-.587,4.034-2.352,6.554-4.2,3.36-2.435,5.8-2.351,9.031-.042,1.681,1.219,4.621,3.656,7.646,6.008a96.609,96.609,0,0,0,8.737,6.133,2.267,2.267,0,0,1,.5,3.318A2.686,2.686,0,0,1,443.9,97.7ZM434.658,80.27c-2.227-.924-.5-3.571,1.511-2.815a14.317,14.317,0,0,1,4.369,2.647c1.722,1.806-.882,4.495-2.31,2.772A15.911,15.911,0,0,0,434.658,80.27Zm3.99-3.823c-2.227-.841-.63-3.529,1.428-2.857a13.842,13.842,0,0,1,4.453,2.478c1.764,1.765-.714,4.5-2.227,2.857A14.745,14.745,0,0,0,438.648,76.447Z"
          transform="translate(0 -11.122)"/>
    <path class="cls-1"
          d="M469.263,83.672a17.346,17.346,0,0,0-5.966-2.857c-2.52-.545-1.47-4.747,1.723-3.948a25.839,25.839,0,0,1,6.931,2.815,2.413,2.413,0,0,1,.714,3.4A2.265,2.265,0,0,1,469.263,83.672Zm1.806,15.837a9.021,9.021,0,0,1-4.033,1.345c-3.487.293-3.991-4.118-1.3-4.412a14.469,14.469,0,0,0,3.234-1.049c7.6-3.446,14.409-10.292,18.651-18.484,1.387-2.646,5.629-.883,3.782,2.479A47.411,47.411,0,0,1,471.069,99.509Z"
          transform="translate(0 -11.122)"/>
    <path class="cls-1"
          d="M512.441,100.518c.042,1.973-1.093,3.066-2.269,3.192s-2.394-.673-2.31-2.563c.252-6.847.336-20.08.168-26.17a18.867,18.867,0,0,0-.378-3.529c-.756-2.982,4.074-3.571,4.452-.673a14.732,14.732,0,0,1,.169,3.74c-.042,1.679-.042,4.116-.042,6.93a2.035,2.035,0,0,1,.714,0c2.1.21,7.645,1.387,9.913,3.824,1.974,2.142-.924,5.5-3.109,3.444-1.637-1.554-5.377-2.857-7.518-3.151C512.273,90.981,512.357,96.778,512.441,100.518Z"
          transform="translate(0 -11.122)"/>
    <path class="cls-1"
          d="M540.367,100.349a27.058,27.058,0,0,1-1.091-8.024c0-7.392,2.142-14.618,2.352-17.516a2.064,2.064,0,0,1,4.116-.168,1.044,1.044,0,0,1-.042.336c-.587,3.066-2.73,10.837-2.73,15,0,1.553.294,1.721.42,1.721.084,0,.21-.084.294-.294,1.3-2.478,1.6-2.982,2.478-2.982a1.826,1.826,0,0,1,1.723,1.765,1.291,1.291,0,0,1-.21.755c-2.017,3.487-3.15,6.637-3.15,7.9,0,.378.042.756.042,1.134a1.974,1.974,0,0,1-2.1,2.184A2.246,2.246,0,0,1,540.367,100.349Zm23.357-.252c-7.268,0-12.813-4.326-12.813-6.385a2.106,2.106,0,0,1,2.185-1.975,2.471,2.471,0,0,1,1.891.925c1.763,1.974,4.746,2.815,8.149,2.815a25.962,25.962,0,0,0,3.57-.252,2.045,2.045,0,0,1,.5-.042,1.938,1.938,0,0,1,2.1,2.015C569.311,99.383,567.462,100.1,563.724,100.1Zm-4.747-18.442a23.72,23.72,0,0,1-5.671-.63,1.936,1.936,0,0,1,.168-3.864,1.576,1.576,0,0,1,.42.042,19.753,19.753,0,0,0,4.075.42,40.223,40.223,0,0,0,5.167-.42c.126,0,.252-.042.378-.042a1.929,1.929,0,0,1,2.016,1.975C565.53,80.815,564.354,81.655,558.977,81.655Z"
          transform="translate(0 -11.122)"/>
    <path class="cls-1"
          d="M586.233,85.353c0,4.705-.042,11.047-.168,17.054a1.911,1.911,0,0,1-2.059,1.849,1.848,1.848,0,0,1-1.974-1.765v-.084c.294-7.771.21-21.676.294-30.539,0-3.865,2.563-3.991,7.225-3.991,1.681,0,3.4,0,4.2.042,2.143.084,3.781,1.387,3.865,3.235.042,1.428.083,2.9.083,4.326,0,5.167-.041,6.133-8.527,6.133-1.134,0-2.184-.042-2.94-.084Zm7.729-11.931c0-.462-.042-.882-.042-1.26-.084-1.218-.546-1.261-3.781-1.261-3.486,0-3.78.085-3.864,1.6,0,.294-.042.588-.042.924Zm-7.729,2.688v2.479c.63.042,1.89.042,3.192.042,4.159,0,4.453-.168,4.5-1.3,0-.378.042-.8.042-1.219Zm21.256,18.316-7.31-.126a1.712,1.712,0,0,1,.294.084c.378.126,6.386,2.94,6.386,5a1.7,1.7,0,0,1-.168.8,1.494,1.494,0,0,1,.8-.21,1.044,1.044,0,0,1,.336.042,15.158,15.158,0,0,0,2.184.252c1.3,0,2.227-.5,2.269-2.563.042-1.68.084-3.612.084-5.587,0-3.024-.042-6.217-.042-8.863V81.529c-.757.042-1.891.084-3.109.084-5.293,0-8.612-.042-8.738-3.57-.042-.8-.042-1.68-.042-2.563,0-1.427.042-2.9.084-4.326.084-1.848,1.639-3.151,3.781-3.235.8-.042,2.6-.042,4.326-.042,1.261,0,2.437,0,3.152.042,3.15.168,4.41,1.765,4.41,3.613v3.109c0,6.3.084,13.19.084,18.567,0,2.017.042,3.78.042,5.251,0,3.024-1.512,5.671-6.091,5.671-2.143,0-4.327-.168-4.327-2.311a1.85,1.85,0,0,1,.084-.672,1.988,1.988,0,0,1-1.134.42,1.427,1.427,0,0,1-1.219-.629,18.979,18.979,0,0,0-4.494-3.95c-2.352,4.285-7.981,5.293-8.906,5.293a1.571,1.571,0,0,1-1.638-1.679,1.627,1.627,0,0,1,1.26-1.681c3.823-.672,5.755-2.017,6.6-4.579l-5.839.084h-.042A1.492,1.492,0,0,1,588.879,93a1.621,1.621,0,0,1,1.723-1.555h6.343c.042-.63.042-1.343.042-2.058h-5.545a1.492,1.492,0,0,1-1.681-1.428,1.577,1.577,0,0,1,1.681-1.513h3.318a10.305,10.305,0,0,0-1.512-2.352A1.117,1.117,0,0,1,593,83.42c0-.8,1.008-1.386,1.932-1.386,1.429,0,3.066,2.6,3.066,3.445a1.688,1.688,0,0,1-.335.965h2.016a36.741,36.741,0,0,0,1.6-3.822,1.383,1.383,0,0,1,1.428-.882c.965,0,2.142.714,2.142,1.638,0,.378-.126.672-1.555,3.066h3.067a1.446,1.446,0,0,1,1.6,1.471,1.467,1.467,0,0,1-1.6,1.47H600.6c0,.715,0,1.386-.042,2.058h6.932a1.476,1.476,0,0,1,1.595,1.513,1.432,1.432,0,0,1-1.553,1.47Zm4.747-21c0-2.478-.168-2.521-3.992-2.521-3.486,0-3.948.043-4.032,1.3,0,.378-.042.8-.042,1.218Zm.084,2.688h-8.15c0,.421.042.841.042,1.219.042,1.3.966,1.3,4.7,1.3,1.387,0,2.815,0,3.4-.042Z"
          transform="translate(0 -11.122)"/>
    <path class="cls-1"
          d="M641.717,102.071c-8.4,0-8.737-4.873-8.737-9.031,0-4.789.5-10.88.5-15.837a39.754,39.754,0,0,0-.252-4.789c0-.126-.042-.294-.042-.42a2.069,2.069,0,0,1,2.184-2.1,2.281,2.281,0,0,1,2.353,2.016q.126,1.386.126,3.025c0,5.167-.883,11.761-.883,17.39,0,3.446.168,5.546,4.327,5.546a28.914,28.914,0,0,0,10.04-2.184,3.357,3.357,0,0,1,1.3-.294,1.973,1.973,0,0,1,2.059,2.015,2.891,2.891,0,0,1-2.059,2.647A32.744,32.744,0,0,1,641.717,102.071Z"
          transform="translate(0 -11.122)"/>
    <path class="cls-1"
          d="M687.709,101.693h-.42c-9.115-.839-14.871-7.141-14.871-13.61a11.823,11.823,0,0,1,3.026-7.687.864.864,0,0,0,.21-.378.09.09,0,0,0-.084-.084,1.423,1.423,0,0,0-.421.168c-6.6,3.4-7.393,3.654-8.318,3.654a2.248,2.248,0,0,1-.63-4.452c.882-.294,3.277-1.009,4.538-1.471,1.973-.714,5.461-1.807,9.619-3.444,3.108-1.219,7.225-2.6,11.132-2.6,2.1,0,2.857.966,2.857,2.059,0,2.141-1.765,2.6-3.361,2.6a7.763,7.763,0,0,1-.966-.042,8.093,8.093,0,0,0-1.008-.042c-6.512,0-12.9,5.545-12.9,11.174,0,5.041,4.789,9.325,11.383,9.325,2.1,0,3.109,1.219,3.109,2.479C690.608,100.518,689.642,101.693,687.709,101.693Z"
          transform="translate(0 -11.122)"/>
  </g>
  <path class="cls-3"
        d="M75.83,67.894h.756c1.093,0,2.437-.042,3.361-.084h.126a2.146,2.146,0,0,1,2.268,2.226,2.052,2.052,0,0,1-1.806,2.143c-.714.084-.756.294-.756,1.008.084,5.418.756,15.375,1.134,21.255.042.462.294.588.84.63h.252a2.107,2.107,0,0,1,2.269,2.143,2.217,2.217,0,0,1-2.353,2.226h-.168c-1.092-.042-2.142-.084-3.192-.084-1.219,0-2.4.042-3.4.084a2.281,2.281,0,0,1-2.521-2.184,2.175,2.175,0,0,1,2.311-2.185h.461c.42,0,.714-.126.714-.672v-.126c-.378-6.931-.546-19.575-.546-19.575-.042-1.135-.21-1.6-.419-1.6-.252,0-.589.587-.8,1.47-.924,3.487-5.251,17.181-6.973,21.718a3.585,3.585,0,0,1-3.234,2.353,3.219,3.219,0,0,1-2.942-2.311C59.867,93.1,56.171,79.7,54.617,74.741c-.21-.757-.462-1.177-.672-1.177-.378,0-.5,1.219-.546,1.6-.253,3.486-.715,18.064-.715,19.113,0,.588.294.714,1.135.8H53.9a2.2,2.2,0,1,1,.084,4.369h-.168c-1.093-.042-2.143-.084-3.194-.084-1.217,0-2.393.042-3.4.084A2.281,2.281,0,0,1,44.7,97.257a2.175,2.175,0,0,1,2.311-2.185h.336c.546,0,.8-.21.841-.84.294-6.721.84-15.417,1.134-20.92v-.419c0-.462-.084-.63-.672-.63-2.521,0-2.647-1.555-2.647-2.227a2.135,2.135,0,0,1,2.227-2.226h.252c.63.042,1.427.084,2.31.084.63,0,1.3-.042,1.89-.042h.21a4.644,4.644,0,0,1,4.621,3.4c.8,2.52,2.143,7.1,3.4,11.259,2.563,8.4,3.025,9.493,3.446,9.493.168,0,.336-.168.462-.5,1.595-3.865,4.915-15.627,6.594-20.458a4.46,4.46,0,0,1,4.327-3.15Z"
        transform="translate(0 -11.122)"/>
  <path class="cls-3"
        d="M101.95,92.384a.419.419,0,0,0-.461-.462c-3.991.042-7.982.042-8.4.042-2.814,0-4.242-1.3-4.242-3.151a5.451,5.451,0,0,1,1.176-3.15c2.52-3.571,9.452-12.98,12.56-17.14a2,2,0,0,1,1.68-.881,2.553,2.553,0,0,1,2.479,2.394,2.673,2.673,0,0,1-.63,1.6c-1.891,2.309-9.788,12.139-12.14,15.374a.9.9,0,0,0-.253.588c0,.547.631.547,1.555.547,1.3,0,3.7-.042,6.175-.084a.532.532,0,0,0,.588-.589V85.285c0-1.639,0-2.9-.043-3.739v-.168a2.152,2.152,0,0,1,2.185-2.227,2.2,2.2,0,0,1,2.185,2.4c0,1.891-.042,3.066-.084,5.839,0,.336.042.5.462.5,1.344-.042,2.268-.042,2.436-.042h.126a1.969,1.969,0,0,1,2.1,1.931,2.18,2.18,0,0,1-2.4,2.059c-.672.042-1.344.042-2.016.042-.294,0-.714.042-.714.462,0,.672.042,1.806.042,2.6,0,.462.168.63,1.176.63h.084c1.638,0,2.436.967,2.436,1.975a2.041,2.041,0,0,1-2.31,1.932h-.21c-1.134-.042-2.394-.042-3.613-.042-1.176,0-2.31,0-3.234.042-1.218.042-2.479-.462-2.479-1.932a2.047,2.047,0,0,1,2.311-1.975h.168l.5.042c.378,0,.8-.084.8-.546Z"
        transform="translate(0 -11.122)"/>
  <path class="cls-3"
        d="M119.967,99.609a2.715,2.715,0,0,1-2.94-2.94,2.85,2.85,0,0,1,2.94-2.857,2.9,2.9,0,0,1,2.983,2.815A3.02,3.02,0,0,1,119.967,99.609Z"
        transform="translate(0 -11.122)"/>
  <path class="cls-3"
        d="M164.279,95.24a.655.655,0,0,0,.63-.672c0-.084-1.092-3.7-1.6-5.209a.713.713,0,0,0-.672-.588h-9.62c-.546.084-.714.168-.882.714-.42,1.429-1.429,4.915-1.429,4.915a.961.961,0,0,0,.967.84,2.167,2.167,0,0,1,2.521,2.143,2.112,2.112,0,0,1-2.311,2.1h-.168c-1.051-.042-2.143-.084-3.234-.084-1.345,0-2.563.042-3.572.084h-.168a2.142,2.142,0,0,1-2.31-2.142,2.1,2.1,0,0,1,2.268-2.1h.21c.672,0,1.093-.714,1.261-1.26,2.437-7.6,6.343-18.567,8.024-23.524a3.646,3.646,0,0,1,3.444-2.772,3.974,3.974,0,0,1,3.654,2.9c2.227,6.385,6.344,17.98,8.4,23.4.126.378.672,1.26,1.344,1.26a2.2,2.2,0,0,1,2.479,2.143,2.149,2.149,0,0,1-2.353,2.1H171c-1.05-.042-2.142-.084-3.234-.084-1.345,0-2.563.042-3.571.084a2.168,2.168,0,0,1-2.437-2.1,2.13,2.13,0,0,1,2.269-2.143h.252Zm-2.983-10.5c.252-.042.378-.084.378-.21,0-.294-2.9-9.157-3.234-10.207-.252-.757-.462-1.092-.672-1.092s-.462.419-.756,1.26c-.967,2.6-3.192,10-3.192,10,0,.126.084.168.42.252Z"
        transform="translate(0 -11.122)"/>
  <path class="cls-3"
        d="M185.907,82.891c-.631,0-.631.21-.631.462,0,1.553-.126,5.125-.126,7.9,0,3.276.126,4.621,2.478,4.621a8.037,8.037,0,0,0,.967-.085c.126,0,.21-.042.336-.042a1.8,1.8,0,0,1,1.806,1.849c0,1.512-1.386,2.226-3.571,2.226-6.216,0-6.216-5.5-6.216-7.225,0-2.437.084-6.637.084-8.486v-.629c0-.546-.252-.588-.672-.588H179.1a1.91,1.91,0,0,1-1.891-2.017,1.839,1.839,0,0,1,1.891-1.933h1.218c.673,0,.715-.126.715-.713,0,0,.041-.84.041-1.807,0-.5,0-1.008-.041-1.47v-.126a1.907,1.907,0,0,1,2.1-1.89A2.2,2.2,0,0,1,185.36,75.5c0,1.134-.084,2.731-.084,2.731,0,.671.168.713.589.713h2.814a1.816,1.816,0,0,1,1.848,1.975,1.838,1.838,0,0,1-1.848,1.975Z"
        transform="translate(0 -11.122)"/>
  <path class="cls-3"
        d="M203.546,82.891c-.631,0-.631.21-.631.462,0,1.553-.126,5.125-.126,7.9,0,3.276.126,4.621,2.479,4.621a8.037,8.037,0,0,0,.967-.085c.126,0,.21-.042.336-.042a1.8,1.8,0,0,1,1.805,1.849c0,1.512-1.385,2.226-3.57,2.226-6.217,0-6.217-5.5-6.217-7.225,0-2.437.084-6.637.084-8.486v-.629c0-.546-.252-.588-.673-.588h-1.259a1.91,1.91,0,0,1-1.891-2.017,1.839,1.839,0,0,1,1.891-1.933h1.217c.673,0,.715-.126.715-.713,0,0,.042-.84.042-1.807,0-.5,0-1.008-.042-1.47v-.126a1.908,1.908,0,0,1,2.1-1.89A2.2,2.2,0,0,1,203,75.5c0,1.134-.084,2.731-.084,2.731,0,.671.168.713.589.713h2.815a1.816,1.816,0,0,1,1.847,1.975,1.837,1.837,0,0,1-1.847,1.975Z"
        transform="translate(0 -11.122)"/>
  <path class="cls-3"
        d="M223.537,99.9c-5.754,0-10.039-4.327-10.039-10.586,0-6.426,4.536-10.838,9.955-10.838,5.8,0,9.075,4.244,9.075,7.436,0,1.975-1.3,3.57-3.992,3.654-1.3.042-2.184.042-10.334.042-.252,0-.335.336-.335.8A5.529,5.529,0,0,0,223.579,96a7.077,7.077,0,0,0,5.461-2.562,1.91,1.91,0,0,1,1.429-.673,2.292,2.292,0,0,1,2.227,2.184,2.009,2.009,0,0,1-.63,1.471A10.578,10.578,0,0,1,223.537,99.9Zm4.622-14.7c0-.589-.882-3.067-4.664-3.067-3.4,0-5.251,2.941-5.251,3.655,0,.378.421.378,4.328.378,1.722,0,3.612,0,4.747-.042A.888.888,0,0,0,228.159,85.2Z"
        transform="translate(0 -11.122)"/>
  <path class="cls-3"
        d="M258.819,99.441c-.84-.042-2.184-.042-3.445-.042-.882,0-1.722,0-2.226.042a1.909,1.909,0,0,1-2.269-1.932,1.985,1.985,0,0,1,2.1-2.017h.294c.42,0,.631-.168.631-.63,0-1.3.042-2.772.042-4.116,0-1.975-.042-3.7-.085-4.411-.168-2.856-1.974-4.033-3.907-4.033-2.436,0-5.125,1.848-5.251,4.495-.042.756-.042,1.891-.042,3.276s0,3.068.042,4.957c0,.462.294.462.714.462a1.945,1.945,0,0,1,2.311,1.933,2.047,2.047,0,0,1-2.227,2.016h-.084c-.84-.042-2.183-.042-3.444-.042-.882,0-1.723,0-2.227.042a1.908,1.908,0,0,1-2.268-1.932,1.985,1.985,0,0,1,2.1-2.017h.378c.378,0,.5-.126.5-.588.085-4.284.127-5,.127-6.594,0-.883,0-1.975-.042-4.034a1,1,0,0,0-1.009-1.049h-.252a1.91,1.91,0,0,1-1.89-2.1,2.037,2.037,0,0,1,2.058-2.185c.5,0,.588-.042,1.008-.042h.253c1.722,0,3.109.42,3.78,1.513.042.084.084.126.168.126s.21-.126.42-.294a9.589,9.589,0,0,1,5.671-1.765c3.572,0,7.226,1.891,7.394,7.226.042,1.68.126,6.049.126,9.2a.517.517,0,0,0,.546.588,2.114,2.114,0,0,1,2.352,2.017,2.026,2.026,0,0,1-2.268,1.932Z"
        transform="translate(0 -11.122)"/>
  <path class="cls-3"
        d="M273.349,82.891c-.631,0-.631.21-.631.462,0,1.553-.126,5.125-.126,7.9,0,3.276.126,4.621,2.479,4.621a8.021,8.021,0,0,0,.966-.085c.126,0,.21-.042.336-.042a1.8,1.8,0,0,1,1.806,1.849c0,1.512-1.386,2.226-3.57,2.226-6.217,0-6.217-5.5-6.217-7.225,0-2.437.084-6.637.084-8.486v-.629c0-.546-.252-.588-.673-.588h-1.26a1.909,1.909,0,0,1-1.89-2.017,1.839,1.839,0,0,1,1.89-1.933h1.218c.673,0,.715-.126.715-.713,0,0,.042-.84.042-1.807,0-.5,0-1.008-.042-1.47v-.126a1.908,1.908,0,0,1,2.1-1.89A2.2,2.2,0,0,1,272.8,75.5c0,1.134-.084,2.731-.084,2.731,0,.671.168.713.589.713h2.814a1.816,1.816,0,0,1,1.848,1.975,1.838,1.838,0,0,1-1.848,1.975Z"
        transform="translate(0 -11.122)"/>
  <path class="cls-3"
        d="M285.99,78.857c3.066.042,4.326,1.471,4.326,4.5v.168c-.084,5.8-.168,8.905-.168,11a.716.716,0,0,0,.715.8,2.1,2.1,0,1,1,.084,4.159h-.084c-.883-.042-2.353-.042-3.656-.042-1.007,0-1.89,0-2.394.042a2.044,2.044,0,0,1-2.395-2.058,2.086,2.086,0,0,1,2.227-2.1h.672c.547,0,.715-.126.715-.882.042-1.932.084-4.495.084-7.393v-2.1c0-1.176-.126-1.637-1.177-1.637h-.42a1.953,1.953,0,0,1-1.933-2.143,2.12,2.12,0,0,1,2.059-2.311Zm-1.555-8.485a2.85,2.85,0,0,1,2.94-2.856,2.959,2.959,0,0,1,2.941,2.856,2.928,2.928,0,0,1-2.941,2.982A2.787,2.787,0,0,1,284.435,70.372Z"
        transform="translate(0 -11.122)"/>
  <path class="cls-3"
        d="M298.169,89.191a10.565,10.565,0,1,1,21.13,0,10.565,10.565,0,1,1-21.13,0Zm16.887,0c0-4.159-2.856-6.8-6.3-6.8s-6.344,2.645-6.344,6.8c0,4.118,2.857,6.722,6.344,6.722S315.056,93.309,315.056,89.191Z"
        transform="translate(0 -11.122)"/>
  <path class="cls-3"
        d="M345.631,99.441c-.84-.042-2.183-.042-3.444-.042-.882,0-1.723,0-2.227.042a1.908,1.908,0,0,1-2.268-1.932,1.985,1.985,0,0,1,2.1-2.017h.294c.42,0,.631-.168.631-.63,0-1.3.042-2.772.042-4.116,0-1.975-.042-3.7-.085-4.411-.168-2.856-1.974-4.033-3.906-4.033-2.437,0-5.125,1.848-5.251,4.495-.042.756-.042,1.891-.042,3.276s0,3.068.042,4.957c0,.462.294.462.714.462a1.945,1.945,0,0,1,2.31,1.933,2.046,2.046,0,0,1-2.226,2.016h-.084c-.84-.042-2.184-.042-3.445-.042-.881,0-1.722,0-2.226.042a1.909,1.909,0,0,1-2.269-1.932,1.985,1.985,0,0,1,2.1-2.017h.378c.378,0,.5-.126.5-.588.085-4.284.127-5,.127-6.594,0-.883,0-1.975-.042-4.034a1,1,0,0,0-1.009-1.049H326.1a1.91,1.91,0,0,1-1.891-2.1,2.037,2.037,0,0,1,2.059-2.185c.5,0,.588-.042,1.008-.042h.253c1.721,0,3.108.42,3.78,1.513.042.084.084.126.168.126s.21-.126.42-.294a9.586,9.586,0,0,1,5.671-1.765c3.571,0,7.225,1.891,7.393,7.226.042,1.68.126,6.049.126,9.2a.517.517,0,0,0,.546.588,2.115,2.115,0,0,1,2.353,2.017,2.026,2.026,0,0,1-2.269,1.932Z"
        transform="translate(0 -11.122)"/>
  <path class="cls-3"
        d="M353.777,101.248a2.013,2.013,0,0,1-2.1-1.891,1.944,1.944,0,0,1,.168-.8c1.933-4.831,10.754-27.936,11.679-31.3a1.782,1.782,0,0,1,1.8-1.345,1.871,1.871,0,0,1,2.059,2.52c-1.176,2.941-9.745,25.835-11.8,31.506A1.877,1.877,0,0,1,353.777,101.248Z"
        transform="translate(0 -11.122)"/>
  <path class="cls-3"
        d="M378.642,92.552c-3.907,2.394-6.092-1.932-3.192-3.361,6.762-3.318,13.484-9.83,17.642-16.34a26.6,26.6,0,0,0,1.513-3.319c.882-2.478,5.8-1.219,4.326,1.89a16.36,16.36,0,0,1-2.059,3.655c-1.175,1.554-2.309,3.025-3.444,4.41a1.585,1.585,0,0,1,.378.631c.336.924.336,1.3.21,4.158-.168,3.277-.126,9.662,0,14.2a2.456,2.456,0,0,1-2.226,2.815c-1.092.126-2.268-.673-2.226-2.52.042-4.5.5-10.041.336-14.032a10.325,10.325,0,0,0-.084-1.176A52.988,52.988,0,0,1,378.642,92.552Z"
        transform="translate(0 -11.122)"/>
  <path class="cls-3"
        d="M441.9,95.7a52.991,52.991,0,0,1-7.142-5.671c-2.982-2.6-6.427-5.629-8.527-7.182-1.849-1.387-2.731-1.219-4.326.042-2.563,2.057-4.621,3.7-6.68,5.083-2.857,1.889-5.755-2.227-2.311-4.16,1.009-.587,4.034-2.352,6.554-4.2,3.36-2.435,5.8-2.351,9.031-.042,1.681,1.219,4.621,3.656,7.646,6.008a96.609,96.609,0,0,0,8.737,6.133,2.267,2.267,0,0,1,.5,3.318A2.686,2.686,0,0,1,441.9,95.7ZM432.658,78.27c-2.227-.924-.5-3.571,1.511-2.815a14.317,14.317,0,0,1,4.369,2.647c1.722,1.806-.882,4.495-2.31,2.772A15.911,15.911,0,0,0,432.658,78.27Zm3.99-3.823c-2.227-.841-.63-3.529,1.428-2.857a13.842,13.842,0,0,1,4.453,2.478c1.764,1.765-.714,4.5-2.227,2.857A14.745,14.745,0,0,0,436.648,74.447Z"
        transform="translate(0 -11.122)"/>
  <path class="cls-3"
        d="M467.263,81.672a17.346,17.346,0,0,0-5.966-2.857c-2.52-.545-1.47-4.747,1.723-3.948a25.839,25.839,0,0,1,6.931,2.815,2.413,2.413,0,0,1,.714,3.4A2.265,2.265,0,0,1,467.263,81.672Zm1.806,15.837a9.021,9.021,0,0,1-4.033,1.345c-3.487.293-3.991-4.118-1.3-4.412a14.469,14.469,0,0,0,3.234-1.049c7.6-3.446,14.409-10.292,18.651-18.484,1.387-2.646,5.629-.883,3.782,2.479A47.411,47.411,0,0,1,469.069,97.509Z"
        transform="translate(0 -11.122)"/>
  <path class="cls-3"
        d="M510.441,98.518c.042,1.973-1.093,3.066-2.269,3.192s-2.394-.673-2.31-2.563c.252-6.847.336-20.08.168-26.17a18.867,18.867,0,0,0-.378-3.529c-.756-2.982,4.074-3.571,4.452-.673a14.732,14.732,0,0,1,.169,3.74c-.042,1.679-.042,4.116-.042,6.93a2.035,2.035,0,0,1,.714,0c2.1.21,7.645,1.387,9.913,3.824,1.974,2.142-.924,5.5-3.109,3.444-1.637-1.554-5.377-2.857-7.518-3.151C510.273,88.981,510.357,94.778,510.441,98.518Z"
        transform="translate(0 -11.122)"/>
  <path class="cls-3"
        d="M538.367,98.349a27.058,27.058,0,0,1-1.091-8.024c0-7.392,2.142-14.618,2.352-17.516a2.064,2.064,0,0,1,4.116-.168,1.044,1.044,0,0,1-.042.336c-.587,3.066-2.73,10.837-2.73,15,0,1.553.294,1.721.42,1.721.084,0,.21-.084.294-.294,1.3-2.478,1.6-2.982,2.478-2.982a1.826,1.826,0,0,1,1.723,1.765,1.291,1.291,0,0,1-.21.755c-2.017,3.487-3.15,6.637-3.15,7.9,0,.378.042.756.042,1.134a1.974,1.974,0,0,1-2.1,2.184A2.246,2.246,0,0,1,538.367,98.349Zm23.357-.252c-7.268,0-12.813-4.326-12.813-6.385a2.106,2.106,0,0,1,2.185-1.975,2.471,2.471,0,0,1,1.891.925c1.763,1.974,4.746,2.815,8.149,2.815a25.962,25.962,0,0,0,3.57-.252,2.045,2.045,0,0,1,.5-.042,1.938,1.938,0,0,1,2.1,2.015C567.311,97.383,565.462,98.1,561.724,98.1Zm-4.747-18.442a23.72,23.72,0,0,1-5.671-.63,1.936,1.936,0,0,1,.168-3.864,1.576,1.576,0,0,1,.42.042,19.753,19.753,0,0,0,4.075.42,40.223,40.223,0,0,0,5.167-.42c.126,0,.252-.042.378-.042a1.929,1.929,0,0,1,2.016,1.975C563.53,78.815,562.354,79.655,556.977,79.655Z"
        transform="translate(0 -11.122)"/>
  <path class="cls-3"
        d="M584.233,83.353c0,4.705-.042,11.047-.168,17.054a1.911,1.911,0,0,1-2.059,1.849,1.848,1.848,0,0,1-1.974-1.765v-.084c.294-7.771.21-21.676.294-30.539,0-3.865,2.563-3.991,7.225-3.991,1.681,0,3.4,0,4.2.042,2.143.084,3.781,1.387,3.865,3.235.042,1.428.083,2.9.083,4.326,0,5.167-.041,6.133-8.527,6.133-1.134,0-2.184-.042-2.94-.084Zm7.729-11.931c0-.462-.042-.882-.042-1.26-.084-1.218-.546-1.261-3.781-1.261-3.486,0-3.78.085-3.864,1.6,0,.294-.042.588-.042.924Zm-7.729,2.688v2.479c.63.042,1.89.042,3.192.042,4.159,0,4.453-.168,4.5-1.3,0-.378.042-.8.042-1.219Zm21.256,18.316-7.31-.126a1.712,1.712,0,0,1,.294.084c.378.126,6.386,2.94,6.386,5a1.7,1.7,0,0,1-.168.8,1.494,1.494,0,0,1,.8-.21,1.044,1.044,0,0,1,.336.042,15.158,15.158,0,0,0,2.184.252c1.3,0,2.227-.5,2.269-2.563.042-1.68.084-3.612.084-5.587,0-3.024-.042-6.217-.042-8.863V79.529c-.757.042-1.891.084-3.109.084-5.293,0-8.612-.042-8.738-3.57-.042-.8-.042-1.68-.042-2.563,0-1.427.042-2.9.084-4.326.084-1.848,1.639-3.151,3.781-3.235.8-.042,2.6-.042,4.326-.042,1.261,0,2.437,0,3.152.042,3.15.168,4.41,1.765,4.41,3.613v3.109c0,6.3.084,13.19.084,18.567,0,2.017.042,3.78.042,5.251,0,3.024-1.512,5.671-6.091,5.671-2.143,0-4.327-.168-4.327-2.311a1.85,1.85,0,0,1,.084-.672,1.988,1.988,0,0,1-1.134.42,1.427,1.427,0,0,1-1.219-.629,18.979,18.979,0,0,0-4.494-3.95c-2.352,4.285-7.981,5.293-8.906,5.293a1.571,1.571,0,0,1-1.638-1.679,1.627,1.627,0,0,1,1.26-1.681c3.823-.672,5.755-2.017,6.6-4.579l-5.839.084h-.042A1.492,1.492,0,0,1,586.879,91a1.621,1.621,0,0,1,1.723-1.555h6.343c.042-.63.042-1.343.042-2.058h-5.545a1.492,1.492,0,0,1-1.681-1.428,1.577,1.577,0,0,1,1.681-1.513h3.318a10.305,10.305,0,0,0-1.512-2.352A1.117,1.117,0,0,1,591,81.42c0-.8,1.008-1.386,1.932-1.386,1.429,0,3.066,2.6,3.066,3.445a1.688,1.688,0,0,1-.335.965h2.016a36.741,36.741,0,0,0,1.6-3.822,1.383,1.383,0,0,1,1.428-.882c.965,0,2.142.714,2.142,1.638,0,.378-.126.672-1.555,3.066h3.067a1.446,1.446,0,0,1,1.6,1.471,1.467,1.467,0,0,1-1.6,1.47H598.6c0,.715,0,1.386-.042,2.058h6.932a1.476,1.476,0,0,1,1.595,1.513,1.432,1.432,0,0,1-1.553,1.47Zm4.747-21c0-2.478-.168-2.521-3.992-2.521-3.486,0-3.948.043-4.032,1.3,0,.378-.042.8-.042,1.218Zm.084,2.688h-8.15c0,.421.042.841.042,1.219.042,1.3.966,1.3,4.7,1.3,1.387,0,2.815,0,3.4-.042Z"
        transform="translate(0 -11.122)"/>
  <path class="cls-3"
        d="M639.717,100.071c-8.4,0-8.737-4.873-8.737-9.031,0-4.789.5-10.88.5-15.837a39.754,39.754,0,0,0-.252-4.789c0-.126-.042-.294-.042-.42a2.069,2.069,0,0,1,2.184-2.1,2.281,2.281,0,0,1,2.353,2.016q.126,1.386.126,3.025c0,5.167-.883,11.761-.883,17.39,0,3.446.168,5.546,4.327,5.546a28.914,28.914,0,0,0,10.04-2.184,3.357,3.357,0,0,1,1.3-.294,1.973,1.973,0,0,1,2.059,2.015,2.891,2.891,0,0,1-2.059,2.647A32.744,32.744,0,0,1,639.717,100.071Z"
        transform="translate(0 -11.122)"/>
  <path class="cls-3"
        d="M685.709,99.693h-.42c-9.115-.839-14.871-7.141-14.871-13.61a11.823,11.823,0,0,1,3.026-7.687.864.864,0,0,0,.21-.378.09.09,0,0,0-.084-.084,1.423,1.423,0,0,0-.421.168c-6.6,3.4-7.393,3.654-8.318,3.654a2.248,2.248,0,0,1-.63-4.452c.882-.294,3.277-1.009,4.538-1.471,1.973-.714,5.461-1.807,9.619-3.444,3.108-1.219,7.225-2.6,11.132-2.6,2.1,0,2.857.966,2.857,2.059,0,2.141-1.765,2.6-3.361,2.6a7.763,7.763,0,0,1-.966-.042,8.093,8.093,0,0,0-1.008-.042c-6.512,0-12.9,5.545-12.9,11.174,0,5.041,4.789,9.325,11.383,9.325,2.1,0,3.109,1.219,3.109,2.479C688.608,98.518,687.642,99.693,685.709,99.693Z"
        transform="translate(0 -11.122)"/>
  <g id="sakura">
    <path class="cls-1"
          d="M13.8,54.757l-.979,2.337-1.929-1.643s-8.08,5.361,4.7,13.266C23.429,55.889,13.8,54.757,13.8,54.757Z"
          transform="translate(0 -11.122)"/>
    <path class="cls-1" d="M28.544,64.339,29.723,62.1s-7-6.709-11.913,7.5c14.233,4.833,13.228-4.811,13.228-4.811Z"
          transform="translate(0 -11.122)"/>
    <path class="cls-1"
          d="M17.925,72.173C18.347,87.2,27.038,82.9,27.038,82.9l-.453-2.493,2.513.327S32.952,71.836,17.925,72.173Z"
          transform="translate(0 -11.122)"/>
    <path class="cls-1"
          d="M15.078,72.853c-13.558,6.488-6.1,12.684-6.1,12.684l2.093-1.426.723,2.428S21.49,86.447,15.078,72.853Z"
          transform="translate(0 -11.122)"/>
    <path class="cls-1" d="M0,69.194l2.066,1.467L.04,72.183S3.5,81.241,14.014,70.5C3.214,60.046,0,69.194,0,69.194Z"
          transform="translate(0 -11.122)"/>
    <path class="cls-1" d="M17.008,70.48a.965.965,0,1,0-.714,1.163A.964.964,0,0,0,17.008,70.48Z"
          transform="translate(0 -11.122)"/>
  </g>
</svg>
