<svg xmlns="http://www.w3.org/2000/svg" viewBox="0 0 483.206 33.428">
  <defs>
    <style>.cls-1 {
      fill: #5b6e80;
    }

    .cls-2 {
      fill: #fff;
    }</style>
  </defs>
  <path class="cls-1"
        d="M4.293,32.267a2.563,2.563,0,0,1-2.68-2.616,2.364,2.364,0,0,1,2.039-2.413c3.888-.541,5.293-2.155,5.884-3.895L5.7,23.416a2.349,2.349,0,0,1-2.537-2.39,2.526,2.526,0,0,1,.98-2.047,2.57,2.57,0,0,1-.658.108A2.539,2.539,0,0,1,1,16.5,2.474,2.474,0,0,1,2.575,14.2a22.526,22.526,0,0,0,3.952-2.168,2.439,2.439,0,0,1-.522-.444A12.3,12.3,0,0,0,3.448,9.559,2.121,2.121,0,0,1,2.292,7.718,2.558,2.558,0,0,1,4.907,5.3a3.087,3.087,0,0,1,1.044.219,2.506,2.506,0,0,1-.073-.608A2.294,2.294,0,0,1,8.234,2.519h4.555c1.832,0,4.073,0,4.91,1.969a2.383,2.383,0,0,1,.844.627q.288.333.575.659a14.192,14.192,0,0,0,1.513-1.881,2.224,2.224,0,0,1,1.914-1.084,2.754,2.754,0,0,1,2.68,2.615c0,.953-.889,2.22-2.645,3.772l.03.027A16.507,16.507,0,0,0,24.777,6.96a2.238,2.238,0,0,1,1.837-.953A2.807,2.807,0,0,1,29.3,8.655c0,.949-.759,1.967-2.641,3.472a21.748,21.748,0,0,0,2.92,1.447,2.5,2.5,0,0,1,1.658,2.284,2.749,2.749,0,0,1-2.808,2.68c-1.449,0-3.61-1.32-5.457-2.686a2.334,2.334,0,0,1-1.5.841c0,.181-.018,1.375-.021,1.81l5-.027A2.467,2.467,0,0,1,29,20.962a2.433,2.433,0,0,1-1.118,2.081,2.625,2.625,0,0,1,2.474,2.765c0,5.3-4.039,5.974-7.557,5.974-1.59,0-6.427,0-6.427-4.747,0-.359,0-1.867.02-3.725l-1.639-.016c-1,4.837-4.187,7.748-9.712,8.888A4.833,4.833,0,0,1,4.293,32.267ZM21.4,23.362c-.018,1.605-.018,2.871-.018,3.221a.325.325,0,0,0,.033.124c.049.06.307.2,1.649.2,1.98,0,2.068-.462,2.068-1.423a2.363,2.363,0,0,1,1.078-2.071ZM16.44,18.508c0-.636,0-1.238.011-1.779h-1.37v1.779Zm-6.4-.006V16.668a2.417,2.417,0,0,1-.87-.362,26.4,26.4,0,0,1-3.743,2.181c.082-.007.166-.011.251-.011Zm8.327-6.616c-.777-.767-1.523-1.551-2.208-2.322q-.956,1.217-1.989,2.322ZM8.826,7.263c.514.4.852.71.861.718a2.873,2.873,0,0,1,.559.9,20.036,20.036,0,0,0,1.433-1.651C10.843,7.245,9.893,7.259,8.826,7.263Z"/>
  <path class="cls-2"
        d="M12.789,3.519c2.067,0,3.715.032,4.135,1.808a1.169,1.169,0,0,1,.872.453c.42.484.84.969,1.292,1.453a17.349,17.349,0,0,0,2.391-2.81,1.221,1.221,0,0,1,1.066-.614,1.747,1.747,0,0,1,1.68,1.615c0,1.1-2.488,3.2-3.166,3.747.516.485,1,.905,1.55,1.357a18.424,18.424,0,0,0,2.972-2.972,1.247,1.247,0,0,1,1.033-.549A1.8,1.8,0,0,1,28.3,8.655c0,.71-1.066,1.841-3.393,3.553A23.875,23.875,0,0,0,29.2,14.5a1.5,1.5,0,0,1,1.033,1.357,1.762,1.762,0,0,1-1.808,1.68c-1.324,0-3.877-1.68-5.911-3.295v.065a1.4,1.4,0,0,1-1.519,1.421h-.516c0,.969-.033,2.326-.033,3.779l6.008-.032A1.458,1.458,0,0,1,28,20.962a1.406,1.406,0,0,1-1.519,1.454h-.032l-6.041-.065c-.032,2.067-.032,3.812-.032,4.232.065,1.2,1.1,1.324,2.682,1.324,2.067,0,3.068-.517,3.068-2.423a1.379,1.379,0,0,1,1.486-1.453,1.645,1.645,0,0,1,1.744,1.777c0,3.811-2.164,4.974-6.557,4.974-1.744,0-5.427-.032-5.427-3.747,0-.42,0-2.423.032-4.716l-3.488-.032c-.582,3.941-2.649,7.59-9.077,8.915a3.66,3.66,0,0,1-.55.065,1.576,1.576,0,0,1-1.68-1.616A1.363,1.363,0,0,1,3.776,28.23c4.878-.678,6.526-2.972,7.042-5.911l-5.135.1H5.65a1.349,1.349,0,0,1-1.486-1.39,1.482,1.482,0,0,1,1.519-1.55l5.362.032V15.729h-.388A1.424,1.424,0,0,1,9.3,14.986c-2.521,1.873-5.105,3.1-5.815,3.1A1.544,1.544,0,0,1,2,16.5a1.484,1.484,0,0,1,.969-1.389c6.719-2.843,10.337-8.237,10.337-8.593,0-.226-.194-.322-.517-.322-1.2.032-2.714.064-4.555.064A1.3,1.3,0,0,1,6.878,4.907,1.311,1.311,0,0,1,8.234,3.519h4.555m-1.033,9.367H20.9a48.024,48.024,0,0,1-4.781-4.91,34.786,34.786,0,0,1-4.36,4.91m5.717,2.843H14.081v3.036c0,.259.032.485.032.743H17.44c0-1.453,0-2.81.033-3.779M4.907,6.3C6.2,6.3,8.881,8.59,8.978,8.687a1.509,1.509,0,0,1,.419,1,1.755,1.755,0,0,1-1.679,1.68,1.249,1.249,0,0,1-.97-.452,13.314,13.314,0,0,0-2.81-2.229,1.123,1.123,0,0,1-.646-.969A1.571,1.571,0,0,1,4.907,6.3m7.882-4.777H8.267A3.289,3.289,0,0,0,4.928,4.3H4.907A3.57,3.57,0,0,0,1.292,7.718a3.089,3.089,0,0,0,1.653,2.705A12.19,12.19,0,0,1,4.9,11.886,21,21,0,0,1,2.19,13.273,3.5,3.5,0,0,0,0,16.5a3.582,3.582,0,0,0,2.336,3.382,3.783,3.783,0,0,0-.172,1.14,3.326,3.326,0,0,0,3.486,3.39h.07l2.122-.04c-.734.85-2.014,1.551-4.341,1.874a3.346,3.346,0,0,0-2.888,3.4,3.569,3.569,0,0,0,3.68,3.616,5.317,5.317,0,0,0,.874-.091l.038-.007.041-.008c5.351-1.1,8.751-3.891,10.137-8.3-.007,1.108-.007,1.925-.007,2.177,0,2.622,1.288,5.747,7.427,5.747,2.34,0,8.557,0,8.557-6.974a3.6,3.6,0,0,0-1.736-3.233,3.628,3.628,0,0,0,0-3.225,3.7,3.7,0,0,0,2.6-3.492,3.477,3.477,0,0,0-2.275-3.208c-.525-.212-1.042-.446-1.556-.706C29.75,10.687,30.3,9.7,30.3,8.655a3.809,3.809,0,0,0-3.681-3.648,3.306,3.306,0,0,0-.413.026,3.767,3.767,0,0,0-3.656-3.224A3.229,3.229,0,0,0,19.8,3.34a9.516,9.516,0,0,1-.685.925,3.533,3.533,0,0,0-.644-.5C17.3,1.519,14.632,1.519,12.789,1.519Zm9.673,15.92a3.429,3.429,0,0,0,.57-.307c.177.125.352.245.523.36l-1.094,0v-.058Zm-.081,8.453c0-.393,0-.914.008-1.52l1.9.021a3.78,3.78,0,0,0-.157,1.091,2.157,2.157,0,0,1-.022.332,4.288,4.288,0,0,1-1.046.091c-.291,0-.512-.006-.681-.015Z"/>
  <path class="cls-1"
        d="M37.564,32.073a2.622,2.622,0,0,1-2.647-2.648,2.42,2.42,0,0,1,2.254-2.448c4.773-.5,6.957-2.911,7.081-7.817a2.6,2.6,0,0,1,.531-1.564c-.934.011-1.815.024-2.615.037a2.916,2.916,0,0,0-.867.1c-.01.066-.019.175-.025.325v1.252A2.464,2.464,0,0,1,38.7,21.7c-2.518,0-2.518-2.29-2.518-3.391,0-1.334,0-4.744,3.691-5.185A2.295,2.295,0,0,1,40.2,8.971l-1.636.005a2.258,2.258,0,0,1-2.327-2.292,2.257,2.257,0,0,1,2.324-2.292h8.853V3.615a2.68,2.68,0,0,1,5.359,0v.777h8.788a2.226,2.226,0,0,1,2.26,2.292,2.226,2.226,0,0,1-2.26,2.292l-1.652-.005a2.306,2.306,0,0,1,.233,4.209,4.109,4.109,0,0,1,3.744,3.907c.031.36.032.842.032,1.323,0,.936,0,3.423-2.648,3.423a2.424,2.424,0,0,1-2.583-2.357,14.926,14.926,0,0,0-.055-1.8c-.2-.029-.57-.036-.707-.039-1.078-.013-2.274-.027-3.527-.038a2.3,2.3,0,0,1,.507,1.461c0,.582-.013,1.629-.028,2.761-.018,1.322-.036,2.76-.036,3.7a2.685,2.685,0,0,0,.094,1.021,4.8,4.8,0,0,0,1.911.175c2.811,0,2.811-.784,2.811-1.778a2.319,2.319,0,0,1,2.485-2.356,2.516,2.516,0,0,1,2.713,2.582c0,6.4-5.794,6.4-8.268,6.4-2.382,0-6.815,0-6.815-4.78,0-1.233.033-6.7.066-7.751a2.463,2.463,0,0,1,.586-1.454c-.435,0-1.572,0-1.706,0a2.316,2.316,0,0,1,.6,1.584c0,5.539-2.979,11.831-11.342,12.88l-.061.008h-.063A1.364,1.364,0,0,1,37.564,32.073Z"/>
  <path class="cls-2"
        d="M50.1,2a1.572,1.572,0,0,1,1.679,1.615V5.392h9.788a1.227,1.227,0,0,1,1.26,1.292,1.227,1.227,0,0,1-1.26,1.292l-9.788-.032V9.882l7.366-.032a1.276,1.276,0,0,1,0,2.552H40.988a1.276,1.276,0,1,1,0-2.552l7.43.032V7.944l-9.853.032a1.292,1.292,0,1,1,0-2.584h9.853V3.615A1.573,1.573,0,0,1,50.1,2m.42,11.984c2.907,0,5.814.033,8.592.1,1.744.032,3.715.9,3.78,3.036.032.387.032.84.032,1.292,0,1.066,0,2.423-1.648,2.423a1.443,1.443,0,0,1-1.583-1.357v-.064c0-2.585,0-2.746-1.744-2.779-2.551-.032-5.75-.064-8.818-.064-2.552,0-5.007.032-6.978.064-1.744.033-1.84.55-1.874,1.389v1.325A1.46,1.46,0,0,1,38.7,20.7c-1.518,0-1.518-1.2-1.518-2.391,0-1.809.129-4.2,3.456-4.231,3.2-.065,6.557-.1,9.885-.1M52.424,17.7a1.373,1.373,0,0,1,1.485,1.357c0,1.26-.064,4.716-.064,6.461,0,1.873.259,2.2,3.005,2.2,3,0,3.811-.9,3.811-2.778a1.338,1.338,0,0,1,1.485-1.356,1.553,1.553,0,0,1,1.713,1.582c0,4.555-3.166,5.4-7.268,5.4-3.489,0-5.815-.485-5.815-3.78,0-1.259.033-6.686.065-7.72A1.476,1.476,0,0,1,52.424,17.7m-5.718,0a1.526,1.526,0,0,1,1.615,1.454c0,1.421-.161,10.6-10.466,11.888-.1,0-.194.032-.291.032a1.611,1.611,0,0,1-1.647-1.648,1.415,1.415,0,0,1,1.356-1.453c5.557-.582,7.85-3.683,7.979-8.787A1.413,1.413,0,0,1,46.706,17.7M50.1,0a3.565,3.565,0,0,0-3.674,3.392H38.565a3.291,3.291,0,0,0-.649,6.524,3.306,3.306,0,0,0-.22,1.193,3.412,3.412,0,0,0,.325,1.474c-1.887.847-2.844,2.764-2.844,5.73,0,2.913,1.184,4.391,3.518,4.391a3.438,3.438,0,0,0,3.582-3.357v-.715c.314-.006.657-.011,1.024-.016a4.135,4.135,0,0,0-.048.5c-.112,4.429-1.905,6.413-6.188,6.862a3.393,3.393,0,0,0-3.148,3.442,3.608,3.608,0,0,0,3.647,3.648,2.775,2.775,0,0,0,.406-.032h.01l.124-.016c5.574-.7,8.927-3.56,10.674-7.053,0,.34,0,.617,0,.8,0,5.78,5.476,5.78,7.815,5.78,2.292,0,9.268,0,9.268-7.395a3.41,3.41,0,0,0-2.049-3.254,4.74,4.74,0,0,0,1.112-3.5c0-.468,0-.952-.035-1.408a4.881,4.881,0,0,0-2.878-4.275,3.423,3.423,0,0,0,.393-1.618,3.341,3.341,0,0,0-.215-1.188,3.2,3.2,0,0,0,2.638-3.237,3.2,3.2,0,0,0-3.26-3.292H53.771A3.565,3.565,0,0,0,50.1,0Zm5.748,25.688c0-.052,0-.109,0-.171,0-.937.019-2.37.036-3.687.015-1.137.028-2.19.028-2.774a3.461,3.461,0,0,0-.028-.447l1.808.021c0,.243,0,.514,0,.782v.064a3.307,3.307,0,0,0,1.99,3.018,3.28,3.28,0,0,0-1.02,2.441,2.015,2.015,0,0,1-.054.545,4.149,4.149,0,0,1-1.757.233c-.457,0-.778-.01-1-.025Z"/>
  <path class="cls-1"
        d="M90.444,31.459c-2.819,0-7.537,0-7.717-4.9-.026-.7-.067-2.119-.067-3.816,0-2.331.068-4.886.131-6.5.086-1.909,1.315-3.957,4.507-4h.01c.623,0,1.281.008,1.944.016s1.338.016,1.968.016a7.9,7.9,0,0,0,1.135-.049,11.652,11.652,0,0,0,.093-1.988c0-.7-.03-1.461-.094-2.316a.94.94,0,0,0-.013-.108,13.577,13.577,0,0,0-2.22-.1c-1.368,0-2.791.028-4.32.057l-.376.008a2.359,2.359,0,0,1-2.538-2.357,2.471,2.471,0,0,1,2.486-2.453c1.34-.033,2.769-.033,4.231-.033,1.076,0,2.185,0,3.261.033a4.243,4.243,0,0,1,4.49,4.493c.033.806.033,1.984.033,3.064,0,2.767,0,6.556-4.553,6.556h-3.2a11.877,11.877,0,0,0-1.831.079c0,.034-.01.08-.014.141-.037.836-.127,3.049-.127,5.273,0,1.195,0,2.325.063,3.261.017.356.032.649,2.813.649,3.031,0,3.361-.464,3.361-2.295a2.394,2.394,0,0,1,2.518-2.485,2.6,2.6,0,0,1,2.744,2.744C99.164,31.459,93.274,31.459,90.444,31.459Zm-14.666-.032c-.887,0-1.742-.033-2.5-.066a3.456,3.456,0,0,1-3.346-3.528c0-.44-.009-.857-.017-1.271s-.017-.833-.017-1.239c0-.425.009-.84.018-1.241.008-.364.016-.715.016-1.053a3.421,3.421,0,0,1,2.009-3.16,2.215,2.215,0,0,1-1.687-2.17,2.407,2.407,0,0,1,1.3-2.133,2.207,2.207,0,0,1-1.3-2.034,2.422,2.422,0,0,1,.984-1.939h-.016A2.313,2.313,0,0,1,68.738,9.3a2.4,2.4,0,0,1,2.486-2.422h.141a2.213,2.213,0,0,1-1.174-1.972,2.382,2.382,0,0,1,2.422-2.388h7.268a2.265,2.265,0,0,1,2.357,2.324,2.325,2.325,0,0,1-1.175,2.036h.53a2.313,2.313,0,0,1,2.422,2.357,2.313,2.313,0,0,1-2.422,2.357h-.2a2.367,2.367,0,0,1-.351,3.954,2.341,2.341,0,0,1-.622,4.37A3.293,3.293,0,0,1,82.5,22.844c.032.737.032,1.624.032,2.511s0,1.745-.033,2.468a3.61,3.61,0,0,1-3.672,3.538C77.869,31.4,76.824,31.427,75.778,31.427Zm-1.167-4.643a12.733,12.733,0,0,0,1.491.058,11.673,11.673,0,0,0,1.629-.065c.02-.395.019-.871.019-1.325,0-.508,0-1.016-.022-1.43a14.529,14.529,0,0,0-1.594-.057h-.071c-.481,0-.984,0-1.44.026a13.723,13.723,0,0,0-.041,1.429c0,.294.009.588.017.869C74.6,26.459,74.608,26.625,74.611,26.784Z"/>
  <path class="cls-2"
        d="M79.881,3.519a1.279,1.279,0,0,1,1.357,1.324,1.3,1.3,0,0,1-1.357,1.324H72.613a1.269,1.269,0,0,1-1.422-1.26,1.384,1.384,0,0,1,1.422-1.388h7.268m9.723.419c1.066,0,2.165,0,3.231.033a3.257,3.257,0,0,1,3.52,3.521c.033.807.033,1.97.033,3.036,0,2.875-.033,5.556-3.553,5.556h-3.2c-2.23,0-2.779.033-2.843,1.163-.065,1.421-.129,3.424-.129,5.33,0,1.195,0,2.358.064,3.327.065,1.292.937,1.583,3.812,1.583,3,0,4.361-.452,4.361-3.295a1.411,1.411,0,0,1,1.518-1.485,1.63,1.63,0,0,1,1.744,1.744c0,5.75-4.328,6.008-7.72,6.008-3.844,0-6.59-.452-6.718-3.941-.034-.937-.066-2.293-.066-3.779,0-2.261.066-4.814.13-6.461.064-1.421.937-3,3.521-3.036,1.227,0,2.649.032,3.909.032,2.164,0,2.228-.065,2.228-3.037,0-.742-.032-1.518-.1-2.39-.1-1.1-.647-1.131-3.231-1.131-1.486,0-3.036.033-4.716.065h-.032a1.359,1.359,0,0,1-1.486-1.357,1.459,1.459,0,0,1,1.518-1.453c1.324-.033,2.745-.033,4.2-.033M81.593,7.879a1.358,1.358,0,1,1,0,2.714H71.224A1.314,1.314,0,0,1,69.738,9.3a1.409,1.409,0,0,1,1.486-1.422H81.593m-1.648,4.264A1.279,1.279,0,0,1,81.3,13.468a1.3,1.3,0,0,1-1.358,1.324H72.678a1.269,1.269,0,0,1-1.422-1.26,1.385,1.385,0,0,1,1.422-1.389h7.267m0,4.168A1.279,1.279,0,0,1,81.3,17.635a1.3,1.3,0,0,1-1.358,1.324H72.678a1.269,1.269,0,0,1-1.422-1.26,1.384,1.384,0,0,1,1.422-1.388h7.267m-3.811,4.2c.97,0,1.906.032,2.746.064A2.571,2.571,0,0,1,81.5,22.868c.032.743.032,1.615.032,2.487s0,1.712-.032,2.423a2.623,2.623,0,0,1-2.713,2.584c-.937.033-1.971.065-3,.065-.872,0-1.712-.032-2.455-.065a2.461,2.461,0,0,1-2.389-2.552c0-.84-.034-1.68-.034-2.487s.034-1.583.034-2.294a2.385,2.385,0,0,1,2.357-2.455c.9-.032,1.874-.064,2.843-.064M76.1,27.842c1.615,0,2.551,0,2.616-.807.032-.452.032-1.034.032-1.583,0-.581,0-1.163-.032-1.615-.065-.808-.549-.872-2.584-.872-.549,0-1.131,0-1.648.032-.9.065-.9.646-.9,2.423,0,.581.032,1.163.032,1.647.032.614.356.775,2.488.775M79.881,1.519H72.613a3.369,3.369,0,0,0-3.422,3.388A3.26,3.26,0,0,0,69.5,6.312,3.377,3.377,0,0,0,67.738,9.3a3.2,3.2,0,0,0,1.783,2.9,3.43,3.43,0,0,0-.265,1.332,3.191,3.191,0,0,0,.726,2.056,3.376,3.376,0,0,0-.726,2.111,3.176,3.176,0,0,0,.893,2.242,4.548,4.548,0,0,0-1.215,3.036v.052c0,.331-.008.675-.016,1.031-.009.409-.018.831-.018,1.263,0,.413.009.834.017,1.259.008.407.017.817.017,1.228a4.473,4.473,0,0,0,4.256,4.548c.841.037,1.7.069,2.588.069,1.074,0,2.15-.034,3.074-.066a4.785,4.785,0,0,0,4.013-2.283c1.86,2.381,5.537,2.381,7.579,2.381,2.659,0,9.72,0,9.72-8.008a3.588,3.588,0,0,0-3.744-3.744A3.387,3.387,0,0,0,92.9,24.192a2.158,2.158,0,0,1-.149,1.042c-.067.055-.444.253-2.212.253a14.918,14.918,0,0,1-1.837-.081c-.039-.83-.039-1.8-.039-2.829,0-1.711.054-3.416.095-4.487.293-.006.616-.006.877-.006h3.2c5.553,0,5.553-4.915,5.553-7.556,0-1.115,0-2.269-.034-3.116A5.2,5.2,0,0,0,92.9,1.972c-1.1-.034-2.212-.034-3.291-.034-1.491,0-2.9,0-4.247.033a3.632,3.632,0,0,0-2.58,1.14,3.3,3.3,0,0,0-2.9-1.592Zm5.492,7.262h.071l.376-.007c1.515-.029,2.946-.057,4.3-.057.384,0,.878,0,1.283.012.03.543.044,1.039.044,1.509,0,.293,0,.691-.009,1.037H91.22c-.626,0-1.293-.008-1.956-.016s-1.336-.016-1.953-.016a5.612,5.612,0,0,0-4.076,1.528,3.349,3.349,0,0,0-.139-.495,3.275,3.275,0,0,0,1.919-3.039,3.676,3.676,0,0,0-.031-.474c.127.012.257.019.389.019Zm-9.79,16.185h.551c.139,0,.372,0,.615,0,0,.16,0,.323,0,.484v.388c-.214,0-.441,0-.648,0s-.367,0-.515,0c0-.138-.005-.278-.005-.418s0-.3,0-.454Z"/>
  <path class="cls-1"
        d="M117.868,31.911c-2.972,0-7.041,0-7.041-4.521,0-.479.007-.985.018-1.5-1.07,2.2-3.389,4.726-5.317,4.726a2.454,2.454,0,0,1-1.239-4.679,7.491,7.491,0,0,0,2.351-2.783,2.36,2.36,0,0,1,2.28-1.741,2.637,2.637,0,0,1,2.047,1.023,2.38,2.38,0,0,1,2.541-2.057,2.824,2.824,0,0,1,1.121.223,2.727,2.727,0,0,1,2.464-1.612,3.879,3.879,0,0,1,1.614.627,2.184,2.184,0,0,1,.538-.7,9.382,9.382,0,0,0,1.344-1.444h-.847c-2.719,0-6.839.034-8.836.065a2.217,2.217,0,0,1-2.372-2.228,2.455,2.455,0,0,1,.09-.665,7.689,7.689,0,0,1-3.289,1.439,2.57,2.57,0,0,1-.911-4.923,33.551,33.551,0,0,0,9.811-7.777,4.513,4.513,0,0,1,3.408-1.7,5.124,5.124,0,0,1,3.491,1.56,38.365,38.365,0,0,0,10.3,7.058,2.366,2.366,0,0,1,1.488,2.2,2.766,2.766,0,0,1-2.744,2.711c-1.163,0-3.55-1.329-6.242-3.348a2.225,2.225,0,0,1-1,1.025H123c2.179.043,3.591,1.234,3.591,3.035,0,2.3-2.594,5.33-3.5,6.21a2.647,2.647,0,0,1-1.386.671,1.894,1.894,0,0,1,.075.516,2.717,2.717,0,0,1-2.679,2.615,2.219,2.219,0,0,1-1.918-1.089,6.423,6.423,0,0,0-1.231-1.377l0,.034c-.055.907-.113,1.846-.113,2.595a2.173,2.173,0,0,0,.1.917,8.139,8.139,0,0,0,2.1.151c3.233,0,3.233-.557,3.233-1.262a2.374,2.374,0,0,1,2.509-2.389,1.885,1.885,0,0,1-.022-.292A2.553,2.553,0,0,1,126.3,20.8c1.689,0,6.653,3.7,6.653,6.265a2.566,2.566,0,0,1-4.817,1.342,10.647,10.647,0,0,0-1.615-2.051C126.32,31.912,120.415,31.911,117.868,31.911ZM111.949,12.23c-.271.215-.566.446-.877.683.475-.016,1.022-.03,1.623-.042A2.2,2.2,0,0,1,111.949,12.23Zm8.011-3.671c-.608-.556-1.211-1.131-1.8-1.717-.106-.107-.186-.181-.246-.232-.042.042-.095.1-.156.171-.5.567-1.063,1.165-1.677,1.778Z"/>
  <path class="cls-2"
        d="M117.643,2.679a4.142,4.142,0,0,1,2.809,1.292,39.424,39.424,0,0,0,10.564,7.236,1.374,1.374,0,0,1,.9,1.292,1.75,1.75,0,0,1-1.744,1.711c-1.422,0-6.622-3.391-11.307-8.075-.387-.387-.678-.614-.969-.614-.257,0-.548.194-.9.614a43.376,43.376,0,0,1-3.456,3.456,1,1,0,0,1,.322-.032h7.948a1.294,1.294,0,1,1,0,2.584h-7.948a1.265,1.265,0,0,1-1.356-1.26,1.037,1.037,0,0,1,.064-.452c-2.648,2.229-6.072,4.652-7.235,4.652a1.571,1.571,0,0,1-.517-3,34.434,34.434,0,0,0,10.175-8.044,3.513,3.513,0,0,1,2.65-1.356m.452,11.144c1.873,0,3.649.032,4.877.065,1.647.032,2.617.807,2.617,2.035,0,1.776-2.2,4.522-3.2,5.491a1.62,1.62,0,0,1-1.1.42c-.872,0-1.776-.678-1.776-1.389a1.061,1.061,0,0,1,.387-.775c2.035-1.841,2.035-2.713,2.035-2.778,0-.259-.161-.42-.581-.42h-1.615c-2.649,0-6.752.032-8.851.065h-.033a1.213,1.213,0,0,1-1.324-1.228,1.367,1.367,0,0,1,1.357-1.389c1.776-.065,4.587-.1,7.2-.1m-1,6.17c.646,0,3.682,2,3.682,3.327a1.72,1.72,0,0,1-1.679,1.615,1.218,1.218,0,0,1-1.067-.614,9.161,9.161,0,0,0-2.132-2.2,1,1,0,0,1-.419-.775,1.617,1.617,0,0,1,1.615-1.357m-3.585,1.389a1.335,1.335,0,0,1,1.485,1.227v.065c-.064,1.131-.161,2.423-.161,3.424,0,1.938.452,2.068,3.2,2.068,3.005,0,4.233-.453,4.233-2.262a1.389,1.389,0,0,1,1.517-1.389,1.537,1.537,0,0,1,1.745,1.551c0,4.748-4.716,4.845-7.656,4.845-3.65,0-6.041-.258-6.041-3.521v-.1c0-1.389.066-3.166.13-4.684a1.392,1.392,0,0,1,1.551-1.227m12.791.42c1.163,0,5.653,3.327,5.653,5.265a1.65,1.65,0,0,1-1.583,1.68,1.622,1.622,0,0,1-1.389-.872,11.331,11.331,0,0,0-3.682-3.748,1.08,1.08,0,0,1-.549-.9A1.553,1.553,0,0,1,126.3,21.8m-17.379.614a1.5,1.5,0,0,1,1.518,1.421c0,1.647-2.907,5.782-4.91,5.782a1.462,1.462,0,0,1-.743-2.81,8.318,8.318,0,0,0,2.811-3.36,1.349,1.349,0,0,1,1.324-1.033M117.643.679a5.5,5.5,0,0,0-4.168,2.054A32.463,32.463,0,0,1,104,10.253a3.57,3.57,0,0,0,1.334,6.83,5.67,5.67,0,0,0,2.357-.75,3.231,3.231,0,0,0,3.166,2.2h.063c1.037-.016,2.646-.032,4.334-.045a3.754,3.754,0,0,0-1.09.943,4.143,4.143,0,0,0-.657-.052A3.567,3.567,0,0,0,110.54,20.8a3.572,3.572,0,0,0-1.62-.384,3.329,3.329,0,0,0-3.23,2.426,6.823,6.823,0,0,1-1.934,2.251,3.449,3.449,0,0,0,1.772,6.526c1.6,0,3.2-1.152,4.465-2.632.894,3.924,5.191,3.924,7.875,3.924,2.254,0,7.7,0,9.241-4.256.055.085.11.172.163.26a3.566,3.566,0,0,0,6.68-1.848c0-3.228-5.549-7.265-7.653-7.265h-.1a7.769,7.769,0,0,0,1.385-3.88,4.07,4.07,0,0,0-.036-.54,6.364,6.364,0,0,0,2.623.827A3.732,3.732,0,0,0,133.92,12.5a3.372,3.372,0,0,0-2.084-3.116,37.339,37.339,0,0,1-10-6.857A6.107,6.107,0,0,0,117.643.679Zm-.811,25.465v-.131c.048.048.1.094.148.138l-.148-.007Z"/>
  <path class="cls-1"
        d="M151.615,31.63a2.432,2.432,0,0,1-1.752-.735,2.979,2.979,0,0,1-.789-2.235c.013-1.384.079-2.927.143-4.42.072-1.683.145-3.409.143-4.932a41.99,41.99,0,0,1-7.164,5.447,4.241,4.241,0,0,1-2.211.691,2.7,2.7,0,0,1-2.722-2.062,2.6,2.6,0,0,1,1.516-2.964A35.855,35.855,0,0,0,151.944,8.213a19.865,19.865,0,0,0,1.068-2.359,2.577,2.577,0,0,1,2.532-1.663,3.025,3.025,0,0,1,2.569,1.316,2.6,2.6,0,0,1,.069,2.574c-.086.178-.159.338-.23.5a11.661,11.661,0,0,1-1.453,2.481c-.627.828-1.417,1.863-2.24,2.889.01.026.018.051.027.077.318.875.31,1.324.211,3.558-.128,2.5-.1,7.347,0,10.846a2.871,2.871,0,0,1-2.6,3.186A2.492,2.492,0,0,1,151.615,31.63Z"/>
  <path class="cls-2"
        d="M155.544,5.191c1.19,0,2.451.945,1.733,2.462a12.57,12.57,0,0,1-1.583,2.81c-.9,1.2-1.776,2.327-2.648,3.392a1.223,1.223,0,0,1,.291.485c.258.71.258,1,.161,3.2-.129,2.52-.1,7.429,0,10.918a1.889,1.889,0,0,1-1.712,2.165,1.632,1.632,0,0,1-.171.009c-.787,0-1.571-.623-1.541-1.948.032-3.456.388-7.72.258-10.789a7.994,7.994,0,0,0-.064-.9,40.725,40.725,0,0,1-8.592,6.912,3.269,3.269,0,0,1-1.691.545,1.628,1.628,0,0,1-.764-3.129A36.635,36.635,0,0,0,152.787,8.751,20.267,20.267,0,0,0,153.95,6.2a1.6,1.6,0,0,1,1.594-1.009m0-2a3.6,3.6,0,0,0-3.478,2.338,19.377,19.377,0,0,1-.974,2.162A34.785,34.785,0,0,1,138.34,19.522a3.619,3.619,0,0,0-2.051,4.089,3.732,3.732,0,0,0,3.7,2.835,5.225,5.225,0,0,0,2.736-.839,43.788,43.788,0,0,0,5.6-4.023c-.027.859-.065,1.742-.1,2.614-.064,1.5-.131,3.052-.144,4.465a3.934,3.934,0,0,0,1.074,2.931,3.426,3.426,0,0,0,2.467,1.036,3.353,3.353,0,0,0,.4-.023,3.894,3.894,0,0,0,3.483-4.193c-.1-3.494-.129-8.307,0-10.774a10.887,10.887,0,0,0-.119-3.49c.707-.893,1.374-1.767,1.913-2.48a12.575,12.575,0,0,0,1.575-2.682c.067-.15.136-.3.215-.467a3.617,3.617,0,0,0-.121-3.549,4.033,4.033,0,0,0-3.414-1.781Z"/>
  <path class="cls-1"
        d="M188.147,27.606a3.155,3.155,0,0,1-1.544-.41,34.848,34.848,0,0,1-4.978-3.886l-1.059-.923c-2.167-1.893-4.623-4.037-6.117-5.144a2.222,2.222,0,0,0-1.082-.552,2.085,2.085,0,0,0-1.031.566c-2.04,1.639-3.611,2.885-5.2,3.953a3.117,3.117,0,0,1-1.714.543h0a2.835,2.835,0,0,1-2.737-2.124,2.914,2.914,0,0,1,1.627-3.318c.741-.433,3.039-1.772,4.937-3.165a6.064,6.064,0,0,1,8.118-.04c.779.565,1.862,1.43,3.117,2.432.877.7,1.83,1.462,2.8,2.212A73.271,73.271,0,0,0,189.9,22.4a2.49,2.49,0,0,1,1.2,1.656,2.961,2.961,0,0,1-2.949,3.555Zm-4.582-11.259a2.066,2.066,0,0,1-1.6-.787,11.806,11.806,0,0,0-2.371-1.723,2.057,2.057,0,0,1-1.37-2.315A2.42,2.42,0,0,1,180.6,9.651a2.551,2.551,0,0,1,.807.133,1.923,1.923,0,0,1-.144-1.17A2.422,2.422,0,0,1,183.65,6.7a2.631,2.631,0,0,1,.814.132,11.5,11.5,0,0,1,3.82,2.149,2.482,2.482,0,0,1,.569,2.739,2.431,2.431,0,0,1-2.17,1.552,2.005,2.005,0,0,1-.854-.191,2.42,2.42,0,0,1-.088,1.728A2.453,2.453,0,0,1,183.565,16.347Z"/>
  <path class="cls-2"
        d="M183.651,7.7a1.626,1.626,0,0,1,.5.082,10.616,10.616,0,0,1,3.424,1.906,1.507,1.507,0,0,1-.9,2.584,1.1,1.1,0,0,1-.817-.387,11.326,11.326,0,0,0-2.81-1.906c-1.525-.575-.718-2.279.6-2.279M180.6,10.651a1.572,1.572,0,0,1,.554.1,11,11,0,0,1,3.36,2.036,1.512,1.512,0,0,1-.943,2.556,1.068,1.068,0,0,1-.834-.425,12.253,12.253,0,0,0-2.746-2c-1.5-.623-.666-2.267.609-2.267m-7.258,1.916a5.971,5.971,0,0,1,3.451,1.353c1.292.937,3.554,2.81,5.879,4.619a74.06,74.06,0,0,0,6.72,4.716,1.746,1.746,0,0,1,.387,2.553,2.031,2.031,0,0,1-1.627.8,2.133,2.133,0,0,1-1.054-.283,40.785,40.785,0,0,1-5.491-4.361c-2.294-2-4.943-4.328-6.558-5.524a2.917,2.917,0,0,0-1.677-.748,2.768,2.768,0,0,0-1.65.781c-1.971,1.583-3.554,2.842-5.137,3.908a2.08,2.08,0,0,1-1.156.373c-1.683,0-2.794-2.351-.62-3.57.775-.453,3.1-1.809,5.039-3.231a6,6,0,0,1,3.494-1.385M183.651,5.7h0a3.435,3.435,0,0,0-3.376,2.735c-.014.079-.025.157-.033.235a3.426,3.426,0,0,0-3,2.657,3,3,0,0,0-.056.457,7.222,7.222,0,0,0-3.847-1.217h0a7.855,7.855,0,0,0-4.669,1.766c-1.865,1.368-4.129,2.688-4.873,3.122a3.923,3.923,0,0,0-2.077,4.427,3.837,3.837,0,0,0,3.705,2.871,4.1,4.1,0,0,0,2.26-.705c1.632-1.1,3.219-2.358,5.285-4.017a4.346,4.346,0,0,1,.415-.3,3.954,3.954,0,0,1,.46.3c1.472,1.09,3.912,3.221,6.064,5.1l.378.33.683.593a35.4,35.4,0,0,0,5.12,3.991,4.19,4.19,0,0,0,2.058.553,3.963,3.963,0,0,0,3.928-4.762,3.489,3.489,0,0,0-1.684-2.319,70.421,70.421,0,0,1-6.109-4.266,3.588,3.588,0,0,0,2.636-3,3.511,3.511,0,0,0,2.073-5.989,12.635,12.635,0,0,0-4.225-2.4,3.612,3.612,0,0,0-1.115-.178Z"/>
  <path class="cls-1"
        d="M201.409,29.758A2.926,2.926,0,0,1,198.346,27a2.443,2.443,0,0,1,2.2-2.641,10.078,10.078,0,0,0,2.2-.733A30.458,30.458,0,0,0,216.6,9.875a2.733,2.733,0,0,1,4.784-.216,2.964,2.964,0,0,1-.114,3.063A37.676,37.676,0,0,1,205.228,28.6a7.94,7.94,0,0,1-3.492,1.146C201.63,29.753,201.518,29.758,201.409,29.758Zm3.1-12.82a2.943,2.943,0,0,1-1.727-.594,12.319,12.319,0,0,0-4.206-2.028,2.332,2.332,0,0,1-1.857-2.605,2.761,2.761,0,0,1,2.792-2.486,3.48,3.48,0,0,1,.84.107,21.013,21.013,0,0,1,5.622,2.289,2.864,2.864,0,0,1,.862,3.992A2.747,2.747,0,0,1,204.511,16.938Z"/>
  <path class="cls-2"
        d="M219.047,9.35c1.173,0,2.294,1.174,1.349,2.89a36.445,36.445,0,0,1-15.634,15.473,6.928,6.928,0,0,1-3.1,1.034c-.086.007-.17.011-.252.011-2.452,0-2.751-3.184-.75-3.4a11.061,11.061,0,0,0,2.487-.808c5.847-2.648,11.081-7.914,14.343-14.213a1.737,1.737,0,0,1,1.558-.984m-19.535.875a2.46,2.46,0,0,1,.6.077,19.9,19.9,0,0,1,5.33,2.164,1.856,1.856,0,0,1,.549,2.617,1.765,1.765,0,0,1-1.478.854,1.924,1.924,0,0,1-1.138-.4,13.348,13.348,0,0,0-4.587-2.2c-1.771-.383-1.25-3.113.726-3.113M219.048,7.35h0a3.722,3.722,0,0,0-3.329,2.056,29.463,29.463,0,0,1-13.4,13.32,9.7,9.7,0,0,1-1.861.639,3.425,3.425,0,0,0-3.113,3.691,3.952,3.952,0,0,0,4.062,3.7q.2,0,.42-.018a8.868,8.868,0,0,0,3.869-1.259,38.634,38.634,0,0,0,16.45-16.275,4.022,4.022,0,0,0,.1-4.056,3.719,3.719,0,0,0-3.2-1.8Zm-19.536.875h0a3.789,3.789,0,0,0-3.785,3.38,3.306,3.306,0,0,0,2.636,3.688,11.326,11.326,0,0,1,3.847,1.869,3.912,3.912,0,0,0,2.3.775,3.739,3.739,0,0,0,3.174-1.794A3.856,3.856,0,0,0,206.5,10.77a21.967,21.967,0,0,0-5.88-2.4,4.5,4.5,0,0,0-1.109-.144Z"/>
  <path class="cls-1"
        d="M231.421,31.953a2.517,2.517,0,0,1-1.839-.77,2.942,2.942,0,0,1-.753-2.254c.193-5.233.259-15.357.129-20.054a13.513,13.513,0,0,0-.262-2.5,2.5,2.5,0,0,1,.408-2.189,2.823,2.823,0,0,1,2.235-1.027,2.67,2.67,0,0,1,2.743,2.328l.059.4a12.99,12.99,0,0,1,.08,2.621c-.029,1.1-.033,2.607-.033,4.361,1.756.223,5.973,1.138,7.9,3.213a2.876,2.876,0,0,1-1.983,4.823,2.638,2.638,0,0,1-1.825-.765,10.826,10.826,0,0,0-4.086-1.923c.034,3.681.092,7.591.152,10.249a3.135,3.135,0,0,1-2.638,3.472A2.836,2.836,0,0,1,231.421,31.953Z"/>
  <path class="cls-2"
        d="M231.339,4.161a1.666,1.666,0,0,1,1.752,1.457,11.329,11.329,0,0,1,.13,2.875c-.033,1.292-.033,3.166-.033,5.33a1.357,1.357,0,0,1,.262-.024,1.774,1.774,0,0,1,.287.024c1.616.161,5.879,1.066,7.623,2.94a1.878,1.878,0,0,1-1.25,3.142,1.65,1.65,0,0,1-1.14-.493,12.742,12.742,0,0,0-5.782-2.423c.033,4.167.1,8.625.162,11.5a2.169,2.169,0,0,1-1.745,2.454,1.621,1.621,0,0,1-.184.01c-.843,0-1.653-.625-1.593-1.98.194-5.265.259-15.441.13-20.125a14.518,14.518,0,0,0-.291-2.713,1.562,1.562,0,0,1,1.672-1.974m0-2a3.829,3.829,0,0,0-3.024,1.412,3.474,3.474,0,0,0-.587,3.053,12.582,12.582,0,0,1,.231,2.285c.129,4.672.063,14.764-.13,19.988a3.91,3.91,0,0,0,1.03,2.975,3.508,3.508,0,0,0,2.562,1.079,3.8,3.8,0,0,0,.4-.021,4.15,4.15,0,0,0,3.53-4.486c-.052-2.325-.1-5.608-.137-8.858a7.743,7.743,0,0,1,2.381,1.274,3.629,3.629,0,0,0,2.517,1.043,3.876,3.876,0,0,0,2.721-6.5c-1.967-2.113-5.7-3.034-7.643-3.386,0-1.385.009-2.58.032-3.476a13.969,13.969,0,0,0-.091-2.809c-.016-.1-.035-.224-.056-.383a3.646,3.646,0,0,0-3.734-3.192Z"/>
  <path class="cls-1"
        d="M297.082,32.267a2.347,2.347,0,0,1-2.519-2.26l.042-3.852c-4.066,2.876-9.024,5.078-10.251,5.078a2.577,2.577,0,0,1-2.679-2.454,2.367,2.367,0,0,1,1.826-2.244,34.1,34.1,0,0,0,7.774-3.674c-3.968-.129-4.7-2.467-4.785-3.877-.064-.8-.1-1.759-.1-2.738,0-1.139.035-2.266.1-3.173.079-1.677,1.171-3.511,3.961-3.774h-4.643a2.26,2.26,0,0,1-2.39-2.227,2.324,2.324,0,0,1,2.39-2.357h8.754V3.647a2.362,2.362,0,0,1,2.519-2.356,2.423,2.423,0,0,1,2.583,2.356V4.715h8.853a2.235,2.235,0,0,1,2.324,2.292A2.235,2.235,0,0,1,308.518,9.3h-4.345a4.146,4.146,0,0,1,3.855,3.545c.066.78.1,1.746.1,2.788,0,1.2-.035,2.37-.1,3.3-.089,2.192-1.977,3.859-4.489,3.935h-.366a44.074,44.074,0,0,0,7.7,3.288,2.365,2.365,0,0,1,1.74,2.238,2.846,2.846,0,0,1-2.906,2.776c-1.026,0-5.431-1.727-10.074-5.088.015,1.019.027,2.175.027,3.9A2.369,2.369,0,0,1,297.082,32.267Zm2.486-13.727c1.03,0,2.033-.007,2.98-.031.4,0,.554,0,.608-.391h-3.588Zm-8.3-.422c.055.366.214.373.658.391.826.024,1.75.03,2.723.031l0-.422Zm11.891-4.229v-.034a.7.7,0,0,0-.031-.2A18.16,18.16,0,0,0,299.6,13.5v.39Zm-8.528,0V13.5c-1.034.011-1.992.035-2.747.059-.383.016-.54.022-.6.327Z"/>
  <path class="cls-2"
        d="M297.082,2.291a1.439,1.439,0,0,1,1.583,1.356V5.715h9.853a1.244,1.244,0,0,1,1.324,1.292A1.244,1.244,0,0,1,308.518,8.3h-9.885v1.906c1.808,0,3.553.032,5.039.065a3.233,3.233,0,0,1,3.359,2.648c.065.776.1,1.712.1,2.714,0,1.131-.032,2.293-.1,3.23-.064,1.583-1.388,2.94-3.521,3h-.678c-.97,0-2.035-.032-3.1-.064a37.035,37.035,0,0,0,10.822,5.3,1.363,1.363,0,0,1,1.066,1.292,1.859,1.859,0,0,1-1.906,1.776c-.808,0-5.976-2-11.111-6.137.032,1.744.064,3.036.064,5.944,0,.872-.775,1.292-1.583,1.292a1.368,1.368,0,0,1-1.519-1.26v-.032l.065-5.848c-4.2,3.425-10.272,6.106-11.274,6.106a1.593,1.593,0,0,1-1.679-1.454,1.388,1.388,0,0,1,1.131-1.292A32.52,32.52,0,0,0,294.4,21.8c-1,.032-1.937.064-2.777.064-3.521,0-4.07-1.808-4.135-2.939-.064-.808-.1-1.744-.1-2.681,0-1.1.033-2.2.1-3.1.065-1.357.937-2.811,3.489-2.875,1.2-.033,2.842-.065,4.619-.065V8.3h-9.787a1.252,1.252,0,0,1-1.39-1.227,1.331,1.331,0,0,1,1.39-1.357h9.754V3.647a1.366,1.366,0,0,1,1.519-1.356m1.519,12.6h5.587c0-.355-.032-.711-.032-1.034-.064-1.356-.775-1.356-5.555-1.356v2.39m-8.368,0h5.395V12.5c-1.421,0-2.777.032-3.779.064-1.616.065-1.616,1.1-1.616,2.326m13.955,2.229h-5.62v2.423c1.389,0,2.745,0,4-.033,1.615,0,1.615-1.066,1.615-2.39m-8.528,2.423-.032-2.423h-5.395c0,1.55.1,2.326,1.648,2.39,1.131.033,2.423.033,3.779.033M297.082.291a3.365,3.365,0,0,0-3.519,3.356v.068h-7.754a3.337,3.337,0,0,0-3.39,3.357,3.238,3.238,0,0,0,3.39,3.227h.651a5.012,5.012,0,0,0-.969,2.751c-.064.882-.1,2.034-.1,3.2,0,1.005.036,1.987.1,2.84a4.8,4.8,0,0,0,3.018,4.242,38.794,38.794,0,0,1-5.345,2.264,3.359,3.359,0,0,0-2.493,3.187,3.576,3.576,0,0,0,3.679,3.454c1.42,0,5.568-1.882,9.231-4.2l-.021,1.923v.054a3.323,3.323,0,0,0,3.519,3.26,3.371,3.371,0,0,0,3.583-3.292c0-.758,0-1.4-.006-1.977,3.96,2.6,7.716,4.17,9.053,4.17a3.848,3.848,0,0,0,3.906-3.776,3.367,3.367,0,0,0-2.41-3.182c-1.71-.589-3.4-1.2-5.07-1.958a4.977,4.977,0,0,0,2.89-4.277c.065-.947.1-2.133.1-3.343,0-1.069-.036-2.064-.1-2.879a4.426,4.426,0,0,0-1-2.454h.492a3.235,3.235,0,0,0,3.324-3.292,3.235,3.235,0,0,0-3.324-3.292h-7.853V3.647A3.4,3.4,0,0,0,297.082.291Z"/>
  <path class="cls-1"
        d="M327.8,32.1c-1.254,0-4.585,0-4.585-2.744a2.717,2.717,0,0,1,.088-.692c-1.8,1.142-3.619,1.982-4.548,1.982a2.718,2.718,0,0,1-2.712-2.712,2.449,2.449,0,0,1,1.893-2.352,11.654,11.654,0,0,0,5.5-3.45,2.658,2.658,0,0,1,.314-.3,4.023,4.023,0,0,1-2.7-3.7c-.033-.6-.034-1.2-.034-1.8s0-1.206.034-1.742c.124-1.871,1.4-3.894,4.591-3.974,1.365-.033,3.02-.065,4.773-.065,2.138,0,4.436.032,6.509.064a4.315,4.315,0,0,1,4.438,3.708c.034.543.068,1.179.068,1.847s-.034,1.33-.067,1.929a4.274,4.274,0,0,1-3.292,3.922,21.194,21.194,0,0,1,6.175,3.627,2.849,2.849,0,0,1,.963,2.119,2.786,2.786,0,0,1-2.648,2.841,2.433,2.433,0,0,1-1.894-.935,16.105,16.105,0,0,0-5.2-3.414,2.4,2.4,0,0,1-1.467-2.175,2.512,2.512,0,0,1,.765-1.812c-.3.009-.6.017-.9.023v1.821l.033,2.929C333.906,30.153,331.51,32.1,327.8,32.1Zm-1.874-5.347a3.315,3.315,0,0,1,.436.082,7.63,7.63,0,0,0,1.6.228c.776,0,.776-.189.776-.647V22.307c-.547-.01-1.09-.028-1.63-.045A2.684,2.684,0,0,1,327.769,24a2.525,2.525,0,0,1-.676,1.669A14.526,14.526,0,0,1,325.928,26.758Zm.249-9.294a30.136,30.136,0,0,0,4.92.172c1.575,0,3.151-.032,4.63-.064.428-.02.475-.022.475-1.035a3.875,3.875,0,0,0-.106-1.243s-.011,0-.026,0c-.05,0-.178-.018-.412-.024-1.188-.032-2.568-.065-4.012-.065-1.737,0-3.506.033-5.018.065-.347.009-.507.013-.507,1.132a7.9,7.9,0,0,0,.026.827C326.158,17.346,326.169,17.418,326.177,17.464Zm4.882-7-11.812.065a2.434,2.434,0,0,1-2.523-2.454,2.479,2.479,0,0,1,2.517-2.551l9.208.059V4.067a2.685,2.685,0,0,1,5.36,0V5.581l9.1-.059a2.408,2.408,0,0,1,2.492,2.486,2.42,2.42,0,0,1-2.485,2.519Z"/>
  <path class="cls-2"
        d="M331.129,2.549a1.553,1.553,0,0,1,1.68,1.518v2.52l10.111-.065a1.421,1.421,0,0,1,1.485,1.486,1.429,1.429,0,0,1-1.485,1.519l-11.856-.065-11.823.065a1.422,1.422,0,0,1-1.517-1.454,1.481,1.481,0,0,1,1.517-1.551l10.208.065V4.067a1.553,1.553,0,0,1,1.68-1.518m-.711,9.013c2.133,0,4.426.032,6.493.064a3.334,3.334,0,0,1,3.457,2.778c.032.517.065,1.131.065,1.777s-.033,1.292-.065,1.874a3.46,3.46,0,0,1-3.618,3.165c-1.292.032-2.584.1-3.877.1v2.81l.033,2.94v.065c0,2.326-1.777,3.973-5.1,3.973-1.389,0-3.585-.032-3.585-1.744a1.551,1.551,0,0,1,1.485-1.615,1.908,1.908,0,0,1,.42.064,8.589,8.589,0,0,0,1.842.258c1.162,0,1.776-.484,1.776-1.647v-5.1c-1.356,0-2.681-.065-4.006-.1-2.358-.1-3.586-1.356-3.682-3.133-.032-.582-.032-1.163-.032-1.744s0-1.163.032-1.68c.1-1.454,1.034-2.972,3.618-3.037,1.356-.032,3-.064,4.748-.064m.679,7.074c1.583,0,3.166-.032,4.651-.064,1.422-.065,1.454-1.067,1.454-2.035,0-1.874-.259-2.229-1.518-2.262-1.2-.032-2.584-.065-4.038-.065-1.745,0-3.521.033-5.04.065-1.259.033-1.485.9-1.485,2.132a8.86,8.86,0,0,0,.032.937c.129,1.292.452,1.292,5.944,1.292m-5.944,3.683A1.723,1.723,0,0,1,326.769,24a1.513,1.513,0,0,1-.42,1c-2.2,2.326-6.429,4.651-7.592,4.651a1.722,1.722,0,0,1-1.712-1.712,1.439,1.439,0,0,1,1.163-1.389,12.732,12.732,0,0,0,5.976-3.747,1.339,1.339,0,0,1,.969-.484m11.274.29c.9,0,5.1,1.874,7.138,3.78a1.862,1.862,0,0,1,.647,1.389,1.81,1.81,0,0,1-1.648,1.841,1.448,1.448,0,0,1-1.13-.581,16.729,16.729,0,0,0-5.556-3.683,1.378,1.378,0,0,1-.872-1.26,1.468,1.468,0,0,1,1.421-1.486m-5.3-22.06a3.523,3.523,0,0,0-3.68,3.518v.508l-8.195-.053a3.46,3.46,0,0,0-3.53,3.551,3.41,3.41,0,0,0,3.517,3.454l2-.011a5.277,5.277,0,0,0-1.184,3.014c-.036.587-.036,1.21-.036,1.813s0,1.218.035,1.855A5,5,0,0,0,322.1,22.08a10.659,10.659,0,0,1-4.444,2.547,3.423,3.423,0,0,0-2.614,3.312,3.716,3.716,0,0,0,3.712,3.712,8.943,8.943,0,0,0,3.585-1.26c.476,1.8,2.307,2.714,5.46,2.714,4.907,0,7.1-3,7.1-5.973v-.026l.117.057a14.78,14.78,0,0,1,4.9,3.189,3.446,3.446,0,0,0,2.638,1.267,3.8,3.8,0,0,0,3.648-3.841,3.883,3.883,0,0,0-1.285-2.855,20.136,20.136,0,0,0-4.535-2.964,5.167,5.167,0,0,0,1.973-3.788c.033-.595.068-1.283.068-1.99s-.037-1.391-.069-1.9a4.66,4.66,0,0,0-1.187-2.763l1.732.01a3.428,3.428,0,0,0,3.5-3.519,3.409,3.409,0,0,0-3.485-3.486l-8.111.053V4.067a3.523,3.523,0,0,0-3.68-3.518Zm-4.006,15.717c1.41-.03,2.984-.056,4.523-.056,1.246,0,2.438.025,3.554.053,0,.081,0,.172,0,.274v.046c-1.357.029-2.727.053-4.105.053-1.7,0-3.148,0-3.976-.05v-.179c0-.051,0-.1,0-.141Z"/>
  <path class="cls-1"
        d="M369.311,32.363a2.45,2.45,0,0,1-2.583-2.421c0-6.51.006-10.918.021-14.217a2.747,2.747,0,0,1-1.283.293l-4.017-.058q-.174.193-.351.385c.552,0,1.052.007,1.463.034a3.911,3.911,0,0,1,3.679,3.654l.016.63c.034,1.3.081,3.107.081,4.628,0,.733,0,1.4-.034,1.936a4.1,4.1,0,0,1-3.827,3.935,24.035,24.035,0,0,1-2.437.1c-4.566,0-6.718-.513-6.718-5.2,0-1.05.036-2.276.079-3.4a3.758,3.758,0,0,1-1.954.682,2.343,2.343,0,0,1-2.324-2.357,2.47,2.47,0,0,1,1.354-2.134A30.329,30.329,0,0,0,354.926,16l-3.054.017a2.309,2.309,0,1,1-.006-4.616h3.717V10.365h-2.3a2.294,2.294,0,1,1,0-4.584h2.263V4.067a2.374,2.374,0,0,1,2.517-2.388,2.4,2.4,0,0,1,2.519,2.388l-.021,1.714h.765a2.46,2.46,0,0,1,1.229.3c.144-.324.287-.664.419-1.015a2.317,2.317,0,0,1,2.164-1.518,2.743,2.743,0,0,1,2.394,1.425,3.963,3.963,0,0,1,3.471-1.748c.861-.032,1.81-.032,2.824-.032.726,0,1.452,0,2.178.033,2.536.076,4.184,1.533,4.184,3.712,0,1.523-.5,2.453-2.392,5.763a2.458,2.458,0,0,0-.353,1.053c0,.221.064.506.528,1.093a9.8,9.8,0,0,1,2.444,6.24c0,3.845-2.44,6.427-6.071,6.427a4.82,4.82,0,0,1-2.522-.565v2.989A2.422,2.422,0,0,1,369.311,32.363Zm-11.333-5.726a11.791,11.791,0,0,0,2.061.109,4.77,4.77,0,0,0,1.644-.149c0-.016,0-.065.006-.143v-.809h-3.747c0,.309.011.583.027.8C357.971,26.529,357.975,26.591,357.978,26.637ZM373.355,7.813c-.461,0-.92,0-1.325.03-.092,0-.2.01-.2.262-.032,1.95-.032,3.915-.032,5.912,0,2.119.008,4.278.016,6.464q0,.936.006,1.879a2.292,2.292,0,0,1,1.207-.331,2.088,2.088,0,0,1,.559.06,3.443,3.443,0,0,0,.668.07c.425,0,.906,0,.906-1.455a5.37,5.37,0,0,0-1.347-3.241,5.834,5.834,0,0,1-1.333-3.608,6.929,6.929,0,0,1,.815-3.128,28.734,28.734,0,0,0,1.274-2.9c-.3-.013-.716-.013-1.122-.013ZM361.631,21.351c0-.142-.008-.272-.008-.389-.006-.1-.014-.168-.021-.216a12.5,12.5,0,0,0-1.789-.076,7.563,7.563,0,0,0-1.786.1,3.1,3.1,0,0,0-.047.581Zm3.8-9.949a2.7,2.7,0,0,1,1.341.33c.01-1.195.023-2.24.037-3.248-.487.906-1.114,1.928-1.777,2.918Z"/>
  <path class="cls-2"
        d="M358.068,2.679a1.406,1.406,0,0,1,1.519,1.388l-.032,2.714h1.776a1.279,1.279,0,0,1,1.357,1.324,24.774,24.774,0,0,0,1.227-2.681,1.31,1.31,0,0,1,1.228-.872,1.623,1.623,0,0,1,1.647,1.422c0,.581-1.453,3.423-3.682,6.428h2.326a1.383,1.383,0,0,1,1.518,1.324,1.331,1.331,0,0,1-1.486,1.292h-.032l-4.426-.064q-1.113,1.258-2.325,2.422c.677-.032,1.388-.032,2.035-.032.678,0,1.292,0,1.776.032a2.918,2.918,0,0,1,2.746,2.682c.032,1.292.1,3.456.1,5.233,0,.71,0,1.356-.032,1.873a3.093,3.093,0,0,1-2.94,3,23.268,23.268,0,0,1-2.326.1c-4.651,0-5.718-.581-5.718-4.2,0-1.712.1-3.877.162-5.33-1.809,1.292-2.455,1.615-3.037,1.615a1.337,1.337,0,0,1-1.324-1.357,1.469,1.469,0,0,1,.84-1.26,29.2,29.2,0,0,0,6.654-4.748l-5.75.032a1.31,1.31,0,1,1,0-2.616h4.717V9.365h-3.3a1.3,1.3,0,1,1,0-2.584h3.263V4.067a1.388,1.388,0,0,1,1.517-1.388m4.038,6.492a1.369,1.369,0,0,1-.775.194h-1.776l-.033,3.037h.42a24.365,24.365,0,0,0,2.164-3.231m-5.135,13.18h5.684c0-.549-.032-1.034-.032-1.389-.064-1.228-.42-1.292-2.81-1.292-2.681,0-2.842,0-2.842,2.681m3.068,5.4c2,0,2.616-.226,2.649-1.26V24.645h-5.75c0,.742,0,1.421.033,1.873.032,1,.193,1.228,3.068,1.228M373.832,4.2c.711,0,1.422,0,2.133.032,2.164.064,3.229,1.2,3.229,2.713,0,1.228-.354,1.939-2.26,5.266a3.376,3.376,0,0,0-.485,1.55,2.75,2.75,0,0,0,.743,1.713,8.756,8.756,0,0,1,2.229,5.62c0,3.554-2.229,5.427-5.071,5.427-.711,0-2.746,0-2.746-1.873a1.521,1.521,0,0,1,1.421-1.616,1.076,1.076,0,0,1,.323.033,4.59,4.59,0,0,0,.9.1c1.551,0,1.906-1.163,1.906-2.455a6.366,6.366,0,0,0-1.551-3.845,4.848,4.848,0,0,1-1.129-3,5.942,5.942,0,0,1,.71-2.681c1.486-3.069,1.486-3.586,1.486-3.682,0-.679-.452-.679-2.229-.679-.517,0-1.034,0-1.486.033a1.174,1.174,0,0,0-1.131,1.259c-.032,1.938-.032,3.909-.032,5.912,0,4.3.032,8.754.032,13.276v2.649a1.431,1.431,0,0,1-1.517,1.421,1.451,1.451,0,0,1-1.583-1.421c0-13.729.032-18.057.1-22.289.032-2.067,1.067-3.392,3.2-3.424.873-.032,1.809-.032,2.81-.032M358.068.679a3.379,3.379,0,0,0-3.517,3.388v.714h-1.263a3.269,3.269,0,0,0-3.39,3.292,3.23,3.23,0,0,0,1.065,2.438,3.221,3.221,0,0,0-2.485,3.183,3.273,3.273,0,0,0,3.22,3.32q-.8.492-1.676.955a3.47,3.47,0,0,0-1.9,3.025,3.344,3.344,0,0,0,3.324,3.357,3.544,3.544,0,0,0,.9-.115c-.017.63-.028,1.255-.028,1.83,0,5.743,3.345,6.2,7.718,6.2.584,0,1.691-.014,2.546-.109a5.42,5.42,0,0,0,3.222-1.463,3.57,3.57,0,0,0,7.021-.751V28.378a7.662,7.662,0,0,0,1.522.14c4.163,0,7.071-3.054,7.071-7.427a10.659,10.659,0,0,0-2.632-6.825,1.9,1.9,0,0,1-.341-.523h0a2.4,2.4,0,0,1,.24-.574c1.945-3.4,2.506-4.459,2.506-6.227,0-2.269-1.6-4.606-5.17-4.712-.725-.033-1.471-.033-2.192-.033-1.015,0-1.974,0-2.883.033a5.184,5.184,0,0,0-3.4,1.2,3.754,3.754,0,0,0-2.4-.874,3.315,3.315,0,0,0-3.071,2.1l-.014.035-.013.034L362,4.841a3.552,3.552,0,0,0-.419-.052l.009-.7A3.385,3.385,0,0,0,358.068.679Zm14.75,8.137.266,0q-.12.268-.273.6c0-.2,0-.4.007-.595Zm0,12.22c0-.186,0-.373,0-.558q-.006-1.359-.01-2.7c.066.094.135.188.206.282a4.427,4.427,0,0,1,1.15,2.645,3.393,3.393,0,0,1-.026.451,2.583,2.583,0,0,1-.33-.043,3.122,3.122,0,0,0-.777-.083c-.071,0-.141,0-.211.007Z"/>
  <path class="cls-1"
        d="M388.175,32.2a2.441,2.441,0,0,1-2.615-2.357c.024-2.292.035-4.638.045-7.028.018-3.918.036-7.968.117-11.889.041-2.59,2.107-4.429,5.023-4.469,1.781-.027,3.588-.055,5.438-.063,0-.388-.01-.767-.015-1.118-.007-.511-.013-.965-.013-1.307a2.5,2.5,0,0,1,2.583-2.583A2.578,2.578,0,0,1,401.386,4c0,.611,0,1.5-.013,2.392,1.988,0,4.021.009,6.019.065a4.893,4.893,0,0,1,4.912,4.732c.032,1.81.04,3.6.048,5.389s.016,3.56.048,5.365l.065,4.493c0,2.507-1.742,5.343-6.653,5.343-1.678,0-4.489,0-4.489-2.777a2.374,2.374,0,0,1,2.325-2.518,1.619,1.619,0,0,1,.285.031h.089l.063.018a10.883,10.883,0,0,0,1.856.21c1.262,0,1.262-.409,1.262-.842,0-1.587,0-2.949,0-4.133a2.789,2.789,0,0,1-1.842.708,2.566,2.566,0,0,1-2.164-1.232,14.219,14.219,0,0,0-4.265-3.868c-2.12,3.773-5.221,5.843-6.718,5.843a2.583,2.583,0,0,1-1.487-.478v7.069A2.393,2.393,0,0,1,388.175,32.2Zm7.683-21c-1.238,0-2.457.007-3.657.031-1.355.024-1.358.156-1.379,1.185-.045,2.007-.074,4.032-.088,6.05.077-.05.156-.1.238-.139C393.6,17,395.2,14.662,395.858,11.206Zm4.861,1.672a19.93,19.93,0,0,1,6.476,4.709c-.01-2.385-.035-3.635-.089-5.149-.041-1.175-.111-1.177-1.282-1.2-1.6-.027-3.182-.031-4.76-.032C400.973,11.779,400.857,12.338,400.719,12.878Z"/>
  <path class="cls-2"
        d="M398.738,2.388A1.584,1.584,0,0,1,400.386,4c0,.84,0,2.2-.032,3.392,2.325,0,4.683,0,7.009.064a3.893,3.893,0,0,1,3.941,3.748c.064,3.617.032,7.138.1,10.756l.065,4.491v.064c0,1.874-1.324,4.264-5.653,4.264-2.39,0-3.489-.291-3.489-1.777a1.378,1.378,0,0,1,1.325-1.518c.065,0,.162.033.258.033a12.007,12.007,0,0,0,2.035.226c1.292,0,2.262-.42,2.262-1.842,0-8.947,0-10.789-.1-13.5-.064-1.841-.709-2.132-2.26-2.165-1.907-.032-3.78-.032-5.654-.032a17.208,17.208,0,0,1-.711,3.359h.13c1,0,7.559,4.071,7.559,6.106a1.849,1.849,0,0,1-1.809,1.809,1.553,1.553,0,0,1-1.325-.775,15.657,15.657,0,0,0-5.168-4.523,1.15,1.15,0,0,1-.323-.226c-2,4.2-5.266,6.267-6.331,6.267a1.7,1.7,0,0,1-1.648-1.68,1.5,1.5,0,0,1,.873-1.324c3.875-1.971,5.168-5.654,5.588-9.013-1.647,0-3.262,0-4.845.032-1.842.033-2.327.55-2.359,2.165q-.1,4.361-.1,8.722v8.689a1.417,1.417,0,0,1-1.551,1.389,1.45,1.45,0,0,1-1.615-1.357v-.032c.064-5.944.032-12.566.162-18.865.032-2.035,1.647-3.456,4.037-3.489,2.1-.032,4.232-.064,6.429-.064,0-1.292-.033-2.649-.033-3.424a1.507,1.507,0,0,1,1.583-1.583m0-2a3.5,3.5,0,0,0-3.583,3.583c0,.345.006.8.014,1.321V5.4c-1.511.012-2.994.034-4.442.057-3.429.046-5.957,2.341-6.006,5.457-.081,3.919-.1,7.974-.117,11.9-.01,2.387-.021,4.732-.045,6.979v.054a3.59,3.59,0,0,0,7.166-.032V24.187a3.4,3.4,0,0,0,.487.035c1.876,0,4.873-2.118,7.033-5.44a12.3,12.3,0,0,1,3.125,3.03,3.533,3.533,0,0,0,2.989,1.667,3.675,3.675,0,0,0,.843-.1v2.354c-.07.006-.157.011-.262.011a9.989,9.989,0,0,1-1.678-.194l-.177-.032h-.055a2.244,2.244,0,0,0-.383-.033,3.351,3.351,0,0,0-3.325,3.518c0,3.777,3.847,3.777,5.489,3.777,5.287,0,7.653-3.146,7.653-6.264v-.064l-.065-4.519c-.032-1.8-.04-3.611-.048-5.359s-.016-3.583-.049-5.405A5.889,5.889,0,0,0,407.4,5.46c-1.657-.047-3.345-.06-5.014-.064,0-.533,0-1.02,0-1.393A3.593,3.593,0,0,0,398.738.388Zm3.138,11.93.023-.112c1.292,0,2.6.009,3.912.031.112,0,.205.006.283.011,0,.064.01.138.013.224.032.9.054,1.7.068,2.711-.368-.3-.779-.619-1.24-.951a26.185,26.185,0,0,0-3.059-1.914Zm-10.047-.062c.1-.009.227-.016.387-.019.787-.016,1.576-.024,2.377-.028a8.292,8.292,0,0,1-2.842,4.457c.016-1.41.04-2.82.071-4.22,0-.072,0-.135.007-.19Z"/>
  <path class="cls-1"
        d="M432.784,32.428a2.307,2.307,0,0,1-2.518-2.227l.041-3.851c-3.674,2.791-8.547,5.367-9.992,5.367a2.576,2.576,0,0,1-2.647-2.421,2.535,2.535,0,0,1,1.792-2.285,34.156,34.156,0,0,0,7.623-3.932l-6.427.11a2.279,2.279,0,0,1-2.407-2.324,2.367,2.367,0,0,1,2.39-2.389h9.634l0-.142c-2.627-.062-5.541-.515-5.624-3.807-.028-.95-.032-2.994-.033-5h-3.942a2.306,2.306,0,0,1-2.358-2.357,2.293,2.293,0,0,1,2.358-2.324h3.975V4.1a2.486,2.486,0,0,1,4.971.032v.712h6.431V4.067a2.345,2.345,0,0,1,2.422-2.421,2.458,2.458,0,0,1,2.516,2.387c0,.188.017.738.019.811h4.119a2.276,2.276,0,0,1,2.324,2.324,2.289,2.289,0,0,1-2.324,2.357h-4.071c0,2.21,0,4.3-.034,5.079-.155,3.247-3,3.675-5.721,3.731l0,.141h9.8a2.357,2.357,0,1,1,.032,4.713l-6.507-.107a43.919,43.919,0,0,0,7.63,3.468A2.5,2.5,0,0,1,448,28.909a2.685,2.685,0,0,1-2.712,2.647c-1.579,0-6.288-2.549-10.024-5.322l.042,3.924A2.34,2.34,0,0,1,432.784,32.428Zm-3.212-18.674a14.1,14.1,0,0,0,3.277.167,13.075,13.075,0,0,0,3.248-.2h-6.534Z"/>
  <path class="cls-2"
        d="M438.47,2.646a1.449,1.449,0,0,1,1.517,1.421c0,.388.033,1,.033,1.777h5.1a1.287,1.287,0,0,1,1.324,1.324,1.3,1.3,0,0,1-1.324,1.357h-5.071c0,2.488,0,5.169-.033,6.041-.129,2.713-2.842,2.778-5.944,2.778a1.32,1.32,0,0,1,.227.808l-.032,1.324h10.821a1.357,1.357,0,1,1,.032,2.713h-.032l-9.756-.161A36.556,36.556,0,0,0,445.9,27.487a1.5,1.5,0,0,1,1.1,1.422,1.689,1.689,0,0,1-1.712,1.647c-1.26,0-6.912-2.94-11.047-6.4l.065,6.008V30.2a1.366,1.366,0,0,1-1.519,1.227c-.775,0-1.518-.42-1.518-1.227v-.033l.064-5.943c-3.682,3.262-9.787,6.492-11.015,6.492a1.58,1.58,0,0,1-1.647-1.421c0-.517.355-1.034,1.163-1.357a32.4,32.4,0,0,0,10.207-5.911l-9.4.161h-.033a1.278,1.278,0,0,1-1.357-1.324,1.356,1.356,0,0,1,1.39-1.389H431.3l-.032-1.324a1.32,1.32,0,0,1,.226-.808c-3.521,0-5.782-.291-5.846-2.843-.033-1.1-.033-3.65-.033-5.976h-4.942a1.3,1.3,0,0,1-1.358-1.357,1.3,1.3,0,0,1,1.358-1.324h4.975V4.1A1.405,1.405,0,0,1,427.1,2.646a1.43,1.43,0,0,1,1.518,1.486V5.844h8.431V4.067a1.354,1.354,0,0,1,1.422-1.421m-9.917,7.721h8.559l-.032-1.939h-8.5c0,.647-.032,1.293-.032,1.939m4.3,4.554c2.971,0,4.263,0,4.263-1.259v-.937h-8.559v.937c.064,1.259,1.13,1.259,4.3,1.259M438.47.646a3.34,3.34,0,0,0-3.416,3.2h-4.448a3.488,3.488,0,0,0-6.952,0h-2.983a3.306,3.306,0,0,0-3.358,3.324,3.284,3.284,0,0,0,3.358,3.357h2.943c0,1.694.008,3.221.032,4.035a4.431,4.431,0,0,0,1.022,2.916h-4.029a3.354,3.354,0,0,0-3.39,3.389,3.267,3.267,0,0,0,3.357,3.324h.067l2.752-.047a40.882,40.882,0,0,1-4.316,1.932,3.509,3.509,0,0,0-2.441,3.222,3.587,3.587,0,0,0,3.647,3.421c1.632,0,5.617-2.109,8.971-4.409l-.02,1.839V30.2a3.307,3.307,0,0,0,3.518,3.227A3.346,3.346,0,0,0,436.3,30.2v-.054l-.022-1.966c3.42,2.325,7.317,4.375,9,4.375A3.684,3.684,0,0,0,449,28.909a3.506,3.506,0,0,0-2.4-3.295c-1.243-.46-2.474-.931-3.688-1.46l2.146.035h.065a3.357,3.357,0,1,0-.032-6.713H441a4.466,4.466,0,0,0,1.018-2.815c.026-.685.033-2.3.035-4.136h3.072a3.3,3.3,0,0,0,3.324-3.357,3.289,3.289,0,0,0-3.324-3.324h-3.146a3.441,3.441,0,0,0-3.508-3.2Z"/>
  <path class="cls-1"
        d="M474.584,31.911a2.4,2.4,0,0,1-2.551-2.356l.03-13.6H470.9c-.2,4.76-1.21,11.037-6.249,14.79a2.893,2.893,0,0,1-1.728.618,2.634,2.634,0,0,1-2.615-2.583,2.4,2.4,0,0,1,1.063-1.944c3.025-2.067,4.132-5.367,4.509-8.807-.822,1.779-2.676,2.093-6.381,2.093-.286,0-.565-.007-.841-.015-.33,4.278-1.35,7.522-3.184,10.15a2.775,2.775,0,0,1-2.275,1.235,2.507,2.507,0,0,1-2.55-2.389,2.532,2.532,0,0,1,.5-1.477c2.4-3.332,2.728-6.956,2.728-10.378,0-1.085-.028-2.185-.057-3.289-.014-.565-.029-1.132-.04-1.7,0-1.868,1.053-3.807,4.007-3.893.743-.033,1.5-.033,2.259-.033,3.362,0,5.168.141,5.936,2.184-.006-.176-.014-.35-.022-.524V9.559a6.833,6.833,0,0,1,.2-1.728,2.516,2.516,0,0,1-1.172.273h-9.981a2.406,2.406,0,1,1,0-4.811h9.981a2.368,2.368,0,0,1,2.421,2.422c0,.024,0,.047,0,.071a4.548,4.548,0,0,1,2.321-.932,26.687,26.687,0,0,0,7.029-1.939,2.652,2.652,0,0,1,1.054-.2,2.609,2.609,0,0,1,2.551,2.648,2.463,2.463,0,0,1-1.782,2.4,49.062,49.062,0,0,1-7.316,1.717,1.01,1.01,0,0,0-.343.1,3.228,3.228,0,0,0-.024.37v.194c.018.353.036.731.048,1.125l8.8-.058a2.371,2.371,0,0,1,2.46,2.389,2.343,2.343,0,0,1-2.453,2.389H477.1l.031,13.566A2.406,2.406,0,0,1,474.584,31.911Zm-15.8-16.32c.178.006.354.01.525.01a10.012,10.012,0,0,0,2.2-.142c.033-.47.062-1.069.062-1.668a7.669,7.669,0,0,0-.04-.971,7.1,7.1,0,0,0-1.22-.064,7.865,7.865,0,0,0-1.55.09.71.71,0,0,0,0,.072c0,.59.008,1.187.016,1.788C458.773,15,458.777,15.3,458.78,15.591Z"/>
  <path class="cls-2"
        d="M477.814,3.712a1.613,1.613,0,0,1,1.551,1.648,1.478,1.478,0,0,1-1.1,1.453,47.96,47.96,0,0,1-7.171,1.68c-.97.162-1.2.614-1.2,1.454v.194c.033.678.065,1.388.065,2.131l9.788-.064a1.372,1.372,0,0,1,1.453,1.389,1.355,1.355,0,0,1-1.453,1.389H476.1l.032,14.569a1.565,1.565,0,0,1-3.1,0l.032-14.6h-3.132c-.13,5.524-1.2,11.5-5.879,14.988a1.894,1.894,0,0,1-1.131.42,1.635,1.635,0,0,1-1.615-1.583,1.4,1.4,0,0,1,.645-1.131c4.394-3,5.105-8.269,5.105-13.4,0-1.453-.033-2.907-.1-4.3V9.559c0-2.2.808-3.424,2.907-3.715a27.845,27.845,0,0,0,7.268-2,1.7,1.7,0,0,1,.678-.129m-12.824.581a1.372,1.372,0,0,1,1.421,1.422A1.364,1.364,0,0,1,464.99,7.1h-9.981a1.38,1.38,0,0,1-1.454-1.421,1.373,1.373,0,0,1,1.454-1.39h9.981m-4.942,5.04c4.458,0,5.394.032,5.394,4.813,0,4.426-.646,4.975-5.943,4.975-.614,0-1.2-.033-1.777-.033-.194,3.747-.9,7.495-3.069,10.6a1.752,1.752,0,0,1-1.454.807,1.5,1.5,0,0,1-1.55-1.389,1.55,1.55,0,0,1,.323-.9c2.487-3.457,2.907-7.172,2.907-10.951,0-1.647-.065-3.327-.1-5.007v-.064c0-1.454.84-2.746,3.036-2.811.744-.032,1.487-.032,2.23-.032m-.743,7.268c2.164,0,3.1-.064,3.2-1.034.032-.484.064-1.13.064-1.776,0-1.841-.1-2.035-2.26-2.035-1.681,0-2.553.032-2.553,1.162,0,1.2.032,2.423.032,3.651.518,0,1.034.032,1.519.032M477.814,1.712a3.65,3.65,0,0,0-1.463.29,25.62,25.62,0,0,1-6.728,1.857,6.776,6.776,0,0,0-1.531.388,3.383,3.383,0,0,0-3.1-1.954h-9.981a3.386,3.386,0,0,0-3.454,3.39,3.334,3.334,0,0,0,2.407,3.273,4.83,4.83,0,0,0-1.18,3.22v.064c.011.608.026,1.177.041,1.744.027,1.079.056,2.195.056,3.263,0,3.254-.307,6.692-2.531,9.783a3.57,3.57,0,0,0-.7,2.072,3.476,3.476,0,0,0,3.55,3.389,3.74,3.74,0,0,0,3.076-1.637,20.076,20.076,0,0,0,3.3-9.733,15.28,15.28,0,0,0,4.834-.548A9.118,9.118,0,0,1,460.824,26a3.411,3.411,0,0,0-1.516,2.782,3.647,3.647,0,0,0,3.615,3.583,3.885,3.885,0,0,0,2.33-.819,15.943,15.943,0,0,0,5.8-9.212l-.016,7.219a3.557,3.557,0,0,0,7.1,0l-.028-12.569h1.646a3.346,3.346,0,0,0,3.453-3.389,3.385,3.385,0,0,0-3.453-3.389l-7.138.047A45.138,45.138,0,0,0,478.9,8.711a3.467,3.467,0,0,0,2.466-3.351,3.6,3.6,0,0,0-3.551-3.648ZM459.758,13.759c.2,0,.4,0,.549,0h.26v.034c0,.268-.006.537-.015.79-.251.012-.534.017-.784.019,0-.282-.007-.562-.01-.841Z"/>
</svg>
