<svg xmlns="http://www.w3.org/2000/svg" viewBox="0 0 121.172 23.608">
  <defs>
    <style>.cls-1 {
      fill: #5b6e80;
    }

    .cls-2 {
      fill: #fff;
    }</style>
  </defs>
  <path class="cls-1"
        d="M2.564,17.927A1.793,1.793,0,0,1,1.2,17.373a1.707,1.707,0,0,1-.45-1.15,1.728,1.728,0,0,1,1.581-1.7c.032-.9.05-2.631.05-4.589,0-1.845-.016-3.706-.033-4.674A1.71,1.71,0,0,1,.769,3.519a1.732,1.732,0,0,1,1.8-1.74H2.7c.416.019.812.037,1.209.037.451,0,.892-.01,1.334-.018s.9-.02,1.366-.02c.486,0,.973,0,1.459.041,3.729.277,5.06,2.494,5.06,4.477A4.328,4.328,0,0,1,10.5,10.324c.354.471.692.971,1.057,1.561a17.02,17.02,0,0,0,1.67,2.483c.02.006.124.015.187.02a1.732,1.732,0,0,1,1.7,1.718,1.818,1.818,0,0,1-1.915,1.8c-.562-.02-1.077-.02-1.574-.02h-.047c-.476,0-.933,0-1.337.019h-.111a1.666,1.666,0,0,1-1.76-1.644,1.683,1.683,0,0,1,.84-1.453c-.941-1.6-2.185-3.652-2.653-3.8-.2-.015-.346-.016-.487-.016-.013,0-.176,0-.26,0,0,.713.022,1.689.037,2.6l.016.892a1.7,1.7,0,0,1,1.715,1.7,1.764,1.764,0,0,1-1.78,1.741H5.684c-.457-.019-.951-.039-1.426-.039-.773,0-1.389.021-1.537.036ZM5.843,7.868c.216.01.523.01.824.01.433,0,.9-.02,1.242-.037a1.662,1.662,0,0,0,1.6-1.5c0-.7-.65-1.151-1.74-1.213-.226-.018-.6-.019-.989-.019H6.516c-.242,0-.477,0-.66.013-.013.223-.013.549-.013.753Z"/>
  <path class="cls-2"
        d="M6.609,2.529c.466,0,.932,0,1.4.038,3.4.253,4.37,2.215,4.37,3.73A3.548,3.548,0,0,1,9.6,9.813c-.156.02-.291.058-.291.156a.228.228,0,0,0,.077.155,18.456,18.456,0,0,1,1.534,2.156c1.729,2.778,1.749,2.8,2.429,2.856a.976.976,0,0,1,1.009.97,1.075,1.075,0,0,1-1.165,1.049c-.544-.019-1.068-.019-1.574-.019s-.99,0-1.418.019h-.077a.911.911,0,0,1-1.01-.893.936.936,0,0,1,.738-.912c.136-.039.349-.118.349-.273a.26.26,0,0,0-.038-.116c-1.9-3.244-2.836-4.7-3.574-4.7-.214-.02-.389-.02-.564-.02-.6,0-.971.02-.971.428,0,1.01.039,2.855.058,4.138,0,.291.214.407.622.426a.98.98,0,0,1,1.088.953,1,1,0,0,1-1.03.99H5.716c-.467-.02-.972-.039-1.457-.039-.758,0-1.418.019-1.613.039l-.081,0A.968.968,0,0,1,1.5,16.224a1,1,0,0,1,1.107-.972h.079c.31,0,.369-.233.388-.466.038-.836.058-2.836.058-4.856S3.112,5.87,3.094,5c0-.31-.078-.467-.369-.467-1.127,0-1.2-.8-1.2-1.009a.974.974,0,0,1,1.048-.991h.1c.428.02.835.038,1.243.038.913,0,1.787-.038,2.7-.038m.058,6.1c.447,0,.933-.02,1.282-.038a2.41,2.41,0,0,0,2.312-2.254c0-.951-.739-1.864-2.448-1.962-.252-.02-.718-.02-1.184-.02-.331,0-.661,0-.894.02-.6.059-.641.1-.641,1.5V8.182c0,.446.349.446,1.573.446m-.058-7.6c-.467,0-.924.01-1.382.02-.436.009-.872.018-1.318.018-.386,0-.77-.018-1.175-.036l-.034,0H2.568A2.465,2.465,0,0,0,.02,3.52,2.453,2.453,0,0,0,1.607,5.834c.014,1.04.025,2.563.025,4.1,0,1.6-.012,3.054-.033,4A2.413,2.413,0,0,0,0,16.224a2.456,2.456,0,0,0,2.565,2.453c.05,0,.1,0,.154,0l.039,0,.038,0c.113-.01.676-.031,1.463-.031.464,0,.947.019,1.394.037l.031,0h.109a2.54,2.54,0,0,0,2.155-1.186,2.486,2.486,0,0,0,2.177,1.166h.146c.381-.018.811-.018,1.259-.018h.135c.475,0,.966,0,1.476.018h.053a2.58,2.58,0,0,0,2.665-2.549,2.448,2.448,0,0,0-2.272-2.454c-.258-.342-.77-1.165-1.393-2.165-.2-.324-.4-.623-.586-.9A5.122,5.122,0,0,0,13.878,6.3c0-2.213-1.508-4.909-5.759-5.225C7.6,1.029,7.1,1.029,6.609,1.029ZM6.594,5.854h.035c.389,0,.874,0,1.069.016.544.031,1.063.186,1.063.466s-.295.687-.927.758c-.262.013-.731.034-1.167.034H6.594V5.854Zm0,8.009,0-.281c-.009-.507-.018-1.034-.025-1.523a30.4,30.4,0,0,1,1.667,2.584,2.474,2.474,0,0,0-.241.317,2.408,2.408,0,0,0-1.4-1.1Z"/>
  <path class="cls-1"
        d="M21.315,18.119a5.342,5.342,0,0,1-5.393-5.645,5.446,5.446,0,0,1,5.354-5.761c2.959,0,4.946,2.166,4.946,4.188a2.429,2.429,0,0,1-2.572,2.44c-.577.018-.962.019-4.16.019a1.8,1.8,0,0,0,1.845,1.452,2.539,2.539,0,0,0,1.977-.947,1.624,1.624,0,0,1,1.208-.548,1.815,1.815,0,0,1,1.779,1.76,1.683,1.683,0,0,1-.51,1.21A5.576,5.576,0,0,1,21.315,18.119Zm-.383-7.852c.529,0,1.087,0,1.548-.006A1.694,1.694,0,0,0,21.3,9.9a1.859,1.859,0,0,0-1.1.364Z"/>
  <path class="cls-2"
        d="M21.276,7.463a3.924,3.924,0,0,1,4.2,3.438,1.677,1.677,0,0,1-1.846,1.69c-.6.019-1.01.019-4.778.019-.118,0-.156.156-.156.369a2.556,2.556,0,0,0,2.642,2.583,3.27,3.27,0,0,0,2.525-1.184.883.883,0,0,1,.661-.311,1.059,1.059,0,0,1,1.029,1.01.926.926,0,0,1-.291.68,4.891,4.891,0,0,1-3.944,1.612,4.6,4.6,0,0,1-4.642-4.894,4.718,4.718,0,0,1,4.6-5.012m-.408,3.555c.8,0,1.671,0,2.2-.02a.41.41,0,0,0,.389-.428c0-.271-.408-1.418-2.156-1.418a2.553,2.553,0,0,0-2.428,1.691c0,.175.194.175,2,.175m.408-5.055a6.25,6.25,0,0,0-6.1,6.512,6.066,6.066,0,0,0,6.142,6.394A6.374,6.374,0,0,0,26.341,16.8a2.4,2.4,0,0,0,.709-1.719,2.512,2.512,0,0,0-.965-1.955,3.08,3.08,0,0,0,.888-2.221c0-2.385-2.289-4.938-5.7-4.938Z"/>
  <path class="cls-1"
        d="M28.688,22.822a1.732,1.732,0,0,1-1.016-.333,1.63,1.63,0,0,1-.638-1.352,1.608,1.608,0,0,1,1.624-1.663h.008c0-.008,0-.517.009-.778s.01-.555.01-.842c0-1.521-.024-3.292-.047-4.934-.011-.889-.023-1.741-.03-2.494a1.628,1.628,0,0,1-1.574-1.681c0-.427.153-1.818,2.129-1.818a2.792,2.792,0,0,1,2.122.815,4.824,4.824,0,0,1,2.87-.933,5.36,5.36,0,0,1,5.451,5.626,5.419,5.419,0,0,1-5.451,5.625,4.734,4.734,0,0,1-2.105-.485c0,.67.006,1.281.017,1.841h.049A1.617,1.617,0,0,1,33.74,21.1a1.69,1.69,0,0,1-1.7,1.722h-3.3l-.048-.748Zm5.429-12.706a2.078,2.078,0,0,0-2.048,2.319,2.068,2.068,0,1,0,4.095,0A2.078,2.078,0,0,0,34.117,10.116Z"/>
  <path class="cls-2"
        d="M34.155,7.56a4.6,4.6,0,0,1,4.7,4.876,4.652,4.652,0,0,1-4.7,4.875,4,4,0,0,1-2.718-1.049.131.131,0,0,0-.1-.038c-.02,0-.039.018-.039.1,0,1.224,0,2.273.019,3.186,0,.408.02.66.8.66a.871.871,0,0,1,.874.933.945.945,0,0,1-.971.971H28.736l-.048,0a.876.876,0,0,1-.9-.934.865.865,0,0,1,.874-.913h.2c.5,0,.563-.234.563-.778,0-.485.02-1.029.02-1.593,0-2.369-.059-5.341-.079-7.5,0-.447-.194-.68-.582-.68h-.1a.875.875,0,0,1-.894-.932c0-.758.505-1.068,1.379-1.068a1.8,1.8,0,0,1,1.885,1.106c.019.059.058.1.077.1.039,0,.078-.039.117-.1A3.917,3.917,0,0,1,34.155,7.56m-.038,7.983a2.836,2.836,0,0,0,2.8-3.107,2.81,2.81,0,1,0-5.6,0,2.837,2.837,0,0,0,2.8,3.107m.038-9.483a5.669,5.669,0,0,0-2.825.74,3.76,3.76,0,0,0-2.167-.623,2.555,2.555,0,0,0-2.879,2.568,2.365,2.365,0,0,0,1.581,2.3c.006.6.015,1.232.024,1.887.023,1.677.047,3.41.047,4.924,0,.283-.006.561-.011.829l0,.155a2.434,2.434,0,0,0,.765,4.734h.05l.031,0h3.25A2.455,2.455,0,0,0,34.49,21.1a2.4,2.4,0,0,0-1.682-2.332v-.12a5.584,5.584,0,0,0,1.348.164,6.151,6.151,0,0,0,6.2-6.375,6.084,6.084,0,0,0-6.2-6.376Zm-.038,7.983c-.8,0-1.3-.616-1.3-1.607s.486-1.57,1.3-1.57,1.3.587,1.3,1.57-.5,1.607-1.3,1.607Z"/>
  <path class="cls-1"
        d="M42.377,17.927a1.769,1.769,0,0,1-1.373-.6,1.738,1.738,0,0,1-.411-1.105,1.7,1.7,0,0,1,1.675-1.7c.02-1.479.035-5.373.035-7.722V5.317A1.634,1.634,0,0,1,40.671,3.6a1.727,1.727,0,0,1,1.722-1.8c.109,0,.208,0,.3-.01s.214-.01.318-.01a2.5,2.5,0,0,1,2.79,2.75v.117c-.052,2.044-.092,8.135-.1,9.908a1.648,1.648,0,0,1,1.417,1.65,1.733,1.733,0,0,1-1.819,1.721c-.453-.02-1.082-.02-1.669-.02h-.256c-.354,0-.678,0-.868.017Z"/>
  <path class="cls-2"
        d="M43.015,2.529c1.4.02,2.04.621,2.04,2v.117c-.059,2.253-.1,9.286-.1,10.256,0,.156.039.35.311.369h.078a.937.937,0,0,1,1.029.934.976.976,0,0,1-1.068.971h-.039c-.408-.02-1.087-.02-1.709-.02-.447,0-.874,0-1.108.02l-.074,0a.956.956,0,1,1,0-1.906h.311c.253,0,.33-.058.33-.408.019-.893.039-5.438.039-8.06V5.326c0-.544-.059-.758-.544-.758H42.3a.881.881,0,0,1-.874-.97.989.989,0,0,1,.972-1.049c.232,0,.426-.02.621-.02m.01-1.5h-.01c-.117,0-.233.005-.355.011-.083,0-.171.009-.266.009A2.484,2.484,0,0,0,39.922,3.6a2.4,2.4,0,0,0,1.632,2.357V6.8c0,2.092-.013,5.41-.028,7.1a2.43,2.43,0,0,0-1.682,2.317,2.468,2.468,0,0,0,2.533,2.453c.047,0,.1,0,.146,0h.027l.026,0c.171-.015.621-.015.983-.015.593,0,1.265,0,1.637.018l.036,0h.036A2.476,2.476,0,0,0,47.875,16.2,2.419,2.419,0,0,0,46.46,14c.01-2.245.046-7.466.094-9.31V4.529a3.224,3.224,0,0,0-3.519-3.5Z"/>
  <path class="cls-1"
        d="M52.338,18.119a3.938,3.938,0,0,1-4.148-3.8,3.314,3.314,0,0,1,2.391-3.137,24.242,24.242,0,0,1,3.163-.843c-.01-.264-.13-.437-.628-.437a1.824,1.824,0,0,0-1.347.569,1.684,1.684,0,0,1-1.275.6,1.665,1.665,0,0,1-1.683-1.643c0-1.445,2.066-2.712,4.421-2.712,2.613,0,4.053,1.431,4.053,4.032,0,.234-.018.486-.037.756l-.009.1c-.031.236-.09,1.7-.09,2.679,0,.079,0,.149,0,.21a1.623,1.623,0,0,1,1.279,1.615,1.78,1.78,0,0,1-1.973,1.819,2.441,2.441,0,0,1-1.524-.45A5.489,5.489,0,0,1,52.338,18.119Zm1.5-4.629c-1.774.276-2.267.667-2.267.868,0,.226.262.454.764.454C53.4,14.812,53.814,14.452,53.841,13.49Z"/>
  <path class="cls-2"
        d="M53.232,7.463c2.157,0,3.3,1.049,3.3,3.282,0,.234-.019.486-.039.758-.039.292-.1,1.826-.1,2.778,0,.718.039.912.37.912a.885.885,0,0,1,.912.913,1.077,1.077,0,0,1-1.224,1.069,1.487,1.487,0,0,1-1.4-.68,4.461,4.461,0,0,1-2.72.874,3.2,3.2,0,0,1-3.4-3.05,2.551,2.551,0,0,1,1.884-2.427,21.082,21.082,0,0,1,3.322-.855c.194-.019.349-.253.349-.66,0-.233-.057-1.225-1.379-1.225a2.57,2.57,0,0,0-1.9.817.942.942,0,0,1-.719.349.912.912,0,0,1-.932-.893c0-.933,1.709-1.962,3.67-1.962m-.893,8.1a1.957,1.957,0,0,0,2.254-2.174c0-.292-.039-.719-.273-.719H54.3c-3.282.407-3.477,1.224-3.477,1.689,0,.6.525,1.2,1.515,1.2m.893-9.6c-2.5,0-5.17,1.391-5.17,3.462a2.375,2.375,0,0,0,.855,1.821,3.892,3.892,0,0,0-1.477,3.073,4.68,4.68,0,0,0,4.9,4.55,6.281,6.281,0,0,0,2.559-.536,3.4,3.4,0,0,0,1.559.342,2.535,2.535,0,0,0,2.724-2.569,2.372,2.372,0,0,0-1.28-2.135c.01-.925.059-2.071.083-2.275l0-.032,0-.053,0-.056c.021-.289.039-.559.039-.81,0-3.039-1.75-4.782-4.8-4.782Z"/>
  <path class="cls-1"
        d="M60.868,22.858a1.65,1.65,0,0,1-1.624-1.779,1.635,1.635,0,0,1,1.6-1.74c.71-.033,1.154-.364,2-2.315-.1-.379-.846-2.225-2.708-6.816A1.615,1.615,0,0,1,58.8,8.57a1.637,1.637,0,0,1,1.682-1.663h.12c.32.019.71.019,1.1.019h.144c.383,0,.757,0,1.036-.018l.1,0a1.561,1.561,0,0,1,1.643,1.585,1.647,1.647,0,0,1-.935,1.494c.26.74.7,1.941,1.055,2.871.361-.9.794-2.068,1.054-2.8a1.644,1.644,0,0,1,.641-3.15h.119c.32.019.727.019,1.119.019h.147c.382,0,.758,0,1.035-.018l.105,0A1.666,1.666,0,0,1,70.709,8.57a1.641,1.641,0,0,1-1.284,1.616l-3.418,8.133c-1.13,2.708-2.437,4.517-5.133,4.539h-.006Z"/>
  <path class="cls-2"
        d="M68.969,7.657a.919.919,0,0,1,.99.913.9.9,0,0,1-.894.913c-.194.019-.213.117-.271.272-.972,2.311-2.468,5.866-3.478,8.274-1.087,2.6-2.2,4.061-4.448,4.079a.919.919,0,0,1-.874-1.029.9.9,0,0,1,.874-.99c1.282-.059,1.885-.952,2.7-2.836a.686.686,0,0,0,.039-.214c0-.271-.194-.758-2.816-7.226-.059-.136-.137-.33-.35-.33a.87.87,0,0,1-.893-.913.89.89,0,0,1,.931-.913h.079c.349.02.777.02,1.2.02s.854,0,1.166-.02h.057a.821.821,0,0,1,.894.835.912.912,0,0,1-.874.913c-.175.02-.252.039-.252.136a45.449,45.449,0,0,0,1.98,5.09c.234,0,2.021-4.954,2.021-5.051,0-.116-.1-.136-.311-.136a.855.855,0,0,1-.874-.913.845.845,0,0,1,.874-.874h.078c.349.02.8.02,1.223.02s.856,0,1.166-.02h.059m0-1.5h-.106l-.047,0c-.264.017-.674.017-1.072.017s-.832,0-1.14-.017l-.042,0h-.119a2.367,2.367,0,0,0-1.708.71,2.411,2.411,0,0,0-1.75-.71h-.1l-.047,0c-.265.017-.675.017-1.072.017s-.813,0-1.121-.017l-.042,0h-.12a2.42,2.42,0,0,0-.895,4.672c1.443,3.56,2.219,5.476,2.463,6.155-.716,1.582-.986,1.594-1.247,1.606a2.379,2.379,0,0,0-2.306,2.489,2.4,2.4,0,0,0,2.374,2.529c3.3-.027,4.754-2.419,5.832-5,.73-1.74,1.714-4.081,2.571-6.118l.712-1.693A2.4,2.4,0,0,0,71.459,8.57a2.427,2.427,0,0,0-2.49-2.413ZM64.6,10.282c.032-.029.064-.06.094-.091a2.415,2.415,0,0,0,.2.193c-.042.113-.085.231-.13.351-.056-.157-.111-.309-.163-.453Z"/>
  <path class="cls-1"
        d="M72.874,18.741a1.677,1.677,0,0,1-1.722-1.624,1.645,1.645,0,0,1,.14-.666c.923-2.312,4.961-12.908,5.364-14.373A1.573,1.573,0,0,1,78.215.905a1.715,1.715,0,0,1,1.76,1.6,1.7,1.7,0,0,1-.1.549c-.566,1.415-4.535,12.025-5.464,14.585A1.611,1.611,0,0,1,72.874,18.741Z"/>
  <path class="cls-2"
        d="M78.216,1.655a.966.966,0,0,1,1.01.855.963.963,0,0,1-.059.31c-.544,1.36-4.506,11.947-5.458,14.569a.867.867,0,0,1-.835.6.93.93,0,0,1-.972-.874.9.9,0,0,1,.078-.369c.894-2.234,4.973-12.918,5.4-14.472a.826.826,0,0,1,.836-.621m0-1.5a2.337,2.337,0,0,0-2.283,1.724c-.4,1.446-4.417,11.99-5.345,14.312a2.323,2.323,0,0,0-.186.926,2.427,2.427,0,0,0,2.472,2.374,2.374,2.374,0,0,0,2.245-1.59C76.048,15.343,80.01,4.75,80.56,3.378l.015-.04.014-.04a2.445,2.445,0,0,0,.137-.788A2.439,2.439,0,0,0,78.216.155Z"/>
  <path class="cls-1"
        d="M85.462,19.207A1.581,1.581,0,0,1,83.8,17.641c0-1.058.014-2.21.029-3.4l-.98.011a1.489,1.489,0,0,1-1.535-1.547,1.542,1.542,0,0,1,1.526-1.585l1.008.012c.01-.678.069-4.05.069-4.05a2.63,2.63,0,0,1,2.808-2.6H83.772a1.577,1.577,0,1,1,0-3.151H97.505A1.552,1.552,0,0,1,99.11,2.9a1.543,1.543,0,0,1-1.605,1.585H94.678A2.668,2.668,0,0,1,97.5,7.219c.026,1,.034,2.054.043,3.1l.007.811.958-.011a1.515,1.515,0,0,1,1.517,1.585,1.494,1.494,0,0,1-1.508,1.547l-.926-.011.025,1.364c0,1.572-1.041,3.347-3.975,3.347-.962,0-2.964,0-2.964-1.819a1.571,1.571,0,0,1,1.566-1.643,1.588,1.588,0,0,1,.4.042,6.442,6.442,0,0,0,1.138.152c.474,0,.474-.063.474-.3v-1.16L90.661,14.2l-3.536.032v3.414A1.581,1.581,0,0,1,85.462,19.207Zm6.752-8.05,2.009-.012c0-.058,0-.265,0-.31h-2Zm-3.306,0v-.321H87.144v.311Zm5.258-3.414a1.278,1.278,0,0,0-.012-.138,9.959,9.959,0,0,0-1.94-.109v.247Zm-5.258,0V7.5a7.044,7.044,0,0,0-1.717.115c.011,0,.007.045,0,.132Z"/>
  <path class="cls-2"
        d="M97.506,2.082a.794.794,0,0,1,.854.816.8.8,0,0,1-.854.835h-6V5.171c1.05,0,2.079.039,3.05.058,1.243.039,2.176.622,2.2,2,.039,1.516.039,3.109.059,4.663l1.709-.02a.764.764,0,0,1,.757.835.753.753,0,0,1-.757.8l-1.69-.02.038,2.137v.039c0,1.108-.679,2.544-3.224,2.544-1.36,0-2.214-.155-2.214-1.068a.827.827,0,0,1,.815-.894.844.844,0,0,1,.214.02,7.084,7.084,0,0,0,1.321.175c.739,0,1.224-.252,1.224-1.049v-1.9l-4.332-.039-4.293.039v4.158a.841.841,0,0,1-.912.815.831.831,0,0,1-.913-.815c0-1.283.019-2.7.038-4.158l-1.748.02a.748.748,0,0,1-.777-.8.791.791,0,0,1,.777-.835l1.748.02c.019-1.671.058-3.341.078-4.8.02-1.147.8-1.826,2.2-1.865.874-.019,1.806-.058,2.758-.058V3.733H83.772a.828.828,0,1,1,0-1.651H97.506m-6.041,6.41h3.476l-.019-.6c-.02-1.127-.252-1.147-3.457-1.147V8.492m-5.051,0h3.244V6.744c-2.855,0-3.185,0-3.224,1.147l-.02.6m5.051,3.419,3.515-.019c0-.622-.019-1.224-.019-1.807h-3.5v1.826m-1.807,0V10.085H86.4v1.807l3.263.019M97.506.582H83.772a2.326,2.326,0,1,0-.059,4.651,3.341,3.341,0,0,0-.547,1.835c-.009.651-.021,1.339-.034,2.05-.007.413-.015.833-.022,1.257l-.253,0a2.286,2.286,0,0,0-2.294,2.335A2.237,2.237,0,0,0,82.84,15l.229,0c-.011.92-.019,1.809-.019,2.641a2.313,2.313,0,0,0,2.413,2.315,2.34,2.34,0,0,0,2.412-2.315V14.971l2.807-.026.6.006a2.371,2.371,0,0,0-1.353,2.185c0,2.568,2.8,2.568,3.714,2.568,3.263,0,4.724-2.031,4.724-4.044v-.066L98.353,15l.145,0a2.257,2.257,0,0,0,2.275-2.3,2.246,2.246,0,0,0-2.257-2.335l-.224,0v-.058c-.008-1.054-.017-2.107-.043-3.126a3.524,3.524,0,0,0-.586-1.962A2.287,2.287,0,0,0,99.86,2.9,2.284,2.284,0,0,0,97.506.582Z"/>
  <path class="cls-1"
        d="M103.685,18.372a1.572,1.572,0,0,1-1.663-1.586,1.655,1.655,0,0,1,1.663-1.682l5.874.018V13.131l-2.9.015A1.571,1.571,0,0,1,105,11.659a1.778,1.778,0,0,1-1.157.438,1.656,1.656,0,0,1-1.682-1.624,1.737,1.737,0,0,1,.422-1.1A16.818,16.818,0,0,0,105.9,3.29a1.624,1.624,0,0,1,1.613-1.2,1.729,1.729,0,0,1,1.838,1.643,1.653,1.653,0,0,1-.109.567c-.12.321-.246.644-.378.964l.7,0v-2.7a1.751,1.751,0,1,1,3.5,0V5.272l4.492-.016a1.615,1.615,0,1,1,0,3.228l-4.5-.016V9.933l3.17-.015a1.615,1.615,0,1,1,0,3.228l-3.174-.015v1.991L118.8,15.1a1.6,1.6,0,0,1,1.626,1.644,1.57,1.57,0,0,1-1.624,1.624Zm3.6-9.891c-.291.5-.6.982-.935,1.462a1.864,1.864,0,0,1,.3-.025l2.9.015V8.469Z"/>
  <path class="cls-2"
        d="M111.319,1.5a.99.99,0,0,1,.991,1.067V6.025l5.245-.019a.866.866,0,1,1,0,1.728l-5.245-.019v2.973l3.923-.02a.867.867,0,1,1,0,1.728l-3.923-.019v3.5l6.488-.02a.85.85,0,0,1,.874.894.825.825,0,0,1-.874.874H103.686a.828.828,0,0,1-.914-.836.9.9,0,0,1,.914-.932l6.624.02v-3.5l-3.653.019a.828.828,0,0,1-.913-.834.882.882,0,0,1,.913-.894l3.653.02V7.715l-3.458.019A22.663,22.663,0,0,1,104.7,10.9a1.1,1.1,0,0,1-.854.447.91.91,0,0,1-.933-.874.989.989,0,0,1,.253-.622A17.408,17.408,0,0,0,106.618,3.5a.882.882,0,0,1,.894-.66,1,1,0,0,1,1.088.893.873.873,0,0,1-.058.291q-.38,1.02-.816,1.982l2.584.019V2.567A.993.993,0,0,1,111.319,1.5m0-1.5a2.448,2.448,0,0,0-2.381,1.725,2.765,2.765,0,0,0-1.426-.385,2.38,2.38,0,0,0-2.333,1.738,16.014,16.014,0,0,1-3.146,5.785l-.017.019L102,8.9a2.479,2.479,0,0,0-.592,1.572,2.407,2.407,0,0,0,2.433,2.374,2.477,2.477,0,0,0,.714-.105,2.379,2.379,0,0,0,2.1,1.153l2.153-.011v.485l-5.12-.016a2.4,2.4,0,0,0-2.418,2.432,2.324,2.324,0,0,0,2.414,2.336H118.8a2.322,2.322,0,0,0,2.374-2.374,2.359,2.359,0,0,0-2.374-2.394l-4.988.016v-.486l2.416.012a2.371,2.371,0,0,0,2.44-2.354,2.323,2.323,0,0,0-1.847-2.31l.73,0a2.365,2.365,0,1,0,.006-4.728l-3.745.014V2.567A2.475,2.475,0,0,0,111.319,0Z"/>
</svg>
