<svg xmlns="http://www.w3.org/2000/svg" viewBox="0 0 547.908 96.876">
  <defs>
    <style>.cls-1 {
      fill: #fff;
    }

    .cls-2 {
      opacity: 0.75;
    }

    .cls-3 {
      fill: #afaa74;
    }</style>
  </defs>
  <rect class="cls-1" x="12.936" y="72.981" width="516.88" height="23.895" rx="11.948"/>
  <g class="cls-2">
    <path class="cls-1"
          d="M81.724,46.567H69.8c-2.3,0-3.478-2.112-3.478-4.223s1.18-4.223,3.478-4.223h32.728c2.3,0,3.478,2.111,3.478,4.223s-1.18,4.223-3.478,4.223H90.605V83.891c0,2.236-2.235,3.354-4.409,3.354-2.235,0-4.472-1.118-4.472-3.354Z"/>
    <path class="cls-1"
          d="M119.789,66.5V83.456c0,2.546-2.174,3.851-4.347,3.851S111.1,86,111.1,83.456V44.828q0-6.708,6.707-6.707h16.706c11.675,0,18.009,4.782,18.009,13.911,0,5.776-2.919,10.185-7.886,11.737a6.57,6.57,0,0,1,2.422,2.733c1.924,4.037,2.049,8.819,5.775,14.035a4,4,0,0,1,.869,2.422c0,2.422-2.422,4.348-4.968,4.348a4.541,4.541,0,0,1-3.912-2.236c-3.85-5.962-4.223-12.048-6.272-15.961a4.9,4.9,0,0,0-4.224-2.608Zm0-20.059V58.118h16.022c5.093,0,8.075-2.67,8.075-6.21,0-3.416-3.23-5.465-9-5.465Z"/>
    <path class="cls-1"
          d="M192.506,74.2H168.845l-4.783,10.558a4.246,4.246,0,0,1-4.036,2.546c-2.236,0-4.534-1.553-4.534-3.913a4.021,4.021,0,0,1,.436-1.8l18.5-40.305a7.035,7.035,0,0,1,12.608,0l18.507,40.305a4.031,4.031,0,0,1,.434,1.8c0,2.36-2.3,3.913-4.533,3.913a4.248,4.248,0,0,1-4.037-2.546Zm-11.8-26.145-8.135,17.885h16.271Z"/>
    <path class="cls-1"
          d="M232.681,87.99c-14.594,0-23.91-10.744-23.91-25.959,0-14.222,9.378-25.339,23.91-25.339,14.905,0,20.556,10.868,20.556,13.1,0,2.3-2.422,4.223-4.781,4.223a3.84,3.84,0,0,1-3.416-2.049c-2.609-4.72-7.08-6.955-12.359-6.955-8.632,0-15.277,7.514-15.277,17.016,0,10,6.086,17.451,15.277,17.451,5.713,0,10.869-2.857,13.291-7.949a3.519,3.519,0,0,1,3.353-2.112c2.3,0,4.72,1.8,4.72,4.285C254.045,75.569,249.449,87.99,232.681,87.99Z"/>
    <path class="cls-1"
          d="M268.633,65.322V83.829c0,2.3-2.112,3.478-4.285,3.478-2.112,0-4.286-1.18-4.286-3.478V40.853c0-2.3,2.174-3.477,4.286-3.477,2.173,0,4.285,1.18,4.285,3.477V55.82l21.86-17.451a3.774,3.774,0,0,1,2.484-.931,4.486,4.486,0,0,1,4.347,4.347,3.984,3.984,0,0,1-1.614,3.167L276.085,60.664l22.047,18.818a3.72,3.72,0,0,1,1.3,2.856,4.976,4.976,0,0,1-4.534,4.845,3.68,3.68,0,0,1-2.546-1.056Z"/>
    <path class="cls-1"
          d="M350.91,86.561q-6.708,0-6.707-6.707V40.915c0-2.421,2.174-3.6,4.409-3.6,2.174,0,4.348,1.181,4.348,3.6V78.178l20.431-.063a4.233,4.233,0,0,1-.062,8.446Z"/>
    <path class="cls-1"
          d="M382.889,40.915c0-2.359,2.236-3.539,4.471-3.539s4.472,1.18,4.472,3.539V83.891c0,2.236-2.235,3.416-4.472,3.416s-4.471-1.18-4.471-3.416Z"/>
    <path class="cls-1"
          d="M401.02,50.852c0-7.887,6.583-14.16,18.879-14.16,10.31,0,16.83,4.1,18.818,11.055a3.249,3.249,0,0,1,.249,1.3c0,2.3-2.485,3.913-4.783,3.913a3.788,3.788,0,0,1-3.664-2.236c-1.118-3.54-4.658-6.024-10.744-6.024-6.272,0-10,2.484-10,6.086,0,2.3,1.678,3.664,4.969,4.6,3.105,1.055,8.384,1.49,13.042,2.794,8.384,2.112,12.73,6.77,12.73,14.657,0,9-6.583,15.153-20.431,15.153-19,0-20.37-14.47-20.37-15.091,0-2.547,2.547-4.161,4.844-4.161a3.4,3.4,0,0,1,3.539,2.484c1.057,4.968,5.28,8.384,11.987,8.384,8.073,0,11.3-3.23,11.3-7.142,0-2.857-2.112-5.217-5.962-6.273-4.347-1.241-9.253-1.49-13.973-3.043C404.5,60.975,401.02,56.69,401.02,50.852Z"/>
    <path class="cls-1"
          d="M458.709,46.567H446.785c-2.3,0-3.478-2.112-3.478-4.223s1.18-4.223,3.478-4.223h32.729c2.3,0,3.477,2.111,3.477,4.223s-1.18,4.223-3.477,4.223H467.59V83.891c0,2.236-2.236,3.354-4.409,3.354-2.236,0-4.472-1.118-4.472-3.354Z"/>
  </g>
  <path class="cls-3"
        d="M78.724,43.567H66.8c-2.3,0-3.478-2.112-3.478-4.223s1.18-4.223,3.478-4.223H99.529c2.3,0,3.478,2.111,3.478,4.223s-1.18,4.223-3.478,4.223H87.605V80.891c0,2.236-2.235,3.354-4.409,3.354-2.235,0-4.472-1.118-4.472-3.354Z"/>
  <path class="cls-3"
        d="M116.789,63.5V80.456c0,2.546-2.174,3.851-4.347,3.851S108.1,83,108.1,80.456V41.828q0-6.708,6.707-6.707h16.706c11.675,0,18.009,4.782,18.009,13.911,0,5.776-2.919,10.185-7.886,11.737a6.57,6.57,0,0,1,2.422,2.733c1.924,4.037,2.049,8.819,5.775,14.035a4,4,0,0,1,.869,2.422c0,2.422-2.422,4.348-4.968,4.348a4.541,4.541,0,0,1-3.912-2.236c-3.85-5.962-4.223-12.048-6.272-15.961a4.9,4.9,0,0,0-4.224-2.608Zm0-20.059V55.118h16.022c5.093,0,8.075-2.67,8.075-6.21,0-3.416-3.23-5.465-9-5.465Z"/>
  <path class="cls-3"
        d="M189.506,71.2H165.845l-4.783,10.558a4.246,4.246,0,0,1-4.036,2.546c-2.236,0-4.534-1.553-4.534-3.913a4.021,4.021,0,0,1,.436-1.8l18.5-40.305a7.035,7.035,0,0,1,12.608,0l18.507,40.305a4.031,4.031,0,0,1,.434,1.8c0,2.36-2.3,3.913-4.533,3.913a4.248,4.248,0,0,1-4.037-2.546Zm-11.8-26.145-8.135,17.885h16.271Z"/>
  <path class="cls-3"
        d="M229.681,84.99c-14.594,0-23.91-10.744-23.91-25.959,0-14.222,9.378-25.339,23.91-25.339,14.905,0,20.556,10.868,20.556,13.1,0,2.3-2.422,4.223-4.781,4.223a3.84,3.84,0,0,1-3.416-2.049c-2.609-4.72-7.08-6.955-12.359-6.955-8.632,0-15.277,7.514-15.277,17.016,0,10,6.086,17.451,15.277,17.451,5.713,0,10.869-2.857,13.291-7.949a3.519,3.519,0,0,1,3.353-2.112c2.3,0,4.72,1.8,4.72,4.285C251.045,72.569,246.449,84.99,229.681,84.99Z"/>
  <path class="cls-3"
        d="M265.633,62.322V80.829c0,2.3-2.112,3.478-4.285,3.478-2.112,0-4.286-1.18-4.286-3.478V37.853c0-2.3,2.174-3.477,4.286-3.477,2.173,0,4.285,1.18,4.285,3.477V52.82l21.86-17.451a3.774,3.774,0,0,1,2.484-.931,4.486,4.486,0,0,1,4.347,4.347,3.984,3.984,0,0,1-1.614,3.167L273.085,57.664l22.047,18.818a3.72,3.72,0,0,1,1.3,2.856,4.976,4.976,0,0,1-4.534,4.845,3.68,3.68,0,0,1-2.546-1.056Z"/>
  <path class="cls-3"
        d="M347.91,83.561q-6.708,0-6.707-6.707V37.915c0-2.421,2.174-3.6,4.409-3.6,2.174,0,4.348,1.181,4.348,3.6V75.178l20.431-.063a4.233,4.233,0,0,1-.062,8.446Z"/>
  <path class="cls-3"
        d="M379.889,37.915c0-2.359,2.236-3.539,4.471-3.539s4.472,1.18,4.472,3.539V80.891c0,2.236-2.235,3.416-4.472,3.416s-4.471-1.18-4.471-3.416Z"/>
  <path class="cls-3"
        d="M398.02,47.852c0-7.887,6.583-14.16,18.879-14.16,10.31,0,16.83,4.1,18.818,11.055a3.249,3.249,0,0,1,.249,1.3c0,2.3-2.485,3.913-4.783,3.913a3.788,3.788,0,0,1-3.664-2.236c-1.118-3.54-4.658-6.024-10.744-6.024-6.272,0-10,2.484-10,6.086,0,2.3,1.678,3.664,4.969,4.6,3.105,1.055,8.384,1.49,13.042,2.794,8.384,2.112,12.73,6.77,12.73,14.657,0,9-6.583,15.153-20.431,15.153-19,0-20.37-14.47-20.37-15.091,0-2.547,2.547-4.161,4.844-4.161a3.4,3.4,0,0,1,3.539,2.484c1.057,4.968,5.28,8.384,11.987,8.384,8.073,0,11.3-3.23,11.3-7.142,0-2.857-2.112-5.217-5.962-6.273-4.347-1.241-9.253-1.49-13.973-3.043C401.5,57.975,398.02,53.69,398.02,47.852Z"/>
  <path class="cls-3"
        d="M455.709,43.567H443.785c-2.3,0-3.478-2.112-3.478-4.223s1.18-4.223,3.478-4.223h32.729c2.3,0,3.477,2.111,3.477,4.223s-1.18,4.223-3.477,4.223H464.59V80.891c0,2.236-2.236,3.354-4.409,3.354-2.236,0-4.472-1.118-4.472-3.354Z"/>
  <polygon class="cls-1" points="43.018 17.649 43.95 0 29.141 6.705 43.018 17.649"/>
  <polygon class="cls-1" points="501.765 15.207 514.404 7.118 502.45 0.216 501.765 15.207"/>
  <polygon class="cls-1" points="18.626 46.735 1.922 36.541 0 52.736 18.626 46.735"/>
  <polygon class="cls-1" points="530.678 45.644 547.908 48.416 543.4 33.698 530.678 45.644"/>
</svg>
