<svg xmlns="http://www.w3.org/2000/svg" viewBox="0 0 242.404 18.775">
  <defs>
    <style>.cls-1 {
      fill: #afaa74;
    }</style>
  </defs>
  <path class="cls-1"
        d="M2.586,16.8a1.5,1.5,0,0,1-1.2,1.7C.756,18.563.11,18.139.154,17.135.288,13.5.333,6.472.244,3.237a10.116,10.116,0,0,0-.2-1.874c-.4-1.584,2.164-1.9,2.364-.357A7.809,7.809,0,0,1,2.5,2.991c-.023.893-.023,2.187-.023,3.682a1.048,1.048,0,0,1,.379,0c1.116.111,4.061.736,5.265,2.029,1.049,1.138-.49,2.923-1.651,1.83A8.794,8.794,0,0,0,2.474,8.859C2.5,11.736,2.542,14.815,2.586,16.8Z"/>
  <path class="cls-1"
        d="M38.555,17.983c-1.65.669-2.9-1.45-.981-2.142a15.042,15.042,0,0,0,8.678-8.165c.178-.49.067-.647-.379-.624-1.718.111-4.975.58-6.046.691a22.062,22.062,0,0,1-2.655.245c-1.472.023-1.94-2.252-.044-2.252,1.137,0,1.405-.023,2.454-.09,1.092-.067,4.952-.513,7.517-.736,1.652-.156,2.878,1.026,2.1,2.521C46.765,12.093,44.356,15.64,38.555,17.983Zm2.232-14.59c-.737.067-.848.045-1.785.067a1.053,1.053,0,1,1-.067-2.1c.825-.022.892.045,1.562-.022,1.137-.089,3.769-.313,5.309-.558,1.494-.245,2.409,1.851.044,2.141C44.646,3.081,41.589,3.326,40.787,3.393Z"/>
  <path class="cls-1"
        d="M77.829,11.625A5.27,5.27,0,0,0,76.624,10C75.71,9.215,77,7.833,78.03,8.769a8.992,8.992,0,0,1,1.584,1.919A1.01,1.01,0,1,1,77.829,11.625Zm.111,4.439a11.639,11.639,0,0,0,6.4-6.782,3.507,3.507,0,0,0,.157-1.07,1.105,1.105,0,0,1,2.209.022,3.813,3.813,0,0,1-.424,1.829,14.246,14.246,0,0,1-7.34,7.764C77.427,18.563,76.713,16.622,77.94,16.064Zm2.744-5.6A5.522,5.522,0,0,0,79.7,8.68c-.8-.892.669-2.074,1.561-1a8.3,8.3,0,0,1,1.294,2.1A1,1,0,1,1,80.684,10.465Z"/>
  <path class="cls-1"
        d="M115.562,10.688c-1.539,1.026-2.855-1-1.294-1.941a16.426,16.426,0,0,0,4.841-5.176,7.147,7.147,0,0,0,.87-1.829,1.211,1.211,0,0,1,2.387.38,3.67,3.67,0,0,1-.335.981c1.071-.179,2.231-.446,3.235-.513,1.562-.089,2.945,1,2.1,2.454-3.592,6.157-6.849,10.463-12.872,12.805-1.918.736-2.788-1.539-.892-2.164,4.707-1.584,8.365-5.6,10.931-10.44.223-.446.022-.536-.313-.536a33.165,33.165,0,0,0-3.569.558A22.979,22.979,0,0,1,115.562,10.688Z"/>
  <path class="cls-1"
        d="M154.989,16.555a10.749,10.749,0,0,0,6.068-9.526c-.022-1.784.112-2.476.067-3.569a11.734,11.734,0,0,0-.178-1.851c-.424-1.741,2.387-2.008,2.5-.112.067.937.045,1.272.045,1.963,0,.8-.023,1.205-.045,1.629S163.4,6,163.421,6.94a13.246,13.246,0,0,1-7.161,11.6C154.387,19.5,153.517,17.247,154.989,16.555Zm.714-6.826a17.932,17.932,0,0,0,.112-5.444,13,13,0,0,0-.269-1.294A1.27,1.27,0,1,1,158,2.523a17.985,17.985,0,0,1,.089,1.852c-.022.87.022,1.985.044,2.855a14.378,14.378,0,0,1-.111,2.588C157.711,11.848,155.346,11.268,155.7,9.729Z"/>
  <path class="cls-1"
        d="M191.138,16.667c-1.65.624-2.788-1.473-.869-2.119a19.275,19.275,0,0,0,9.972-8.567c.178-.357.066-.513-.2-.491-1.093.112-3.636.826-4.216.959a10.114,10.114,0,0,1-2.254.38,1.152,1.152,0,1,1,.022-2.3,13.7,13.7,0,0,0,1.986-.246c.8-.133,3.5-.847,5.377-1.026,1.895-.178,2.878,1.138,2.141,2.432a30.6,30.6,0,0,1-2.811,4.194c2.1.959,4.841,2.409,6.113,4.239a1.373,1.373,0,0,1-.2,1.851,1.113,1.113,0,0,1-1.651-.2,18.28,18.28,0,0,0-5.644-4.3A20.866,20.866,0,0,1,191.138,16.667Z"/>
  <path class="cls-1"
        d="M236.523,16.8a1.5,1.5,0,0,1-1.2,1.7c-.625.067-1.272-.357-1.228-1.361.134-3.636.179-10.663.09-13.9a10.031,10.031,0,0,0-.2-1.874c-.4-1.584,2.164-1.9,2.364-.357a7.758,7.758,0,0,1,.09,1.985c-.022.893-.022,2.187-.022,3.682a1.047,1.047,0,0,1,.379,0c1.116.111,4.06.736,5.264,2.029,1.049,1.138-.49,2.923-1.65,1.83a8.8,8.8,0,0,0-3.993-1.673C236.434,11.736,236.479,14.815,236.523,16.8Z"/>
</svg>
