<svg xmlns="http://www.w3.org/2000/svg" viewBox="0 0 140.949 23.608">
  <defs>
    <style>.cls-1 {
      fill: #5b6e80;
    }

    .cls-2 {
      fill: #fff;
    }</style>
  </defs>
  <path class="cls-1"
        d="M6.753,17.7a1.742,1.742,0,0,1-1.478-.708,1.9,1.9,0,0,1-.329-1.074,1.764,1.764,0,0,1,1.71-1.776c0-.4,0-.794.009-1.2,0-.564.01-1.145.01-1.764a1.253,1.253,0,0,0,0-.148l0,.009c-.01,0-.034-.035-.065-.082C5.364,9.076,3.711,6.587,2.679,5.046.889,5.013.75,3.71.75,3.306a1.752,1.752,0,0,1,1.818-1.76H2.7c.4.019.909.038,1.44.038.651,0,1.32-.019,1.837-.038h.1A1.714,1.714,0,0,1,7.941,3.228,1.825,1.825,0,0,1,6.857,4.843c.779,1.2,1.362,2.093,1.725,2.632.491-.687,1.23-1.848,1.689-2.61A1.747,1.747,0,0,1,9.219,3.287a1.761,1.761,0,0,1,1.857-1.741h.134c.4.019.87.038,1.362.038.612,0,1.224-.019,1.74-.038h0a1.762,1.762,0,0,1,1.961,1.759,1.733,1.733,0,0,1-1.79,1.739c-.888,1.373-2.724,4.168-3.884,5.8a1.254,1.254,0,0,0-.115.166c0,.028.019,2.591.02,3.125a1.769,1.769,0,0,1,1.749,1.773A1.8,1.8,0,0,1,10.4,17.692h-.107c-.5-.019-1.067-.038-1.621-.038-.668,0-1.317.019-1.775.038Z"/>
  <path class="cls-2"
        d="M14.34,2.3c.252,0,1.184.057,1.184,1.01a1,1,0,0,1-1.107.99h-.058c-.233.039-.311.039-.447.253-1.029,1.593-2.836,4.332-3.924,5.866a.956.956,0,0,0-.252.777c0,.874.02,2.118.02,3.341,0,.252.057.35.349.35h.252a1.033,1.033,0,1,1,.039,2.058h-.078c-.5-.019-1.087-.039-1.65-.039-.68,0-1.341.02-1.807.039-.037,0-.073,0-.109,0A.979.979,0,0,1,5.7,15.913a1.024,1.024,0,0,1,1.087-1.029h.078l.2.019H7.1c.232,0,.31-.175.31-.388,0-1.069.02-2.137.02-3.341a.833.833,0,0,0-.214-.661C5.968,8.629,4.277,6.084,3.248,4.55A.578.578,0,0,0,2.724,4.3c-.35,0-1.224-.019-1.224-.99A.994.994,0,0,1,2.568,2.3h.1c.407.019.932.038,1.476.038.661,0,1.34-.019,1.865-.038h.077a.973.973,0,0,1,1.107.932A1.155,1.155,0,0,1,6.007,4.3c-.155.019-.273.039-.273.137a.321.321,0,0,0,.078.174C8.318,8.474,8.435,8.629,8.551,8.629c.331,0,2.817-4.06,2.817-4.195,0-.1-.117-.137-.253-.137a1.063,1.063,0,0,1-1.146-1.01,1.014,1.014,0,0,1,1.107-.99h.1c.407.019.893.038,1.4.038.621,0,1.243-.019,1.768-.038m0-1.5h-.056c-.508.019-1.11.037-1.712.037-.509,0-1-.021-1.326-.036L11.21.8h-.134A2.565,2.565,0,0,0,8.589,2.524,2.523,2.523,0,0,0,6.084.8H5.951C5.5.815,4.815.835,4.142.835c-.429,0-.9-.012-1.4-.036L2.7.8H2.568A2.484,2.484,0,0,0,0,3.307,2.384,2.384,0,0,0,2.261,5.771c1.014,1.515,2.521,3.785,3.664,5.516,0,.573-.006,1.116-.01,1.644,0,.2,0,.4,0,.6A2.5,2.5,0,0,0,4.2,15.913a2.463,2.463,0,0,0,2.556,2.533q.1,0,.2-.006c.31-.013.984-.037,1.718-.037.544,0,1.105.019,1.592.038H10.4A2.542,2.542,0,0,0,13,15.913a2.474,2.474,0,0,0-1.752-2.392c0-.324-.005-.641-.007-.945,0-.489-.008-.943-.009-1.328C12.349,9.674,14,7.168,14.919,5.755a2.457,2.457,0,0,0,2.105-2.448A2.488,2.488,0,0,0,14.34.8ZM7.886,5.049a2.527,2.527,0,0,0,.683-1.058,2.423,2.423,0,0,0,.686,1.1c-.21.337-.442.7-.665,1.04l-.7-1.079Z"/>
  <path class="cls-1"
        d="M20.538,17.847a5.469,5.469,0,0,1-5.645-5.664,5.53,5.53,0,0,1,5.645-5.664,5.521,5.521,0,0,1,5.625,5.664A5.459,5.459,0,0,1,20.538,17.847Zm0-8.06a2.2,2.2,0,0,0-2.184,2.4,2.181,2.181,0,1,0,4.347,0A2.189,2.189,0,0,0,20.538,9.787Z"/>
  <path class="cls-2"
        d="M20.538,7.27a4.768,4.768,0,0,1,4.875,4.914A4.713,4.713,0,0,1,20.538,17.1a4.728,4.728,0,0,1-4.895-4.914A4.784,4.784,0,0,1,20.538,7.27m0,8.022a2.9,2.9,0,0,0,2.913-3.108,2.931,2.931,0,1,0-5.847,0,2.918,2.918,0,0,0,2.934,3.108m0-9.522a6.264,6.264,0,0,0-6.395,6.414,6.194,6.194,0,0,0,6.4,6.414,6.185,6.185,0,0,0,6.375-6.414A6.254,6.254,0,0,0,20.538,5.77Zm0,8.022A1.432,1.432,0,0,1,19.1,12.184a1.463,1.463,0,0,1,1.434-1.647c.858,0,1.413.646,1.413,1.647s-.541,1.608-1.413,1.608Z"/>
  <path class="cls-1"
        d="M32.329,17.867a3.832,3.832,0,0,1-4.052-4.074c0-.178,0-.384-.007-.622,0-.332-.012-.724-.012-1.143,0-.362.016-1.694.018-1.964a1.587,1.587,0,0,1-1.32-1.61,1.753,1.753,0,0,1,1.678-1.78h.335A2.5,2.5,0,0,1,31.8,9.5l-.024,1.233c-.017.784-.035,1.573-.035,2.128,0,1.6.516,1.736,1,1.736a1.65,1.65,0,0,0,1.622-1.376c.019-.333.037-.747.037-1.293,0-.436-.012-.975-.028-1.615l-.005-.241a1.713,1.713,0,0,1,.356-3.4h.175a2.646,2.646,0,0,1,2.945,2.809c-.028,1.141-.051,1.721-.068,2.143-.019.465-.03.733-.03,1.237,0,.308,0,.709.014,1.31a1.642,1.642,0,0,1,1.638,1.7,1.713,1.713,0,0,1-1.722,1.779c-.109,0-.208.005-.3.01s-.214.009-.318.009h-.116a3.073,3.073,0,0,1-1.917-.532A5.264,5.264,0,0,1,32.329,17.867Z"/>
  <path class="cls-2"
        d="M34.894,7.425c1.165,0,2.2.485,2.2,2.058v.079c-.059,2.213-.1,2.331-.1,3.3,0,.35,0,.817.02,1.554,0,.35.135.506.544.506h.214a.876.876,0,0,1,.874.951.973.973,0,0,1-.972,1.029c-.233,0-.427.02-.621.02h-.116a1.928,1.928,0,0,1-1.749-.7c-.02-.038-.039-.058-.078-.058s-.1.058-.194.136a4.361,4.361,0,0,1-2.584.815,3.1,3.1,0,0,1-3.3-3.341c0-.388-.019-1.029-.019-1.748s.019-1.534.019-2.253a.425.425,0,0,0-.388-.427.857.857,0,0,1-.933-.894.994.994,0,0,1,.952-1.029h.369c1.593,0,2.021.8,2.021,2.078v.078c-.02,1.088-.059,2.447-.059,3.282,0,.68.02,2.487,1.748,2.487a2.386,2.386,0,0,0,2.37-2.079c.02-.349.039-.777.039-1.34,0-.543-.019-1.243-.039-2.1a.447.447,0,0,0-.447-.485h-.019a.963.963,0,1,1,.078-1.923h.175m0-1.5h-.175A2.447,2.447,0,0,0,32.255,7.8a3.236,3.236,0,0,0-3.228-1.871h-.369a2.507,2.507,0,0,0-2.452,2.529A2.336,2.336,0,0,0,27.521,10.6l0,.285c0,.39-.01.78-.01,1.145,0,.424.006.82.012,1.157,0,.232.007.433.007.591a4.583,4.583,0,0,0,4.8,4.841,6.136,6.136,0,0,0,2.663-.61,4.15,4.15,0,0,0,1.942.416h.116c.116,0,.233,0,.354-.011.084,0,.171-.009.267-.009a2.475,2.475,0,0,0,2.472-2.529,2.381,2.381,0,0,0-1.649-2.344c0-.273,0-.486,0-.667,0-.491.011-.753.029-1.207.017-.424.041-1.007.068-2.055V9.483a3.4,3.4,0,0,0-3.695-3.558ZM32.737,13.85a.434.434,0,0,1-.136-.015,2.665,2.665,0,0,1-.112-.972c0-.551.018-1.333.035-2.112l.022-1.073a2.415,2.415,0,0,0,1.08.956c.011.5.02.935.02,1.3,0,.528-.018.932-.036,1.257-.022.344-.507.662-.873.662Z"/>
  <path class="cls-1"
        d="M45.113,17.847c-1.353,0-3.625-.531-3.625-4.091,0-.6.011-1.443.022-2.224.008-.576.014-1.12.016-1.513h-.142A1.635,1.635,0,0,1,39.76,8.337a1.6,1.6,0,0,1,1.624-1.643h.158c0-.123,0-.266,0-.416,0-.209,0-.419-.017-.611l0-.127a1.619,1.619,0,0,1,1.721-1.624,1.723,1.723,0,0,1,1.779,1.935c0,.267-.009.587-.019.843h.8a1.581,1.581,0,0,1,1.605,1.663,1.6,1.6,0,0,1-1.605,1.662h-.829c0,.243-.01.519-.017.815-.016.725-.035,1.574-.035,2.3a4.632,4.632,0,0,0,.114,1.36h0a1.127,1.127,0,0,0,.281.027,3.094,3.094,0,0,0,.353-.033,1.406,1.406,0,0,1,.249-.026,1.579,1.579,0,0,1,1.585,1.605C47.514,16.485,47.341,17.847,45.113,17.847Z"/>
  <path class="cls-2"
        d="M43.248,4.666a1.018,1.018,0,0,1,1.029,1.186c0,.524-.038,1.262-.038,1.262,0,.311.077.33.272.33h1.3a.839.839,0,0,1,.855.913.849.849,0,0,1-.855.913H44.53c-.291,0-.291.1-.291.213,0,.719-.058,2.37-.058,3.653,0,1.514.058,2.136,1.146,2.136a3.656,3.656,0,0,0,.446-.039c.059,0,.1-.019.156-.019a.832.832,0,0,1,.835.854c0,.7-.641,1.03-1.651,1.03-2.875,0-2.875-2.544-2.875-3.341,0-1.126.039-3.069.039-3.924V9.542c0-.253-.117-.272-.31-.272h-.583a.882.882,0,0,1-.874-.932.85.85,0,0,1,.874-.894h.563c.311,0,.33-.058.33-.33,0,0,.02-.388.02-.836,0-.232,0-.466-.02-.679V5.54a.883.883,0,0,1,.971-.874m0-1.5A2.371,2.371,0,0,0,40.777,5.54v.127l.007.068c.008.09.011.184.012.28A2.361,2.361,0,0,0,39.01,8.338a2.392,2.392,0,0,0,1.761,2.353c0,.258-.007.541-.011.831-.01.785-.022,1.628-.022,2.235,0,4.369,3.06,4.841,4.375,4.841,2.326,0,3.151-1.363,3.151-2.53a2.32,2.32,0,0,0-2.335-2.354,1.844,1.844,0,0,0-.241.016c-.007-.219-.007-.455-.007-.594,0-.723.019-1.564.035-2.285l0-.081h.094a2.332,2.332,0,0,0,2.355-2.413,2.332,2.332,0,0,0-2.355-2.413h-.035V5.852a2.469,2.469,0,0,0-2.529-2.686Z"/>
  <path class="cls-1"
        d="M53.35,17.867A3.832,3.832,0,0,1,49.3,13.793c0-.178,0-.384-.008-.622-.005-.332-.012-.724-.012-1.143,0-.362.017-1.694.019-1.964a1.587,1.587,0,0,1-1.32-1.61,1.731,1.731,0,0,1,1.677-1.78h.335A2.5,2.5,0,0,1,52.818,9.5L52.8,10.734c-.018.785-.035,1.574-.035,2.129,0,1.6.515,1.736,1,1.736a1.651,1.651,0,0,0,1.622-1.376c.018-.333.037-.747.037-1.293,0-.436-.013-.975-.028-1.616l-.005-.24a1.713,1.713,0,0,1,.355-3.4h.175a2.645,2.645,0,0,1,2.945,2.809c-.028,1.141-.05,1.721-.068,2.143-.019.465-.029.733-.029,1.237,0,.308,0,.709.013,1.31a1.642,1.642,0,0,1,1.638,1.7,1.713,1.713,0,0,1-1.722,1.779c-.108,0-.208.005-.3.01-.11,0-.214.009-.319.009h-.116a3.075,3.075,0,0,1-1.917-.532A5.263,5.263,0,0,1,53.35,17.867Z"/>
  <path class="cls-2"
        d="M55.914,7.425c1.165,0,2.2.485,2.2,2.058v.079c-.058,2.213-.1,2.331-.1,3.3,0,.35,0,.817.019,1.554,0,.35.136.506.544.506h.214a.876.876,0,0,1,.874.951.973.973,0,0,1-.972,1.029c-.232,0-.426.02-.621.02h-.116a1.929,1.929,0,0,1-1.749-.7c-.019-.038-.038-.058-.077-.058s-.1.058-.194.136a4.361,4.361,0,0,1-2.584.815,3.1,3.1,0,0,1-3.3-3.341c0-.388-.02-1.029-.02-1.748s.02-1.534.02-2.253a.425.425,0,0,0-.389-.427.856.856,0,0,1-.932-.894.992.992,0,0,1,.952-1.029h.369c1.593,0,2.02.8,2.02,2.078v.078c-.019,1.088-.058,2.447-.058,3.282,0,.68.019,2.487,1.748,2.487a2.386,2.386,0,0,0,2.37-2.079c.019-.349.039-.777.039-1.34,0-.543-.02-1.243-.039-2.1a.448.448,0,0,0-.447-.485h-.02a.963.963,0,1,1,.078-1.923h.175m0-1.5h-.175A2.447,2.447,0,0,0,53.276,7.8a3.236,3.236,0,0,0-3.228-1.871h-.369a2.506,2.506,0,0,0-2.452,2.529A2.336,2.336,0,0,0,48.542,10.6c0,.095,0,.19,0,.285,0,.39-.01.78-.01,1.145,0,.424.007.82.013,1.157,0,.232.007.433.007.591a4.583,4.583,0,0,0,4.8,4.841,6.143,6.143,0,0,0,2.663-.61,4.146,4.146,0,0,0,1.941.416h.116c.117,0,.233,0,.355-.011.083,0,.171-.009.266-.009a2.475,2.475,0,0,0,2.472-2.529,2.381,2.381,0,0,0-1.648-2.344c0-.273,0-.486,0-.667,0-.491.01-.753.029-1.207.017-.424.04-1.007.068-2.055V9.483a3.4,3.4,0,0,0-3.695-3.558ZM53.758,13.85a.426.426,0,0,1-.136-.015,2.665,2.665,0,0,1-.112-.972c0-.551.017-1.333.034-2.112l.023-1.073a2.408,2.408,0,0,0,1.079.956c.012.5.021.935.021,1.3,0,.528-.019.932-.037,1.257-.022.344-.506.662-.872.662Z"/>
  <path class="cls-1"
        d="M67.8,17.809a4.888,4.888,0,0,1-2.879-.926,2.786,2.786,0,0,1-2.113.809c-1.976,0-2.129-1.392-2.129-1.818a1.626,1.626,0,0,1,1.568-1.681c.014-.809.024-1.629.036-2.486.023-1.662.047-3.461.047-5,0-.3,0-.59-.011-.867,0-.26-.009-.77-.009-.781a1.643,1.643,0,0,1-1.631-1.752,1.668,1.668,0,0,1,1.643-1.76l.121,0c.2.016.36.017.523.017h.036c1.841.022,2.731.948,2.731,2.828-.013.764-.027,1.666-.034,2.649a4.707,4.707,0,0,1,2.1-.486,5.419,5.419,0,0,1,5.451,5.626A5.359,5.359,0,0,1,67.8,17.809Zm-.038-7.983a2.1,2.1,0,0,0-2.048,2.357,2.063,2.063,0,1,0,4.095,0A2.1,2.1,0,0,0,67.765,9.826Z"/>
  <path class="cls-2"
        d="M62.384,2.3c.233.019.427.019.621.019,1.5.019,1.981.7,1.981,2.079v.077c-.019.991-.039,2.35-.039,3.827,0,.077.02.1.039.1a.126.126,0,0,0,.1-.039A4.008,4.008,0,0,1,67.8,7.308a4.653,4.653,0,0,1,4.7,4.876,4.6,4.6,0,0,1-4.7,4.876,3.916,3.916,0,0,1-2.913-1.225c-.039-.058-.078-.1-.118-.1-.018,0-.057.039-.077.1a1.8,1.8,0,0,1-1.884,1.107c-.874,0-1.379-.31-1.379-1.068a.876.876,0,0,1,.893-.933h.1c.388,0,.582-.232.582-.679.019-2.157.078-5.167.078-7.556,0-.583-.02-1.127-.02-1.612,0-.544-.058-.778-.563-.778-.446,0-1.068-.116-1.068-1.009a.919.919,0,0,1,.893-1.01h.059m5.381,12.956a2.814,2.814,0,0,0,2.8-3.069,2.813,2.813,0,1,0-5.595,0,2.814,2.814,0,0,0,2.8,3.069M62.446.8h-.121a2.4,2.4,0,0,0-2.393,2.51,2.355,2.355,0,0,0,1.638,2.37l0,.177c.005.272.01.557.01.852,0,1.533-.025,3.37-.047,4.991-.009.655-.017,1.289-.024,1.878a2.367,2.367,0,0,0-1.58,2.3,2.555,2.555,0,0,0,2.879,2.568,3.776,3.776,0,0,0,2.169-.621,5.679,5.679,0,0,0,2.823.739A6.084,6.084,0,0,0,74,12.184a6.152,6.152,0,0,0-6.2-6.376,5.576,5.576,0,0,0-1.341.161c.007-.566.016-1.066.024-1.468V4.395A3.21,3.21,0,0,0,63.023.817c-.173,0-.328,0-.514-.015L62.446.8Zm5.319,12.956c-.813,0-1.3-.587-1.3-1.569s.5-1.608,1.3-1.608,1.3.616,1.3,1.608-.485,1.569-1.3,1.569Z"/>
  <path class="cls-1"
        d="M80.062,17.886a5.342,5.342,0,0,1-5.393-5.644A5.447,5.447,0,0,1,80.022,6.48c2.959,0,4.947,2.166,4.947,4.188a2.429,2.429,0,0,1-2.573,2.44c-.577.018-.961.019-4.16.019a1.8,1.8,0,0,0,1.845,1.453,2.537,2.537,0,0,0,1.978-.948,1.627,1.627,0,0,1,1.208-.547,1.815,1.815,0,0,1,1.779,1.759,1.684,1.684,0,0,1-.511,1.21A5.571,5.571,0,0,1,80.062,17.886Zm-.383-7.851c.529,0,1.087,0,1.548-.006a1.69,1.69,0,0,0-1.185-.36,1.865,1.865,0,0,0-1.1.365Z"/>
  <path class="cls-2"
        d="M80.022,7.23a3.924,3.924,0,0,1,4.2,3.439,1.676,1.676,0,0,1-1.846,1.689c-.6.02-1.01.02-4.778.02-.117,0-.156.155-.156.369a2.557,2.557,0,0,0,2.642,2.583,3.268,3.268,0,0,0,2.525-1.185.885.885,0,0,1,.661-.31,1.059,1.059,0,0,1,1.029,1.01.924.924,0,0,1-.291.679,4.891,4.891,0,0,1-3.943,1.613,4.6,4.6,0,0,1-4.643-4.895,4.718,4.718,0,0,1,4.6-5.012m-.408,3.555c.8,0,1.671,0,2.2-.019a.412.412,0,0,0,.388-.428c0-.272-.408-1.418-2.156-1.418a2.552,2.552,0,0,0-2.428,1.69c0,.175.195.175,2,.175m.408-5.055a6.251,6.251,0,0,0-6.1,6.512,6.067,6.067,0,0,0,6.143,6.4,6.371,6.371,0,0,0,5.025-2.074,2.4,2.4,0,0,0,.709-1.718,2.513,2.513,0,0,0-.965-1.956,3.078,3.078,0,0,0,.888-2.22c0-2.385-2.289-4.939-5.7-4.939Z"/>
  <path class="cls-1"
        d="M98.516,17.79c-4.377-.4-7.626-3.428-7.626-7.044a5.691,5.691,0,0,1,.372-2.019,4.784,4.784,0,0,1-2.206.768,1.851,1.851,0,0,1-1.935-1.8,1.866,1.866,0,0,1,1.42-1.726c.127-.042.347-.111.6-.19.479-.151,1.084-.339,1.462-.478.282-.1.625-.218,1.02-.353.88-.3,2.084-.71,3.411-1.234a15.648,15.648,0,0,1,5.423-1.255c1.529,0,2.071.916,2.071,1.7a1.942,1.942,0,0,1-.516,1.346c1.025.347,2.653,1.2,2.653,2.422A1.639,1.639,0,0,1,103.1,9.592a1.325,1.325,0,0,1-.636-.167,1.226,1.226,0,0,1,.007.136,1.668,1.668,0,0,1-1.585,1.663,1.424,1.424,0,0,1-1.066-.505,6.933,6.933,0,0,0-1.385-1.012,1.38,1.38,0,0,1-.941-1.292A1.56,1.56,0,0,1,99.1,6.908a2.431,2.431,0,0,1,.583.136,1.232,1.232,0,0,1-.013-.183,1.439,1.439,0,0,1,.216-.753c-.065,0-.13-.009-.2-.017a2.413,2.413,0,0,0-.3-.014h-.073c-2.583,0-5.213,2.229-5.213,4.417,0,2,1.983,3.561,4.514,3.561a1.983,1.983,0,0,1,2.188,1.9A1.906,1.906,0,0,1,98.71,17.79Z"/>
  <path class="cls-2"
        d="M100.458,3.21c.972,0,1.321.446,1.321.951,0,.991-.816,1.2-1.553,1.2a3.89,3.89,0,0,1-.448-.018,3.625,3.625,0,0,0-.466-.02c-3.01,0-5.963,2.564-5.963,5.167,0,2.33,2.214,4.312,5.264,4.312.971,0,1.438.563,1.438,1.146,0,.544-.447,1.088-1.341,1.088h-.194c-4.215-.389-6.876-3.3-6.876-6.294a5.466,5.466,0,0,1,1.4-3.555.386.386,0,0,0,.1-.174.041.041,0,0,0-.038-.039.649.649,0,0,0-.195.078c-3.049,1.573-3.419,1.689-3.846,1.689A1.106,1.106,0,0,1,87.871,7.7a1.114,1.114,0,0,1,.894-1.009c.408-.136,1.515-.466,2.1-.68.913-.33,2.526-.835,4.449-1.593a14.829,14.829,0,0,1,5.147-1.2m.816,2.874c.311,0,2.642.836,2.642,1.846a.9.9,0,0,1-.816.913.711.711,0,0,1-.486-.234,6.821,6.821,0,0,0-1.689-1.145.676.676,0,0,1-.506-.6.838.838,0,0,1,.855-.777M99.1,7.658c.253,0,2.622.893,2.622,1.9a.928.928,0,0,1-.835.913.673.673,0,0,1-.5-.253,7.335,7.335,0,0,0-1.652-1.2.653.653,0,0,1-.485-.6.821.821,0,0,1,.855-.757m1.359-5.948a16.3,16.3,0,0,0-5.695,1.308c-1.314.517-2.46.908-3.381,1.221-.4.137-.748.255-1.03.357-.359.132-.981.327-1.434.468-.259.081-.484.152-.627.2A2.588,2.588,0,0,0,86.371,7.7a2.591,2.591,0,0,0,2.685,2.549,2.976,2.976,0,0,0,1.125-.214,6.109,6.109,0,0,0-.041.715c0,4.007,3.541,7.355,8.238,7.788l.069.006h.263a2.659,2.659,0,0,0,2.841-2.588,2.736,2.736,0,0,0-2.938-2.646c-2.111,0-3.764-1.235-3.764-2.812a3.842,3.842,0,0,1,2.086-2.97,2.168,2.168,0,0,0-.191.891,2.139,2.139,0,0,0,1.4,1.984,6.92,6.92,0,0,1,1.115.82,2.164,2.164,0,0,0,1.626.756,2.416,2.416,0,0,0,2.2-1.632h.015a2.4,2.4,0,0,0,2.316-2.413c0-1.352-1.193-2.259-2.31-2.783a2.867,2.867,0,0,0,.173-.986,2.5,2.5,0,0,0-2.821-2.451Z"/>
  <path class="cls-1"
        d="M107.629,18.935a1.685,1.685,0,0,1-1.741-1.663,1.631,1.631,0,0,1,1.527-1.618c2.2-.3,3.611-1.11,4.289-2.457a2.749,2.749,0,0,1-2.631-2.639c-.036-.812-.057-2.176-.057-3.639s.021-2.785.058-3.515A2.712,2.712,0,0,1,111.931.79c.906-.04,2.065-.04,3.293-.04,1.191,0,2.423,0,3.428.04a2.779,2.779,0,0,1,2.741,2.482c.037.833.058,2.077.058,3.414,0,1.514-.021,2.913-.058,3.838a2.814,2.814,0,0,1-2.845,2.7c-.1,0-.191,0-.279.008-.013.575-.023,1.156-.023,1.593a1.345,1.345,0,0,0,.045.486,4.033,4.033,0,0,0,1.109.085c1.427,0,1.678-.185,1.678-1.231a1.609,1.609,0,0,1,1.663-1.664,1.714,1.714,0,0,1,1.78,1.8c0,4.344-3.525,4.344-5.218,4.344-1.538,0-4.4,0-4.4-3.1,0-.221,0-.608,0-1.061-1.923,3.984-7,4.434-7.215,4.451l-.029,0Zm4.712-8.819c.023,0,.085.012.189.015.89.039,1.851.059,2.829.059.863,0,1.725-.02,2.549-.058a.459.459,0,0,0,.164-.026A.326.326,0,0,0,118.1,10h-5.778v.026a.416.416,0,0,0,.013.09ZM118.145,7V6.99h-5.862V7Zm-.058-3.01V3.966a.258.258,0,0,0-.01-.063h0c-.019,0-.082-.016-.194-.023-.612-.018-1.459-.038-2.363-.038-1.08,0-2.2.02-3.013.039-.093,0-.162.025-.178.113Z"/>
  <path class="cls-2"
        d="M115.224,1.5c1.184,0,2.409,0,3.4.039a2.018,2.018,0,0,1,2.021,1.768c.038.854.057,2.1.057,3.38,0,1.417-.019,2.855-.057,3.807a2.075,2.075,0,0,1-2.119,1.981c-.33,0-.66.039-.99.039-.019.777-.039,1.69-.039,2.311,0,1.069.233,1.321,1.9,1.321,1.5,0,2.428-.233,2.428-1.981a.864.864,0,0,1,.913-.913.974.974,0,0,1,1.03,1.049c0,3.341-2.253,3.594-4.468,3.594-1.962,0-3.652-.2-3.652-2.351,0-.524,0-1.982.02-3.03-1.205,0-2.448-.02-3.574-.039a2.067,2.067,0,0,1-2.274-1.943c-.038-.854-.057-2.253-.057-3.612,0-1.38.019-2.72.057-3.478a1.966,1.966,0,0,1,2.137-1.9c.894-.039,2.06-.039,3.264-.039m-3.671,3.244h7.323c0-.291-.039-.563-.039-.777-.02-.5-.273-.8-.913-.835-.642-.02-1.5-.039-2.409-.039-1.087,0-2.214.019-3.031.039a.887.887,0,0,0-.912.854c0,.214-.019.467-.019.758m-.02,3.011H118.9V6.24h-7.362V7.755m7.343,1.5h-7.323c0,.291.019.543.019.776.02.622.369.835.932.855.893.039,1.865.058,2.855.058.874,0,1.748-.019,2.584-.058.933-.038.933-.757.933-1.631M113.3,12.844a1.018,1.018,0,0,1,1.029.913.954.954,0,0,1-.1.388c-1.729,3.652-6.6,4.041-6.6,4.041a.943.943,0,0,1-.991-.914.89.89,0,0,1,.874-.874c2.525-.349,4.137-1.32,4.915-2.971a.928.928,0,0,1,.874-.583M115.224,0c-1.236,0-2.4,0-3.33.04a3.462,3.462,0,0,0-3.569,3.338c-.037.73-.059,2.059-.059,3.542s.022,2.849.059,3.679a3.369,3.369,0,0,0,2.144,3.048,5.4,5.4,0,0,1-3.163,1.266,2.38,2.38,0,0,0-2.168,2.359,2.456,2.456,0,0,0,2.491,2.414h.06l.059,0a11.085,11.085,0,0,0,6.534-2.988c.675,2.7,3.769,2.7,5.021,2.7,1.632,0,5.968,0,5.968-5.094a2.458,2.458,0,0,0-2.53-2.549,2.529,2.529,0,0,0-.935.174,3.472,3.472,0,0,0,.336-1.376c.038-.93.059-2.34.059-3.863,0-1.348-.021-2.6-.059-3.447a3.5,3.5,0,0,0-3.469-3.2C117.662,0,116.423,0,115.224,0Zm3.781,13.933a3.851,3.851,0,0,0,1.429-.507,2.578,2.578,0,0,0-.106.739,1.79,1.79,0,0,1-.037.413,3.744,3.744,0,0,1-.891.068c-.163,0-.3,0-.4-.007,0-.214,0-.455.008-.706Z"/>
  <path class="cls-1"
        d="M133.408,17.867c-2.694,0-4.3-1.646-4.3-3.237a2.353,2.353,0,0,1,.15-.833,1.747,1.747,0,0,1-1.588-1.672,1.858,1.858,0,0,1,.607-1.327c1.4-1.378,2.785-2.913,3.816-4.115a6.592,6.592,0,0,1-1.731.364,1.713,1.713,0,0,1-1.76-1.7,1.591,1.591,0,0,1,1.489-1.6A17.994,17.994,0,0,0,134.743,2.5a2.3,2.3,0,0,1,1.034-.235,1.971,1.971,0,0,1,2.033,1.9,2.072,2.072,0,0,1-.668,1.483c-.694.663-1.437,1.435-2.172,2.226.126-.007.253-.011.381-.011,2.35,0,4.848,1.461,4.848,4.169C140.2,15.138,137.025,17.867,133.408,17.867Zm-1.38-5.812a3.607,3.607,0,0,1,3.51,2.077,2.866,2.866,0,0,0,1.218-2.007c0-1.2-1.448-1.29-1.892-1.29a4.771,4.771,0,0,0-3,1.224C131.92,12.056,131.974,12.055,132.028,12.055Z"/>
  <path class="cls-2"
        d="M135.777,3.016a1.221,1.221,0,0,1,1.283,1.145,1.348,1.348,0,0,1-.448.952c-1.32,1.263-2.816,2.913-4.04,4.274a5.1,5.1,0,0,1,2.779-.778c2.058,0,4.1,1.263,4.1,3.419,0,2.6-2.68,5.089-6.041,5.089-2.331,0-3.554-1.34-3.554-2.486a1.993,1.993,0,0,1,2.174-1.825,2.769,2.769,0,0,1,3.031,2.427,3.812,3.812,0,0,0,2.447-3.108c0-2.039-2.467-2.039-2.642-2.039a6.357,6.357,0,0,0-4.642,2.583.981.981,0,0,1-.777.389,1.007,1.007,0,0,1-1.029-.933,1.139,1.139,0,0,1,.388-.8,50.923,50.923,0,0,0,5.634-6.43.052.052,0,0,0-.059-.058.472.472,0,0,0-.136.039A9.9,9.9,0,0,1,130.358,6.3a.954.954,0,0,1-1.01-.951.836.836,0,0,1,.816-.856,18.538,18.538,0,0,0,4.914-1.32,1.572,1.572,0,0,1,.7-.155M133.33,15.563h.136c-.058-.835-.486-1.359-1.263-1.359-.66,0-.68.427-.68.5,0,.758,1.322.854,1.807.854m2.447-14.047a3.069,3.069,0,0,0-1.372.314A17.314,17.314,0,0,1,130.028,3a2.328,2.328,0,0,0-2.18,2.35,2.444,2.444,0,0,0,2.267,2.44c-.738.812-1.55,1.671-2.365,2.474a2.6,2.6,0,0,0-.834,1.864,2.464,2.464,0,0,0,1.453,2.193c-.01.1-.015.207-.015.313,0,1.959,1.89,3.986,5.054,3.986,4.088,0,7.541-3.017,7.541-6.589a4.954,4.954,0,0,0-4.34-4.8c.356-.365.7-.714,1.04-1.035a2.824,2.824,0,0,0,.911-2.036,2.719,2.719,0,0,0-2.783-2.645ZM134.046,11.7a3.106,3.106,0,0,1,.818-.112c.117,0,1.142.015,1.142.539a1.446,1.446,0,0,1-.327.8,4.16,4.16,0,0,0-1.633-1.227Z"/>
</svg>
