<svg xmlns="http://www.w3.org/2000/svg" viewBox="0 0 400 400">
  <defs>
    <style>.cls-1 {
      fill: #eed0f4;
      opacity: 0.1;
    }</style>
  </defs>
  <path class="cls-1"
        d="M64.985,18.291,86.256,1.06A4.718,4.718,0,0,1,93.942,4.6l.738,27.365a25.92,25.92,0,0,0,11.8,21.041l22.961,14.9a4.718,4.718,0,0,1-.99,8.4l-25.8,9.158A25.922,25.922,0,0,0,86.285,103.2l-7.08,26.443a4.718,4.718,0,0,1-8.3,1.655L54.225,109.588A25.917,25.917,0,0,0,32.312,99.5L4.975,100.937A4.718,4.718,0,0,1,.837,93.556L16.324,70.984a25.919,25.919,0,0,0,2.824-23.958L9.333,21.472a4.719,4.719,0,0,1,5.741-6.217l26.253,7.754A25.919,25.919,0,0,0,64.985,18.291Z"/>
  <path class="cls-1"
        d="M264.985,218.291l21.271-17.231a4.718,4.718,0,0,1,7.686,3.539l.738,27.365a25.92,25.92,0,0,0,11.8,21.041l22.961,14.905a4.718,4.718,0,0,1-.99,8.4l-25.8,9.158A25.922,25.922,0,0,0,286.285,303.2l-7.08,26.443a4.718,4.718,0,0,1-8.3,1.655l-16.682-21.7A25.917,25.917,0,0,0,232.312,299.5l-27.337,1.437a4.718,4.718,0,0,1-4.138-7.381l15.487-22.572a25.919,25.919,0,0,0,2.824-23.958l-9.815-25.554a4.719,4.719,0,0,1,5.741-6.217l26.253,7.754A25.919,25.919,0,0,0,264.985,218.291Z"/>
</svg>
