<svg xmlns="http://www.w3.org/2000/svg" viewBox="0 0 109.818 105.306">
  <defs>
    <style>
      .cls-1 {
        fill: #ffd6d7;
      }
    </style>
  </defs>
  <path class="cls-1" d="M60.06,0,54.909,7.049,49.758,0S18.387,11.5,54.909,48.228C91.431,11.5,60.06,0,60.06,0Z"/>
  <path class="cls-1"
        d="M101.812,43.914l5.749-6.569S89.467,9.255,61.633,52.935c43.836,27.589,48.185-5.539,48.185-5.539Z"/>
  <path class="cls-1"
        d="M59.952,61.676c-10.611,50.7,21.96,43.245,21.96,43.245l.478-8.716,8.159,3.1S110.588,72.572,59.952,61.676Z"/>
  <path class="cls-1"
        d="M49.867,61.676c-50.638,10.9-30.6,37.633-30.6,37.633l8.159-3.1.479,8.716S60.478,112.372,49.867,61.676Z"/>
  <path class="cls-1"
        d="M2.256,37.345l5.75,6.569L0,47.4s4.349,33.129,48.184,5.54C20.349,9.255,2.256,37.345,2.256,37.345Z"/>
  <path class="cls-1" d="M58.234,55.267a3.326,3.326,0,1,0-3.325,3.326A3.325,3.325,0,0,0,58.234,55.267Z"/>
</svg>
