<svg xmlns="http://www.w3.org/2000/svg" xmlns:xlink="http://www.w3.org/1999/xlink" viewBox="0 0 925 900">
  <defs>
    <symbol id="star" viewBox="0 0 52.491 50.193">
      <path class="cls-1"
            d="M40.75,50.193a2.777,2.777,0,0,1-1.3-.322l-9.13-4.8a8.771,8.771,0,0,0-8.159,0l-9.13,4.8a2.778,2.778,0,0,1-4.031-2.929l1.743-10.166a8.761,8.761,0,0,0-2.521-7.76l-7.386-7.2a2.777,2.777,0,0,1,1.54-4.737L12.588,15.6a8.764,8.764,0,0,0,6.6-4.8h0l4.566-9.25a2.777,2.777,0,0,1,4.981,0L33.3,10.8a8.765,8.765,0,0,0,6.6,4.8l10.209,1.483a2.777,2.777,0,0,1,1.539,4.737l-7.386,7.2a8.766,8.766,0,0,0-2.522,7.76l1.744,10.166a2.782,2.782,0,0,1-2.736,3.251Zm-14.5-8.13A10.762,10.762,0,0,1,31.256,43.3l9.13,4.8a.779.779,0,0,0,1.129-.822L39.77,37.114a10.77,10.77,0,0,1,3.1-9.53l7.387-7.2a.778.778,0,0,0-.431-1.327L39.615,17.573a10.763,10.763,0,0,1-8.107-5.889l-4.565-9.25a.777.777,0,0,0-1.4,0l-4.566,9.25h0a10.763,10.763,0,0,1-8.107,5.889L2.668,19.057a.778.778,0,0,0-.431,1.327l7.386,7.2a10.763,10.763,0,0,1,3.1,9.53L10.976,47.28a.779.779,0,0,0,1.129.822l9.13-4.8A10.773,10.773,0,0,1,26.245,42.063Z"/>
    </symbol>
    <symbol id="leaf" viewBox="0 0 42.553 52.214">
      <path class="cls-1"
            d="M4.027,52.214l-.265-.97c-5.776-21.1-4.9-36.018,2.611-44.344C14.134-1.706,25.967.138,26.465.221l.743.123,1.055,9.088L36.6,5.665l.487.574c.328.387,7.992,9.585,4.6,20.666C38.408,37.625,26.063,46.049,5,51.943Zm19.3-50.193c-3.793,0-10.629.841-15.48,6.233C.947,15.92.135,29.875,5.427,49.742,25.19,44.067,36.742,36.2,39.771,26.338c2.62-8.528-2.209-16.091-3.755-18.214l-9.424,4.257L25.4,2.11C24.91,2.066,24.2,2.021,23.325,2.021Z"/>
    </symbol>
    <symbol id="drum" viewBox="0 0 65.2 58.381">
      <path class="cls-1"
            d="M53.257,33.613h0c.448-2.871-2.851-4.5-7.941-6.07a120.921,120.921,0,0,0-16.107-3.518A120.882,120.882,0,0,0,12.8,22.467c-5.327-.058-8.966.491-9.414,3.361h0L.04,47.231h0c-.448,2.87,2.85,4.5,7.941,6.07a120.85,120.85,0,0,0,16.107,3.518A120.868,120.868,0,0,0,40.5,58.377c5.326.058,8.965-.491,9.413-3.361h0Zm-24.43-7.152C41.254,28.4,51.1,31.432,50.82,33.233S40.237,34.92,27.81,32.98,5.536,28.009,5.817,26.208,16.4,24.521,28.827,26.461Z"/>
      <path class="cls-1"
            d="M36.321,29.378h0c-.425-.665.187-1.788,1.367-2.6L60.7,9.549a3.06,3.06,0,0,1,4.118.3h0c.607.885.679,2.69-1.216,3.941L38.882,29.22C37.7,30.029,36.659,29.867,36.321,29.378Z"/>
      <path class="cls-1"
            d="M19.951,28.369h0c-.687.39-1.745-.234-2.451-1.395L2.3,4.287A2.958,2.958,0,0,1,2.9.329h0a2.751,2.751,0,0,1,3.785,1.29L19.99,25.9C20.7,27.058,20.457,28.059,19.951,28.369Z"/>
    </symbol>
    <symbol id="footprint" viewBox="0 0 56.989 51.767">
      <path class="cls-1"
            d="M18.105,51.767a12.539,12.539,0,0,1-1.905-.146A9.878,9.878,0,0,1,8.936,36.935a16.987,16.987,0,0,1,3.482-4.262,27.96,27.96,0,0,0,5-5.751,17.337,17.337,0,0,1,3.6-4.011A11.217,11.217,0,0,1,36.038,23a21.536,21.536,0,0,1,3.926,4.553,21.167,21.167,0,0,0,4.191,4.7c2.372,2.033,4.614,4.4,4.956,7.9a11.208,11.208,0,0,1-2.465,8.663,9.73,9.73,0,0,1-7.458,2.948,4.033,4.033,0,0,1-.605-.046l-.415-.047a16.073,16.073,0,0,1-4.8-1.26,9.832,9.832,0,0,0-9.677-.012A11.916,11.916,0,0,1,18.105,51.767ZM28.5,22.053a9.581,9.581,0,0,0-6.188,2.387,15.39,15.39,0,0,0-3.193,3.539,29.885,29.885,0,0,1-5.346,6.167,15.02,15.02,0,0,0-3.079,3.744A7.881,7.881,0,0,0,16.5,49.645a9.935,9.935,0,0,0,6.257-1.024,11.832,11.832,0,0,1,11.506-.007,14.319,14.319,0,0,0,4.118,1.061l.433.049a2.47,2.47,0,0,0,.371.032,7.7,7.7,0,0,0,5.979-2.293,9.229,9.229,0,0,0,1.955-7.123c-.259-2.642-1.893-4.539-4.267-6.573a23.089,23.089,0,0,1-4.573-5.137,19.507,19.507,0,0,0-3.555-4.123A9.452,9.452,0,0,0,28.5,22.053Z"/>
      <path class="cls-1"
            d="M20.635,19.538a7.216,7.216,0,0,1-5.008-2.058,11.351,11.351,0,0,1-.852-14.788A7.031,7.031,0,0,1,19.92,0,6.981,6.981,0,0,1,25.2,2.261,11.7,11.7,0,0,1,28.3,10.255a11.7,11.7,0,0,1-1.325,5.194,6.893,6.893,0,0,1-5.006,3.963A7.209,7.209,0,0,1,20.635,19.538ZM20.161,2c-.055,0-.11,0-.165,0a5.054,5.054,0,0,0-3.679,1.963,9.391,9.391,0,0,0,.692,12.07A5.185,5.185,0,0,0,21.6,17.447a4.912,4.912,0,0,0,3.562-2.832A9.659,9.659,0,0,0,26.3,10.187a9.718,9.718,0,0,0-2.548-6.539A5.011,5.011,0,0,0,20.161,2Z"/>
      <path class="cls-1"
            d="M36.278,19.538a6.785,6.785,0,0,1-1.373-.14,7.077,7.077,0,0,1-5.162-4.462l-.2-.483a10.606,10.606,0,0,1-.9-4h0a11.269,11.269,0,0,1,3.012-8.087,6.767,6.767,0,0,1,10.51.291c3.329,3.981,3.021,10.954-.644,14.629A7.442,7.442,0,0,1,36.278,19.538ZM36.8,2.007a5.046,5.046,0,0,0-3.678,1.725,9.181,9.181,0,0,0-2.481,6.574h0a8.68,8.68,0,0,0,.752,3.385l.206.507a5.109,5.109,0,0,0,3.706,3.241,5.243,5.243,0,0,0,4.8-1.562,9.532,9.532,0,0,0,.526-11.934A5.043,5.043,0,0,0,36.92,2.008Z"/>
      <path class="cls-1"
            d="M7.888,30.929a7.185,7.185,0,0,1-5.5-2.682,10.252,10.252,0,0,1-.98-11.755A7,7,0,0,1,6.5,13.1a7.027,7.027,0,0,1,5.74,2.121,10.307,10.307,0,0,1,2.907,7.41v.057l-.006.056c-.02.207-.035.415-.05.623a13,13,0,0,1-.171,1.517c-.587,3.091-2.264,5.028-4.982,5.759A7.929,7.929,0,0,1,7.888,30.929ZM7.26,15.06a4.651,4.651,0,0,0-.526.03,4.959,4.959,0,0,0-3.627,2.454,8.3,8.3,0,0,0,.784,9.385,5.083,5.083,0,0,0,5.531,1.786c1.968-.528,3.092-1.863,3.536-4.2a11.38,11.38,0,0,0,.141-1.288c.015-.205.03-.409.049-.613a8.251,8.251,0,0,0-2.318-5.973A5.057,5.057,0,0,0,7.26,15.06Z"/>
      <path class="cls-1"
            d="M48.928,30.968a6.776,6.776,0,0,1-2.011-.3,7.026,7.026,0,0,1-4.744-5.243c-.913-3.935-.131-7.281,2.323-9.944a7.033,7.033,0,0,1,6.052-2.389,6.927,6.927,0,0,1,5.188,3.787A12.927,12.927,0,0,1,56.763,19.8c.065.254.12.477.176.649l.05.159,0,.167c-.08,3.755-1.04,6.282-3.111,8.194A7.3,7.3,0,0,1,48.928,30.968Zm.815-15.931a5.188,5.188,0,0,0-3.776,1.8c-2.007,2.178-2.61,4.839-1.845,8.136a4.981,4.981,0,0,0,3.383,3.785A5.133,5.133,0,0,0,52.518,27.5c1.634-1.507,2.375-3.49,2.465-6.61-.05-.172-.1-.373-.158-.6a11.334,11.334,0,0,0-.854-2.478,4.957,4.957,0,0,0-3.678-2.743A4.231,4.231,0,0,0,49.743,15.037Z"/>
    </symbol>
    <symbol id="sakura" viewBox="0 0 55.909 53.675">
      <path class="cls-1" d="M30.47,0,27.864,3.6,25.225.023S9.28,5.949,27.956,24.565C46.467,5.784,30.47,0,30.47,0Z"/>
      <path class="cls-1"
            d="M51.825,22.263l2.912-3.357s-9.275-14.26-23.347,8.04c22.379,13.947,24.519-2.928,24.519-2.928Z"/>
      <path class="cls-1"
            d="M30.554,31.4C25.266,57.234,41.832,53.367,41.832,53.367l.223-4.439,4.161,1.562S56.357,36.833,30.554,31.4Z"/>
      <path class="cls-1"
            d="M25.42,31.423C-.336,37.084,9.926,50.65,9.926,50.65l4.147-1.6.263,4.436S30.936,57.208,25.42,31.423Z"/>
      <path class="cls-1"
            d="M1.126,19.143l2.942,3.331L0,24.264s2.288,16.857,24.543,2.712C10.274,4.8,1.126,19.143,1.126,19.143Z"/>
      <path class="cls-1" d="M29.665,28.141a1.693,1.693,0,1,0-1.685,1.7A1.692,1.692,0,0,0,29.665,28.141Z"/>
    </symbol>
    <symbol id="bow" viewBox="0 0 57.186 33.709">
      <path class="cls-1"
            d="M24.125,7.044a11.471,11.471,0,0,0-.031,6.923c-.026.022-.051.045-.078.064a31.935,31.935,0,0,1-5.156,3,21.278,21.278,0,0,1-3.54,1.254,18.773,18.773,0,0,1-1.852.368,15.921,15.921,0,0,1-2.886.161,6.851,6.851,0,0,1-2.652-.61,5.19,5.19,0,0,1-2.31-2.023,5.13,5.13,0,0,1-.7-1.958,6.686,6.686,0,0,1,.293-3.04c.056-.178.12-.355.188-.529a5.548,5.548,0,0,0,.356-1.328,3.521,3.521,0,0,0-.051-1.3,2.287,2.287,0,0,0-.074-.244,13.815,13.815,0,0,1-.59-2.112,7.8,7.8,0,0,1-.15-1.778,4.609,4.609,0,0,1,.27-1.432A3.309,3.309,0,0,1,6.614.735,4.816,4.816,0,0,1,8.037.185,7.581,7.581,0,0,1,9.47.006a11.279,11.279,0,0,1,1.918.1A16.415,16.415,0,0,1,17.34,2.143a40.757,40.757,0,0,1,4.948,3.313c.58.456,1.143.933,1.681,1.439Z"/>
      <path class="cls-1"
            d="M33.437,14.685c.025-.059.046-.111.069-.161a9.41,9.41,0,0,0,.753-2.5,10.227,10.227,0,0,0,.106-2.155,11.386,11.386,0,0,0-.647-3.209c-.01-.027-.018-.054-.027-.081a.207.207,0,0,1,0-.026c.022-.054.08-.085.126-.124.618-.527,1.259-1.025,1.916-1.5A42.892,42.892,0,0,1,39.7,2.376,16.612,16.612,0,0,1,43.713.762,14.6,14.6,0,0,1,45.565.4,10.593,10.593,0,0,1,47.858.325,6.239,6.239,0,0,1,49.852.8a3.643,3.643,0,0,1,1.282.909A3.426,3.426,0,0,1,51.9,3.19a5.246,5.246,0,0,1,.14,1.385,9.234,9.234,0,0,1-.289,2.018,14.49,14.49,0,0,1-.463,1.512,2.511,2.511,0,0,0-.136.648,4.428,4.428,0,0,0,.227,1.777c.073.221.16.437.238.656a7.645,7.645,0,0,1,.407,1.667,5.748,5.748,0,0,1-.325,2.845,5.055,5.055,0,0,1-2.311,2.61,6.315,6.315,0,0,1-1.917.68,9.211,9.211,0,0,1-1.9.136,17.6,17.6,0,0,1-4.888-.8,23.8,23.8,0,0,1-4.313-1.839c-.96-.519-1.887-1.091-2.792-1.7C33.529,14.756,33.485,14.721,33.437,14.685Z"/>
      <path class="cls-1"
            d="M10.05,25.179a1.606,1.606,0,0,0-.163.016q-.624.133-1.257.217c-.337.044-.676.084-1.014.117-.356.035-.712.067-1.069.087q-.612.036-1.225.047c-.368.007-.738.006-1.106,0q-.911-.024-1.817-.122a17.673,17.673,0,0,1-2.228-.384c-.055-.013-.11-.03-.164-.046L0,25.094c0-.01,0-.026.008-.03l8.715-5.625c.22.046.425.092.631.131a8.765,8.765,0,0,0,1.625.141c.477,0,.954-.009,1.429-.046.509-.041,1.016-.1,1.52-.183a21.468,21.468,0,0,0,5.884-1.916,33.139,33.139,0,0,0,4.4-2.588l.31-.212a8.959,8.959,0,0,0,1.141.62,9.2,9.2,0,0,0,1.2.425c0,.069-.041.1-.07.14-.561.728-1.114,1.463-1.687,2.182q-2.658,3.341-5.633,6.4a76.751,76.751,0,0,1-8.039,7.242q-1.23.956-2.506,1.851c-.041.029-.084.055-.123.08-.049-.028-.029-.065-.024-.094.046-.32.1-.64.144-.959q.112-.732.224-1.464l.225-1.48.219-1.447q.111-.732.223-1.464.117-.774.233-1.548C10.049,25.236,10.049,25.219,10.05,25.179Z"/>
      <path class="cls-1"
            d="M48.755,19.56l8.4,5.418a.146.146,0,0,1,.029.033c0,.037-.03.035-.05.04a13.64,13.64,0,0,1-1.551.31c-.438.059-.877.117-1.318.156-.576.052-1.155.076-1.734.081s-1.17-.006-1.753-.043c-.487-.031-.973-.078-1.459-.122-.508-.047-1.014-.12-1.517-.21-.15-.026-.3-.057-.451-.086l-.211-.038a.555.555,0,0,0,0,.105q.212,1.4.426,2.793.188,1.227.374,2.456l.354,2.357c.038.252.079.5.118.757,0,.021,0,.043,0,.07-.07,0-.108-.046-.152-.077-.415-.3-.833-.592-1.244-.9a70.958,70.958,0,0,1-5.964-4.94q-3.046-2.807-5.8-5.9Q32.82,19.1,30.617,16.182c-.04-.053-.079-.109-.124-.17a.246.246,0,0,1,.143-.05,9.73,9.73,0,0,0,1.489-.35c.211-.067.417-.147.626-.221.026-.009.054-.016.091-.026l.165.109a33.9,33.9,0,0,0,3.507,2.092,23.512,23.512,0,0,0,4.5,1.78,19.022,19.022,0,0,0,2.431.5,17.176,17.176,0,0,0,2.785.16,8.291,8.291,0,0,0,2.439-.418Z"/>
      <path class="cls-1"
            d="M33.5,10.385a8.874,8.874,0,0,1-.881,3.943c-.117.241-.056.188-.306.282a9.248,9.248,0,0,1-1.957.5,8.625,8.625,0,0,1-1.408.1,7.327,7.327,0,0,1-3.679-1.02.774.774,0,0,0-.073-.043.3.3,0,0,1-.167-.2c-.068-.228-.147-.453-.209-.683a10.669,10.669,0,0,1-.334-3.423A10.183,10.183,0,0,1,25.237,6.6a.368.368,0,0,1,.164-.186,6.586,6.586,0,0,1,1.7-.692,6.956,6.956,0,0,1,2.125-.214,7.871,7.871,0,0,1,2.545.572c.283.115.557.252.837.377a.28.28,0,0,1,.154.169,10.473,10.473,0,0,1,.741,3.759Z"/>
    </symbol>
    <symbol id="sample" viewBox="0 0 925 58" preserveAspectRatio="xMinYMin meet">
      <use xlink:href="#star" width="52.5" y="0"/>
      <use xlink:href="#bow" width="57" x="155" y="5"/>
      <use xlink:href="#leaf" width="42.5" x="310" y="0"/>
      <use xlink:href="#sakura" width="56" x="465" y="0"/>
      <use xlink:href="#footprint" width="57" x="620" y="0"/>
      <use xlink:href="#drum" width="65.2" x="775" y="0"/>
    </symbol>
    <style>
      .cls-1 {
        fill: #fff;
      }</style>
  </defs>
  <g>
    <use xlink:href="#sample" width="925" x="0"/>
    <use xlink:href="#sample" width="925" x="925"/>
  </g>
  <g transform="translate(-155, 150)">
    <use xlink:href="#sample" width="925" x="0"/>
    <use xlink:href="#sample" width="925" x="925"/>
  </g>
  <g transform="translate(-310, 300)">
    <use xlink:href="#sample" width="925" x="0"/>
    <use xlink:href="#sample" width="925" x="925"/>
  </g>
  <g transform="translate(-155, 450)">
    <use xlink:href="#sample" width="925" x="0"/>
    <use xlink:href="#sample" width="925" x="925"/>
  </g>
  <g transform="translate(0, 600)">
    <use xlink:href="#sample" width="925" x="0"/>
    <use xlink:href="#sample" width="925" x="925"/>
  </g>
  <g transform="translate(-770, 750)">
    <use xlink:href="#sample" width="925" x="0"/>
    <use xlink:href="#sample" width="925" x="925"/>
  </g>
</svg>
