<svg xmlns="http://www.w3.org/2000/svg" viewBox="0 0 548 55">
  <defs>
    <style>.cls-1 {
      fill: #b5dbff;
    }</style>
  </defs>
  <path class="cls-1"
        d="M548.616,35.66l-.054-15.6c-35.294.121-53.215,3.844-70.545,7.444-17.111,3.554-33.273,6.911-66.547,7.025h-.648c-31.441,0-46.967-7.865-63.394-16.188C329.623,9.326,311.218,0,275.005,0h-.725c-36.687.125-55.19,9.64-73.085,18.841-16.52,8.494-32.125,16.518-64.008,16.627C103.931,35.59,87.729,32.336,70.6,28.9,53.241,25.417,35.3,21.834,0,21.938L.053,37.3V55.343H124.728c3.417.083,7.007.129,10.812.129l1.715,0q3.342-.011,6.485-.126H548.631V35.66Z"/>
</svg>
